G04 (created by PCBNEW (2013-mar-13)-testing) date dom 25 ago 2013 18:51:32 ART*
%MOIN*%
G04 Gerber Fmt 3.4, Leading zero omitted, Abs format*
%FSLAX34Y34*%
G01*
G70*
G90*
G04 APERTURE LIST*
%ADD10C,0.003937*%
%ADD11C,0.005906*%
%ADD12C,0.000100*%
%ADD13C,0.015000*%
%ADD14C,0.012000*%
%ADD15C,0.005000*%
%ADD16C,0.008000*%
%ADD17C,0.003000*%
%ADD18C,0.010000*%
%ADD19C,0.006000*%
%ADD20C,0.012500*%
%ADD21C,0.003500*%
%ADD22C,0.011250*%
%ADD23C,0.007500*%
G04 APERTURE END LIST*
G54D10*
G54D11*
X31496Y-40944D02*
X31496Y-60629D01*
X64960Y-40944D02*
X31496Y-40944D01*
X64960Y-60629D02*
X64960Y-40944D01*
X31496Y-60629D02*
X64960Y-60629D01*
G54D12*
G36*
X61122Y-43652D02*
X60792Y-43652D01*
X60792Y-42819D01*
X60682Y-42626D01*
X60514Y-42333D01*
X60376Y-42097D01*
X60269Y-41916D01*
X60191Y-41789D01*
X60140Y-41712D01*
X60116Y-41686D01*
X60095Y-41713D01*
X60046Y-41787D01*
X59978Y-41897D01*
X59895Y-42033D01*
X59844Y-42118D01*
X59844Y-41664D01*
X59844Y-41663D01*
X59808Y-41660D01*
X59716Y-41657D01*
X59578Y-41657D01*
X59405Y-41657D01*
X59206Y-41659D01*
X59177Y-41659D01*
X58524Y-41669D01*
X58848Y-42226D01*
X58949Y-42399D01*
X59039Y-42550D01*
X59113Y-42670D01*
X59166Y-42751D01*
X59191Y-42784D01*
X59192Y-42785D01*
X59214Y-42757D01*
X59264Y-42681D01*
X59336Y-42565D01*
X59425Y-42417D01*
X59525Y-42246D01*
X59534Y-42231D01*
X59634Y-42058D01*
X59719Y-41906D01*
X59786Y-41784D01*
X59829Y-41700D01*
X59844Y-41664D01*
X59844Y-42118D01*
X59805Y-42184D01*
X59713Y-42339D01*
X59626Y-42488D01*
X59551Y-42619D01*
X59494Y-42722D01*
X59461Y-42786D01*
X59455Y-42801D01*
X59487Y-42806D01*
X59575Y-42811D01*
X59710Y-42815D01*
X59882Y-42817D01*
X60081Y-42818D01*
X60123Y-42819D01*
X60792Y-42819D01*
X60792Y-43652D01*
X60718Y-43652D01*
X60718Y-43206D01*
X60686Y-43105D01*
X60666Y-43079D01*
X60582Y-43031D01*
X60466Y-43019D01*
X60322Y-43019D01*
X60322Y-43235D01*
X60322Y-43452D01*
X60461Y-43452D01*
X60576Y-43437D01*
X60658Y-43398D01*
X60661Y-43397D01*
X60709Y-43313D01*
X60718Y-43206D01*
X60718Y-43652D01*
X60255Y-43652D01*
X60255Y-43404D01*
X60224Y-43365D01*
X60147Y-43346D01*
X60081Y-43335D01*
X60047Y-43307D01*
X60033Y-43242D01*
X60028Y-43177D01*
X60017Y-43079D01*
X59996Y-43031D01*
X59956Y-43019D01*
X59953Y-43019D01*
X59918Y-43026D01*
X59898Y-43057D01*
X59890Y-43128D01*
X59888Y-43235D01*
X59888Y-43452D01*
X60072Y-43452D01*
X60184Y-43447D01*
X60241Y-43430D01*
X60255Y-43404D01*
X60255Y-43652D01*
X59820Y-43652D01*
X59820Y-43209D01*
X59796Y-43109D01*
X59769Y-43071D01*
X59684Y-43026D01*
X59583Y-43026D01*
X59486Y-43063D01*
X59414Y-43130D01*
X59388Y-43214D01*
X59408Y-43283D01*
X59456Y-43362D01*
X59457Y-43364D01*
X59548Y-43435D01*
X59654Y-43449D01*
X59754Y-43403D01*
X59761Y-43397D01*
X59808Y-43315D01*
X59820Y-43209D01*
X59820Y-43652D01*
X59322Y-43652D01*
X59322Y-43313D01*
X59296Y-43289D01*
X59238Y-43289D01*
X59178Y-43312D01*
X59161Y-43325D01*
X59111Y-43342D01*
X59063Y-43311D01*
X59034Y-43251D01*
X59037Y-43189D01*
X59076Y-43139D01*
X59134Y-43118D01*
X59183Y-43133D01*
X59194Y-43151D01*
X59226Y-43165D01*
X59253Y-43153D01*
X59283Y-43120D01*
X59260Y-43075D01*
X59257Y-43071D01*
X59182Y-43027D01*
X59085Y-43025D01*
X58995Y-43064D01*
X58972Y-43084D01*
X58950Y-43124D01*
X58950Y-42819D01*
X58616Y-42244D01*
X58514Y-42068D01*
X58424Y-41913D01*
X58351Y-41788D01*
X58300Y-41702D01*
X58276Y-41663D01*
X58275Y-41662D01*
X58257Y-41686D01*
X58213Y-41758D01*
X58148Y-41866D01*
X58068Y-42000D01*
X57981Y-42150D01*
X57892Y-42303D01*
X57807Y-42451D01*
X57733Y-42581D01*
X57676Y-42684D01*
X57642Y-42748D01*
X57637Y-42760D01*
X57633Y-42780D01*
X57645Y-42795D01*
X57681Y-42805D01*
X57749Y-42812D01*
X57858Y-42816D01*
X58015Y-42818D01*
X58228Y-42818D01*
X58282Y-42819D01*
X58950Y-42819D01*
X58950Y-43124D01*
X58920Y-43180D01*
X58919Y-43276D01*
X58958Y-43362D01*
X59027Y-43424D01*
X59115Y-43452D01*
X59209Y-43432D01*
X59261Y-43397D01*
X59308Y-43344D01*
X59322Y-43313D01*
X59322Y-43652D01*
X59072Y-43652D01*
X58822Y-43652D01*
X58822Y-43235D01*
X58819Y-43118D01*
X58810Y-43053D01*
X58789Y-43024D01*
X58755Y-43019D01*
X58719Y-43025D01*
X58699Y-43055D01*
X58690Y-43123D01*
X58688Y-43235D01*
X58690Y-43352D01*
X58699Y-43418D01*
X58720Y-43446D01*
X58755Y-43452D01*
X58791Y-43445D01*
X58811Y-43415D01*
X58820Y-43347D01*
X58822Y-43235D01*
X58822Y-43652D01*
X58588Y-43652D01*
X58588Y-43235D01*
X58586Y-43118D01*
X58577Y-43053D01*
X58556Y-43024D01*
X58522Y-43019D01*
X58474Y-43033D01*
X58456Y-43088D01*
X58454Y-43127D01*
X58454Y-43235D01*
X58384Y-43127D01*
X58306Y-43041D01*
X58235Y-43019D01*
X58192Y-43023D01*
X58168Y-43045D01*
X58157Y-43102D01*
X58155Y-43206D01*
X58155Y-43235D01*
X58156Y-43352D01*
X58165Y-43417D01*
X58185Y-43445D01*
X58225Y-43452D01*
X58238Y-43452D01*
X58300Y-43439D01*
X58321Y-43389D01*
X58323Y-43360D01*
X58324Y-43269D01*
X58392Y-43360D01*
X58456Y-43423D01*
X58520Y-43452D01*
X58524Y-43452D01*
X58559Y-43444D01*
X58578Y-43412D01*
X58587Y-43340D01*
X58588Y-43235D01*
X58588Y-43652D01*
X58088Y-43652D01*
X58088Y-43210D01*
X58088Y-43180D01*
X58084Y-43082D01*
X58069Y-43034D01*
X58034Y-43019D01*
X58022Y-43019D01*
X57977Y-43031D01*
X57958Y-43079D01*
X57954Y-43144D01*
X57941Y-43267D01*
X57904Y-43335D01*
X57845Y-43342D01*
X57842Y-43341D01*
X57805Y-43301D01*
X57789Y-43212D01*
X57788Y-43170D01*
X57784Y-43075D01*
X57766Y-43031D01*
X57727Y-43019D01*
X57722Y-43019D01*
X57681Y-43027D01*
X57661Y-43065D01*
X57655Y-43148D01*
X57655Y-43183D01*
X57668Y-43315D01*
X57704Y-43396D01*
X57707Y-43399D01*
X57791Y-43442D01*
X57898Y-43448D01*
X57998Y-43418D01*
X58027Y-43397D01*
X58071Y-43326D01*
X58088Y-43210D01*
X58088Y-43652D01*
X57022Y-43652D01*
X57022Y-42535D01*
X57022Y-41419D01*
X59072Y-41419D01*
X61122Y-41419D01*
X61122Y-42535D01*
X61122Y-43652D01*
X61122Y-43652D01*
X61122Y-43652D01*
G37*
G36*
X59713Y-43240D02*
X59702Y-43275D01*
X59644Y-43336D01*
X59585Y-43331D01*
X59562Y-43312D01*
X59526Y-43243D01*
X59532Y-43172D01*
X59574Y-43130D01*
X59640Y-43132D01*
X59693Y-43177D01*
X59713Y-43240D01*
X59713Y-43240D01*
X59713Y-43240D01*
G37*
G36*
X60613Y-43261D02*
X60569Y-43333D01*
X60509Y-43379D01*
X60473Y-43367D01*
X60457Y-43296D01*
X60455Y-43235D01*
X60458Y-43137D01*
X60472Y-43095D01*
X60509Y-43096D01*
X60557Y-43120D01*
X60612Y-43180D01*
X60613Y-43261D01*
X60613Y-43261D01*
X60613Y-43261D01*
G37*
G54D13*
X64285Y-42519D02*
G75*
G03X64285Y-42519I-900J0D01*
G74*
G01*
G54D11*
X62992Y-47637D02*
X62992Y-45669D01*
X63995Y-46653D02*
G75*
G03X63995Y-46653I-1003J0D01*
G74*
G01*
X62795Y-44685D02*
X60826Y-44685D01*
X60826Y-44685D02*
X60826Y-48622D01*
X60826Y-48622D02*
X64763Y-48622D01*
X64763Y-48622D02*
X64763Y-44685D01*
X64763Y-44685D02*
X62795Y-44685D01*
G54D14*
X59050Y-50696D02*
X57070Y-50696D01*
X57070Y-50696D02*
X57070Y-49696D01*
X57070Y-49696D02*
X59070Y-49696D01*
X59070Y-49696D02*
X59070Y-50696D01*
X59070Y-50446D02*
X58820Y-50696D01*
X49995Y-55814D02*
X48015Y-55814D01*
X48015Y-55814D02*
X48015Y-54814D01*
X48015Y-54814D02*
X50015Y-54814D01*
X50015Y-54814D02*
X50015Y-55814D01*
X50015Y-55564D02*
X49765Y-55814D01*
X41035Y-49995D02*
X41035Y-48015D01*
X41035Y-48015D02*
X42035Y-48015D01*
X42035Y-48015D02*
X42035Y-50015D01*
X42035Y-50015D02*
X41035Y-50015D01*
X41285Y-50015D02*
X41035Y-49765D01*
X40546Y-45185D02*
X38566Y-45185D01*
X38566Y-45185D02*
X38566Y-44185D01*
X38566Y-44185D02*
X40566Y-44185D01*
X40566Y-44185D02*
X40566Y-45185D01*
X40566Y-44935D02*
X40316Y-45185D01*
G54D15*
X62125Y-54448D02*
X62125Y-54488D01*
X64842Y-56338D02*
X61496Y-56338D01*
X62124Y-54498D02*
G75*
G03X62124Y-56308I1042J-905D01*
G74*
G01*
X64328Y-55128D02*
X64249Y-55266D01*
X64328Y-55914D02*
X64249Y-55776D01*
X64328Y-55128D02*
X64328Y-54616D01*
X64840Y-55266D02*
X64249Y-55266D01*
X64840Y-55776D02*
X64249Y-55776D01*
X64249Y-55776D02*
X64249Y-55914D01*
X64249Y-55266D02*
X64249Y-56338D01*
X64249Y-55128D02*
X64249Y-55266D01*
X64643Y-55128D02*
X64643Y-54616D01*
X64840Y-55266D02*
X64840Y-56338D01*
X64840Y-54616D02*
X64840Y-55266D01*
X64643Y-55914D02*
X64328Y-55914D01*
X64840Y-55776D02*
X64643Y-55914D01*
X64643Y-55128D02*
X64840Y-55266D01*
X64328Y-55128D02*
X64643Y-55128D01*
X64249Y-55128D02*
X64249Y-54616D01*
X64840Y-50679D02*
X61494Y-50679D01*
X62124Y-52490D02*
X62124Y-52647D01*
X62124Y-52648D02*
G75*
G03X62124Y-54458I1042J-905D01*
G74*
G01*
X64328Y-53160D02*
X64249Y-53298D01*
X64328Y-53946D02*
X64249Y-53808D01*
X64328Y-53946D02*
X64328Y-54616D01*
X64328Y-53160D02*
X64328Y-52018D01*
X64840Y-53298D02*
X64249Y-53298D01*
X64840Y-53808D02*
X64249Y-53808D01*
X64249Y-53808D02*
X64249Y-53946D01*
X64249Y-53298D02*
X64249Y-53808D01*
X64249Y-53160D02*
X64249Y-53298D01*
X61494Y-56338D02*
X61494Y-50679D01*
X64643Y-53946D02*
X64643Y-54616D01*
X64643Y-53160D02*
X64643Y-52018D01*
X64840Y-53808D02*
X64840Y-54616D01*
X64840Y-53298D02*
X64840Y-53808D01*
X64840Y-52018D02*
X64840Y-53298D01*
X64643Y-53946D02*
X64328Y-53946D01*
X64840Y-53808D02*
X64643Y-53946D01*
X64643Y-53160D02*
X64840Y-53298D01*
X64328Y-53160D02*
X64643Y-53160D01*
X64249Y-53160D02*
X64249Y-52018D01*
X64249Y-53946D02*
X64249Y-54616D01*
X64249Y-51977D02*
X64249Y-53119D01*
X64249Y-51191D02*
X64249Y-50679D01*
X64328Y-51191D02*
X64643Y-51191D01*
X64643Y-51191D02*
X64840Y-51329D01*
X64840Y-51839D02*
X64643Y-51977D01*
X64643Y-51977D02*
X64328Y-51977D01*
X64840Y-50679D02*
X64840Y-51329D01*
X64840Y-51329D02*
X64840Y-51839D01*
X64840Y-51839D02*
X64840Y-53119D01*
X64643Y-51191D02*
X64643Y-50679D01*
X64643Y-51977D02*
X64643Y-53119D01*
X64249Y-51191D02*
X64249Y-51329D01*
X64249Y-51329D02*
X64249Y-51839D01*
X64249Y-51839D02*
X64249Y-51977D01*
X64840Y-51839D02*
X64249Y-51839D01*
X64840Y-51329D02*
X64249Y-51329D01*
X64328Y-51191D02*
X64328Y-50679D01*
X64328Y-51977D02*
X64328Y-53119D01*
X64328Y-51977D02*
X64249Y-51839D01*
X64328Y-51191D02*
X64249Y-51329D01*
X62124Y-50679D02*
G75*
G03X62124Y-52489I1042J-905D01*
G74*
G01*
G54D16*
X39492Y-43322D02*
X36492Y-43322D01*
X36492Y-41322D02*
X39492Y-41322D01*
X39492Y-41322D02*
X39492Y-43322D01*
X36492Y-43322D02*
X36492Y-41322D01*
X42852Y-58230D02*
X42852Y-56730D01*
G54D17*
X42539Y-57480D02*
G75*
G03X42539Y-57480I-707J0D01*
G74*
G01*
G54D18*
X42831Y-56729D02*
G75*
G03X42832Y-58230I-999J-751D01*
G74*
G01*
G54D19*
X41832Y-57030D02*
G75*
G03X41382Y-57480I0J-450D01*
G74*
G01*
X41832Y-57930D02*
G75*
G03X42282Y-57480I0J450D01*
G74*
G01*
X41832Y-56830D02*
G75*
G03X41182Y-57480I0J-650D01*
G74*
G01*
X41832Y-58130D02*
G75*
G03X42482Y-57480I0J650D01*
G74*
G01*
X41832Y-56630D02*
G75*
G03X40982Y-57480I0J-850D01*
G74*
G01*
X41832Y-58330D02*
G75*
G03X42682Y-57480I0J850D01*
G74*
G01*
G54D16*
X38521Y-58230D02*
X38521Y-56730D01*
G54D17*
X38208Y-57480D02*
G75*
G03X38208Y-57480I-707J0D01*
G74*
G01*
G54D18*
X38500Y-56729D02*
G75*
G03X38501Y-58230I-999J-751D01*
G74*
G01*
G54D19*
X37501Y-57030D02*
G75*
G03X37051Y-57480I0J-450D01*
G74*
G01*
X37501Y-57930D02*
G75*
G03X37951Y-57480I0J450D01*
G74*
G01*
X37501Y-56830D02*
G75*
G03X36851Y-57480I0J-650D01*
G74*
G01*
X37501Y-58130D02*
G75*
G03X38151Y-57480I0J650D01*
G74*
G01*
X37501Y-56630D02*
G75*
G03X36651Y-57480I0J-850D01*
G74*
G01*
X37501Y-58330D02*
G75*
G03X38351Y-57480I0J850D01*
G74*
G01*
X60251Y-46153D02*
X60251Y-47153D01*
X60251Y-47153D02*
X58251Y-47153D01*
X58251Y-47153D02*
X58251Y-46153D01*
X58251Y-46153D02*
X60251Y-46153D01*
X44078Y-45381D02*
X44078Y-44381D01*
X44078Y-44381D02*
X46078Y-44381D01*
X46078Y-44381D02*
X46078Y-45381D01*
X46078Y-45381D02*
X44078Y-45381D01*
X40566Y-45956D02*
X40566Y-46956D01*
X40566Y-46956D02*
X38566Y-46956D01*
X38566Y-46956D02*
X38566Y-45956D01*
X38566Y-45956D02*
X40566Y-45956D01*
G54D16*
X56964Y-48622D02*
X57164Y-48622D01*
X59964Y-48622D02*
X59764Y-48622D01*
X59764Y-48622D02*
X59764Y-48222D01*
X59764Y-48222D02*
X57164Y-48222D01*
X57164Y-48222D02*
X57164Y-49022D01*
X57164Y-49022D02*
X59764Y-49022D01*
X59764Y-49022D02*
X59764Y-48622D01*
X57164Y-48422D02*
X57364Y-48222D01*
X43700Y-53224D02*
X43700Y-53424D01*
X43700Y-56224D02*
X43700Y-56024D01*
X43700Y-56024D02*
X44100Y-56024D01*
X44100Y-56024D02*
X44100Y-53424D01*
X44100Y-53424D02*
X43300Y-53424D01*
X43300Y-53424D02*
X43300Y-56024D01*
X43300Y-56024D02*
X43700Y-56024D01*
X43900Y-53424D02*
X44100Y-53624D01*
X57358Y-54330D02*
X57558Y-54330D01*
X60358Y-54330D02*
X60158Y-54330D01*
X60158Y-54330D02*
X60158Y-53930D01*
X60158Y-53930D02*
X57558Y-53930D01*
X57558Y-53930D02*
X57558Y-54730D01*
X57558Y-54730D02*
X60158Y-54730D01*
X60158Y-54730D02*
X60158Y-54330D01*
X57558Y-54130D02*
X57758Y-53930D01*
X39370Y-53224D02*
X39370Y-53424D01*
X39370Y-56224D02*
X39370Y-56024D01*
X39370Y-56024D02*
X39770Y-56024D01*
X39770Y-56024D02*
X39770Y-53424D01*
X39770Y-53424D02*
X38970Y-53424D01*
X38970Y-53424D02*
X38970Y-56024D01*
X38970Y-56024D02*
X39370Y-56024D01*
X39570Y-53424D02*
X39770Y-53624D01*
X49334Y-51771D02*
X49134Y-51771D01*
X46334Y-51771D02*
X46534Y-51771D01*
X46534Y-51771D02*
X46534Y-52171D01*
X46534Y-52171D02*
X49134Y-52171D01*
X49134Y-52171D02*
X49134Y-51371D01*
X49134Y-51371D02*
X46534Y-51371D01*
X46534Y-51371D02*
X46534Y-51771D01*
X49134Y-51971D02*
X48934Y-52171D01*
X40429Y-41929D02*
X40629Y-41929D01*
X43429Y-41929D02*
X43229Y-41929D01*
X43229Y-41929D02*
X43229Y-41529D01*
X43229Y-41529D02*
X40629Y-41529D01*
X40629Y-41529D02*
X40629Y-42329D01*
X40629Y-42329D02*
X43229Y-42329D01*
X43229Y-42329D02*
X43229Y-41929D01*
X40629Y-41729D02*
X40829Y-41529D01*
G54D19*
X50893Y-46759D02*
X49893Y-46759D01*
X49893Y-45759D02*
X50893Y-45759D01*
X49893Y-46759D02*
X49893Y-45759D01*
X50893Y-45759D02*
X50893Y-46759D01*
X43807Y-46759D02*
X42807Y-46759D01*
X42807Y-45759D02*
X43807Y-45759D01*
X42807Y-46759D02*
X42807Y-45759D01*
X43807Y-45759D02*
X43807Y-46759D01*
X52074Y-46759D02*
X51074Y-46759D01*
X51074Y-45759D02*
X52074Y-45759D01*
X51074Y-46759D02*
X51074Y-45759D01*
X52074Y-45759D02*
X52074Y-46759D01*
X47350Y-46759D02*
X46350Y-46759D01*
X46350Y-45759D02*
X47350Y-45759D01*
X46350Y-46759D02*
X46350Y-45759D01*
X47350Y-45759D02*
X47350Y-46759D01*
X53255Y-46759D02*
X52255Y-46759D01*
X52255Y-45759D02*
X53255Y-45759D01*
X52255Y-46759D02*
X52255Y-45759D01*
X53255Y-45759D02*
X53255Y-46759D01*
X45972Y-46759D02*
X44972Y-46759D01*
X44972Y-45759D02*
X45972Y-45759D01*
X44972Y-46759D02*
X44972Y-45759D01*
X45972Y-45759D02*
X45972Y-46759D01*
X49515Y-46759D02*
X48515Y-46759D01*
X48515Y-45759D02*
X49515Y-45759D01*
X48515Y-46759D02*
X48515Y-45759D01*
X49515Y-45759D02*
X49515Y-46759D01*
G54D13*
X42334Y-48515D02*
X42834Y-48515D01*
X42834Y-48515D02*
X42834Y-49515D01*
X42834Y-49515D02*
X42334Y-49515D01*
X42334Y-48015D02*
X53334Y-48015D01*
X53334Y-48015D02*
X53334Y-50015D01*
X53334Y-50015D02*
X42334Y-50015D01*
X42334Y-50015D02*
X42334Y-48015D01*
G54D20*
X49084Y-52543D02*
X46584Y-52543D01*
X49084Y-54543D02*
X46584Y-54543D01*
X45584Y-53543D02*
G75*
G03X46584Y-54543I1000J0D01*
G74*
G01*
X46584Y-52543D02*
G75*
G03X45584Y-53543I0J-1000D01*
G74*
G01*
X49084Y-54543D02*
G75*
G03X50084Y-53543I0J1000D01*
G74*
G01*
X50084Y-53543D02*
G75*
G03X49084Y-52543I-1000J0D01*
G74*
G01*
G54D14*
X45673Y-54814D02*
X47653Y-54814D01*
X47653Y-54814D02*
X47653Y-55814D01*
X47653Y-55814D02*
X45653Y-55814D01*
X45653Y-55814D02*
X45653Y-54814D01*
X45653Y-55064D02*
X45903Y-54814D01*
G54D15*
X38796Y-48425D02*
G75*
G03X38796Y-48425I-1001J0D01*
G74*
G01*
G54D16*
X31677Y-44287D02*
X31677Y-57287D01*
X33677Y-57287D02*
X33677Y-44287D01*
X33677Y-44287D02*
X31677Y-44287D01*
X31677Y-57287D02*
X33677Y-57287D01*
G54D13*
X33970Y-59055D02*
G75*
G03X33970Y-59055I-900J0D01*
G74*
G01*
X33970Y-42519D02*
G75*
G03X33970Y-42519I-900J0D01*
G74*
G01*
X64285Y-59055D02*
G75*
G03X64285Y-59055I-900J0D01*
G74*
G01*
G54D18*
X62995Y-41500D02*
X62766Y-41500D01*
X62881Y-41500D02*
X62881Y-41100D01*
X62842Y-41157D01*
X62804Y-41195D01*
X62766Y-41214D01*
X63166Y-41500D02*
X63166Y-41100D01*
X63319Y-41100D01*
X63357Y-41119D01*
X63376Y-41138D01*
X63395Y-41176D01*
X63395Y-41233D01*
X63376Y-41272D01*
X63357Y-41291D01*
X63319Y-41310D01*
X63166Y-41310D01*
X63566Y-41500D02*
X63566Y-41100D01*
X63757Y-41500D02*
X63757Y-41100D01*
X63985Y-41500D01*
X63985Y-41100D01*
G54D14*
X63416Y-47474D02*
X62816Y-47474D01*
X62816Y-47284D01*
X62845Y-47236D01*
X62873Y-47213D01*
X62930Y-47189D01*
X63016Y-47189D01*
X63073Y-47213D01*
X63102Y-47236D01*
X63130Y-47284D01*
X63130Y-47474D01*
X62816Y-46879D02*
X62816Y-46784D01*
X62845Y-46736D01*
X62902Y-46689D01*
X63016Y-46665D01*
X63216Y-46665D01*
X63330Y-46689D01*
X63388Y-46736D01*
X63416Y-46784D01*
X63416Y-46879D01*
X63388Y-46927D01*
X63330Y-46974D01*
X63216Y-46998D01*
X63016Y-46998D01*
X62902Y-46974D01*
X62845Y-46927D01*
X62816Y-46879D01*
X62816Y-46522D02*
X62816Y-46236D01*
X63416Y-46379D02*
X62816Y-46379D01*
X63416Y-45808D02*
X63416Y-46094D01*
X63416Y-45951D02*
X62816Y-45951D01*
X62902Y-45998D01*
X62959Y-46046D01*
X62988Y-46094D01*
X61966Y-46686D02*
X61966Y-46924D01*
X62252Y-46948D01*
X62223Y-46924D01*
X62195Y-46877D01*
X62195Y-46758D01*
X62223Y-46710D01*
X62252Y-46686D01*
X62309Y-46663D01*
X62452Y-46663D01*
X62509Y-46686D01*
X62538Y-46710D01*
X62566Y-46758D01*
X62566Y-46877D01*
X62538Y-46924D01*
X62509Y-46948D01*
X62566Y-46448D02*
X61966Y-46448D01*
X62338Y-46401D02*
X62566Y-46258D01*
X62166Y-46258D02*
X62395Y-46448D01*
G54D16*
X57904Y-51239D02*
X57885Y-51258D01*
X57828Y-51277D01*
X57789Y-51277D01*
X57732Y-51258D01*
X57694Y-51220D01*
X57675Y-51182D01*
X57656Y-51106D01*
X57656Y-51049D01*
X57675Y-50973D01*
X57694Y-50934D01*
X57732Y-50896D01*
X57789Y-50877D01*
X57828Y-50877D01*
X57885Y-50896D01*
X57904Y-50915D01*
X58285Y-51277D02*
X58056Y-51277D01*
X58170Y-51277D02*
X58170Y-50877D01*
X58132Y-50934D01*
X58094Y-50973D01*
X58056Y-50992D01*
X48849Y-56357D02*
X48830Y-56376D01*
X48772Y-56395D01*
X48734Y-56395D01*
X48677Y-56376D01*
X48639Y-56338D01*
X48620Y-56300D01*
X48601Y-56224D01*
X48601Y-56167D01*
X48620Y-56091D01*
X48639Y-56053D01*
X48677Y-56014D01*
X48734Y-55995D01*
X48772Y-55995D01*
X48830Y-56014D01*
X48849Y-56034D01*
X49001Y-56034D02*
X49020Y-56014D01*
X49058Y-55995D01*
X49153Y-55995D01*
X49191Y-56014D01*
X49210Y-56034D01*
X49230Y-56072D01*
X49230Y-56110D01*
X49210Y-56167D01*
X48982Y-56395D01*
X49230Y-56395D01*
X40778Y-48982D02*
X40797Y-49001D01*
X40816Y-49058D01*
X40816Y-49096D01*
X40797Y-49153D01*
X40759Y-49191D01*
X40721Y-49210D01*
X40644Y-49230D01*
X40587Y-49230D01*
X40511Y-49210D01*
X40473Y-49191D01*
X40435Y-49153D01*
X40416Y-49096D01*
X40416Y-49058D01*
X40435Y-49001D01*
X40454Y-48982D01*
X40549Y-48639D02*
X40816Y-48639D01*
X40397Y-48734D02*
X40683Y-48830D01*
X40683Y-48582D01*
X39400Y-45727D02*
X39381Y-45746D01*
X39324Y-45765D01*
X39285Y-45765D01*
X39228Y-45746D01*
X39190Y-45708D01*
X39171Y-45670D01*
X39152Y-45594D01*
X39152Y-45537D01*
X39171Y-45461D01*
X39190Y-45423D01*
X39228Y-45385D01*
X39285Y-45365D01*
X39324Y-45365D01*
X39381Y-45385D01*
X39400Y-45404D01*
X39743Y-45365D02*
X39666Y-45365D01*
X39628Y-45385D01*
X39609Y-45404D01*
X39571Y-45461D01*
X39552Y-45537D01*
X39552Y-45689D01*
X39571Y-45727D01*
X39590Y-45746D01*
X39628Y-45765D01*
X39705Y-45765D01*
X39743Y-45746D01*
X39762Y-45727D01*
X39781Y-45689D01*
X39781Y-45594D01*
X39762Y-45556D01*
X39743Y-45537D01*
X39705Y-45518D01*
X39628Y-45518D01*
X39590Y-45537D01*
X39571Y-45556D01*
X39552Y-45594D01*
G54D11*
X63993Y-54271D02*
X64022Y-54300D01*
X64050Y-54386D01*
X64050Y-54443D01*
X64022Y-54529D01*
X63965Y-54586D01*
X63908Y-54614D01*
X63793Y-54643D01*
X63708Y-54643D01*
X63593Y-54614D01*
X63536Y-54586D01*
X63479Y-54529D01*
X63450Y-54443D01*
X63450Y-54386D01*
X63479Y-54300D01*
X63508Y-54271D01*
X63450Y-53900D02*
X63450Y-53786D01*
X63479Y-53729D01*
X63536Y-53671D01*
X63650Y-53643D01*
X63850Y-53643D01*
X63965Y-53671D01*
X64022Y-53729D01*
X64050Y-53786D01*
X64050Y-53900D01*
X64022Y-53957D01*
X63965Y-54014D01*
X63850Y-54043D01*
X63650Y-54043D01*
X63536Y-54014D01*
X63479Y-53957D01*
X63450Y-53900D01*
X64050Y-53386D02*
X63450Y-53386D01*
X64050Y-53043D01*
X63450Y-53043D01*
X64050Y-52443D02*
X64050Y-52786D01*
X64050Y-52614D02*
X63450Y-52614D01*
X63536Y-52671D01*
X63593Y-52729D01*
X63622Y-52786D01*
X62841Y-55200D02*
X62869Y-55114D01*
X62869Y-54971D01*
X62841Y-54914D01*
X62812Y-54886D01*
X62755Y-54857D01*
X62698Y-54857D01*
X62641Y-54886D01*
X62612Y-54914D01*
X62584Y-54971D01*
X62555Y-55086D01*
X62526Y-55143D01*
X62498Y-55171D01*
X62441Y-55200D01*
X62384Y-55200D01*
X62326Y-55171D01*
X62298Y-55143D01*
X62269Y-55086D01*
X62269Y-54943D01*
X62298Y-54857D01*
X62555Y-54600D02*
X62555Y-54400D01*
X62869Y-54314D02*
X62869Y-54600D01*
X62269Y-54600D01*
X62269Y-54314D01*
X62869Y-54057D02*
X62269Y-54057D01*
X62869Y-53714D01*
X62269Y-53714D01*
X62841Y-53457D02*
X62869Y-53371D01*
X62869Y-53229D01*
X62841Y-53171D01*
X62812Y-53143D01*
X62755Y-53114D01*
X62698Y-53114D01*
X62641Y-53143D01*
X62612Y-53171D01*
X62584Y-53229D01*
X62555Y-53343D01*
X62526Y-53400D01*
X62498Y-53429D01*
X62441Y-53457D01*
X62384Y-53457D01*
X62326Y-53429D01*
X62298Y-53400D01*
X62269Y-53343D01*
X62269Y-53200D01*
X62298Y-53114D01*
X62269Y-52743D02*
X62269Y-52629D01*
X62298Y-52571D01*
X62355Y-52514D01*
X62469Y-52486D01*
X62669Y-52486D01*
X62784Y-52514D01*
X62841Y-52571D01*
X62869Y-52629D01*
X62869Y-52743D01*
X62841Y-52800D01*
X62784Y-52857D01*
X62669Y-52886D01*
X62469Y-52886D01*
X62355Y-52857D01*
X62298Y-52800D01*
X62269Y-52743D01*
X62869Y-51886D02*
X62584Y-52086D01*
X62869Y-52229D02*
X62269Y-52229D01*
X62269Y-52000D01*
X62298Y-51943D01*
X62326Y-51914D01*
X62384Y-51886D01*
X62469Y-51886D01*
X62526Y-51914D01*
X62555Y-51943D01*
X62584Y-52000D01*
X62584Y-52229D01*
G54D16*
X37592Y-43794D02*
X37649Y-43813D01*
X37668Y-43832D01*
X37687Y-43870D01*
X37687Y-43927D01*
X37668Y-43965D01*
X37649Y-43984D01*
X37611Y-44003D01*
X37458Y-44003D01*
X37458Y-43603D01*
X37592Y-43603D01*
X37630Y-43622D01*
X37649Y-43641D01*
X37668Y-43679D01*
X37668Y-43718D01*
X37649Y-43756D01*
X37630Y-43775D01*
X37592Y-43794D01*
X37458Y-43794D01*
X37858Y-44003D02*
X37858Y-43603D01*
X37954Y-43603D01*
X38011Y-43622D01*
X38049Y-43660D01*
X38068Y-43699D01*
X38087Y-43775D01*
X38087Y-43832D01*
X38068Y-43908D01*
X38049Y-43946D01*
X38011Y-43984D01*
X37954Y-44003D01*
X37858Y-44003D01*
X38258Y-44003D02*
X38258Y-43603D01*
X38392Y-43889D01*
X38525Y-43603D01*
X38525Y-44003D01*
G54D21*
X41510Y-56116D02*
X41510Y-55816D01*
X41582Y-55816D01*
X41625Y-55830D01*
X41653Y-55858D01*
X41667Y-55887D01*
X41682Y-55944D01*
X41682Y-55987D01*
X41667Y-56044D01*
X41653Y-56073D01*
X41625Y-56101D01*
X41582Y-56116D01*
X41510Y-56116D01*
X41967Y-56116D02*
X41796Y-56116D01*
X41882Y-56116D02*
X41882Y-55816D01*
X41853Y-55858D01*
X41825Y-55887D01*
X41796Y-55901D01*
X41539Y-59116D02*
X41396Y-59116D01*
X41396Y-58816D01*
X41639Y-58958D02*
X41739Y-58958D01*
X41782Y-59116D02*
X41639Y-59116D01*
X41639Y-58816D01*
X41782Y-58816D01*
X41910Y-59116D02*
X41910Y-58816D01*
X41982Y-58816D01*
X42025Y-58830D01*
X42053Y-58858D01*
X42067Y-58887D01*
X42082Y-58944D01*
X42082Y-58987D01*
X42067Y-59044D01*
X42053Y-59073D01*
X42025Y-59101D01*
X41982Y-59116D01*
X41910Y-59116D01*
X37180Y-56116D02*
X37180Y-55816D01*
X37251Y-55816D01*
X37294Y-55830D01*
X37323Y-55858D01*
X37337Y-55887D01*
X37351Y-55944D01*
X37351Y-55987D01*
X37337Y-56044D01*
X37323Y-56073D01*
X37294Y-56101D01*
X37251Y-56116D01*
X37180Y-56116D01*
X37465Y-55844D02*
X37480Y-55830D01*
X37508Y-55816D01*
X37580Y-55816D01*
X37608Y-55830D01*
X37623Y-55844D01*
X37637Y-55873D01*
X37637Y-55901D01*
X37623Y-55944D01*
X37451Y-56116D01*
X37637Y-56116D01*
X37208Y-59116D02*
X37065Y-59116D01*
X37065Y-58816D01*
X37308Y-58958D02*
X37408Y-58958D01*
X37451Y-59116D02*
X37308Y-59116D01*
X37308Y-58816D01*
X37451Y-58816D01*
X37580Y-59116D02*
X37580Y-58816D01*
X37651Y-58816D01*
X37694Y-58830D01*
X37723Y-58858D01*
X37737Y-58887D01*
X37751Y-58944D01*
X37751Y-58987D01*
X37737Y-59044D01*
X37723Y-59073D01*
X37694Y-59101D01*
X37651Y-59116D01*
X37580Y-59116D01*
G54D19*
X59001Y-47239D02*
X59001Y-47453D01*
X58987Y-47496D01*
X58959Y-47524D01*
X58916Y-47539D01*
X58887Y-47539D01*
X59144Y-47539D02*
X59144Y-47239D01*
X59259Y-47239D01*
X59287Y-47253D01*
X59301Y-47267D01*
X59316Y-47296D01*
X59316Y-47339D01*
X59301Y-47367D01*
X59287Y-47382D01*
X59259Y-47396D01*
X59144Y-47396D01*
X59601Y-47539D02*
X59430Y-47539D01*
X59516Y-47539D02*
X59516Y-47239D01*
X59487Y-47282D01*
X59459Y-47310D01*
X59430Y-47324D01*
X44828Y-43967D02*
X44828Y-44181D01*
X44814Y-44224D01*
X44785Y-44253D01*
X44743Y-44267D01*
X44714Y-44267D01*
X44971Y-44267D02*
X44971Y-43967D01*
X45085Y-43967D01*
X45114Y-43981D01*
X45128Y-43996D01*
X45143Y-44024D01*
X45143Y-44067D01*
X45128Y-44096D01*
X45114Y-44110D01*
X45085Y-44124D01*
X44971Y-44124D01*
X45257Y-43996D02*
X45271Y-43981D01*
X45300Y-43967D01*
X45371Y-43967D01*
X45400Y-43981D01*
X45414Y-43996D01*
X45428Y-44024D01*
X45428Y-44053D01*
X45414Y-44096D01*
X45243Y-44267D01*
X45428Y-44267D01*
X39316Y-45505D02*
X39316Y-45719D01*
X39302Y-45762D01*
X39274Y-45790D01*
X39231Y-45805D01*
X39202Y-45805D01*
X39459Y-45805D02*
X39459Y-45505D01*
X39574Y-45505D01*
X39602Y-45519D01*
X39616Y-45533D01*
X39631Y-45562D01*
X39631Y-45605D01*
X39616Y-45633D01*
X39602Y-45647D01*
X39574Y-45662D01*
X39459Y-45662D01*
X39731Y-45505D02*
X39916Y-45505D01*
X39816Y-45619D01*
X39859Y-45619D01*
X39888Y-45633D01*
X39902Y-45647D01*
X39916Y-45676D01*
X39916Y-45747D01*
X39902Y-45776D01*
X39888Y-45790D01*
X39859Y-45805D01*
X39774Y-45805D01*
X39745Y-45790D01*
X39731Y-45776D01*
X38845Y-47042D02*
X38845Y-47256D01*
X38831Y-47299D01*
X38802Y-47328D01*
X38759Y-47342D01*
X38731Y-47342D01*
X38988Y-47042D02*
X38988Y-47285D01*
X39002Y-47313D01*
X39016Y-47328D01*
X39045Y-47342D01*
X39102Y-47342D01*
X39131Y-47328D01*
X39145Y-47313D01*
X39159Y-47285D01*
X39159Y-47042D01*
X39302Y-47342D02*
X39302Y-47042D01*
X39402Y-47256D01*
X39502Y-47042D01*
X39502Y-47342D01*
X39645Y-47342D02*
X39645Y-47042D01*
X39759Y-47042D01*
X39788Y-47056D01*
X39802Y-47070D01*
X39816Y-47099D01*
X39816Y-47142D01*
X39802Y-47170D01*
X39788Y-47185D01*
X39759Y-47199D01*
X39645Y-47199D01*
X39945Y-47185D02*
X40045Y-47185D01*
X40088Y-47342D02*
X39945Y-47342D01*
X39945Y-47042D01*
X40088Y-47042D01*
X40388Y-47342D02*
X40288Y-47199D01*
X40216Y-47342D02*
X40216Y-47042D01*
X40331Y-47042D01*
X40359Y-47056D01*
X40374Y-47070D01*
X40388Y-47099D01*
X40388Y-47142D01*
X40374Y-47170D01*
X40359Y-47185D01*
X40331Y-47199D01*
X40216Y-47199D01*
G54D16*
X58381Y-48083D02*
X58214Y-47821D01*
X58095Y-48083D02*
X58095Y-47533D01*
X58285Y-47533D01*
X58333Y-47559D01*
X58357Y-47585D01*
X58381Y-47638D01*
X58381Y-47716D01*
X58357Y-47769D01*
X58333Y-47795D01*
X58285Y-47821D01*
X58095Y-47821D01*
X58857Y-48083D02*
X58571Y-48083D01*
X58714Y-48083D02*
X58714Y-47533D01*
X58666Y-47612D01*
X58619Y-47664D01*
X58571Y-47690D01*
X57857Y-48370D02*
X58166Y-48370D01*
X58000Y-48580D01*
X58071Y-48580D01*
X58119Y-48606D01*
X58143Y-48632D01*
X58166Y-48685D01*
X58166Y-48816D01*
X58143Y-48868D01*
X58119Y-48894D01*
X58071Y-48920D01*
X57928Y-48920D01*
X57881Y-48894D01*
X57857Y-48868D01*
X58381Y-48920D02*
X58381Y-48370D01*
X58428Y-48711D02*
X58571Y-48920D01*
X58571Y-48554D02*
X58381Y-48763D01*
X58809Y-48920D02*
X58905Y-48920D01*
X58952Y-48894D01*
X58976Y-48868D01*
X59024Y-48789D01*
X59047Y-48685D01*
X59047Y-48475D01*
X59024Y-48423D01*
X59000Y-48397D01*
X58952Y-48370D01*
X58857Y-48370D01*
X58809Y-48397D01*
X58785Y-48423D01*
X58762Y-48475D01*
X58762Y-48606D01*
X58785Y-48658D01*
X58809Y-48685D01*
X58857Y-48711D01*
X58952Y-48711D01*
X59000Y-48685D01*
X59024Y-48658D01*
X59047Y-48606D01*
X44736Y-54807D02*
X44475Y-54974D01*
X44736Y-55093D02*
X44186Y-55093D01*
X44186Y-54902D01*
X44213Y-54855D01*
X44239Y-54831D01*
X44291Y-54807D01*
X44370Y-54807D01*
X44422Y-54831D01*
X44448Y-54855D01*
X44475Y-54902D01*
X44475Y-55093D01*
X44239Y-54617D02*
X44213Y-54593D01*
X44186Y-54545D01*
X44186Y-54426D01*
X44213Y-54379D01*
X44239Y-54355D01*
X44291Y-54331D01*
X44344Y-54331D01*
X44422Y-54355D01*
X44736Y-54641D01*
X44736Y-54331D01*
X43349Y-55105D02*
X43349Y-55200D01*
X43375Y-55248D01*
X43401Y-55272D01*
X43480Y-55319D01*
X43585Y-55343D01*
X43794Y-55343D01*
X43847Y-55319D01*
X43873Y-55295D01*
X43899Y-55248D01*
X43899Y-55152D01*
X43873Y-55105D01*
X43847Y-55081D01*
X43794Y-55057D01*
X43663Y-55057D01*
X43611Y-55081D01*
X43585Y-55105D01*
X43559Y-55152D01*
X43559Y-55248D01*
X43585Y-55295D01*
X43611Y-55319D01*
X43663Y-55343D01*
X43585Y-54772D02*
X43559Y-54819D01*
X43532Y-54843D01*
X43480Y-54867D01*
X43454Y-54867D01*
X43401Y-54843D01*
X43375Y-54819D01*
X43349Y-54772D01*
X43349Y-54676D01*
X43375Y-54629D01*
X43401Y-54605D01*
X43454Y-54581D01*
X43480Y-54581D01*
X43532Y-54605D01*
X43559Y-54629D01*
X43585Y-54676D01*
X43585Y-54772D01*
X43611Y-54819D01*
X43637Y-54843D01*
X43690Y-54867D01*
X43794Y-54867D01*
X43847Y-54843D01*
X43873Y-54819D01*
X43899Y-54772D01*
X43899Y-54676D01*
X43873Y-54629D01*
X43847Y-54605D01*
X43794Y-54581D01*
X43690Y-54581D01*
X43637Y-54605D01*
X43611Y-54629D01*
X43585Y-54676D01*
X43349Y-54272D02*
X43349Y-54224D01*
X43375Y-54176D01*
X43401Y-54152D01*
X43454Y-54129D01*
X43559Y-54105D01*
X43690Y-54105D01*
X43794Y-54129D01*
X43847Y-54152D01*
X43873Y-54176D01*
X43899Y-54224D01*
X43899Y-54272D01*
X43873Y-54319D01*
X43847Y-54343D01*
X43794Y-54367D01*
X43690Y-54391D01*
X43559Y-54391D01*
X43454Y-54367D01*
X43401Y-54343D01*
X43375Y-54319D01*
X43349Y-54272D01*
X58774Y-53792D02*
X58608Y-53530D01*
X58489Y-53792D02*
X58489Y-53242D01*
X58679Y-53242D01*
X58727Y-53268D01*
X58751Y-53294D01*
X58774Y-53346D01*
X58774Y-53425D01*
X58751Y-53477D01*
X58727Y-53504D01*
X58679Y-53530D01*
X58489Y-53530D01*
X58941Y-53242D02*
X59251Y-53242D01*
X59084Y-53451D01*
X59155Y-53451D01*
X59203Y-53477D01*
X59227Y-53504D01*
X59251Y-53556D01*
X59251Y-53687D01*
X59227Y-53739D01*
X59203Y-53765D01*
X59155Y-53792D01*
X59013Y-53792D01*
X58965Y-53765D01*
X58941Y-53739D01*
X58513Y-54629D02*
X58227Y-54629D01*
X58370Y-54629D02*
X58370Y-54079D01*
X58322Y-54158D01*
X58274Y-54210D01*
X58227Y-54236D01*
X58822Y-54079D02*
X58870Y-54079D01*
X58917Y-54105D01*
X58941Y-54131D01*
X58965Y-54184D01*
X58989Y-54289D01*
X58989Y-54419D01*
X58965Y-54524D01*
X58941Y-54577D01*
X58917Y-54603D01*
X58870Y-54629D01*
X58822Y-54629D01*
X58774Y-54603D01*
X58751Y-54577D01*
X58727Y-54524D01*
X58703Y-54419D01*
X58703Y-54289D01*
X58727Y-54184D01*
X58751Y-54131D01*
X58774Y-54105D01*
X58822Y-54079D01*
X59203Y-54629D02*
X59203Y-54079D01*
X59489Y-54629D02*
X59274Y-54315D01*
X59489Y-54079D02*
X59203Y-54393D01*
X40406Y-54807D02*
X40144Y-54974D01*
X40406Y-55093D02*
X39856Y-55093D01*
X39856Y-54902D01*
X39882Y-54855D01*
X39908Y-54831D01*
X39961Y-54807D01*
X40039Y-54807D01*
X40092Y-54831D01*
X40118Y-54855D01*
X40144Y-54902D01*
X40144Y-55093D01*
X40039Y-54379D02*
X40406Y-54379D01*
X39830Y-54498D02*
X40222Y-54617D01*
X40222Y-54307D01*
X39018Y-55105D02*
X39018Y-55200D01*
X39045Y-55248D01*
X39071Y-55272D01*
X39149Y-55319D01*
X39254Y-55343D01*
X39464Y-55343D01*
X39516Y-55319D01*
X39542Y-55295D01*
X39568Y-55248D01*
X39568Y-55152D01*
X39542Y-55105D01*
X39516Y-55081D01*
X39464Y-55057D01*
X39333Y-55057D01*
X39280Y-55081D01*
X39254Y-55105D01*
X39228Y-55152D01*
X39228Y-55248D01*
X39254Y-55295D01*
X39280Y-55319D01*
X39333Y-55343D01*
X39254Y-54772D02*
X39228Y-54819D01*
X39202Y-54843D01*
X39149Y-54867D01*
X39123Y-54867D01*
X39071Y-54843D01*
X39045Y-54819D01*
X39018Y-54772D01*
X39018Y-54676D01*
X39045Y-54629D01*
X39071Y-54605D01*
X39123Y-54581D01*
X39149Y-54581D01*
X39202Y-54605D01*
X39228Y-54629D01*
X39254Y-54676D01*
X39254Y-54772D01*
X39280Y-54819D01*
X39306Y-54843D01*
X39359Y-54867D01*
X39464Y-54867D01*
X39516Y-54843D01*
X39542Y-54819D01*
X39568Y-54772D01*
X39568Y-54676D01*
X39542Y-54629D01*
X39516Y-54605D01*
X39464Y-54581D01*
X39359Y-54581D01*
X39306Y-54605D01*
X39280Y-54629D01*
X39254Y-54676D01*
X39018Y-54272D02*
X39018Y-54224D01*
X39045Y-54176D01*
X39071Y-54152D01*
X39123Y-54129D01*
X39228Y-54105D01*
X39359Y-54105D01*
X39464Y-54129D01*
X39516Y-54152D01*
X39542Y-54176D01*
X39568Y-54224D01*
X39568Y-54272D01*
X39542Y-54319D01*
X39516Y-54343D01*
X39464Y-54367D01*
X39359Y-54391D01*
X39228Y-54391D01*
X39123Y-54367D01*
X39071Y-54343D01*
X39045Y-54319D01*
X39018Y-54272D01*
X47263Y-51970D02*
X46977Y-51970D01*
X47120Y-51970D02*
X47120Y-51420D01*
X47072Y-51499D01*
X47025Y-51551D01*
X46977Y-51577D01*
X47572Y-51420D02*
X47620Y-51420D01*
X47667Y-51446D01*
X47691Y-51472D01*
X47715Y-51525D01*
X47739Y-51629D01*
X47739Y-51760D01*
X47715Y-51865D01*
X47691Y-51918D01*
X47667Y-51944D01*
X47620Y-51970D01*
X47572Y-51970D01*
X47525Y-51944D01*
X47501Y-51918D01*
X47477Y-51865D01*
X47453Y-51760D01*
X47453Y-51629D01*
X47477Y-51525D01*
X47501Y-51472D01*
X47525Y-51446D01*
X47572Y-51420D01*
X48334Y-51970D02*
X48334Y-51420D01*
X48501Y-51813D01*
X48667Y-51420D01*
X48667Y-51970D01*
X41845Y-41193D02*
X41679Y-40931D01*
X41560Y-41193D02*
X41560Y-40643D01*
X41750Y-40643D01*
X41798Y-40669D01*
X41821Y-40696D01*
X41845Y-40748D01*
X41845Y-40827D01*
X41821Y-40879D01*
X41798Y-40905D01*
X41750Y-40931D01*
X41560Y-40931D01*
X42274Y-40643D02*
X42179Y-40643D01*
X42131Y-40669D01*
X42107Y-40696D01*
X42060Y-40774D01*
X42036Y-40879D01*
X42036Y-41088D01*
X42060Y-41141D01*
X42083Y-41167D01*
X42131Y-41193D01*
X42226Y-41193D01*
X42274Y-41167D01*
X42298Y-41141D01*
X42321Y-41088D01*
X42321Y-40957D01*
X42298Y-40905D01*
X42274Y-40879D01*
X42226Y-40853D01*
X42131Y-40853D01*
X42083Y-40879D01*
X42060Y-40905D01*
X42036Y-40957D01*
X41583Y-42227D02*
X41298Y-42227D01*
X41441Y-42227D02*
X41441Y-41677D01*
X41393Y-41756D01*
X41345Y-41808D01*
X41298Y-41835D01*
X41893Y-41677D02*
X41941Y-41677D01*
X41988Y-41704D01*
X42012Y-41730D01*
X42036Y-41782D01*
X42060Y-41887D01*
X42060Y-42018D01*
X42036Y-42123D01*
X42012Y-42175D01*
X41988Y-42201D01*
X41941Y-42227D01*
X41893Y-42227D01*
X41845Y-42201D01*
X41821Y-42175D01*
X41798Y-42123D01*
X41774Y-42018D01*
X41774Y-41887D01*
X41798Y-41782D01*
X41821Y-41730D01*
X41845Y-41704D01*
X41893Y-41677D01*
X42274Y-42227D02*
X42274Y-41677D01*
X42560Y-42227D02*
X42345Y-41913D01*
X42560Y-41677D02*
X42274Y-41992D01*
G54D19*
X50015Y-45345D02*
X50186Y-45345D01*
X50100Y-45645D02*
X50100Y-45345D01*
X50286Y-45645D02*
X50286Y-45345D01*
X50400Y-45345D01*
X50429Y-45359D01*
X50443Y-45374D01*
X50457Y-45402D01*
X50457Y-45445D01*
X50443Y-45474D01*
X50429Y-45488D01*
X50400Y-45502D01*
X50286Y-45502D01*
X50743Y-45645D02*
X50572Y-45645D01*
X50657Y-45645D02*
X50657Y-45345D01*
X50629Y-45388D01*
X50600Y-45416D01*
X50572Y-45431D01*
X42928Y-45345D02*
X43099Y-45345D01*
X43014Y-45645D02*
X43014Y-45345D01*
X43199Y-45645D02*
X43199Y-45345D01*
X43314Y-45345D01*
X43342Y-45359D01*
X43357Y-45374D01*
X43371Y-45402D01*
X43371Y-45445D01*
X43357Y-45474D01*
X43342Y-45488D01*
X43314Y-45502D01*
X43199Y-45502D01*
X43485Y-45374D02*
X43499Y-45359D01*
X43528Y-45345D01*
X43599Y-45345D01*
X43628Y-45359D01*
X43642Y-45374D01*
X43657Y-45402D01*
X43657Y-45431D01*
X43642Y-45474D01*
X43471Y-45645D01*
X43657Y-45645D01*
X51196Y-45345D02*
X51367Y-45345D01*
X51281Y-45645D02*
X51281Y-45345D01*
X51467Y-45645D02*
X51467Y-45345D01*
X51581Y-45345D01*
X51610Y-45359D01*
X51624Y-45374D01*
X51639Y-45402D01*
X51639Y-45445D01*
X51624Y-45474D01*
X51610Y-45488D01*
X51581Y-45502D01*
X51467Y-45502D01*
X51739Y-45345D02*
X51924Y-45345D01*
X51824Y-45459D01*
X51867Y-45459D01*
X51896Y-45474D01*
X51910Y-45488D01*
X51924Y-45516D01*
X51924Y-45588D01*
X51910Y-45616D01*
X51896Y-45631D01*
X51867Y-45645D01*
X51781Y-45645D01*
X51753Y-45631D01*
X51739Y-45616D01*
X46471Y-45345D02*
X46643Y-45345D01*
X46557Y-45645D02*
X46557Y-45345D01*
X46743Y-45645D02*
X46743Y-45345D01*
X46857Y-45345D01*
X46886Y-45359D01*
X46900Y-45374D01*
X46914Y-45402D01*
X46914Y-45445D01*
X46900Y-45474D01*
X46886Y-45488D01*
X46857Y-45502D01*
X46743Y-45502D01*
X47171Y-45445D02*
X47171Y-45645D01*
X47100Y-45331D02*
X47028Y-45545D01*
X47214Y-45545D01*
X52377Y-45345D02*
X52548Y-45345D01*
X52463Y-45645D02*
X52463Y-45345D01*
X52648Y-45645D02*
X52648Y-45345D01*
X52763Y-45345D01*
X52791Y-45359D01*
X52805Y-45374D01*
X52820Y-45402D01*
X52820Y-45445D01*
X52805Y-45474D01*
X52791Y-45488D01*
X52763Y-45502D01*
X52648Y-45502D01*
X53091Y-45345D02*
X52948Y-45345D01*
X52934Y-45488D01*
X52948Y-45474D01*
X52977Y-45459D01*
X53048Y-45459D01*
X53077Y-45474D01*
X53091Y-45488D01*
X53105Y-45516D01*
X53105Y-45588D01*
X53091Y-45616D01*
X53077Y-45631D01*
X53048Y-45645D01*
X52977Y-45645D01*
X52948Y-45631D01*
X52934Y-45616D01*
X45093Y-45345D02*
X45265Y-45345D01*
X45179Y-45645D02*
X45179Y-45345D01*
X45365Y-45645D02*
X45365Y-45345D01*
X45479Y-45345D01*
X45508Y-45359D01*
X45522Y-45374D01*
X45536Y-45402D01*
X45536Y-45445D01*
X45522Y-45474D01*
X45508Y-45488D01*
X45479Y-45502D01*
X45365Y-45502D01*
X45793Y-45345D02*
X45736Y-45345D01*
X45708Y-45359D01*
X45693Y-45374D01*
X45665Y-45416D01*
X45651Y-45474D01*
X45651Y-45588D01*
X45665Y-45616D01*
X45679Y-45631D01*
X45708Y-45645D01*
X45765Y-45645D01*
X45793Y-45631D01*
X45808Y-45616D01*
X45822Y-45588D01*
X45822Y-45516D01*
X45808Y-45488D01*
X45793Y-45474D01*
X45765Y-45459D01*
X45708Y-45459D01*
X45679Y-45474D01*
X45665Y-45488D01*
X45651Y-45516D01*
X48637Y-45345D02*
X48808Y-45345D01*
X48722Y-45645D02*
X48722Y-45345D01*
X48908Y-45645D02*
X48908Y-45345D01*
X49022Y-45345D01*
X49051Y-45359D01*
X49065Y-45374D01*
X49080Y-45402D01*
X49080Y-45445D01*
X49065Y-45474D01*
X49051Y-45488D01*
X49022Y-45502D01*
X48908Y-45502D01*
X49180Y-45345D02*
X49380Y-45345D01*
X49251Y-45645D01*
G54D22*
X43991Y-48132D02*
X43991Y-48699D01*
X44013Y-48765D01*
X44034Y-48799D01*
X44077Y-48832D01*
X44163Y-48832D01*
X44206Y-48799D01*
X44227Y-48765D01*
X44248Y-48699D01*
X44248Y-48132D01*
X44698Y-48832D02*
X44441Y-48832D01*
X44570Y-48832D02*
X44570Y-48132D01*
X44527Y-48232D01*
X44484Y-48299D01*
X44441Y-48332D01*
G54D14*
G54D22*
X47338Y-49732D02*
X47338Y-49032D01*
X47488Y-49532D01*
X47638Y-49032D01*
X47638Y-49732D01*
X48109Y-49665D02*
X48088Y-49699D01*
X48023Y-49732D01*
X47981Y-49732D01*
X47916Y-49699D01*
X47873Y-49632D01*
X47852Y-49565D01*
X47831Y-49432D01*
X47831Y-49332D01*
X47852Y-49199D01*
X47873Y-49132D01*
X47916Y-49065D01*
X47981Y-49032D01*
X48023Y-49032D01*
X48088Y-49065D01*
X48109Y-49099D01*
X48323Y-49732D02*
X48409Y-49732D01*
X48452Y-49699D01*
X48473Y-49665D01*
X48516Y-49565D01*
X48538Y-49432D01*
X48538Y-49165D01*
X48516Y-49099D01*
X48495Y-49065D01*
X48452Y-49032D01*
X48366Y-49032D01*
X48323Y-49065D01*
X48302Y-49099D01*
X48281Y-49165D01*
X48281Y-49332D01*
X48302Y-49399D01*
X48323Y-49432D01*
X48366Y-49465D01*
X48452Y-49465D01*
X48495Y-49432D01*
X48516Y-49399D01*
X48538Y-49332D01*
X48709Y-49699D02*
X48773Y-49732D01*
X48881Y-49732D01*
X48923Y-49699D01*
X48945Y-49665D01*
X48966Y-49599D01*
X48966Y-49532D01*
X48945Y-49465D01*
X48923Y-49432D01*
X48881Y-49399D01*
X48795Y-49365D01*
X48752Y-49332D01*
X48731Y-49299D01*
X48709Y-49232D01*
X48709Y-49165D01*
X48731Y-49099D01*
X48752Y-49065D01*
X48795Y-49032D01*
X48902Y-49032D01*
X48966Y-49065D01*
X49245Y-49032D02*
X49288Y-49032D01*
X49331Y-49065D01*
X49352Y-49099D01*
X49373Y-49165D01*
X49395Y-49299D01*
X49395Y-49465D01*
X49373Y-49599D01*
X49352Y-49665D01*
X49331Y-49699D01*
X49288Y-49732D01*
X49245Y-49732D01*
X49202Y-49699D01*
X49181Y-49665D01*
X49159Y-49599D01*
X49138Y-49465D01*
X49138Y-49299D01*
X49159Y-49165D01*
X49181Y-49099D01*
X49202Y-49065D01*
X49245Y-49032D01*
X49652Y-49332D02*
X49609Y-49299D01*
X49588Y-49265D01*
X49566Y-49199D01*
X49566Y-49165D01*
X49588Y-49099D01*
X49609Y-49065D01*
X49652Y-49032D01*
X49738Y-49032D01*
X49781Y-49065D01*
X49802Y-49099D01*
X49823Y-49165D01*
X49823Y-49199D01*
X49802Y-49265D01*
X49781Y-49299D01*
X49738Y-49332D01*
X49652Y-49332D01*
X49609Y-49365D01*
X49588Y-49399D01*
X49566Y-49465D01*
X49566Y-49599D01*
X49588Y-49665D01*
X49609Y-49699D01*
X49652Y-49732D01*
X49738Y-49732D01*
X49781Y-49699D01*
X49802Y-49665D01*
X49823Y-49599D01*
X49823Y-49465D01*
X49802Y-49399D01*
X49781Y-49365D01*
X49738Y-49332D01*
X49995Y-49699D02*
X50059Y-49732D01*
X50166Y-49732D01*
X50209Y-49699D01*
X50231Y-49665D01*
X50252Y-49599D01*
X50252Y-49532D01*
X50231Y-49465D01*
X50209Y-49432D01*
X50166Y-49399D01*
X50081Y-49365D01*
X50038Y-49332D01*
X50016Y-49299D01*
X49995Y-49232D01*
X49995Y-49165D01*
X50016Y-49099D01*
X50038Y-49065D01*
X50081Y-49032D01*
X50188Y-49032D01*
X50252Y-49065D01*
X50445Y-49732D02*
X50445Y-49032D01*
X50445Y-49365D02*
X50702Y-49365D01*
X50702Y-49732D02*
X50702Y-49032D01*
X50981Y-49332D02*
X50938Y-49299D01*
X50916Y-49265D01*
X50895Y-49199D01*
X50895Y-49165D01*
X50916Y-49099D01*
X50938Y-49065D01*
X50981Y-49032D01*
X51066Y-49032D01*
X51109Y-49065D01*
X51131Y-49099D01*
X51152Y-49165D01*
X51152Y-49199D01*
X51131Y-49265D01*
X51109Y-49299D01*
X51066Y-49332D01*
X50981Y-49332D01*
X50938Y-49365D01*
X50916Y-49399D01*
X50895Y-49465D01*
X50895Y-49599D01*
X50916Y-49665D01*
X50938Y-49699D01*
X50981Y-49732D01*
X51066Y-49732D01*
X51109Y-49699D01*
X51131Y-49665D01*
X51152Y-49599D01*
X51152Y-49465D01*
X51131Y-49399D01*
X51109Y-49365D01*
X51066Y-49332D01*
G54D14*
X51482Y-53805D02*
X51882Y-54405D01*
X51882Y-53805D02*
X51482Y-54405D01*
X52425Y-54405D02*
X52082Y-54405D01*
X52254Y-54405D02*
X52254Y-53805D01*
X52197Y-53891D01*
X52139Y-53948D01*
X52082Y-53976D01*
X50879Y-53421D02*
X50536Y-53421D01*
X50708Y-53421D02*
X50708Y-52821D01*
X50651Y-52906D01*
X50593Y-52963D01*
X50536Y-52992D01*
X51108Y-52878D02*
X51136Y-52849D01*
X51193Y-52821D01*
X51336Y-52821D01*
X51393Y-52849D01*
X51422Y-52878D01*
X51451Y-52935D01*
X51451Y-52992D01*
X51422Y-53078D01*
X51079Y-53421D01*
X51451Y-53421D01*
X52165Y-53421D02*
X52165Y-52821D01*
X52365Y-53249D01*
X52565Y-52821D01*
X52565Y-53421D01*
X52851Y-53421D02*
X52851Y-52821D01*
X52851Y-53106D02*
X53193Y-53106D01*
X53193Y-53421D02*
X53193Y-52821D01*
X53422Y-52821D02*
X53822Y-52821D01*
X53422Y-53421D01*
X53822Y-53421D01*
G54D16*
X46586Y-56442D02*
X46567Y-56461D01*
X46510Y-56480D01*
X46472Y-56480D01*
X46415Y-56461D01*
X46377Y-56423D01*
X46358Y-56384D01*
X46339Y-56308D01*
X46339Y-56251D01*
X46358Y-56175D01*
X46377Y-56137D01*
X46415Y-56099D01*
X46472Y-56080D01*
X46510Y-56080D01*
X46567Y-56099D01*
X46586Y-56118D01*
X46948Y-56080D02*
X46758Y-56080D01*
X46739Y-56270D01*
X46758Y-56251D01*
X46796Y-56232D01*
X46891Y-56232D01*
X46929Y-56251D01*
X46948Y-56270D01*
X46967Y-56308D01*
X46967Y-56403D01*
X46948Y-56442D01*
X46929Y-56461D01*
X46891Y-56480D01*
X46796Y-56480D01*
X46758Y-56461D01*
X46739Y-56442D01*
G54D15*
X37745Y-48033D02*
X37730Y-48047D01*
X37688Y-48061D01*
X37659Y-48061D01*
X37616Y-48047D01*
X37588Y-48019D01*
X37573Y-47990D01*
X37559Y-47933D01*
X37559Y-47890D01*
X37573Y-47833D01*
X37588Y-47804D01*
X37616Y-47776D01*
X37659Y-47761D01*
X37688Y-47761D01*
X37730Y-47776D01*
X37745Y-47790D01*
X37845Y-47761D02*
X38030Y-47761D01*
X37930Y-47876D01*
X37973Y-47876D01*
X38002Y-47890D01*
X38016Y-47904D01*
X38030Y-47933D01*
X38030Y-48004D01*
X38016Y-48033D01*
X38002Y-48047D01*
X37973Y-48061D01*
X37888Y-48061D01*
X37859Y-48047D01*
X37845Y-48033D01*
X37432Y-49060D02*
X37289Y-49060D01*
X37360Y-49060D02*
X37360Y-48760D01*
X37336Y-48803D01*
X37313Y-48832D01*
X37289Y-48846D01*
X37586Y-48760D02*
X37610Y-48760D01*
X37634Y-48775D01*
X37646Y-48789D01*
X37658Y-48818D01*
X37670Y-48875D01*
X37670Y-48946D01*
X37658Y-49003D01*
X37646Y-49032D01*
X37634Y-49046D01*
X37610Y-49060D01*
X37586Y-49060D01*
X37563Y-49046D01*
X37551Y-49032D01*
X37539Y-49003D01*
X37527Y-48946D01*
X37527Y-48875D01*
X37539Y-48818D01*
X37551Y-48789D01*
X37563Y-48775D01*
X37586Y-48760D01*
X38075Y-48860D02*
X38075Y-49060D01*
X37967Y-48860D02*
X37967Y-49018D01*
X37979Y-49046D01*
X38003Y-49060D01*
X38039Y-49060D01*
X38063Y-49046D01*
X38075Y-49032D01*
X38277Y-48903D02*
X38194Y-48903D01*
X38194Y-49060D02*
X38194Y-48760D01*
X38313Y-48760D01*
G54D23*
X36780Y-48446D02*
X37009Y-48446D01*
X36895Y-48560D02*
X36895Y-48332D01*
G54D16*
X31245Y-51273D02*
X31264Y-51292D01*
X31283Y-51349D01*
X31283Y-51387D01*
X31264Y-51444D01*
X31226Y-51482D01*
X31188Y-51501D01*
X31111Y-51520D01*
X31054Y-51520D01*
X30978Y-51501D01*
X30940Y-51482D01*
X30902Y-51444D01*
X30883Y-51387D01*
X30883Y-51349D01*
X30902Y-51292D01*
X30921Y-51273D01*
X30883Y-51025D02*
X30883Y-50949D01*
X30902Y-50911D01*
X30940Y-50873D01*
X31016Y-50854D01*
X31149Y-50854D01*
X31226Y-50873D01*
X31264Y-50911D01*
X31283Y-50949D01*
X31283Y-51025D01*
X31264Y-51063D01*
X31226Y-51101D01*
X31149Y-51120D01*
X31016Y-51120D01*
X30940Y-51101D01*
X30902Y-51063D01*
X30883Y-51025D01*
X31283Y-50682D02*
X30883Y-50682D01*
X31283Y-50454D01*
X30883Y-50454D01*
X30921Y-50282D02*
X30902Y-50263D01*
X30883Y-50225D01*
X30883Y-50130D01*
X30902Y-50092D01*
X30921Y-50073D01*
X30959Y-50054D01*
X30997Y-50054D01*
X31054Y-50073D01*
X31283Y-50301D01*
X31283Y-50054D01*
G54D18*
X32680Y-58036D02*
X32451Y-58036D01*
X32566Y-58036D02*
X32566Y-57636D01*
X32528Y-57693D01*
X32489Y-57731D01*
X32451Y-57750D01*
X32851Y-58036D02*
X32851Y-57636D01*
X33004Y-57636D01*
X33042Y-57655D01*
X33061Y-57674D01*
X33080Y-57712D01*
X33080Y-57769D01*
X33061Y-57807D01*
X33042Y-57826D01*
X33004Y-57845D01*
X32851Y-57845D01*
X33251Y-58036D02*
X33251Y-57636D01*
X33442Y-58036D02*
X33442Y-57636D01*
X33670Y-58036D01*
X33670Y-57636D01*
X32680Y-41500D02*
X32451Y-41500D01*
X32566Y-41500D02*
X32566Y-41100D01*
X32528Y-41157D01*
X32489Y-41195D01*
X32451Y-41214D01*
X32851Y-41500D02*
X32851Y-41100D01*
X33004Y-41100D01*
X33042Y-41119D01*
X33061Y-41138D01*
X33080Y-41176D01*
X33080Y-41233D01*
X33061Y-41272D01*
X33042Y-41291D01*
X33004Y-41310D01*
X32851Y-41310D01*
X33251Y-41500D02*
X33251Y-41100D01*
X33442Y-41500D02*
X33442Y-41100D01*
X33670Y-41500D01*
X33670Y-41100D01*
X62995Y-58036D02*
X62766Y-58036D01*
X62881Y-58036D02*
X62881Y-57636D01*
X62842Y-57693D01*
X62804Y-57731D01*
X62766Y-57750D01*
X63166Y-58036D02*
X63166Y-57636D01*
X63319Y-57636D01*
X63357Y-57655D01*
X63376Y-57674D01*
X63395Y-57712D01*
X63395Y-57769D01*
X63376Y-57807D01*
X63357Y-57826D01*
X63319Y-57845D01*
X63166Y-57845D01*
X63566Y-58036D02*
X63566Y-57636D01*
X63757Y-58036D02*
X63757Y-57636D01*
X63985Y-58036D01*
X63985Y-57636D01*
M02*
