G04 (created by PCBNEW (2013-mar-13)-testing) date dom 25 ago 2013 18:51:32 ART*
%MOIN*%
G04 Gerber Fmt 3.4, Leading zero omitted, Abs format*
%FSLAX34Y34*%
G01*
G70*
G90*
G04 APERTURE LIST*
%ADD10C,0.003937*%
%ADD11C,0.005906*%
%ADD12C,0.000100*%
%ADD13C,0.160000*%
%ADD14C,0.100000*%
%ADD15C,0.055000*%
%ADD16O,0.062992X0.078740*%
%ADD17R,0.062992X0.078740*%
%ADD18C,0.066000*%
%ADD19R,0.070866X0.070866*%
%ADD20C,0.078740*%
%ADD21R,0.060000X0.060000*%
%ADD22R,0.062000X0.090000*%
%ADD23O,0.062000X0.090000*%
%ADD24C,0.056000*%
%ADD25R,0.055000X0.055000*%
%ADD26R,0.078740X0.062992*%
%ADD27O,0.078740X0.062992*%
%ADD28C,0.010000*%
G04 APERTURE END LIST*
G54D10*
G54D11*
X31496Y-40944D02*
X31496Y-60629D01*
X64960Y-40944D02*
X31496Y-40944D01*
X64960Y-60629D02*
X64960Y-40944D01*
X31496Y-60629D02*
X64960Y-60629D01*
G54D12*
G36*
X61122Y-43652D02*
X60792Y-43652D01*
X60792Y-42819D01*
X60682Y-42626D01*
X60514Y-42333D01*
X60376Y-42097D01*
X60269Y-41916D01*
X60191Y-41789D01*
X60140Y-41712D01*
X60116Y-41686D01*
X60095Y-41713D01*
X60046Y-41787D01*
X59978Y-41897D01*
X59895Y-42033D01*
X59844Y-42118D01*
X59844Y-41664D01*
X59844Y-41663D01*
X59808Y-41660D01*
X59716Y-41657D01*
X59578Y-41657D01*
X59405Y-41657D01*
X59206Y-41659D01*
X59177Y-41659D01*
X58524Y-41669D01*
X58848Y-42226D01*
X58949Y-42399D01*
X59039Y-42550D01*
X59113Y-42670D01*
X59166Y-42751D01*
X59191Y-42784D01*
X59192Y-42785D01*
X59214Y-42757D01*
X59264Y-42681D01*
X59336Y-42565D01*
X59425Y-42417D01*
X59525Y-42246D01*
X59534Y-42231D01*
X59634Y-42058D01*
X59719Y-41906D01*
X59786Y-41784D01*
X59829Y-41700D01*
X59844Y-41664D01*
X59844Y-42118D01*
X59805Y-42184D01*
X59713Y-42339D01*
X59626Y-42488D01*
X59551Y-42619D01*
X59494Y-42722D01*
X59461Y-42786D01*
X59455Y-42801D01*
X59487Y-42806D01*
X59575Y-42811D01*
X59710Y-42815D01*
X59882Y-42817D01*
X60081Y-42818D01*
X60123Y-42819D01*
X60792Y-42819D01*
X60792Y-43652D01*
X60718Y-43652D01*
X60718Y-43206D01*
X60686Y-43105D01*
X60666Y-43079D01*
X60582Y-43031D01*
X60466Y-43019D01*
X60322Y-43019D01*
X60322Y-43235D01*
X60322Y-43452D01*
X60461Y-43452D01*
X60576Y-43437D01*
X60658Y-43398D01*
X60661Y-43397D01*
X60709Y-43313D01*
X60718Y-43206D01*
X60718Y-43652D01*
X60255Y-43652D01*
X60255Y-43404D01*
X60224Y-43365D01*
X60147Y-43346D01*
X60081Y-43335D01*
X60047Y-43307D01*
X60033Y-43242D01*
X60028Y-43177D01*
X60017Y-43079D01*
X59996Y-43031D01*
X59956Y-43019D01*
X59953Y-43019D01*
X59918Y-43026D01*
X59898Y-43057D01*
X59890Y-43128D01*
X59888Y-43235D01*
X59888Y-43452D01*
X60072Y-43452D01*
X60184Y-43447D01*
X60241Y-43430D01*
X60255Y-43404D01*
X60255Y-43652D01*
X59820Y-43652D01*
X59820Y-43209D01*
X59796Y-43109D01*
X59769Y-43071D01*
X59684Y-43026D01*
X59583Y-43026D01*
X59486Y-43063D01*
X59414Y-43130D01*
X59388Y-43214D01*
X59408Y-43283D01*
X59456Y-43362D01*
X59457Y-43364D01*
X59548Y-43435D01*
X59654Y-43449D01*
X59754Y-43403D01*
X59761Y-43397D01*
X59808Y-43315D01*
X59820Y-43209D01*
X59820Y-43652D01*
X59322Y-43652D01*
X59322Y-43313D01*
X59296Y-43289D01*
X59238Y-43289D01*
X59178Y-43312D01*
X59161Y-43325D01*
X59111Y-43342D01*
X59063Y-43311D01*
X59034Y-43251D01*
X59037Y-43189D01*
X59076Y-43139D01*
X59134Y-43118D01*
X59183Y-43133D01*
X59194Y-43151D01*
X59226Y-43165D01*
X59253Y-43153D01*
X59283Y-43120D01*
X59260Y-43075D01*
X59257Y-43071D01*
X59182Y-43027D01*
X59085Y-43025D01*
X58995Y-43064D01*
X58972Y-43084D01*
X58950Y-43124D01*
X58950Y-42819D01*
X58616Y-42244D01*
X58514Y-42068D01*
X58424Y-41913D01*
X58351Y-41788D01*
X58300Y-41702D01*
X58276Y-41663D01*
X58275Y-41662D01*
X58257Y-41686D01*
X58213Y-41758D01*
X58148Y-41866D01*
X58068Y-42000D01*
X57981Y-42150D01*
X57892Y-42303D01*
X57807Y-42451D01*
X57733Y-42581D01*
X57676Y-42684D01*
X57642Y-42748D01*
X57637Y-42760D01*
X57633Y-42780D01*
X57645Y-42795D01*
X57681Y-42805D01*
X57749Y-42812D01*
X57858Y-42816D01*
X58015Y-42818D01*
X58228Y-42818D01*
X58282Y-42819D01*
X58950Y-42819D01*
X58950Y-43124D01*
X58920Y-43180D01*
X58919Y-43276D01*
X58958Y-43362D01*
X59027Y-43424D01*
X59115Y-43452D01*
X59209Y-43432D01*
X59261Y-43397D01*
X59308Y-43344D01*
X59322Y-43313D01*
X59322Y-43652D01*
X59072Y-43652D01*
X58822Y-43652D01*
X58822Y-43235D01*
X58819Y-43118D01*
X58810Y-43053D01*
X58789Y-43024D01*
X58755Y-43019D01*
X58719Y-43025D01*
X58699Y-43055D01*
X58690Y-43123D01*
X58688Y-43235D01*
X58690Y-43352D01*
X58699Y-43418D01*
X58720Y-43446D01*
X58755Y-43452D01*
X58791Y-43445D01*
X58811Y-43415D01*
X58820Y-43347D01*
X58822Y-43235D01*
X58822Y-43652D01*
X58588Y-43652D01*
X58588Y-43235D01*
X58586Y-43118D01*
X58577Y-43053D01*
X58556Y-43024D01*
X58522Y-43019D01*
X58474Y-43033D01*
X58456Y-43088D01*
X58454Y-43127D01*
X58454Y-43235D01*
X58384Y-43127D01*
X58306Y-43041D01*
X58235Y-43019D01*
X58192Y-43023D01*
X58168Y-43045D01*
X58157Y-43102D01*
X58155Y-43206D01*
X58155Y-43235D01*
X58156Y-43352D01*
X58165Y-43417D01*
X58185Y-43445D01*
X58225Y-43452D01*
X58238Y-43452D01*
X58300Y-43439D01*
X58321Y-43389D01*
X58323Y-43360D01*
X58324Y-43269D01*
X58392Y-43360D01*
X58456Y-43423D01*
X58520Y-43452D01*
X58524Y-43452D01*
X58559Y-43444D01*
X58578Y-43412D01*
X58587Y-43340D01*
X58588Y-43235D01*
X58588Y-43652D01*
X58088Y-43652D01*
X58088Y-43210D01*
X58088Y-43180D01*
X58084Y-43082D01*
X58069Y-43034D01*
X58034Y-43019D01*
X58022Y-43019D01*
X57977Y-43031D01*
X57958Y-43079D01*
X57954Y-43144D01*
X57941Y-43267D01*
X57904Y-43335D01*
X57845Y-43342D01*
X57842Y-43341D01*
X57805Y-43301D01*
X57789Y-43212D01*
X57788Y-43170D01*
X57784Y-43075D01*
X57766Y-43031D01*
X57727Y-43019D01*
X57722Y-43019D01*
X57681Y-43027D01*
X57661Y-43065D01*
X57655Y-43148D01*
X57655Y-43183D01*
X57668Y-43315D01*
X57704Y-43396D01*
X57707Y-43399D01*
X57791Y-43442D01*
X57898Y-43448D01*
X57998Y-43418D01*
X58027Y-43397D01*
X58071Y-43326D01*
X58088Y-43210D01*
X58088Y-43652D01*
X57022Y-43652D01*
X57022Y-42535D01*
X57022Y-41419D01*
X59072Y-41419D01*
X61122Y-41419D01*
X61122Y-42535D01*
X61122Y-43652D01*
X61122Y-43652D01*
X61122Y-43652D01*
G37*
G36*
X59713Y-43240D02*
X59702Y-43275D01*
X59644Y-43336D01*
X59585Y-43331D01*
X59562Y-43312D01*
X59526Y-43243D01*
X59532Y-43172D01*
X59574Y-43130D01*
X59640Y-43132D01*
X59693Y-43177D01*
X59713Y-43240D01*
X59713Y-43240D01*
X59713Y-43240D01*
G37*
G36*
X60613Y-43261D02*
X60569Y-43333D01*
X60509Y-43379D01*
X60473Y-43367D01*
X60457Y-43296D01*
X60455Y-43235D01*
X60458Y-43137D01*
X60472Y-43095D01*
X60509Y-43096D01*
X60557Y-43120D01*
X60612Y-43180D01*
X60613Y-43261D01*
X60613Y-43261D01*
X60613Y-43261D01*
G37*
G36*
X61122Y-43652D02*
X60792Y-43652D01*
X60792Y-42819D01*
X60682Y-42626D01*
X60514Y-42333D01*
X60376Y-42097D01*
X60269Y-41916D01*
X60191Y-41789D01*
X60140Y-41712D01*
X60116Y-41686D01*
X60095Y-41713D01*
X60046Y-41787D01*
X59978Y-41897D01*
X59895Y-42033D01*
X59844Y-42118D01*
X59844Y-41664D01*
X59844Y-41663D01*
X59808Y-41660D01*
X59716Y-41657D01*
X59578Y-41657D01*
X59405Y-41657D01*
X59206Y-41659D01*
X59177Y-41659D01*
X58524Y-41669D01*
X58848Y-42226D01*
X58949Y-42399D01*
X59039Y-42550D01*
X59113Y-42670D01*
X59166Y-42751D01*
X59191Y-42784D01*
X59192Y-42785D01*
X59214Y-42757D01*
X59264Y-42681D01*
X59336Y-42565D01*
X59425Y-42417D01*
X59525Y-42246D01*
X59534Y-42231D01*
X59634Y-42058D01*
X59719Y-41906D01*
X59786Y-41784D01*
X59829Y-41700D01*
X59844Y-41664D01*
X59844Y-42118D01*
X59805Y-42184D01*
X59713Y-42339D01*
X59626Y-42488D01*
X59551Y-42619D01*
X59494Y-42722D01*
X59461Y-42786D01*
X59455Y-42801D01*
X59487Y-42806D01*
X59575Y-42811D01*
X59710Y-42815D01*
X59882Y-42817D01*
X60081Y-42818D01*
X60123Y-42819D01*
X60792Y-42819D01*
X60792Y-43652D01*
X60718Y-43652D01*
X60718Y-43206D01*
X60686Y-43105D01*
X60666Y-43079D01*
X60582Y-43031D01*
X60466Y-43019D01*
X60322Y-43019D01*
X60322Y-43235D01*
X60322Y-43452D01*
X60461Y-43452D01*
X60576Y-43437D01*
X60658Y-43398D01*
X60661Y-43397D01*
X60709Y-43313D01*
X60718Y-43206D01*
X60718Y-43652D01*
X60255Y-43652D01*
X60255Y-43404D01*
X60224Y-43365D01*
X60147Y-43346D01*
X60081Y-43335D01*
X60047Y-43307D01*
X60033Y-43242D01*
X60028Y-43177D01*
X60017Y-43079D01*
X59996Y-43031D01*
X59956Y-43019D01*
X59953Y-43019D01*
X59918Y-43026D01*
X59898Y-43057D01*
X59890Y-43128D01*
X59888Y-43235D01*
X59888Y-43452D01*
X60072Y-43452D01*
X60184Y-43447D01*
X60241Y-43430D01*
X60255Y-43404D01*
X60255Y-43652D01*
X59820Y-43652D01*
X59820Y-43209D01*
X59796Y-43109D01*
X59769Y-43071D01*
X59684Y-43026D01*
X59583Y-43026D01*
X59486Y-43063D01*
X59414Y-43130D01*
X59388Y-43214D01*
X59408Y-43283D01*
X59456Y-43362D01*
X59457Y-43364D01*
X59548Y-43435D01*
X59654Y-43449D01*
X59754Y-43403D01*
X59761Y-43397D01*
X59808Y-43315D01*
X59820Y-43209D01*
X59820Y-43652D01*
X59322Y-43652D01*
X59322Y-43313D01*
X59296Y-43289D01*
X59238Y-43289D01*
X59178Y-43312D01*
X59161Y-43325D01*
X59111Y-43342D01*
X59063Y-43311D01*
X59034Y-43251D01*
X59037Y-43189D01*
X59076Y-43139D01*
X59134Y-43118D01*
X59183Y-43133D01*
X59194Y-43151D01*
X59226Y-43165D01*
X59253Y-43153D01*
X59283Y-43120D01*
X59260Y-43075D01*
X59257Y-43071D01*
X59182Y-43027D01*
X59085Y-43025D01*
X58995Y-43064D01*
X58972Y-43084D01*
X58950Y-43124D01*
X58950Y-42819D01*
X58616Y-42244D01*
X58514Y-42068D01*
X58424Y-41913D01*
X58351Y-41788D01*
X58300Y-41702D01*
X58276Y-41663D01*
X58275Y-41662D01*
X58257Y-41686D01*
X58213Y-41758D01*
X58148Y-41866D01*
X58068Y-42000D01*
X57981Y-42150D01*
X57892Y-42303D01*
X57807Y-42451D01*
X57733Y-42581D01*
X57676Y-42684D01*
X57642Y-42748D01*
X57637Y-42760D01*
X57633Y-42780D01*
X57645Y-42795D01*
X57681Y-42805D01*
X57749Y-42812D01*
X57858Y-42816D01*
X58015Y-42818D01*
X58228Y-42818D01*
X58282Y-42819D01*
X58950Y-42819D01*
X58950Y-43124D01*
X58920Y-43180D01*
X58919Y-43276D01*
X58958Y-43362D01*
X59027Y-43424D01*
X59115Y-43452D01*
X59209Y-43432D01*
X59261Y-43397D01*
X59308Y-43344D01*
X59322Y-43313D01*
X59322Y-43652D01*
X59072Y-43652D01*
X58822Y-43652D01*
X58822Y-43235D01*
X58819Y-43118D01*
X58810Y-43053D01*
X58789Y-43024D01*
X58755Y-43019D01*
X58719Y-43025D01*
X58699Y-43055D01*
X58690Y-43123D01*
X58688Y-43235D01*
X58690Y-43352D01*
X58699Y-43418D01*
X58720Y-43446D01*
X58755Y-43452D01*
X58791Y-43445D01*
X58811Y-43415D01*
X58820Y-43347D01*
X58822Y-43235D01*
X58822Y-43652D01*
X58588Y-43652D01*
X58588Y-43235D01*
X58586Y-43118D01*
X58577Y-43053D01*
X58556Y-43024D01*
X58522Y-43019D01*
X58474Y-43033D01*
X58456Y-43088D01*
X58454Y-43127D01*
X58454Y-43235D01*
X58384Y-43127D01*
X58306Y-43041D01*
X58235Y-43019D01*
X58192Y-43023D01*
X58168Y-43045D01*
X58157Y-43102D01*
X58155Y-43206D01*
X58155Y-43235D01*
X58156Y-43352D01*
X58165Y-43417D01*
X58185Y-43445D01*
X58225Y-43452D01*
X58238Y-43452D01*
X58300Y-43439D01*
X58321Y-43389D01*
X58323Y-43360D01*
X58324Y-43269D01*
X58392Y-43360D01*
X58456Y-43423D01*
X58520Y-43452D01*
X58524Y-43452D01*
X58559Y-43444D01*
X58578Y-43412D01*
X58587Y-43340D01*
X58588Y-43235D01*
X58588Y-43652D01*
X58088Y-43652D01*
X58088Y-43210D01*
X58088Y-43180D01*
X58084Y-43082D01*
X58069Y-43034D01*
X58034Y-43019D01*
X58022Y-43019D01*
X57977Y-43031D01*
X57958Y-43079D01*
X57954Y-43144D01*
X57941Y-43267D01*
X57904Y-43335D01*
X57845Y-43342D01*
X57842Y-43341D01*
X57805Y-43301D01*
X57789Y-43212D01*
X57788Y-43170D01*
X57784Y-43075D01*
X57766Y-43031D01*
X57727Y-43019D01*
X57722Y-43019D01*
X57681Y-43027D01*
X57661Y-43065D01*
X57655Y-43148D01*
X57655Y-43183D01*
X57668Y-43315D01*
X57704Y-43396D01*
X57707Y-43399D01*
X57791Y-43442D01*
X57898Y-43448D01*
X57998Y-43418D01*
X58027Y-43397D01*
X58071Y-43326D01*
X58088Y-43210D01*
X58088Y-43652D01*
X57022Y-43652D01*
X57022Y-42535D01*
X57022Y-41419D01*
X59072Y-41419D01*
X61122Y-41419D01*
X61122Y-42535D01*
X61122Y-43652D01*
X61122Y-43652D01*
X61122Y-43652D01*
G37*
G36*
X59713Y-43240D02*
X59702Y-43275D01*
X59644Y-43336D01*
X59585Y-43331D01*
X59562Y-43312D01*
X59526Y-43243D01*
X59532Y-43172D01*
X59574Y-43130D01*
X59640Y-43132D01*
X59693Y-43177D01*
X59713Y-43240D01*
X59713Y-43240D01*
X59713Y-43240D01*
G37*
G36*
X60613Y-43261D02*
X60569Y-43333D01*
X60509Y-43379D01*
X60473Y-43367D01*
X60457Y-43296D01*
X60455Y-43235D01*
X60458Y-43137D01*
X60472Y-43095D01*
X60509Y-43096D01*
X60557Y-43120D01*
X60612Y-43180D01*
X60613Y-43261D01*
X60613Y-43261D01*
X60613Y-43261D01*
G37*
G54D13*
X63385Y-42519D03*
G54D14*
X61614Y-46653D03*
X62795Y-45669D03*
X62795Y-47637D03*
G54D15*
X58570Y-50196D03*
X57570Y-50196D03*
X49515Y-55314D03*
X48515Y-55314D03*
X41535Y-49515D03*
X41535Y-48515D03*
X40066Y-44685D03*
X39066Y-44685D03*
X62990Y-55521D03*
X62990Y-53553D03*
X62990Y-51584D03*
X62992Y-51582D03*
X62992Y-53543D03*
X62996Y-55523D03*
G54D16*
X36992Y-42822D03*
G54D17*
X36992Y-41822D03*
G54D16*
X37992Y-42822D03*
X37992Y-41822D03*
X38992Y-42822D03*
X38992Y-41822D03*
G54D18*
X41232Y-57480D03*
X42232Y-57480D03*
X36901Y-57480D03*
X37901Y-57480D03*
G54D19*
X59751Y-46653D03*
G54D20*
X58751Y-46653D03*
G54D19*
X44578Y-44881D03*
G54D20*
X45578Y-44881D03*
G54D19*
X40066Y-46456D03*
G54D20*
X39066Y-46456D03*
G54D15*
X56964Y-48622D03*
X59964Y-48622D03*
X43700Y-53224D03*
X43700Y-56224D03*
X57358Y-54330D03*
X60358Y-54330D03*
X39370Y-53224D03*
X39370Y-56224D03*
X49334Y-51771D03*
X46334Y-51771D03*
X40429Y-41929D03*
X43429Y-41929D03*
G54D21*
X50393Y-46259D03*
X43307Y-46259D03*
X51574Y-46259D03*
X46850Y-46259D03*
X52755Y-46259D03*
X45472Y-46259D03*
X49015Y-46259D03*
G54D22*
X43334Y-50515D03*
G54D23*
X44334Y-50515D03*
X45334Y-50515D03*
X46334Y-50515D03*
X47334Y-50515D03*
X48334Y-50515D03*
X49334Y-50515D03*
X50334Y-50515D03*
X51334Y-50515D03*
X52334Y-50515D03*
X52334Y-47515D03*
X51334Y-47515D03*
X50334Y-47515D03*
X49334Y-47515D03*
X48334Y-47515D03*
X47334Y-47515D03*
X46334Y-47515D03*
X45334Y-47515D03*
X44334Y-47515D03*
X43334Y-47515D03*
G54D24*
X48834Y-53543D03*
X46834Y-53543D03*
G54D15*
X46153Y-55314D03*
X47153Y-55314D03*
G54D25*
X37295Y-48425D03*
G54D15*
X38295Y-48425D03*
G54D26*
X32177Y-44787D03*
G54D27*
X33177Y-44787D03*
X32177Y-45787D03*
X33177Y-45787D03*
X32177Y-46787D03*
X33177Y-46787D03*
X32177Y-47787D03*
X33177Y-47787D03*
X32177Y-48787D03*
X33177Y-48787D03*
X32177Y-49787D03*
X33177Y-49787D03*
X32177Y-50787D03*
X33177Y-50787D03*
X32177Y-51787D03*
X33177Y-51787D03*
X32177Y-52787D03*
X33177Y-52787D03*
X32177Y-53787D03*
X33177Y-53787D03*
X32177Y-54787D03*
X33177Y-54787D03*
X32177Y-55787D03*
X33177Y-55787D03*
X32177Y-56787D03*
X33177Y-56787D03*
G54D13*
X33070Y-59055D03*
X33070Y-42519D03*
X63385Y-59055D03*
G54D28*
X47334Y-50515D02*
X47342Y-50492D01*
X47342Y-50492D02*
X47342Y-50787D01*
X47342Y-50787D02*
X46358Y-51771D01*
X46358Y-51771D02*
X46334Y-51771D01*
X46834Y-53543D02*
X46850Y-53543D01*
X46850Y-53543D02*
X46850Y-54625D01*
X46850Y-54625D02*
X46161Y-55314D01*
X46161Y-55314D02*
X46153Y-55314D01*
X46334Y-51771D02*
X46358Y-51771D01*
X46358Y-51771D02*
X46358Y-53051D01*
X46358Y-53051D02*
X46850Y-53543D01*
X46850Y-53543D02*
X46834Y-53543D01*
X43307Y-46259D02*
X43307Y-47539D01*
X43307Y-47539D02*
X43334Y-47515D01*
X49334Y-50515D02*
X49311Y-50492D01*
X49311Y-50492D02*
X49311Y-50984D01*
X49311Y-50984D02*
X49803Y-51476D01*
X49803Y-51476D02*
X49803Y-54822D01*
X49803Y-54822D02*
X49901Y-54921D01*
X49901Y-54921D02*
X49901Y-55019D01*
X49901Y-55019D02*
X50000Y-55118D01*
X50000Y-55118D02*
X50000Y-55610D01*
X50000Y-55610D02*
X49803Y-55807D01*
X49803Y-55807D02*
X45964Y-55807D01*
X45964Y-55807D02*
X45866Y-55708D01*
X45866Y-55708D02*
X43602Y-55708D01*
X43602Y-55708D02*
X43503Y-55807D01*
X43503Y-55807D02*
X43405Y-55807D01*
X43405Y-55807D02*
X42224Y-56988D01*
X42224Y-56988D02*
X41929Y-56988D01*
X41929Y-56988D02*
X41437Y-57480D01*
X41437Y-57480D02*
X41232Y-57480D01*
X50334Y-47515D02*
X50295Y-47539D01*
X50295Y-47539D02*
X50295Y-46358D01*
X50295Y-46358D02*
X50393Y-46259D01*
X51334Y-47515D02*
X51377Y-47539D01*
X51377Y-47539D02*
X51377Y-46456D01*
X51377Y-46456D02*
X51574Y-46259D01*
X52334Y-47515D02*
X52362Y-47539D01*
X52362Y-47539D02*
X52362Y-46653D01*
X52362Y-46653D02*
X52755Y-46259D01*
X46334Y-47515D02*
X46358Y-47539D01*
X46358Y-47539D02*
X46358Y-46751D01*
X46358Y-46751D02*
X46850Y-46259D01*
X37992Y-41822D02*
X37992Y-41830D01*
X37992Y-41830D02*
X38484Y-41338D01*
X38484Y-41338D02*
X38484Y-41240D01*
X38484Y-41240D02*
X39468Y-41240D01*
X39468Y-41240D02*
X39665Y-41437D01*
X39665Y-41437D02*
X40649Y-41437D01*
X40649Y-41437D02*
X41141Y-41929D01*
X41141Y-41929D02*
X43429Y-41929D01*
X40066Y-44685D02*
X40059Y-44685D01*
X40059Y-44685D02*
X40059Y-46456D01*
X40059Y-46456D02*
X40066Y-46456D01*
X45472Y-46259D02*
X45472Y-47440D01*
X45472Y-47440D02*
X45374Y-47539D01*
X45374Y-47539D02*
X45334Y-47515D01*
X49015Y-46259D02*
X49015Y-47244D01*
X49015Y-47244D02*
X49311Y-47539D01*
X49311Y-47539D02*
X49334Y-47515D01*
X49334Y-51771D02*
X49311Y-51771D01*
X49311Y-51771D02*
X49311Y-51673D01*
X49311Y-51673D02*
X48818Y-51181D01*
X48818Y-51181D02*
X48818Y-50984D01*
X48818Y-50984D02*
X48326Y-50492D01*
X48326Y-50492D02*
X48334Y-50515D01*
X48834Y-53543D02*
X48818Y-53543D01*
X48818Y-53543D02*
X48818Y-54625D01*
X48818Y-54625D02*
X49507Y-55314D01*
X49507Y-55314D02*
X49515Y-55314D01*
X49334Y-51771D02*
X49311Y-51771D01*
X49311Y-51771D02*
X49311Y-53051D01*
X49311Y-53051D02*
X48818Y-53543D01*
X48818Y-53543D02*
X48834Y-53543D01*
X60358Y-54330D02*
X60334Y-54330D01*
X60334Y-54330D02*
X60334Y-51181D01*
X60334Y-51181D02*
X63385Y-48129D01*
X63385Y-48129D02*
X63385Y-48031D01*
X63385Y-48031D02*
X63484Y-47933D01*
X63484Y-47933D02*
X63484Y-45275D01*
X63484Y-45275D02*
X62500Y-44291D01*
X62500Y-44291D02*
X43996Y-44291D01*
X43996Y-44291D02*
X43996Y-47244D01*
X43996Y-47244D02*
X44291Y-47539D01*
X44291Y-47539D02*
X44334Y-47515D01*
X44334Y-47515D02*
X44291Y-47539D01*
X44291Y-47539D02*
X44291Y-45177D01*
X44291Y-45177D02*
X44586Y-44881D01*
X44586Y-44881D02*
X44578Y-44881D01*
X58570Y-50196D02*
X58562Y-50196D01*
X58562Y-50196D02*
X57578Y-51181D01*
X57578Y-51181D02*
X51870Y-51181D01*
X51870Y-51181D02*
X51870Y-50984D01*
X51870Y-50984D02*
X51377Y-50492D01*
X51377Y-50492D02*
X51334Y-50515D01*
X58570Y-50196D02*
X58562Y-50196D01*
X58562Y-50196D02*
X58562Y-46850D01*
X58562Y-46850D02*
X58759Y-46653D01*
X58759Y-46653D02*
X58751Y-46653D01*
X37295Y-48425D02*
X37303Y-48425D01*
X37303Y-48425D02*
X37303Y-48326D01*
X37303Y-48326D02*
X37007Y-48031D01*
X37007Y-48031D02*
X37007Y-44881D01*
X37007Y-44881D02*
X38484Y-43405D01*
X38484Y-43405D02*
X38484Y-42224D01*
X38484Y-42224D02*
X38877Y-41830D01*
X38877Y-41830D02*
X38976Y-41830D01*
X38976Y-41830D02*
X38992Y-41822D01*
X37295Y-48425D02*
X37303Y-48425D01*
X37303Y-48425D02*
X37303Y-45177D01*
X37303Y-45177D02*
X38582Y-43897D01*
X38582Y-43897D02*
X40551Y-43897D01*
X40551Y-43897D02*
X42322Y-45669D01*
X42322Y-45669D02*
X42322Y-47637D01*
X42322Y-47637D02*
X43897Y-49212D01*
X43897Y-49212D02*
X44685Y-49212D01*
X44685Y-49212D02*
X45374Y-49901D01*
X45374Y-49901D02*
X45866Y-49901D01*
X45866Y-49901D02*
X45866Y-51771D01*
X45866Y-51771D02*
X41929Y-55708D01*
X41929Y-55708D02*
X39271Y-55708D01*
X39271Y-55708D02*
X39173Y-55807D01*
X39173Y-55807D02*
X39074Y-55807D01*
X39074Y-55807D02*
X37893Y-56988D01*
X37893Y-56988D02*
X37598Y-56988D01*
X37598Y-56988D02*
X37106Y-57480D01*
X37106Y-57480D02*
X36901Y-57480D01*
X41535Y-49515D02*
X41535Y-49311D01*
X41535Y-49311D02*
X41929Y-48917D01*
X41929Y-48917D02*
X41929Y-48818D01*
X41929Y-48818D02*
X42027Y-48720D01*
X42027Y-48720D02*
X42027Y-45866D01*
X42027Y-45866D02*
X40354Y-44192D01*
X40354Y-44192D02*
X38877Y-44192D01*
X38877Y-44192D02*
X38779Y-44291D01*
X38779Y-44291D02*
X38681Y-44291D01*
X38681Y-44291D02*
X38681Y-44389D01*
X38681Y-44389D02*
X38582Y-44488D01*
X38582Y-44488D02*
X38582Y-46062D01*
X38582Y-46062D02*
X38484Y-46161D01*
X38484Y-46161D02*
X38484Y-46555D01*
X38484Y-46555D02*
X37992Y-47047D01*
X37992Y-47047D02*
X37992Y-47736D01*
X37992Y-47736D02*
X37303Y-48425D01*
X37303Y-48425D02*
X37295Y-48425D01*
X45334Y-50515D02*
X45374Y-50492D01*
X45374Y-50492D02*
X45374Y-50393D01*
X45374Y-50393D02*
X44488Y-49507D01*
X44488Y-49507D02*
X41535Y-49507D01*
X41535Y-49507D02*
X41535Y-49515D01*
X36901Y-57480D02*
X36909Y-57480D01*
X36909Y-57480D02*
X36220Y-56791D01*
X36220Y-56791D02*
X33169Y-56791D01*
X33169Y-56791D02*
X33177Y-56787D01*
X38992Y-41822D02*
X38976Y-41830D01*
X38976Y-41830D02*
X39074Y-41929D01*
X39074Y-41929D02*
X40429Y-41929D01*
X33177Y-56787D02*
X33169Y-56791D01*
X33169Y-56791D02*
X33169Y-55807D01*
X33169Y-55807D02*
X33177Y-55787D01*
X46334Y-50515D02*
X46850Y-50000D01*
X46850Y-50000D02*
X46850Y-49901D01*
X46850Y-49901D02*
X52854Y-49901D01*
X52854Y-49901D02*
X53149Y-50196D01*
X53149Y-50196D02*
X57570Y-50196D01*
X38295Y-48425D02*
X38287Y-48425D01*
X38287Y-48425D02*
X38287Y-52165D01*
X38287Y-52165D02*
X39370Y-53248D01*
X39370Y-53248D02*
X39370Y-53224D01*
X46334Y-50515D02*
X46358Y-50492D01*
X46358Y-50492D02*
X46358Y-48622D01*
X46358Y-48622D02*
X45866Y-48129D01*
X45866Y-48129D02*
X45866Y-46850D01*
X45866Y-46850D02*
X45964Y-46751D01*
X45964Y-46751D02*
X45964Y-45275D01*
X45964Y-45275D02*
X45570Y-44881D01*
X45570Y-44881D02*
X45578Y-44881D01*
X32177Y-48787D02*
X32185Y-48818D01*
X32185Y-48818D02*
X32578Y-49212D01*
X32578Y-49212D02*
X32578Y-49311D01*
X32578Y-49311D02*
X33759Y-49311D01*
X33759Y-49311D02*
X34153Y-48917D01*
X34153Y-48917D02*
X37795Y-48917D01*
X37795Y-48917D02*
X38287Y-48425D01*
X38287Y-48425D02*
X38295Y-48425D01*
X38295Y-48425D02*
X38287Y-48425D01*
X38287Y-48425D02*
X38287Y-47244D01*
X38287Y-47244D02*
X39074Y-46456D01*
X39074Y-46456D02*
X39066Y-46456D01*
X39370Y-53224D02*
X39370Y-53248D01*
X39370Y-53248D02*
X43700Y-53248D01*
X43700Y-53248D02*
X43700Y-53224D01*
X57570Y-50196D02*
X57578Y-50196D01*
X57578Y-50196D02*
X57578Y-49212D01*
X57578Y-49212D02*
X56988Y-48622D01*
X56988Y-48622D02*
X56964Y-48622D01*
X38295Y-48425D02*
X38287Y-48425D01*
X38287Y-48425D02*
X38385Y-48523D01*
X38385Y-48523D02*
X41535Y-48523D01*
X41535Y-48523D02*
X41535Y-48515D01*
X39066Y-46456D02*
X39074Y-46456D01*
X39074Y-46456D02*
X39074Y-44685D01*
X39074Y-44685D02*
X39066Y-44685D01*
X47153Y-55314D02*
X48515Y-55314D01*
X32177Y-47787D02*
X32185Y-47834D01*
X32185Y-47834D02*
X32185Y-46751D01*
X32185Y-46751D02*
X32177Y-46787D01*
X32177Y-53787D02*
X32185Y-53740D01*
X32185Y-53740D02*
X32185Y-54822D01*
X32185Y-54822D02*
X32177Y-54787D01*
X32177Y-46787D02*
X32185Y-46751D01*
X32185Y-46751D02*
X32185Y-45767D01*
X32185Y-45767D02*
X32177Y-45787D01*
X32177Y-48787D02*
X32185Y-48818D01*
X32185Y-48818D02*
X32185Y-47834D01*
X32185Y-47834D02*
X32177Y-47787D01*
X32177Y-55787D02*
X32185Y-55807D01*
X32185Y-55807D02*
X32185Y-56791D01*
X32185Y-56791D02*
X32177Y-56787D01*
X32177Y-49787D02*
X32185Y-49803D01*
X32185Y-49803D02*
X32185Y-48818D01*
X32185Y-48818D02*
X32177Y-48787D01*
X32177Y-45787D02*
X32185Y-45767D01*
X32185Y-45767D02*
X32185Y-44783D01*
X32185Y-44783D02*
X32177Y-44787D01*
X32177Y-50787D02*
X32185Y-50787D01*
X32185Y-50787D02*
X32185Y-49803D01*
X32185Y-49803D02*
X32177Y-49787D01*
X32177Y-54787D02*
X32185Y-54822D01*
X32185Y-54822D02*
X32185Y-55807D01*
X32185Y-55807D02*
X32177Y-55787D01*
X32177Y-51787D02*
X32185Y-51771D01*
X32185Y-51771D02*
X32185Y-50787D01*
X32185Y-50787D02*
X32177Y-50787D01*
X32177Y-52787D02*
X32185Y-52755D01*
X32185Y-52755D02*
X32185Y-51771D01*
X32185Y-51771D02*
X32177Y-51787D01*
X32177Y-53787D02*
X32185Y-53740D01*
X32185Y-53740D02*
X32185Y-52755D01*
X32185Y-52755D02*
X32177Y-52787D01*
X59964Y-48622D02*
X59940Y-48622D01*
X59940Y-48622D02*
X60925Y-47637D01*
X60925Y-47637D02*
X62795Y-47637D01*
X61614Y-46653D02*
X62598Y-45669D01*
X62598Y-45669D02*
X62795Y-45669D01*
X61614Y-46653D02*
X59751Y-46653D01*
X37901Y-57480D02*
X37893Y-57480D01*
X37893Y-57480D02*
X39173Y-56200D01*
X39173Y-56200D02*
X39370Y-56200D01*
X39370Y-56200D02*
X39370Y-56224D01*
X42232Y-57480D02*
X42224Y-57480D01*
X42224Y-57480D02*
X43503Y-56200D01*
X43503Y-56200D02*
X43700Y-56200D01*
X43700Y-56200D02*
X43700Y-56224D01*
M02*
