G04 (created by PCBNEW (2013-mar-13)-testing) date dom 25 ago 2013 18:51:32 ART*
%MOIN*%
G04 Gerber Fmt 3.4, Leading zero omitted, Abs format*
%FSLAX34Y34*%
G01*
G70*
G90*
G04 APERTURE LIST*
%ADD10C,0.003937*%
%ADD11C,0.005906*%
%ADD12C,0.160000*%
%ADD13C,0.100000*%
%ADD14C,0.055000*%
%ADD15O,0.062992X0.078740*%
%ADD16R,0.062992X0.078740*%
%ADD17C,0.066000*%
%ADD18R,0.070866X0.070866*%
%ADD19C,0.078740*%
%ADD20R,0.060000X0.060000*%
%ADD21R,0.062000X0.090000*%
%ADD22O,0.062000X0.090000*%
%ADD23C,0.056000*%
%ADD24R,0.055000X0.055000*%
%ADD25R,0.078740X0.062992*%
%ADD26O,0.078740X0.062992*%
G04 APERTURE END LIST*
G54D10*
G54D11*
X31496Y-40944D02*
X31496Y-60629D01*
X64960Y-40944D02*
X31496Y-40944D01*
X64960Y-60629D02*
X64960Y-40944D01*
X31496Y-60629D02*
X64960Y-60629D01*
G54D12*
X63385Y-42519D03*
G54D13*
X61614Y-46653D03*
X62795Y-45669D03*
X62795Y-47637D03*
G54D14*
X58570Y-50196D03*
X57570Y-50196D03*
X49515Y-55314D03*
X48515Y-55314D03*
X41535Y-49515D03*
X41535Y-48515D03*
X40066Y-44685D03*
X39066Y-44685D03*
X62990Y-55521D03*
X62990Y-53553D03*
X62990Y-51584D03*
X62992Y-51582D03*
X62992Y-53543D03*
X62996Y-55523D03*
G54D15*
X36992Y-42822D03*
G54D16*
X36992Y-41822D03*
G54D15*
X37992Y-42822D03*
X37992Y-41822D03*
X38992Y-42822D03*
X38992Y-41822D03*
G54D17*
X41232Y-57480D03*
X42232Y-57480D03*
X36901Y-57480D03*
X37901Y-57480D03*
G54D18*
X59751Y-46653D03*
G54D19*
X58751Y-46653D03*
G54D18*
X44578Y-44881D03*
G54D19*
X45578Y-44881D03*
G54D18*
X40066Y-46456D03*
G54D19*
X39066Y-46456D03*
G54D14*
X56964Y-48622D03*
X59964Y-48622D03*
X43700Y-53224D03*
X43700Y-56224D03*
X57358Y-54330D03*
X60358Y-54330D03*
X39370Y-53224D03*
X39370Y-56224D03*
X49334Y-51771D03*
X46334Y-51771D03*
X40429Y-41929D03*
X43429Y-41929D03*
G54D20*
X50393Y-46259D03*
X43307Y-46259D03*
X51574Y-46259D03*
X46850Y-46259D03*
X52755Y-46259D03*
X45472Y-46259D03*
X49015Y-46259D03*
G54D21*
X43334Y-50515D03*
G54D22*
X44334Y-50515D03*
X45334Y-50515D03*
X46334Y-50515D03*
X47334Y-50515D03*
X48334Y-50515D03*
X49334Y-50515D03*
X50334Y-50515D03*
X51334Y-50515D03*
X52334Y-50515D03*
X52334Y-47515D03*
X51334Y-47515D03*
X50334Y-47515D03*
X49334Y-47515D03*
X48334Y-47515D03*
X47334Y-47515D03*
X46334Y-47515D03*
X45334Y-47515D03*
X44334Y-47515D03*
X43334Y-47515D03*
G54D23*
X48834Y-53543D03*
X46834Y-53543D03*
G54D14*
X46153Y-55314D03*
X47153Y-55314D03*
G54D24*
X37295Y-48425D03*
G54D14*
X38295Y-48425D03*
G54D25*
X32177Y-44787D03*
G54D26*
X33177Y-44787D03*
X32177Y-45787D03*
X33177Y-45787D03*
X32177Y-46787D03*
X33177Y-46787D03*
X32177Y-47787D03*
X33177Y-47787D03*
X32177Y-48787D03*
X33177Y-48787D03*
X32177Y-49787D03*
X33177Y-49787D03*
X32177Y-50787D03*
X33177Y-50787D03*
X32177Y-51787D03*
X33177Y-51787D03*
X32177Y-52787D03*
X33177Y-52787D03*
X32177Y-53787D03*
X33177Y-53787D03*
X32177Y-54787D03*
X33177Y-54787D03*
X32177Y-55787D03*
X33177Y-55787D03*
X32177Y-56787D03*
X33177Y-56787D03*
G54D12*
X33070Y-59055D03*
X33070Y-42519D03*
X63385Y-59055D03*
M02*
