G04 (created by PCBNEW (2013-mar-13)-testing) date mar 05 nov 2013 08:38:10 ART*
%MOIN*%
G04 Gerber Fmt 3.4, Leading zero omitted, Abs format*
%FSLAX34Y34*%
G01*
G70*
G90*
G04 APERTURE LIST*
%ADD10C,0.003937*%
%ADD11C,0.000100*%
%ADD12R,0.055000X0.055000*%
%ADD13C,0.055000*%
%ADD14R,0.070000X0.070000*%
%ADD15C,0.070000*%
%ADD16C,0.078740*%
%ADD17R,0.065000X0.065000*%
%ADD18C,0.065000*%
%ADD19R,0.060000X0.060000*%
%ADD20C,0.060000*%
%ADD21C,0.066000*%
%ADD22C,0.150000*%
%ADD23R,0.090000X0.062000*%
%ADD24O,0.090000X0.062000*%
%ADD25R,0.062000X0.090000*%
%ADD26O,0.062000X0.090000*%
%ADD27R,0.350000X0.350000*%
%ADD28C,0.056000*%
%ADD29C,0.100000*%
%ADD30C,0.157480*%
%ADD31C,0.076700*%
%ADD32C,0.137800*%
%ADD33C,0.078700*%
%ADD34C,0.035000*%
%ADD35C,0.015748*%
%ADD36C,0.039370*%
%ADD37C,0.078740*%
%ADD38C,0.118110*%
G04 APERTURE END LIST*
G54D10*
G54D11*
G36*
X81988Y-54676D02*
X81658Y-54676D01*
X81658Y-53843D01*
X81548Y-53650D01*
X81380Y-53357D01*
X81242Y-53121D01*
X81135Y-52940D01*
X81057Y-52813D01*
X81006Y-52736D01*
X80982Y-52710D01*
X80961Y-52737D01*
X80912Y-52811D01*
X80844Y-52921D01*
X80761Y-53057D01*
X80710Y-53142D01*
X80710Y-52688D01*
X80710Y-52687D01*
X80674Y-52684D01*
X80582Y-52681D01*
X80444Y-52681D01*
X80271Y-52681D01*
X80072Y-52683D01*
X80043Y-52683D01*
X79390Y-52693D01*
X79714Y-53250D01*
X79815Y-53423D01*
X79905Y-53574D01*
X79979Y-53694D01*
X80032Y-53775D01*
X80057Y-53808D01*
X80058Y-53809D01*
X80080Y-53781D01*
X80130Y-53705D01*
X80202Y-53589D01*
X80291Y-53441D01*
X80391Y-53270D01*
X80400Y-53255D01*
X80500Y-53082D01*
X80585Y-52930D01*
X80652Y-52808D01*
X80695Y-52724D01*
X80710Y-52688D01*
X80710Y-53142D01*
X80671Y-53208D01*
X80579Y-53363D01*
X80492Y-53512D01*
X80417Y-53643D01*
X80360Y-53746D01*
X80327Y-53810D01*
X80321Y-53825D01*
X80353Y-53830D01*
X80441Y-53835D01*
X80576Y-53839D01*
X80748Y-53841D01*
X80947Y-53842D01*
X80989Y-53843D01*
X81658Y-53843D01*
X81658Y-54676D01*
X81584Y-54676D01*
X81584Y-54230D01*
X81552Y-54129D01*
X81532Y-54103D01*
X81448Y-54055D01*
X81332Y-54043D01*
X81188Y-54043D01*
X81188Y-54259D01*
X81188Y-54476D01*
X81327Y-54476D01*
X81442Y-54461D01*
X81524Y-54422D01*
X81527Y-54421D01*
X81575Y-54337D01*
X81584Y-54230D01*
X81584Y-54676D01*
X81121Y-54676D01*
X81121Y-54428D01*
X81090Y-54389D01*
X81013Y-54370D01*
X80947Y-54359D01*
X80913Y-54331D01*
X80899Y-54266D01*
X80894Y-54201D01*
X80883Y-54103D01*
X80862Y-54055D01*
X80822Y-54043D01*
X80819Y-54043D01*
X80784Y-54050D01*
X80764Y-54081D01*
X80756Y-54152D01*
X80754Y-54259D01*
X80754Y-54476D01*
X80938Y-54476D01*
X81050Y-54471D01*
X81107Y-54454D01*
X81121Y-54428D01*
X81121Y-54676D01*
X80686Y-54676D01*
X80686Y-54233D01*
X80662Y-54133D01*
X80635Y-54095D01*
X80550Y-54050D01*
X80449Y-54050D01*
X80352Y-54087D01*
X80280Y-54154D01*
X80254Y-54238D01*
X80274Y-54307D01*
X80322Y-54386D01*
X80323Y-54388D01*
X80414Y-54459D01*
X80520Y-54473D01*
X80620Y-54427D01*
X80627Y-54421D01*
X80674Y-54339D01*
X80686Y-54233D01*
X80686Y-54676D01*
X80188Y-54676D01*
X80188Y-54337D01*
X80162Y-54313D01*
X80104Y-54313D01*
X80044Y-54336D01*
X80027Y-54349D01*
X79977Y-54366D01*
X79929Y-54335D01*
X79900Y-54275D01*
X79903Y-54213D01*
X79942Y-54163D01*
X80000Y-54142D01*
X80049Y-54157D01*
X80060Y-54175D01*
X80092Y-54189D01*
X80119Y-54177D01*
X80149Y-54144D01*
X80126Y-54099D01*
X80123Y-54095D01*
X80048Y-54051D01*
X79951Y-54049D01*
X79861Y-54088D01*
X79838Y-54108D01*
X79816Y-54148D01*
X79816Y-53843D01*
X79482Y-53268D01*
X79380Y-53092D01*
X79290Y-52937D01*
X79217Y-52812D01*
X79166Y-52726D01*
X79142Y-52687D01*
X79141Y-52686D01*
X79123Y-52710D01*
X79079Y-52782D01*
X79014Y-52890D01*
X78934Y-53024D01*
X78847Y-53174D01*
X78758Y-53327D01*
X78673Y-53475D01*
X78599Y-53605D01*
X78542Y-53708D01*
X78508Y-53772D01*
X78503Y-53784D01*
X78499Y-53804D01*
X78511Y-53819D01*
X78547Y-53829D01*
X78615Y-53836D01*
X78724Y-53840D01*
X78881Y-53842D01*
X79094Y-53842D01*
X79148Y-53843D01*
X79816Y-53843D01*
X79816Y-54148D01*
X79786Y-54204D01*
X79785Y-54300D01*
X79824Y-54386D01*
X79893Y-54448D01*
X79981Y-54476D01*
X80075Y-54456D01*
X80127Y-54421D01*
X80174Y-54368D01*
X80188Y-54337D01*
X80188Y-54676D01*
X79938Y-54676D01*
X79688Y-54676D01*
X79688Y-54259D01*
X79685Y-54142D01*
X79676Y-54077D01*
X79655Y-54048D01*
X79621Y-54043D01*
X79585Y-54049D01*
X79565Y-54079D01*
X79556Y-54147D01*
X79554Y-54259D01*
X79556Y-54376D01*
X79565Y-54442D01*
X79586Y-54470D01*
X79621Y-54476D01*
X79657Y-54469D01*
X79677Y-54439D01*
X79686Y-54371D01*
X79688Y-54259D01*
X79688Y-54676D01*
X79454Y-54676D01*
X79454Y-54259D01*
X79452Y-54142D01*
X79443Y-54077D01*
X79422Y-54048D01*
X79388Y-54043D01*
X79340Y-54057D01*
X79322Y-54112D01*
X79320Y-54151D01*
X79320Y-54259D01*
X79250Y-54151D01*
X79172Y-54065D01*
X79101Y-54043D01*
X79058Y-54047D01*
X79034Y-54069D01*
X79023Y-54126D01*
X79021Y-54230D01*
X79021Y-54259D01*
X79022Y-54376D01*
X79031Y-54441D01*
X79051Y-54469D01*
X79091Y-54476D01*
X79104Y-54476D01*
X79166Y-54463D01*
X79187Y-54413D01*
X79189Y-54384D01*
X79190Y-54293D01*
X79258Y-54384D01*
X79322Y-54447D01*
X79386Y-54476D01*
X79390Y-54476D01*
X79425Y-54468D01*
X79444Y-54436D01*
X79453Y-54364D01*
X79454Y-54259D01*
X79454Y-54676D01*
X78954Y-54676D01*
X78954Y-54234D01*
X78954Y-54204D01*
X78950Y-54106D01*
X78935Y-54058D01*
X78900Y-54043D01*
X78888Y-54043D01*
X78843Y-54055D01*
X78824Y-54103D01*
X78820Y-54168D01*
X78807Y-54291D01*
X78770Y-54359D01*
X78711Y-54366D01*
X78708Y-54365D01*
X78671Y-54325D01*
X78655Y-54236D01*
X78654Y-54194D01*
X78650Y-54099D01*
X78632Y-54055D01*
X78593Y-54043D01*
X78588Y-54043D01*
X78547Y-54051D01*
X78527Y-54089D01*
X78521Y-54172D01*
X78521Y-54207D01*
X78534Y-54339D01*
X78570Y-54420D01*
X78573Y-54423D01*
X78657Y-54466D01*
X78764Y-54472D01*
X78864Y-54442D01*
X78893Y-54421D01*
X78937Y-54350D01*
X78954Y-54234D01*
X78954Y-54676D01*
X77888Y-54676D01*
X77888Y-53559D01*
X77888Y-52443D01*
X79938Y-52443D01*
X81988Y-52443D01*
X81988Y-53559D01*
X81988Y-54676D01*
X81988Y-54676D01*
X81988Y-54676D01*
G37*
G36*
X80579Y-54264D02*
X80568Y-54299D01*
X80510Y-54360D01*
X80451Y-54355D01*
X80428Y-54336D01*
X80392Y-54267D01*
X80398Y-54196D01*
X80440Y-54154D01*
X80506Y-54156D01*
X80559Y-54201D01*
X80579Y-54264D01*
X80579Y-54264D01*
X80579Y-54264D01*
G37*
G36*
X81479Y-54285D02*
X81435Y-54357D01*
X81375Y-54403D01*
X81339Y-54391D01*
X81323Y-54320D01*
X81321Y-54259D01*
X81324Y-54161D01*
X81338Y-54119D01*
X81375Y-54120D01*
X81423Y-54144D01*
X81478Y-54204D01*
X81479Y-54285D01*
X81479Y-54285D01*
X81479Y-54285D01*
G37*
G54D12*
X59342Y-46259D03*
G54D13*
X60342Y-46259D03*
X82677Y-48031D03*
X82677Y-50000D03*
X82677Y-51968D03*
X82677Y-44094D03*
X82677Y-46062D03*
X82677Y-38188D03*
X82677Y-40157D03*
X82677Y-42125D03*
G54D14*
X54724Y-35448D03*
G54D15*
X54724Y-33448D03*
X54724Y-34448D03*
G54D14*
X54724Y-31118D03*
G54D15*
X54724Y-29118D03*
X54724Y-30118D03*
G54D14*
X54724Y-26787D03*
G54D15*
X54724Y-24787D03*
X54724Y-25787D03*
G54D16*
X33464Y-53937D03*
X83464Y-53937D03*
X83464Y-24409D03*
X33464Y-24409D03*
G54D13*
X50000Y-40854D03*
X50000Y-39854D03*
X55307Y-44192D03*
X56307Y-44192D03*
X48137Y-40748D03*
X47137Y-40748D03*
X48137Y-38385D03*
X47137Y-38385D03*
X61614Y-48334D03*
X61614Y-47334D03*
X75196Y-49500D03*
X75196Y-50500D03*
X62688Y-53149D03*
X63688Y-53149D03*
X70866Y-53437D03*
X70866Y-54437D03*
G54D17*
X51681Y-53149D03*
G54D18*
X50681Y-53149D03*
G54D13*
X53543Y-53043D03*
X53543Y-54043D03*
X64960Y-53437D03*
X64960Y-54437D03*
X59055Y-53043D03*
X59055Y-54043D03*
X66535Y-44988D03*
X66535Y-43988D03*
X64173Y-44988D03*
X64173Y-43988D03*
G54D19*
X59145Y-49196D03*
G54D20*
X60145Y-49196D03*
X59145Y-50196D03*
X60145Y-50196D03*
X59145Y-51196D03*
X60145Y-51196D03*
G54D12*
X72830Y-44330D03*
G54D13*
X75830Y-44330D03*
G54D21*
X52255Y-44094D03*
X53255Y-44094D03*
X49696Y-44094D03*
X50696Y-44094D03*
G54D22*
X33464Y-43244D03*
X33464Y-45244D03*
X33464Y-49244D03*
X33464Y-51244D03*
G54D23*
X79374Y-47299D03*
G54D24*
X79374Y-46299D03*
X79374Y-45299D03*
X76374Y-45299D03*
X76374Y-46299D03*
X76374Y-47299D03*
G54D19*
X43003Y-40157D03*
G54D20*
X44003Y-40157D03*
G54D19*
X73228Y-52311D03*
G54D20*
X73228Y-51311D03*
G54D19*
X73228Y-53633D03*
G54D20*
X73228Y-54633D03*
G54D19*
X61614Y-50893D03*
G54D20*
X61614Y-49893D03*
G54D12*
X69972Y-42625D03*
G54D13*
X70972Y-42625D03*
X70972Y-41625D03*
X71972Y-44291D03*
X68972Y-44291D03*
X57405Y-43070D03*
X54405Y-43070D03*
X45744Y-41929D03*
X48744Y-41929D03*
X72366Y-45472D03*
X69366Y-45472D03*
X45744Y-39566D03*
X48744Y-39566D03*
X40748Y-33736D03*
X40748Y-36736D03*
X42125Y-35704D03*
X42125Y-38704D03*
X40748Y-29208D03*
X40748Y-32208D03*
X42125Y-31374D03*
X42125Y-34374D03*
X40748Y-24484D03*
X40748Y-27484D03*
X42125Y-27240D03*
X42125Y-30240D03*
X76377Y-52484D03*
X76377Y-49484D03*
X72047Y-54492D03*
X72047Y-51492D03*
X57405Y-45275D03*
X54405Y-45275D03*
X64688Y-51968D03*
X61688Y-51968D03*
X49287Y-46259D03*
X52287Y-46259D03*
X69610Y-50984D03*
X66610Y-50984D03*
X80551Y-47326D03*
X80551Y-44326D03*
X74606Y-51649D03*
X74606Y-54649D03*
X74015Y-46531D03*
X74015Y-49531D03*
X67716Y-42397D03*
X67716Y-45397D03*
X65354Y-42397D03*
X65354Y-45397D03*
X62992Y-42397D03*
X62992Y-45397D03*
X63460Y-35629D03*
X66460Y-35629D03*
X71086Y-35629D03*
X68086Y-35629D03*
X63460Y-31299D03*
X66460Y-31299D03*
X71086Y-31299D03*
X68086Y-31299D03*
X63318Y-26913D03*
X66318Y-26913D03*
X71283Y-26870D03*
X68283Y-26870D03*
G54D25*
X51921Y-41854D03*
G54D26*
X52921Y-41854D03*
X53921Y-41854D03*
X54921Y-41854D03*
X55921Y-41854D03*
X56921Y-41854D03*
X57921Y-41854D03*
X57921Y-38854D03*
X56921Y-38854D03*
X55921Y-38854D03*
X54921Y-38854D03*
X53921Y-38854D03*
X52921Y-38854D03*
X51921Y-38854D03*
G54D25*
X63413Y-49925D03*
G54D26*
X64413Y-49925D03*
X65413Y-49925D03*
X66413Y-49925D03*
X67413Y-49925D03*
X68413Y-49925D03*
X69413Y-49925D03*
X70413Y-49925D03*
X71413Y-49925D03*
X72413Y-49925D03*
X72413Y-46925D03*
X71413Y-46925D03*
X70413Y-46925D03*
X69413Y-46925D03*
X68413Y-46925D03*
X67413Y-46925D03*
X66413Y-46925D03*
X65413Y-46925D03*
X64413Y-46925D03*
X63413Y-46925D03*
G54D14*
X57102Y-54133D03*
G54D15*
X55102Y-54133D03*
X56102Y-54133D03*
G54D27*
X56102Y-47633D03*
G54D23*
X68578Y-37976D03*
G54D24*
X68578Y-38976D03*
X68578Y-39976D03*
X71578Y-39976D03*
X71578Y-38976D03*
X71578Y-37976D03*
G54D23*
X64248Y-37976D03*
G54D24*
X64248Y-38976D03*
X64248Y-39976D03*
X67248Y-39976D03*
X67248Y-38976D03*
X67248Y-37976D03*
G54D23*
X59720Y-37976D03*
G54D24*
X59720Y-38976D03*
X59720Y-39976D03*
X62720Y-39976D03*
X62720Y-38976D03*
X62720Y-37976D03*
G54D28*
X68913Y-52755D03*
X66913Y-52755D03*
G54D15*
X52657Y-34842D03*
X44192Y-34842D03*
X52657Y-30511D03*
X44192Y-30511D03*
X52657Y-26181D03*
X44192Y-26181D03*
G54D29*
X78937Y-50393D03*
X79921Y-51574D03*
X77952Y-51574D03*
G54D20*
X50000Y-50031D03*
X52000Y-50031D03*
X52000Y-48031D03*
X50000Y-48031D03*
G54D30*
X37992Y-39370D03*
X34055Y-39370D03*
X34448Y-35433D03*
X38385Y-35433D03*
X82480Y-35433D03*
X78543Y-35433D03*
X34448Y-31496D03*
X38385Y-31496D03*
X82480Y-31496D03*
X78543Y-31496D03*
X34448Y-27559D03*
X38385Y-27559D03*
X82480Y-27559D03*
X78543Y-27559D03*
G54D13*
X67617Y-29940D03*
X64665Y-28720D03*
X67617Y-25610D03*
X64665Y-24390D03*
G54D31*
X73937Y-42913D03*
X73937Y-38189D03*
X73149Y-40551D03*
X78739Y-38189D03*
X78739Y-42913D03*
G54D13*
X39862Y-42519D03*
X42814Y-41731D03*
X67617Y-34271D03*
X64665Y-33051D03*
G54D32*
X39566Y-53543D03*
X43385Y-53543D03*
X45590Y-44409D03*
X37716Y-44409D03*
G54D33*
X46228Y-32874D03*
X50228Y-32874D03*
X46228Y-28543D03*
X50228Y-28543D03*
G54D13*
X61811Y-44988D03*
X61811Y-43988D03*
G54D33*
X46228Y-24212D03*
X50228Y-24212D03*
G54D12*
X61023Y-53043D03*
G54D13*
X61023Y-54043D03*
G54D19*
X75787Y-53633D03*
G54D20*
X75787Y-54633D03*
G54D34*
X71578Y-37976D03*
X71161Y-33070D03*
X68110Y-28346D03*
X53425Y-46023D03*
X66413Y-46925D03*
X65354Y-45397D03*
X62992Y-45397D03*
X57283Y-44192D03*
X49921Y-37795D03*
X74803Y-53464D03*
X54724Y-33448D03*
X70271Y-53811D03*
X59291Y-45157D03*
X74015Y-49531D03*
X50000Y-51413D03*
X60728Y-42913D03*
X48503Y-32755D03*
G54D35*
X63551Y-49133D02*
X63035Y-49133D01*
X59637Y-49688D02*
X59145Y-49196D01*
X60649Y-49688D02*
X59637Y-49688D01*
X61342Y-50382D02*
X60649Y-49688D01*
X62027Y-50382D02*
X61342Y-50382D01*
X62460Y-49948D02*
X62027Y-50382D01*
X62460Y-49708D02*
X62460Y-49948D01*
X63035Y-49133D02*
X62460Y-49708D01*
X64413Y-49374D02*
X64413Y-49925D01*
X64173Y-49133D02*
X64413Y-49374D01*
X63551Y-49133D02*
X64173Y-49133D01*
G54D36*
X66610Y-50984D02*
X67047Y-50984D01*
X67047Y-50984D02*
X67413Y-51350D01*
X66610Y-50984D02*
X66968Y-50984D01*
X66968Y-50984D02*
X67413Y-50539D01*
X67413Y-49925D02*
X67413Y-50539D01*
X67413Y-50539D02*
X67413Y-51350D01*
X67413Y-51350D02*
X67413Y-51744D01*
X67413Y-51744D02*
X67413Y-52255D01*
X67413Y-52255D02*
X66913Y-52755D01*
X66913Y-52755D02*
X65905Y-52755D01*
X65905Y-52755D02*
X65224Y-53437D01*
X65224Y-53437D02*
X64960Y-53437D01*
X70413Y-49925D02*
X70413Y-49192D01*
X74015Y-48031D02*
X74015Y-46531D01*
X73700Y-48346D02*
X74015Y-48031D01*
X71259Y-48346D02*
X73700Y-48346D01*
X70413Y-49192D02*
X71259Y-48346D01*
X74015Y-46531D02*
X74570Y-46531D01*
X74570Y-46531D02*
X74803Y-46299D01*
X74803Y-46299D02*
X76374Y-46299D01*
X65138Y-32578D02*
X64665Y-33051D01*
X70669Y-32578D02*
X65138Y-32578D01*
X71161Y-33070D02*
X70669Y-32578D01*
G54D37*
X54724Y-34448D02*
X53937Y-34448D01*
G54D38*
X52755Y-34842D02*
X53149Y-34448D01*
X53149Y-34448D02*
X53937Y-34448D01*
X52755Y-34842D02*
X52657Y-34842D01*
X40748Y-33736D02*
X41263Y-33736D01*
X52263Y-34448D02*
X52657Y-34842D01*
X45669Y-34448D02*
X52263Y-34448D01*
X44291Y-33070D02*
X45669Y-34448D01*
X41929Y-33070D02*
X44291Y-33070D01*
X41263Y-33736D02*
X41929Y-33070D01*
X38385Y-35433D02*
X39051Y-35433D01*
X39051Y-35433D02*
X40748Y-33736D01*
X34448Y-35433D02*
X38385Y-35433D01*
G54D36*
X64665Y-28720D02*
X64684Y-28720D01*
X65059Y-28346D02*
X68110Y-28346D01*
X64684Y-28720D02*
X65059Y-28346D01*
G54D37*
X52657Y-30511D02*
X53267Y-30511D01*
X53267Y-30511D02*
X53661Y-30118D01*
X53661Y-30118D02*
X54724Y-30118D01*
G54D36*
X53661Y-30118D02*
X54724Y-30118D01*
X53267Y-30511D02*
X53661Y-30118D01*
X32480Y-38188D02*
X32480Y-33464D01*
X33401Y-43244D02*
X32480Y-42322D01*
X32480Y-42322D02*
X32480Y-38188D01*
X33464Y-43244D02*
X33401Y-43244D01*
X32480Y-33464D02*
X34448Y-31496D01*
X33464Y-45244D02*
X33464Y-43244D01*
G54D38*
X40748Y-29208D02*
X44759Y-29208D01*
X46062Y-30511D02*
X52657Y-30511D01*
X44759Y-29208D02*
X46062Y-30511D01*
X38385Y-31496D02*
X38460Y-31496D01*
X38460Y-31496D02*
X40748Y-29208D01*
X34448Y-31496D02*
X38385Y-31496D01*
G54D37*
X54724Y-25787D02*
X53740Y-25787D01*
G54D38*
X53346Y-26181D02*
X53740Y-25787D01*
X53346Y-26181D02*
X52657Y-26181D01*
X40748Y-24484D02*
X44366Y-24484D01*
X46062Y-26181D02*
X52657Y-26181D01*
X44366Y-24484D02*
X46062Y-26181D01*
X34448Y-27559D02*
X38385Y-27559D01*
X38385Y-27559D02*
X40748Y-25196D01*
X40748Y-25196D02*
X40748Y-24484D01*
G54D36*
X52255Y-44094D02*
X52255Y-44854D01*
X52255Y-44854D02*
X53425Y-46023D01*
X42125Y-38704D02*
X42125Y-39279D01*
X42125Y-39279D02*
X43003Y-40157D01*
X42814Y-41731D02*
X42814Y-40346D01*
X42814Y-40346D02*
X43003Y-40157D01*
X43385Y-53543D02*
X41929Y-53543D01*
X40845Y-43700D02*
X42814Y-41731D01*
X39566Y-43700D02*
X40845Y-43700D01*
X38779Y-42913D02*
X39566Y-43700D01*
X37204Y-42913D02*
X38779Y-42913D01*
X36023Y-44094D02*
X37204Y-42913D01*
X36023Y-49015D02*
X36023Y-44094D01*
X38385Y-51377D02*
X36023Y-49015D01*
X39763Y-51377D02*
X38385Y-51377D01*
X41929Y-53543D02*
X39763Y-51377D01*
G54D38*
X42125Y-38704D02*
X41610Y-38704D01*
X40944Y-39763D02*
X40551Y-40157D01*
X40944Y-39370D02*
X40944Y-39763D01*
X41610Y-38704D02*
X40944Y-39370D01*
X37992Y-39370D02*
X39763Y-39370D01*
X39763Y-39370D02*
X40551Y-40157D01*
X34055Y-39370D02*
X37992Y-39370D01*
G54D36*
X70413Y-46925D02*
X70413Y-46870D01*
X68421Y-46102D02*
X67716Y-45397D01*
X69645Y-46102D02*
X68421Y-46102D01*
X70413Y-46870D02*
X69645Y-46102D01*
X66535Y-44988D02*
X66535Y-45118D01*
X66814Y-45397D02*
X67716Y-45397D01*
X66535Y-45118D02*
X66814Y-45397D01*
X65354Y-45397D02*
X65413Y-45456D01*
X65413Y-45456D02*
X65413Y-46925D01*
X65354Y-45397D02*
X64582Y-45397D01*
X64582Y-45397D02*
X64173Y-44988D01*
X62992Y-45397D02*
X62220Y-45397D01*
X62220Y-45397D02*
X61811Y-44988D01*
G54D35*
X58858Y-43602D02*
X60531Y-45275D01*
X57874Y-43602D02*
X58858Y-43602D01*
X57283Y-44192D02*
X57874Y-43602D01*
X69413Y-49925D02*
X69413Y-49629D01*
X69413Y-49629D02*
X68307Y-48523D01*
X68307Y-48523D02*
X65452Y-48523D01*
X65452Y-48523D02*
X64763Y-47834D01*
X64763Y-47834D02*
X63090Y-47834D01*
X63090Y-47834D02*
X60531Y-45275D01*
X60531Y-45275D02*
X60088Y-44832D01*
X60088Y-44832D02*
X59842Y-44586D01*
G54D36*
X48137Y-40748D02*
X48137Y-41322D01*
X48137Y-41322D02*
X48744Y-41929D01*
X48744Y-41929D02*
X51846Y-41929D01*
X51846Y-41929D02*
X51921Y-41854D01*
X61614Y-50893D02*
X62444Y-50893D01*
X62444Y-50893D02*
X63413Y-49925D01*
X61614Y-50893D02*
X61614Y-51893D01*
X61614Y-51893D02*
X61688Y-51968D01*
X60145Y-50196D02*
X60590Y-50196D01*
X61287Y-50893D02*
X61614Y-50893D01*
X60590Y-50196D02*
X61287Y-50893D01*
X54405Y-43011D02*
X53366Y-43011D01*
X52921Y-42566D02*
X52921Y-41854D01*
X53366Y-43011D02*
X52921Y-42566D01*
X55307Y-44192D02*
X54586Y-44192D01*
X54094Y-43322D02*
X54405Y-43011D01*
X54094Y-43700D02*
X54094Y-43322D01*
X54586Y-44192D02*
X54094Y-43700D01*
X52921Y-38196D02*
X52921Y-38854D01*
X52125Y-37401D02*
X52921Y-38196D01*
X50314Y-37401D02*
X52125Y-37401D01*
X49921Y-37795D02*
X50314Y-37401D01*
X48744Y-39566D02*
X48744Y-38992D01*
X48744Y-38992D02*
X48137Y-38385D01*
X73937Y-38189D02*
X73924Y-38189D01*
X73924Y-38189D02*
X72381Y-39732D01*
X72381Y-39732D02*
X72381Y-40964D01*
X72381Y-40964D02*
X73326Y-41909D01*
X73326Y-41909D02*
X74251Y-41909D01*
X74251Y-41909D02*
X75830Y-43488D01*
X75830Y-43488D02*
X75830Y-44330D01*
X82677Y-44094D02*
X81476Y-44094D01*
X81476Y-44094D02*
X81082Y-43700D01*
X81082Y-43700D02*
X76460Y-43700D01*
X76460Y-43700D02*
X75830Y-44330D01*
X53543Y-53043D02*
X54421Y-53043D01*
X55102Y-53724D02*
X55102Y-54133D01*
X54421Y-53043D02*
X55102Y-53724D01*
X53543Y-53043D02*
X53543Y-49574D01*
X53543Y-49574D02*
X52000Y-48031D01*
X53543Y-53043D02*
X54322Y-53043D01*
X55102Y-53822D02*
X55102Y-54330D01*
X54322Y-53043D02*
X55102Y-53822D01*
X51681Y-53149D02*
X53437Y-53149D01*
X53437Y-53149D02*
X53543Y-53043D01*
X69610Y-50984D02*
X68858Y-50984D01*
X68858Y-50984D02*
X68413Y-51429D01*
X68413Y-49925D02*
X68413Y-50381D01*
X69015Y-50984D02*
X69610Y-50984D01*
X68413Y-50381D02*
X69015Y-50984D01*
X68913Y-52755D02*
X70185Y-52755D01*
X70185Y-52755D02*
X70866Y-53437D01*
X68413Y-49925D02*
X68413Y-51429D01*
X68413Y-51429D02*
X68413Y-52255D01*
X68413Y-52255D02*
X68913Y-52755D01*
X75787Y-53633D02*
X74972Y-53633D01*
X74972Y-53633D02*
X74803Y-53464D01*
X72413Y-49925D02*
X72881Y-49925D01*
X72881Y-49925D02*
X74606Y-51649D01*
G54D37*
X54724Y-33448D02*
X55653Y-33448D01*
X55653Y-33448D02*
X56476Y-34271D01*
G54D35*
X50228Y-32874D02*
X54149Y-32874D01*
X54149Y-32874D02*
X54724Y-33448D01*
X53330Y-32874D02*
X54149Y-32874D01*
X54149Y-32874D02*
X54724Y-33448D01*
G54D38*
X78543Y-35433D02*
X82480Y-35433D01*
X70866Y-35629D02*
X78346Y-35629D01*
X78346Y-35629D02*
X78543Y-35433D01*
X70397Y-35629D02*
X70866Y-35629D01*
X67617Y-34271D02*
X69039Y-34271D01*
X69039Y-34271D02*
X70397Y-35629D01*
G54D37*
X69039Y-34271D02*
X70397Y-35629D01*
G54D38*
X67617Y-34271D02*
X56476Y-34271D01*
X56476Y-34271D02*
X55196Y-32992D01*
X50228Y-32874D02*
X53330Y-32874D01*
X53330Y-32874D02*
X54330Y-32874D01*
X54330Y-32874D02*
X54527Y-33070D01*
G54D35*
X72066Y-31021D02*
X71364Y-31021D01*
X71364Y-31021D02*
X71086Y-31299D01*
X54724Y-29118D02*
X55606Y-29118D01*
X55846Y-29358D02*
X55846Y-29389D01*
X55606Y-29118D02*
X55846Y-29358D01*
X54724Y-29118D02*
X55224Y-29118D01*
X55681Y-28661D02*
X55681Y-29224D01*
X55224Y-29118D02*
X55681Y-28661D01*
G54D38*
X78543Y-31496D02*
X82480Y-31496D01*
X70120Y-31021D02*
X72066Y-31021D01*
X72066Y-31021D02*
X78068Y-31021D01*
X78068Y-31021D02*
X78543Y-31496D01*
X67617Y-29940D02*
X69039Y-29940D01*
X69039Y-29940D02*
X70120Y-31021D01*
X70120Y-31021D02*
X70397Y-31299D01*
X70397Y-31299D02*
X78346Y-31299D01*
X78346Y-31299D02*
X78543Y-31496D01*
X67342Y-29940D02*
X69039Y-29940D01*
X69039Y-29940D02*
X70397Y-31299D01*
X78346Y-31299D02*
X78543Y-31496D01*
X67617Y-29940D02*
X67342Y-29940D01*
X67342Y-29940D02*
X57263Y-29940D01*
X57263Y-29940D02*
X55984Y-28661D01*
X55984Y-28661D02*
X55118Y-28661D01*
X55118Y-28661D02*
X55846Y-29389D01*
X55846Y-29389D02*
X55681Y-29224D01*
X55681Y-29224D02*
X55039Y-28582D01*
X50228Y-28543D02*
X54133Y-28543D01*
X54133Y-28543D02*
X54330Y-28740D01*
G54D37*
X71283Y-26870D02*
X70964Y-26870D01*
X70964Y-26870D02*
X70921Y-26913D01*
G54D38*
X67617Y-25610D02*
X69007Y-25610D01*
X66291Y-25610D02*
X67617Y-25610D01*
X66291Y-25610D02*
X63995Y-25610D01*
G54D35*
X54448Y-24023D02*
X54448Y-24511D01*
X54448Y-24511D02*
X54724Y-24787D01*
X50228Y-24212D02*
X50322Y-24212D01*
X50511Y-24023D02*
X54448Y-24023D01*
X54448Y-24023D02*
X54535Y-24023D01*
X50322Y-24212D02*
X50511Y-24023D01*
X50228Y-24212D02*
X50622Y-23818D01*
X50622Y-23818D02*
X51448Y-23818D01*
X51539Y-23728D02*
X51539Y-23818D01*
X51448Y-23818D02*
X51539Y-23728D01*
G54D38*
X70311Y-26913D02*
X70921Y-26913D01*
X70921Y-26913D02*
X77897Y-26913D01*
X77897Y-26913D02*
X78543Y-27559D01*
X69007Y-25610D02*
X70311Y-26913D01*
X55118Y-24606D02*
X54535Y-24023D01*
X55118Y-24606D02*
X56102Y-24606D01*
X63995Y-25610D02*
X63976Y-25590D01*
X63976Y-25590D02*
X58070Y-25590D01*
X58070Y-25590D02*
X57086Y-24606D01*
X57086Y-24606D02*
X56102Y-24606D01*
X54535Y-24023D02*
X54330Y-23818D01*
X54330Y-23818D02*
X51539Y-23818D01*
X51539Y-23818D02*
X50622Y-23818D01*
X82480Y-27559D02*
X78543Y-27559D01*
G54D35*
X73228Y-53633D02*
X73192Y-53633D01*
X72047Y-52488D02*
X72047Y-51492D01*
X73192Y-53633D02*
X72047Y-52488D01*
X72047Y-51492D02*
X71019Y-51492D01*
X65283Y-47795D02*
X64413Y-46925D01*
X68188Y-47795D02*
X65283Y-47795D01*
X69921Y-49527D02*
X68188Y-47795D01*
X69921Y-50393D02*
X69921Y-49527D01*
X71019Y-51492D02*
X69921Y-50393D01*
G54D36*
X75196Y-49500D02*
X75381Y-49500D01*
X75381Y-49500D02*
X75984Y-48897D01*
X80314Y-50000D02*
X82677Y-50000D01*
X79212Y-48897D02*
X80314Y-50000D01*
X75984Y-48897D02*
X79212Y-48897D01*
X71413Y-49925D02*
X71413Y-49996D01*
X72728Y-51311D02*
X73228Y-51311D01*
X71413Y-49996D02*
X72728Y-51311D01*
X71413Y-49925D02*
X71413Y-49452D01*
X74594Y-48897D02*
X75196Y-49500D01*
X71968Y-48897D02*
X74594Y-48897D01*
X71413Y-49452D02*
X71968Y-48897D01*
G54D35*
X71515Y-53960D02*
X72047Y-54492D01*
X70421Y-53960D02*
X71515Y-53960D01*
X70271Y-53811D02*
X70421Y-53960D01*
G54D36*
X64688Y-51968D02*
X64688Y-50976D01*
X65413Y-50251D02*
X65413Y-49925D01*
X64688Y-50976D02*
X65413Y-50251D01*
X61023Y-53043D02*
X61677Y-53043D01*
X62751Y-51968D02*
X64688Y-51968D01*
X61677Y-53043D02*
X62751Y-51968D01*
X59342Y-46259D02*
X59342Y-45208D01*
G54D35*
X59291Y-45157D02*
X59342Y-45208D01*
G54D36*
X59342Y-46259D02*
X59342Y-47271D01*
X59342Y-47271D02*
X58267Y-48346D01*
X58267Y-48346D02*
X58267Y-52255D01*
X58267Y-52255D02*
X59055Y-53043D01*
X45744Y-41929D02*
X45744Y-39566D01*
X49696Y-44094D02*
X47909Y-44094D01*
X47909Y-44094D02*
X45744Y-41929D01*
G54D35*
X61614Y-48334D02*
X62035Y-48334D01*
X62035Y-48334D02*
X62440Y-48740D01*
X62440Y-48740D02*
X64228Y-48740D01*
X64228Y-48740D02*
X65413Y-49925D01*
G54D36*
X59055Y-53043D02*
X61023Y-53043D01*
X59055Y-53043D02*
X59318Y-53043D01*
X60145Y-52216D02*
X60145Y-51196D01*
X59318Y-53043D02*
X60145Y-52216D01*
X57102Y-54133D02*
X57204Y-54133D01*
X58295Y-53043D02*
X59055Y-53043D01*
X57204Y-54133D02*
X58295Y-53043D01*
G54D35*
X60342Y-46259D02*
X60342Y-45582D01*
X58027Y-44653D02*
X57405Y-45275D01*
X59413Y-44653D02*
X58027Y-44653D01*
X60342Y-45582D02*
X59413Y-44653D01*
X76374Y-45299D02*
X74444Y-45299D01*
X70224Y-45472D02*
X69366Y-45472D01*
X70885Y-46133D02*
X70224Y-45472D01*
X73610Y-46133D02*
X70885Y-46133D01*
X74444Y-45299D02*
X73610Y-46133D01*
X61614Y-47334D02*
X61232Y-47334D01*
X60145Y-48421D02*
X60145Y-49196D01*
X61232Y-47334D02*
X60145Y-48421D01*
X73228Y-54633D02*
X73814Y-54633D01*
X75342Y-54188D02*
X75787Y-54633D01*
X74259Y-54188D02*
X75342Y-54188D01*
X73814Y-54633D02*
X74259Y-54188D01*
X73228Y-54633D02*
X72968Y-54633D01*
X71389Y-54960D02*
X70866Y-54437D01*
X72641Y-54960D02*
X71389Y-54960D01*
X72968Y-54633D02*
X72641Y-54960D01*
G54D36*
X50000Y-39854D02*
X49795Y-39854D01*
X47137Y-38811D02*
X47137Y-38385D01*
X48598Y-40271D02*
X47137Y-38811D01*
X49377Y-40271D02*
X48598Y-40271D01*
X49795Y-39854D02*
X49377Y-40271D01*
X61803Y-43988D02*
X61811Y-43988D01*
X60728Y-42913D02*
X61803Y-43988D01*
X55921Y-38854D02*
X55921Y-39385D01*
X55921Y-39385D02*
X56299Y-39763D01*
X56299Y-39763D02*
X58933Y-39763D01*
X58933Y-39763D02*
X59720Y-38976D01*
X82677Y-48031D02*
X82677Y-48208D01*
X77051Y-45299D02*
X76374Y-45299D01*
X77460Y-45708D02*
X77051Y-45299D01*
X77460Y-46909D02*
X77460Y-45708D01*
X78641Y-48090D02*
X77460Y-46909D01*
X79114Y-48090D02*
X78641Y-48090D01*
X79783Y-48759D02*
X79114Y-48090D01*
X82125Y-48759D02*
X79783Y-48759D01*
X82677Y-48208D02*
X82125Y-48759D01*
G54D35*
X67244Y-43988D02*
X67885Y-43988D01*
G54D36*
X66535Y-43988D02*
X67244Y-43988D01*
G54D35*
X67885Y-43988D02*
X69366Y-45468D01*
X69366Y-45468D02*
X69366Y-45472D01*
G54D36*
X53921Y-38854D02*
X53921Y-39118D01*
X55921Y-39354D02*
X55921Y-38854D01*
X53921Y-39118D02*
X54409Y-39606D01*
X54409Y-39606D02*
X55669Y-39606D01*
X55669Y-39606D02*
X55921Y-39354D01*
X54921Y-41854D02*
X54921Y-42007D01*
X56307Y-43393D02*
X56307Y-43629D01*
X54921Y-42007D02*
X56307Y-43393D01*
X56307Y-44192D02*
X56307Y-43629D01*
X64173Y-43988D02*
X61811Y-43988D01*
X66535Y-43988D02*
X64173Y-43988D01*
X60342Y-46259D02*
X60539Y-46259D01*
X60539Y-46259D02*
X61614Y-47334D01*
X56921Y-41854D02*
X56921Y-42370D01*
X56921Y-42370D02*
X56307Y-42984D01*
X56307Y-42984D02*
X56307Y-44192D01*
X57405Y-45275D02*
X57389Y-45275D01*
X57389Y-45275D02*
X56307Y-44192D01*
X47137Y-40748D02*
X47137Y-38385D01*
X44003Y-40157D02*
X44003Y-39066D01*
X44685Y-38385D02*
X47137Y-38385D01*
X44003Y-39066D02*
X44685Y-38385D01*
X76374Y-45299D02*
X76374Y-44964D01*
X77011Y-44326D02*
X80551Y-44326D01*
X76374Y-44964D02*
X77011Y-44326D01*
X75787Y-54633D02*
X76389Y-54633D01*
X76389Y-54633D02*
X76771Y-54251D01*
X76771Y-54251D02*
X76771Y-52877D01*
X76771Y-52877D02*
X76377Y-52484D01*
G54D35*
X61614Y-47334D02*
X61665Y-47334D01*
X64913Y-48425D02*
X66413Y-49925D01*
X62755Y-48425D02*
X64913Y-48425D01*
X61665Y-47334D02*
X62755Y-48425D01*
G54D36*
X63688Y-53610D02*
X63688Y-54437D01*
X63688Y-54437D02*
X63649Y-54437D01*
X66413Y-49925D02*
X66413Y-50200D01*
X64082Y-52755D02*
X63688Y-53149D01*
X65039Y-52755D02*
X64082Y-52755D01*
X65669Y-52125D02*
X65039Y-52755D01*
X65669Y-50944D02*
X65669Y-52125D01*
X66413Y-50200D02*
X65669Y-50944D01*
X60145Y-49196D02*
X60917Y-49196D01*
X60917Y-49196D02*
X61614Y-49893D01*
X63688Y-53149D02*
X63688Y-53610D01*
X63688Y-53610D02*
X63255Y-54043D01*
X64960Y-54437D02*
X70866Y-54437D01*
X61023Y-54043D02*
X63255Y-54043D01*
X63649Y-54437D02*
X64960Y-54437D01*
X63255Y-54043D02*
X63649Y-54437D01*
X59055Y-54043D02*
X61023Y-54043D01*
X57874Y-54881D02*
X58216Y-54881D01*
X56102Y-54370D02*
X56614Y-54881D01*
X56614Y-54881D02*
X57874Y-54881D01*
X56102Y-54133D02*
X56102Y-54370D01*
X58216Y-54881D02*
X59055Y-54043D01*
X54271Y-54862D02*
X55374Y-54862D01*
X55374Y-54862D02*
X56102Y-54133D01*
X53543Y-54043D02*
X53543Y-54133D01*
X53543Y-54133D02*
X54271Y-54862D01*
X50681Y-53149D02*
X50681Y-53830D01*
X50681Y-53830D02*
X51574Y-54724D01*
X51574Y-54724D02*
X52862Y-54724D01*
X52862Y-54724D02*
X53543Y-54043D01*
X50000Y-50031D02*
X50000Y-51413D01*
X50000Y-51413D02*
X50000Y-52468D01*
X50000Y-52468D02*
X50681Y-53149D01*
X35039Y-46259D02*
X35039Y-43503D01*
X39862Y-42027D02*
X39862Y-42519D01*
X39370Y-41535D02*
X39862Y-42027D01*
X37007Y-41535D02*
X39370Y-41535D01*
X35039Y-43503D02*
X37007Y-41535D01*
X34448Y-46850D02*
X35039Y-46259D01*
X33464Y-49244D02*
X33464Y-47834D01*
X33464Y-47834D02*
X34448Y-46850D01*
X33464Y-51244D02*
X34511Y-51244D01*
X36811Y-53543D02*
X39566Y-53543D01*
X34511Y-51244D02*
X36811Y-53543D01*
X33464Y-49244D02*
X33464Y-51244D01*
X42125Y-31374D02*
X44759Y-31374D01*
X47559Y-31811D02*
X48503Y-32755D01*
X45196Y-31811D02*
X47559Y-31811D01*
X44759Y-31374D02*
X45196Y-31811D01*
X42125Y-31374D02*
X41582Y-31374D01*
X41582Y-31374D02*
X40748Y-32208D01*
X76377Y-49484D02*
X76377Y-49744D01*
X77027Y-50393D02*
X78937Y-50393D01*
X76377Y-49744D02*
X77027Y-50393D01*
X77952Y-51574D02*
X76141Y-51574D01*
X75405Y-52311D02*
X73228Y-52311D01*
X76141Y-51574D02*
X75405Y-52311D01*
X77952Y-51574D02*
X79921Y-51574D01*
X50696Y-44094D02*
X50696Y-44669D01*
X50696Y-44669D02*
X52287Y-46259D01*
X68086Y-35629D02*
X68799Y-35629D01*
X70980Y-39976D02*
X71578Y-39976D01*
X70177Y-39173D02*
X70980Y-39976D01*
X70177Y-37007D02*
X70177Y-39173D01*
X68799Y-35629D02*
X70177Y-37007D01*
X66460Y-35629D02*
X68086Y-35629D01*
X66460Y-35629D02*
X67397Y-35629D01*
X53255Y-44094D02*
X53255Y-44125D01*
X53255Y-44125D02*
X54405Y-45275D01*
X82677Y-46062D02*
X82677Y-46811D01*
X80204Y-48129D02*
X79374Y-47299D01*
X81358Y-48129D02*
X80204Y-48129D01*
X82677Y-46811D02*
X81358Y-48129D01*
X79374Y-46299D02*
X79921Y-46299D01*
X80551Y-46929D02*
X80551Y-47326D01*
X79921Y-46299D02*
X80551Y-46929D01*
X45590Y-44409D02*
X45590Y-46181D01*
X47440Y-48031D02*
X50000Y-48031D01*
X45590Y-46181D02*
X47440Y-48031D01*
X42125Y-27240D02*
X40992Y-27240D01*
X40992Y-27240D02*
X40748Y-27484D01*
G54D37*
X78739Y-38189D02*
X82676Y-38189D01*
X82676Y-38189D02*
X82677Y-38188D01*
G54D36*
X82676Y-38189D02*
X82677Y-38188D01*
X82677Y-38196D02*
X78747Y-38196D01*
X78747Y-38196D02*
X78739Y-38189D01*
G54D37*
X78739Y-42913D02*
X78740Y-42913D01*
X78740Y-42913D02*
X79527Y-42125D01*
X79527Y-42125D02*
X82677Y-42125D01*
G54D36*
X79527Y-42125D02*
X82677Y-42125D01*
X78740Y-42913D02*
X79527Y-42125D01*
X70972Y-41625D02*
X71129Y-41625D01*
X72417Y-42913D02*
X73937Y-42913D01*
X71129Y-41625D02*
X72417Y-42913D01*
X72830Y-44330D02*
X72830Y-44020D01*
X72830Y-44020D02*
X73937Y-42913D01*
G54D37*
X73149Y-40551D02*
X82283Y-40551D01*
X82283Y-40551D02*
X82677Y-40157D01*
G54D36*
X82283Y-40551D02*
X82677Y-40157D01*
X71972Y-44291D02*
X71972Y-45078D01*
X71972Y-45078D02*
X72366Y-45472D01*
X50314Y-39133D02*
X50314Y-39212D01*
X50314Y-39212D02*
X50748Y-39645D01*
X47007Y-35704D02*
X47007Y-36299D01*
X49842Y-39133D02*
X50314Y-39133D01*
X47007Y-36299D02*
X49842Y-39133D01*
X50748Y-39645D02*
X50748Y-39724D01*
X57090Y-41023D02*
X57921Y-41854D01*
X50748Y-39724D02*
X52047Y-41023D01*
X52047Y-41023D02*
X57090Y-41023D01*
X42125Y-35704D02*
X47007Y-35704D01*
X42125Y-35704D02*
X41779Y-35704D01*
X41779Y-35704D02*
X40748Y-36736D01*
X63460Y-35629D02*
X54905Y-35629D01*
X54905Y-35629D02*
X54724Y-35448D01*
X63318Y-26913D02*
X63318Y-26996D01*
X55574Y-27637D02*
X54724Y-26787D01*
X62677Y-27637D02*
X55574Y-27637D01*
X63318Y-26996D02*
X62677Y-27637D01*
X66318Y-26913D02*
X68240Y-26913D01*
X68240Y-26913D02*
X68283Y-26870D01*
X66318Y-26913D02*
X67311Y-26913D01*
X63460Y-31299D02*
X54905Y-31299D01*
X54905Y-31299D02*
X54724Y-31118D01*
G54D35*
X59720Y-37976D02*
X59826Y-37976D01*
X61492Y-42397D02*
X62992Y-42397D01*
X60629Y-41535D02*
X61492Y-42397D01*
X60629Y-38779D02*
X60629Y-41535D01*
X59826Y-37976D02*
X60629Y-38779D01*
G54D36*
X66460Y-31299D02*
X68086Y-31299D01*
X66460Y-31299D02*
X67397Y-31299D01*
G54D35*
X64248Y-37976D02*
X64354Y-37976D01*
X65354Y-38976D02*
X65354Y-42397D01*
X64354Y-37976D02*
X65354Y-38976D01*
G54D36*
X52000Y-50031D02*
X51803Y-50031D01*
X42322Y-49015D02*
X37716Y-44409D01*
X50787Y-49015D02*
X42322Y-49015D01*
X51803Y-50031D02*
X50787Y-49015D01*
G54D35*
X68578Y-37976D02*
X68322Y-37976D01*
X67913Y-42200D02*
X67716Y-42397D01*
X67913Y-38385D02*
X67913Y-42200D01*
X68322Y-37976D02*
X67913Y-38385D01*
M02*
