G04 (created by PCBNEW (2013-mar-13)-testing) date mar 05 nov 2013 08:38:10 ART*
%MOIN*%
G04 Gerber Fmt 3.4, Leading zero omitted, Abs format*
%FSLAX34Y34*%
G01*
G70*
G90*
G04 APERTURE LIST*
%ADD10C,0.003937*%
%ADD11C,0.005000*%
%ADD12C,0.012000*%
%ADD13C,0.015000*%
%ADD14C,0.008000*%
%ADD15C,0.003000*%
%ADD16C,0.010000*%
%ADD17C,0.006000*%
%ADD18C,0.012500*%
%ADD19C,0.005906*%
%ADD20C,0.009800*%
%ADD21C,0.007500*%
%ADD22C,0.003500*%
%ADD23C,0.011250*%
G04 APERTURE END LIST*
G54D10*
G54D11*
X60843Y-46259D02*
G75*
G03X60843Y-46259I-1001J0D01*
G74*
G01*
X81811Y-50905D02*
X81811Y-50944D01*
X84527Y-52795D02*
X81181Y-52795D01*
X81809Y-50955D02*
G75*
G03X81809Y-52765I1042J-905D01*
G74*
G01*
X84013Y-51585D02*
X83934Y-51723D01*
X84013Y-52371D02*
X83934Y-52233D01*
X84013Y-51585D02*
X84013Y-51072D01*
X84525Y-51723D02*
X83934Y-51723D01*
X84525Y-52233D02*
X83934Y-52233D01*
X83934Y-52233D02*
X83934Y-52371D01*
X83934Y-51723D02*
X83934Y-52795D01*
X83934Y-51585D02*
X83934Y-51723D01*
X84328Y-51585D02*
X84328Y-51072D01*
X84525Y-51723D02*
X84525Y-52795D01*
X84525Y-51072D02*
X84525Y-51723D01*
X84328Y-52371D02*
X84013Y-52371D01*
X84525Y-52233D02*
X84328Y-52371D01*
X84328Y-51585D02*
X84525Y-51723D01*
X84013Y-51585D02*
X84328Y-51585D01*
X83934Y-51585D02*
X83934Y-51072D01*
X84525Y-47135D02*
X81179Y-47135D01*
X81809Y-48946D02*
X81809Y-49104D01*
X81809Y-49104D02*
G75*
G03X81809Y-50914I1042J-905D01*
G74*
G01*
X84013Y-49616D02*
X83934Y-49754D01*
X84013Y-50402D02*
X83934Y-50264D01*
X84013Y-50402D02*
X84013Y-51072D01*
X84013Y-49616D02*
X84013Y-48474D01*
X84525Y-49754D02*
X83934Y-49754D01*
X84525Y-50264D02*
X83934Y-50264D01*
X83934Y-50264D02*
X83934Y-50402D01*
X83934Y-49754D02*
X83934Y-50264D01*
X83934Y-49616D02*
X83934Y-49754D01*
X81179Y-52795D02*
X81179Y-47136D01*
X84328Y-50402D02*
X84328Y-51072D01*
X84328Y-49616D02*
X84328Y-48474D01*
X84525Y-50264D02*
X84525Y-51072D01*
X84525Y-49754D02*
X84525Y-50264D01*
X84525Y-48474D02*
X84525Y-49754D01*
X84328Y-50402D02*
X84013Y-50402D01*
X84525Y-50264D02*
X84328Y-50402D01*
X84328Y-49616D02*
X84525Y-49754D01*
X84013Y-49616D02*
X84328Y-49616D01*
X83934Y-49616D02*
X83934Y-48474D01*
X83934Y-50402D02*
X83934Y-51072D01*
X83934Y-48434D02*
X83934Y-49576D01*
X83934Y-47648D02*
X83934Y-47135D01*
X84013Y-47648D02*
X84328Y-47648D01*
X84328Y-47648D02*
X84525Y-47786D01*
X84525Y-48296D02*
X84328Y-48434D01*
X84328Y-48434D02*
X84013Y-48434D01*
X84525Y-47135D02*
X84525Y-47786D01*
X84525Y-47786D02*
X84525Y-48296D01*
X84525Y-48296D02*
X84525Y-49576D01*
X84328Y-47648D02*
X84328Y-47135D01*
X84328Y-48434D02*
X84328Y-49576D01*
X83934Y-47648D02*
X83934Y-47786D01*
X83934Y-47786D02*
X83934Y-48296D01*
X83934Y-48296D02*
X83934Y-48434D01*
X84525Y-48296D02*
X83934Y-48296D01*
X84525Y-47786D02*
X83934Y-47786D01*
X84013Y-47648D02*
X84013Y-47135D01*
X84013Y-48434D02*
X84013Y-49576D01*
X84013Y-48434D02*
X83934Y-48296D01*
X84013Y-47648D02*
X83934Y-47786D01*
X81809Y-47136D02*
G75*
G03X81809Y-48946I1042J-905D01*
G74*
G01*
X84535Y-46988D02*
X81188Y-46988D01*
X84535Y-43208D02*
X81188Y-43208D01*
X81818Y-45019D02*
X81818Y-45177D01*
X81819Y-45177D02*
G75*
G03X81819Y-46987I1042J-905D01*
G74*
G01*
X84023Y-45689D02*
X83944Y-45827D01*
X84023Y-46475D02*
X83944Y-46337D01*
X84023Y-46475D02*
X84023Y-46988D01*
X84023Y-45689D02*
X84023Y-44547D01*
X84535Y-45827D02*
X83944Y-45827D01*
X84535Y-46337D02*
X83944Y-46337D01*
X83944Y-46337D02*
X83944Y-46475D01*
X83944Y-45827D02*
X83944Y-46337D01*
X83944Y-45689D02*
X83944Y-45827D01*
X81189Y-46988D02*
X81189Y-43209D01*
X84338Y-46475D02*
X84338Y-46988D01*
X84338Y-45689D02*
X84338Y-44547D01*
X84535Y-46337D02*
X84535Y-46988D01*
X84535Y-45827D02*
X84535Y-46337D01*
X84535Y-44547D02*
X84535Y-45827D01*
X84338Y-46475D02*
X84023Y-46475D01*
X84535Y-46337D02*
X84338Y-46475D01*
X84338Y-45689D02*
X84535Y-45827D01*
X84023Y-45689D02*
X84338Y-45689D01*
X83944Y-45689D02*
X83944Y-44547D01*
X83944Y-46475D02*
X83944Y-46988D01*
X83944Y-44507D02*
X83944Y-45649D01*
X83944Y-43721D02*
X83944Y-43208D01*
X84023Y-43721D02*
X84338Y-43721D01*
X84338Y-43721D02*
X84535Y-43859D01*
X84535Y-44369D02*
X84338Y-44507D01*
X84338Y-44507D02*
X84023Y-44507D01*
X84535Y-43208D02*
X84535Y-43859D01*
X84535Y-43859D02*
X84535Y-44369D01*
X84535Y-44369D02*
X84535Y-45649D01*
X84338Y-43721D02*
X84338Y-43208D01*
X84338Y-44507D02*
X84338Y-45649D01*
X83944Y-43721D02*
X83944Y-43859D01*
X83944Y-43859D02*
X83944Y-44369D01*
X83944Y-44369D02*
X83944Y-44507D01*
X84535Y-44369D02*
X83944Y-44369D01*
X84535Y-43859D02*
X83944Y-43859D01*
X84023Y-43721D02*
X84023Y-43208D01*
X84023Y-44507D02*
X84023Y-45649D01*
X84023Y-44507D02*
X83944Y-44369D01*
X84023Y-43721D02*
X83944Y-43859D01*
X81819Y-43209D02*
G75*
G03X81819Y-45019I1042J-905D01*
G74*
G01*
X81811Y-41062D02*
X81811Y-41102D01*
X84527Y-42952D02*
X81181Y-42952D01*
X81809Y-41112D02*
G75*
G03X81809Y-42922I1042J-905D01*
G74*
G01*
X84013Y-41742D02*
X83934Y-41880D01*
X84013Y-42528D02*
X83934Y-42390D01*
X84013Y-41742D02*
X84013Y-41230D01*
X84525Y-41880D02*
X83934Y-41880D01*
X84525Y-42390D02*
X83934Y-42390D01*
X83934Y-42390D02*
X83934Y-42528D01*
X83934Y-41880D02*
X83934Y-42952D01*
X83934Y-41742D02*
X83934Y-41880D01*
X84328Y-41742D02*
X84328Y-41230D01*
X84525Y-41880D02*
X84525Y-42952D01*
X84525Y-41230D02*
X84525Y-41880D01*
X84328Y-42528D02*
X84013Y-42528D01*
X84525Y-42390D02*
X84328Y-42528D01*
X84328Y-41742D02*
X84525Y-41880D01*
X84013Y-41742D02*
X84328Y-41742D01*
X83934Y-41742D02*
X83934Y-41230D01*
X84525Y-37293D02*
X81179Y-37293D01*
X81809Y-39104D02*
X81809Y-39261D01*
X81809Y-39262D02*
G75*
G03X81809Y-41072I1042J-905D01*
G74*
G01*
X84013Y-39774D02*
X83934Y-39912D01*
X84013Y-40560D02*
X83934Y-40422D01*
X84013Y-40560D02*
X84013Y-41230D01*
X84013Y-39774D02*
X84013Y-38632D01*
X84525Y-39912D02*
X83934Y-39912D01*
X84525Y-40422D02*
X83934Y-40422D01*
X83934Y-40422D02*
X83934Y-40560D01*
X83934Y-39912D02*
X83934Y-40422D01*
X83934Y-39774D02*
X83934Y-39912D01*
X81179Y-42952D02*
X81179Y-37293D01*
X84328Y-40560D02*
X84328Y-41230D01*
X84328Y-39774D02*
X84328Y-38632D01*
X84525Y-40422D02*
X84525Y-41230D01*
X84525Y-39912D02*
X84525Y-40422D01*
X84525Y-38632D02*
X84525Y-39912D01*
X84328Y-40560D02*
X84013Y-40560D01*
X84525Y-40422D02*
X84328Y-40560D01*
X84328Y-39774D02*
X84525Y-39912D01*
X84013Y-39774D02*
X84328Y-39774D01*
X83934Y-39774D02*
X83934Y-38632D01*
X83934Y-40560D02*
X83934Y-41230D01*
X83934Y-38591D02*
X83934Y-39733D01*
X83934Y-37805D02*
X83934Y-37293D01*
X84013Y-37805D02*
X84328Y-37805D01*
X84328Y-37805D02*
X84525Y-37943D01*
X84525Y-38453D02*
X84328Y-38591D01*
X84328Y-38591D02*
X84013Y-38591D01*
X84525Y-37293D02*
X84525Y-37943D01*
X84525Y-37943D02*
X84525Y-38453D01*
X84525Y-38453D02*
X84525Y-39733D01*
X84328Y-37805D02*
X84328Y-37293D01*
X84328Y-38591D02*
X84328Y-39733D01*
X83934Y-37805D02*
X83934Y-37943D01*
X83934Y-37943D02*
X83934Y-38453D01*
X83934Y-38453D02*
X83934Y-38591D01*
X84525Y-38453D02*
X83934Y-38453D01*
X84525Y-37943D02*
X83934Y-37943D01*
X84013Y-37805D02*
X84013Y-37293D01*
X84013Y-38591D02*
X84013Y-39733D01*
X84013Y-38591D02*
X83934Y-38453D01*
X84013Y-37805D02*
X83934Y-37943D01*
X81809Y-37293D02*
G75*
G03X81809Y-39103I1042J-905D01*
G74*
G01*
G54D12*
X54724Y-33448D02*
X56724Y-33448D01*
X54724Y-34448D02*
X56724Y-34448D01*
X54724Y-35448D02*
X56724Y-35448D01*
X56724Y-36448D02*
X62724Y-36448D01*
X62724Y-36448D02*
X62724Y-32448D01*
X62724Y-32448D02*
X56724Y-32448D01*
X56724Y-32448D02*
X56724Y-36448D01*
X59724Y-35948D02*
X59724Y-32448D01*
X59724Y-35948D02*
X59724Y-36448D01*
X54724Y-29118D02*
X56724Y-29118D01*
X54724Y-30118D02*
X56724Y-30118D01*
X54724Y-31118D02*
X56724Y-31118D01*
X56724Y-32118D02*
X62724Y-32118D01*
X62724Y-32118D02*
X62724Y-28118D01*
X62724Y-28118D02*
X56724Y-28118D01*
X56724Y-28118D02*
X56724Y-32118D01*
X59724Y-31618D02*
X59724Y-28118D01*
X59724Y-31618D02*
X59724Y-32118D01*
X54724Y-24787D02*
X56724Y-24787D01*
X54724Y-25787D02*
X56724Y-25787D01*
X54724Y-26787D02*
X56724Y-26787D01*
X56724Y-27787D02*
X62724Y-27787D01*
X62724Y-27787D02*
X62724Y-23787D01*
X62724Y-23787D02*
X56724Y-23787D01*
X56724Y-23787D02*
X56724Y-27787D01*
X59724Y-27287D02*
X59724Y-23787D01*
X59724Y-27287D02*
X59724Y-27787D01*
G54D13*
X34364Y-53937D02*
G75*
G03X34364Y-53937I-900J0D01*
G74*
G01*
X84364Y-53937D02*
G75*
G03X84364Y-53937I-900J0D01*
G74*
G01*
X84364Y-24409D02*
G75*
G03X84364Y-24409I-900J0D01*
G74*
G01*
X34364Y-24409D02*
G75*
G03X34364Y-24409I-900J0D01*
G74*
G01*
G54D12*
X49500Y-41334D02*
X49500Y-39354D01*
X49500Y-39354D02*
X50500Y-39354D01*
X50500Y-39354D02*
X50500Y-41354D01*
X50500Y-41354D02*
X49500Y-41354D01*
X49750Y-41354D02*
X49500Y-41104D01*
X54827Y-43692D02*
X56807Y-43692D01*
X56807Y-43692D02*
X56807Y-44692D01*
X56807Y-44692D02*
X54807Y-44692D01*
X54807Y-44692D02*
X54807Y-43692D01*
X54807Y-43942D02*
X55057Y-43692D01*
X48617Y-41248D02*
X46637Y-41248D01*
X46637Y-41248D02*
X46637Y-40248D01*
X46637Y-40248D02*
X48637Y-40248D01*
X48637Y-40248D02*
X48637Y-41248D01*
X48637Y-40998D02*
X48387Y-41248D01*
X48617Y-38885D02*
X46637Y-38885D01*
X46637Y-38885D02*
X46637Y-37885D01*
X46637Y-37885D02*
X48637Y-37885D01*
X48637Y-37885D02*
X48637Y-38885D01*
X48637Y-38635D02*
X48387Y-38885D01*
X61114Y-48814D02*
X61114Y-46834D01*
X61114Y-46834D02*
X62114Y-46834D01*
X62114Y-46834D02*
X62114Y-48834D01*
X62114Y-48834D02*
X61114Y-48834D01*
X61364Y-48834D02*
X61114Y-48584D01*
X75696Y-49020D02*
X75696Y-51000D01*
X75696Y-51000D02*
X74696Y-51000D01*
X74696Y-51000D02*
X74696Y-49000D01*
X74696Y-49000D02*
X75696Y-49000D01*
X75446Y-49000D02*
X75696Y-49250D01*
X62208Y-52649D02*
X64188Y-52649D01*
X64188Y-52649D02*
X64188Y-53649D01*
X64188Y-53649D02*
X62188Y-53649D01*
X62188Y-53649D02*
X62188Y-52649D01*
X62188Y-52899D02*
X62438Y-52649D01*
X71366Y-52957D02*
X71366Y-54937D01*
X71366Y-54937D02*
X70366Y-54937D01*
X70366Y-54937D02*
X70366Y-52937D01*
X70366Y-52937D02*
X71366Y-52937D01*
X71116Y-52937D02*
X71366Y-53187D01*
G54D14*
X52781Y-53149D02*
G75*
G03X52781Y-53149I-1600J0D01*
G74*
G01*
G54D12*
X54043Y-52563D02*
X54043Y-54543D01*
X54043Y-54543D02*
X53043Y-54543D01*
X53043Y-54543D02*
X53043Y-52543D01*
X53043Y-52543D02*
X54043Y-52543D01*
X53793Y-52543D02*
X54043Y-52793D01*
X65460Y-52957D02*
X65460Y-54937D01*
X65460Y-54937D02*
X64460Y-54937D01*
X64460Y-54937D02*
X64460Y-52937D01*
X64460Y-52937D02*
X65460Y-52937D01*
X65210Y-52937D02*
X65460Y-53187D01*
X59555Y-52563D02*
X59555Y-54543D01*
X59555Y-54543D02*
X58555Y-54543D01*
X58555Y-54543D02*
X58555Y-52543D01*
X58555Y-52543D02*
X59555Y-52543D01*
X59305Y-52543D02*
X59555Y-52793D01*
X66035Y-45468D02*
X66035Y-43488D01*
X66035Y-43488D02*
X67035Y-43488D01*
X67035Y-43488D02*
X67035Y-45488D01*
X67035Y-45488D02*
X66035Y-45488D01*
X66285Y-45488D02*
X66035Y-45238D01*
X63673Y-45468D02*
X63673Y-43488D01*
X63673Y-43488D02*
X64673Y-43488D01*
X64673Y-43488D02*
X64673Y-45488D01*
X64673Y-45488D02*
X63673Y-45488D01*
X63923Y-45488D02*
X63673Y-45238D01*
G54D14*
X58645Y-51696D02*
X58645Y-48696D01*
X60645Y-48696D02*
X60645Y-51696D01*
X60645Y-51696D02*
X58645Y-51696D01*
X58645Y-48696D02*
X60645Y-48696D01*
G54D12*
X72830Y-44330D02*
X73130Y-44330D01*
X73130Y-44330D02*
X73130Y-44730D01*
X73130Y-44730D02*
X75530Y-44730D01*
X75530Y-44730D02*
X75530Y-44330D01*
X75530Y-44330D02*
X75830Y-44330D01*
X75530Y-44330D02*
X75530Y-43930D01*
X75530Y-43930D02*
X73130Y-43930D01*
X73130Y-43930D02*
X73130Y-44330D01*
X73330Y-44730D02*
X73330Y-43930D01*
X73430Y-43930D02*
X73430Y-44730D01*
G54D14*
X53875Y-44844D02*
X53875Y-43344D01*
G54D15*
X53563Y-44094D02*
G75*
G03X53563Y-44094I-707J0D01*
G74*
G01*
G54D16*
X53855Y-43343D02*
G75*
G03X53855Y-44844I-999J-751D01*
G74*
G01*
G54D17*
X52855Y-43644D02*
G75*
G03X52405Y-44094I0J-450D01*
G74*
G01*
X52855Y-44544D02*
G75*
G03X53305Y-44094I0J450D01*
G74*
G01*
X52855Y-43444D02*
G75*
G03X52205Y-44094I0J-650D01*
G74*
G01*
X52855Y-44744D02*
G75*
G03X53505Y-44094I0J650D01*
G74*
G01*
X52855Y-43244D02*
G75*
G03X52005Y-44094I0J-850D01*
G74*
G01*
X52855Y-44944D02*
G75*
G03X53705Y-44094I0J850D01*
G74*
G01*
G54D14*
X51316Y-44844D02*
X51316Y-43344D01*
G54D15*
X51003Y-44094D02*
G75*
G03X51003Y-44094I-707J0D01*
G74*
G01*
G54D16*
X51296Y-43343D02*
G75*
G03X51296Y-44844I-999J-751D01*
G74*
G01*
G54D17*
X50296Y-43644D02*
G75*
G03X49846Y-44094I0J-450D01*
G74*
G01*
X50296Y-44544D02*
G75*
G03X50746Y-44094I0J450D01*
G74*
G01*
X50296Y-43444D02*
G75*
G03X49646Y-44094I0J-650D01*
G74*
G01*
X50296Y-44744D02*
G75*
G03X50946Y-44094I0J650D01*
G74*
G01*
X50296Y-43244D02*
G75*
G03X49446Y-44094I0J-850D01*
G74*
G01*
X50296Y-44944D02*
G75*
G03X51146Y-44094I0J850D01*
G74*
G01*
G54D12*
X34464Y-42244D02*
X34464Y-52244D01*
X34464Y-52244D02*
X32464Y-52244D01*
X32464Y-52244D02*
X32464Y-42244D01*
X32464Y-42244D02*
X34464Y-42244D01*
X34464Y-45244D02*
X32464Y-45244D01*
X34464Y-49244D02*
X32464Y-49244D01*
G54D13*
X76874Y-48049D02*
X76874Y-44549D01*
X76874Y-44549D02*
X78874Y-44549D01*
X78874Y-44549D02*
X78874Y-48049D01*
X78874Y-48049D02*
X76874Y-48049D01*
X77624Y-48049D02*
X77624Y-47549D01*
X77624Y-47549D02*
X78124Y-47549D01*
X78124Y-47549D02*
X78124Y-48049D01*
G54D17*
X42503Y-40657D02*
X42503Y-39657D01*
X42503Y-39657D02*
X44503Y-39657D01*
X44503Y-39657D02*
X44503Y-40657D01*
X44503Y-40657D02*
X42503Y-40657D01*
X73728Y-52811D02*
X72728Y-52811D01*
X72728Y-52811D02*
X72728Y-50811D01*
X72728Y-50811D02*
X73728Y-50811D01*
X73728Y-50811D02*
X73728Y-52811D01*
X72728Y-53133D02*
X73728Y-53133D01*
X73728Y-53133D02*
X73728Y-55133D01*
X73728Y-55133D02*
X72728Y-55133D01*
X72728Y-55133D02*
X72728Y-53133D01*
X62114Y-51393D02*
X61114Y-51393D01*
X61114Y-51393D02*
X61114Y-49393D01*
X61114Y-49393D02*
X62114Y-49393D01*
X62114Y-49393D02*
X62114Y-51393D01*
G54D12*
X70972Y-41125D02*
X69472Y-42625D01*
X69472Y-42625D02*
X69472Y-43125D01*
X69472Y-43125D02*
X69972Y-43625D01*
X69972Y-43625D02*
X70972Y-43625D01*
X70972Y-43625D02*
X71972Y-42625D01*
X71972Y-42625D02*
X71972Y-41625D01*
X71972Y-41625D02*
X71472Y-41125D01*
X71472Y-41125D02*
X70972Y-41125D01*
G54D14*
X71972Y-44291D02*
X71772Y-44291D01*
X68972Y-44291D02*
X69172Y-44291D01*
X69172Y-44291D02*
X69172Y-44691D01*
X69172Y-44691D02*
X71772Y-44691D01*
X71772Y-44691D02*
X71772Y-43891D01*
X71772Y-43891D02*
X69172Y-43891D01*
X69172Y-43891D02*
X69172Y-44291D01*
X71772Y-44491D02*
X71572Y-44691D01*
X57405Y-43070D02*
X57205Y-43070D01*
X54405Y-43070D02*
X54605Y-43070D01*
X54605Y-43070D02*
X54605Y-43470D01*
X54605Y-43470D02*
X57205Y-43470D01*
X57205Y-43470D02*
X57205Y-42670D01*
X57205Y-42670D02*
X54605Y-42670D01*
X54605Y-42670D02*
X54605Y-43070D01*
X57205Y-43270D02*
X57005Y-43470D01*
X45744Y-41929D02*
X45944Y-41929D01*
X48744Y-41929D02*
X48544Y-41929D01*
X48544Y-41929D02*
X48544Y-41529D01*
X48544Y-41529D02*
X45944Y-41529D01*
X45944Y-41529D02*
X45944Y-42329D01*
X45944Y-42329D02*
X48544Y-42329D01*
X48544Y-42329D02*
X48544Y-41929D01*
X45944Y-41729D02*
X46144Y-41529D01*
X72366Y-45472D02*
X72166Y-45472D01*
X69366Y-45472D02*
X69566Y-45472D01*
X69566Y-45472D02*
X69566Y-45872D01*
X69566Y-45872D02*
X72166Y-45872D01*
X72166Y-45872D02*
X72166Y-45072D01*
X72166Y-45072D02*
X69566Y-45072D01*
X69566Y-45072D02*
X69566Y-45472D01*
X72166Y-45672D02*
X71966Y-45872D01*
X45744Y-39566D02*
X45944Y-39566D01*
X48744Y-39566D02*
X48544Y-39566D01*
X48544Y-39566D02*
X48544Y-39166D01*
X48544Y-39166D02*
X45944Y-39166D01*
X45944Y-39166D02*
X45944Y-39966D01*
X45944Y-39966D02*
X48544Y-39966D01*
X48544Y-39966D02*
X48544Y-39566D01*
X45944Y-39366D02*
X46144Y-39166D01*
X40748Y-33736D02*
X40748Y-33936D01*
X40748Y-36736D02*
X40748Y-36536D01*
X40748Y-36536D02*
X41148Y-36536D01*
X41148Y-36536D02*
X41148Y-33936D01*
X41148Y-33936D02*
X40348Y-33936D01*
X40348Y-33936D02*
X40348Y-36536D01*
X40348Y-36536D02*
X40748Y-36536D01*
X40948Y-33936D02*
X41148Y-34136D01*
X42125Y-35704D02*
X42125Y-35904D01*
X42125Y-38704D02*
X42125Y-38504D01*
X42125Y-38504D02*
X42525Y-38504D01*
X42525Y-38504D02*
X42525Y-35904D01*
X42525Y-35904D02*
X41725Y-35904D01*
X41725Y-35904D02*
X41725Y-38504D01*
X41725Y-38504D02*
X42125Y-38504D01*
X42325Y-35904D02*
X42525Y-36104D01*
X40748Y-29208D02*
X40748Y-29408D01*
X40748Y-32208D02*
X40748Y-32008D01*
X40748Y-32008D02*
X41148Y-32008D01*
X41148Y-32008D02*
X41148Y-29408D01*
X41148Y-29408D02*
X40348Y-29408D01*
X40348Y-29408D02*
X40348Y-32008D01*
X40348Y-32008D02*
X40748Y-32008D01*
X40948Y-29408D02*
X41148Y-29608D01*
X42125Y-31374D02*
X42125Y-31574D01*
X42125Y-34374D02*
X42125Y-34174D01*
X42125Y-34174D02*
X42525Y-34174D01*
X42525Y-34174D02*
X42525Y-31574D01*
X42525Y-31574D02*
X41725Y-31574D01*
X41725Y-31574D02*
X41725Y-34174D01*
X41725Y-34174D02*
X42125Y-34174D01*
X42325Y-31574D02*
X42525Y-31774D01*
X40748Y-24484D02*
X40748Y-24684D01*
X40748Y-27484D02*
X40748Y-27284D01*
X40748Y-27284D02*
X41148Y-27284D01*
X41148Y-27284D02*
X41148Y-24684D01*
X41148Y-24684D02*
X40348Y-24684D01*
X40348Y-24684D02*
X40348Y-27284D01*
X40348Y-27284D02*
X40748Y-27284D01*
X40948Y-24684D02*
X41148Y-24884D01*
X42125Y-27240D02*
X42125Y-27440D01*
X42125Y-30240D02*
X42125Y-30040D01*
X42125Y-30040D02*
X42525Y-30040D01*
X42525Y-30040D02*
X42525Y-27440D01*
X42525Y-27440D02*
X41725Y-27440D01*
X41725Y-27440D02*
X41725Y-30040D01*
X41725Y-30040D02*
X42125Y-30040D01*
X42325Y-27440D02*
X42525Y-27640D01*
X76377Y-52484D02*
X76377Y-52284D01*
X76377Y-49484D02*
X76377Y-49684D01*
X76377Y-49684D02*
X75977Y-49684D01*
X75977Y-49684D02*
X75977Y-52284D01*
X75977Y-52284D02*
X76777Y-52284D01*
X76777Y-52284D02*
X76777Y-49684D01*
X76777Y-49684D02*
X76377Y-49684D01*
X76177Y-52284D02*
X75977Y-52084D01*
X72047Y-54492D02*
X72047Y-54292D01*
X72047Y-51492D02*
X72047Y-51692D01*
X72047Y-51692D02*
X71647Y-51692D01*
X71647Y-51692D02*
X71647Y-54292D01*
X71647Y-54292D02*
X72447Y-54292D01*
X72447Y-54292D02*
X72447Y-51692D01*
X72447Y-51692D02*
X72047Y-51692D01*
X71847Y-54292D02*
X71647Y-54092D01*
X57405Y-45275D02*
X57205Y-45275D01*
X54405Y-45275D02*
X54605Y-45275D01*
X54605Y-45275D02*
X54605Y-45675D01*
X54605Y-45675D02*
X57205Y-45675D01*
X57205Y-45675D02*
X57205Y-44875D01*
X57205Y-44875D02*
X54605Y-44875D01*
X54605Y-44875D02*
X54605Y-45275D01*
X57205Y-45475D02*
X57005Y-45675D01*
X64688Y-51968D02*
X64488Y-51968D01*
X61688Y-51968D02*
X61888Y-51968D01*
X61888Y-51968D02*
X61888Y-52368D01*
X61888Y-52368D02*
X64488Y-52368D01*
X64488Y-52368D02*
X64488Y-51568D01*
X64488Y-51568D02*
X61888Y-51568D01*
X61888Y-51568D02*
X61888Y-51968D01*
X64488Y-52168D02*
X64288Y-52368D01*
X49287Y-46259D02*
X49487Y-46259D01*
X52287Y-46259D02*
X52087Y-46259D01*
X52087Y-46259D02*
X52087Y-45859D01*
X52087Y-45859D02*
X49487Y-45859D01*
X49487Y-45859D02*
X49487Y-46659D01*
X49487Y-46659D02*
X52087Y-46659D01*
X52087Y-46659D02*
X52087Y-46259D01*
X49487Y-46059D02*
X49687Y-45859D01*
X69610Y-50984D02*
X69410Y-50984D01*
X66610Y-50984D02*
X66810Y-50984D01*
X66810Y-50984D02*
X66810Y-51384D01*
X66810Y-51384D02*
X69410Y-51384D01*
X69410Y-51384D02*
X69410Y-50584D01*
X69410Y-50584D02*
X66810Y-50584D01*
X66810Y-50584D02*
X66810Y-50984D01*
X69410Y-51184D02*
X69210Y-51384D01*
X80551Y-47326D02*
X80551Y-47126D01*
X80551Y-44326D02*
X80551Y-44526D01*
X80551Y-44526D02*
X80151Y-44526D01*
X80151Y-44526D02*
X80151Y-47126D01*
X80151Y-47126D02*
X80951Y-47126D01*
X80951Y-47126D02*
X80951Y-44526D01*
X80951Y-44526D02*
X80551Y-44526D01*
X80351Y-47126D02*
X80151Y-46926D01*
X74606Y-51649D02*
X74606Y-51849D01*
X74606Y-54649D02*
X74606Y-54449D01*
X74606Y-54449D02*
X75006Y-54449D01*
X75006Y-54449D02*
X75006Y-51849D01*
X75006Y-51849D02*
X74206Y-51849D01*
X74206Y-51849D02*
X74206Y-54449D01*
X74206Y-54449D02*
X74606Y-54449D01*
X74806Y-51849D02*
X75006Y-52049D01*
X74015Y-46531D02*
X74015Y-46731D01*
X74015Y-49531D02*
X74015Y-49331D01*
X74015Y-49331D02*
X74415Y-49331D01*
X74415Y-49331D02*
X74415Y-46731D01*
X74415Y-46731D02*
X73615Y-46731D01*
X73615Y-46731D02*
X73615Y-49331D01*
X73615Y-49331D02*
X74015Y-49331D01*
X74215Y-46731D02*
X74415Y-46931D01*
X67716Y-42397D02*
X67716Y-42597D01*
X67716Y-45397D02*
X67716Y-45197D01*
X67716Y-45197D02*
X68116Y-45197D01*
X68116Y-45197D02*
X68116Y-42597D01*
X68116Y-42597D02*
X67316Y-42597D01*
X67316Y-42597D02*
X67316Y-45197D01*
X67316Y-45197D02*
X67716Y-45197D01*
X67916Y-42597D02*
X68116Y-42797D01*
X65354Y-42397D02*
X65354Y-42597D01*
X65354Y-45397D02*
X65354Y-45197D01*
X65354Y-45197D02*
X65754Y-45197D01*
X65754Y-45197D02*
X65754Y-42597D01*
X65754Y-42597D02*
X64954Y-42597D01*
X64954Y-42597D02*
X64954Y-45197D01*
X64954Y-45197D02*
X65354Y-45197D01*
X65554Y-42597D02*
X65754Y-42797D01*
X62992Y-42397D02*
X62992Y-42597D01*
X62992Y-45397D02*
X62992Y-45197D01*
X62992Y-45197D02*
X63392Y-45197D01*
X63392Y-45197D02*
X63392Y-42597D01*
X63392Y-42597D02*
X62592Y-42597D01*
X62592Y-42597D02*
X62592Y-45197D01*
X62592Y-45197D02*
X62992Y-45197D01*
X63192Y-42597D02*
X63392Y-42797D01*
X63460Y-35629D02*
X63660Y-35629D01*
X66460Y-35629D02*
X66260Y-35629D01*
X66260Y-35629D02*
X66260Y-35229D01*
X66260Y-35229D02*
X63660Y-35229D01*
X63660Y-35229D02*
X63660Y-36029D01*
X63660Y-36029D02*
X66260Y-36029D01*
X66260Y-36029D02*
X66260Y-35629D01*
X63660Y-35429D02*
X63860Y-35229D01*
X71086Y-35629D02*
X70886Y-35629D01*
X68086Y-35629D02*
X68286Y-35629D01*
X68286Y-35629D02*
X68286Y-36029D01*
X68286Y-36029D02*
X70886Y-36029D01*
X70886Y-36029D02*
X70886Y-35229D01*
X70886Y-35229D02*
X68286Y-35229D01*
X68286Y-35229D02*
X68286Y-35629D01*
X70886Y-35829D02*
X70686Y-36029D01*
X63460Y-31299D02*
X63660Y-31299D01*
X66460Y-31299D02*
X66260Y-31299D01*
X66260Y-31299D02*
X66260Y-30899D01*
X66260Y-30899D02*
X63660Y-30899D01*
X63660Y-30899D02*
X63660Y-31699D01*
X63660Y-31699D02*
X66260Y-31699D01*
X66260Y-31699D02*
X66260Y-31299D01*
X63660Y-31099D02*
X63860Y-30899D01*
X71086Y-31299D02*
X70886Y-31299D01*
X68086Y-31299D02*
X68286Y-31299D01*
X68286Y-31299D02*
X68286Y-31699D01*
X68286Y-31699D02*
X70886Y-31699D01*
X70886Y-31699D02*
X70886Y-30899D01*
X70886Y-30899D02*
X68286Y-30899D01*
X68286Y-30899D02*
X68286Y-31299D01*
X70886Y-31499D02*
X70686Y-31699D01*
X63318Y-26913D02*
X63518Y-26913D01*
X66318Y-26913D02*
X66118Y-26913D01*
X66118Y-26913D02*
X66118Y-26513D01*
X66118Y-26513D02*
X63518Y-26513D01*
X63518Y-26513D02*
X63518Y-27313D01*
X63518Y-27313D02*
X66118Y-27313D01*
X66118Y-27313D02*
X66118Y-26913D01*
X63518Y-26713D02*
X63718Y-26513D01*
X71283Y-26870D02*
X71083Y-26870D01*
X68283Y-26870D02*
X68483Y-26870D01*
X68483Y-26870D02*
X68483Y-27270D01*
X68483Y-27270D02*
X71083Y-27270D01*
X71083Y-27270D02*
X71083Y-26470D01*
X71083Y-26470D02*
X68483Y-26470D01*
X68483Y-26470D02*
X68483Y-26870D01*
X71083Y-27070D02*
X70883Y-27270D01*
G54D13*
X50921Y-39354D02*
X58921Y-39354D01*
X58921Y-41354D02*
X50921Y-41354D01*
X50921Y-41354D02*
X50921Y-39354D01*
X50921Y-39854D02*
X51421Y-39854D01*
X51421Y-39854D02*
X51421Y-40854D01*
X51421Y-40854D02*
X50921Y-40854D01*
X58921Y-39354D02*
X58921Y-41354D01*
X62413Y-47925D02*
X62913Y-47925D01*
X62913Y-47925D02*
X62913Y-48925D01*
X62913Y-48925D02*
X62413Y-48925D01*
X62413Y-47425D02*
X73413Y-47425D01*
X73413Y-47425D02*
X73413Y-49425D01*
X73413Y-49425D02*
X62413Y-49425D01*
X62413Y-49425D02*
X62413Y-47425D01*
G54D12*
X55102Y-54133D02*
X55102Y-52133D01*
X56102Y-54133D02*
X56102Y-52133D01*
X57102Y-54133D02*
X57102Y-52133D01*
X58102Y-52133D02*
X58102Y-46133D01*
X58102Y-46133D02*
X54102Y-46133D01*
X54102Y-46133D02*
X54102Y-52133D01*
X54102Y-52133D02*
X58102Y-52133D01*
X57602Y-49133D02*
X54102Y-49133D01*
X57602Y-49133D02*
X58102Y-49133D01*
G54D13*
X71078Y-37226D02*
X71078Y-40726D01*
X71078Y-40726D02*
X69078Y-40726D01*
X69078Y-40726D02*
X69078Y-37226D01*
X69078Y-37226D02*
X71078Y-37226D01*
X70328Y-37226D02*
X70328Y-37726D01*
X70328Y-37726D02*
X69828Y-37726D01*
X69828Y-37726D02*
X69828Y-37226D01*
X66748Y-37226D02*
X66748Y-40726D01*
X66748Y-40726D02*
X64748Y-40726D01*
X64748Y-40726D02*
X64748Y-37226D01*
X64748Y-37226D02*
X66748Y-37226D01*
X65998Y-37226D02*
X65998Y-37726D01*
X65998Y-37726D02*
X65498Y-37726D01*
X65498Y-37726D02*
X65498Y-37226D01*
X62220Y-37226D02*
X62220Y-40726D01*
X62220Y-40726D02*
X60220Y-40726D01*
X60220Y-40726D02*
X60220Y-37226D01*
X60220Y-37226D02*
X62220Y-37226D01*
X61470Y-37226D02*
X61470Y-37726D01*
X61470Y-37726D02*
X60970Y-37726D01*
X60970Y-37726D02*
X60970Y-37226D01*
G54D18*
X69163Y-51755D02*
X66663Y-51755D01*
X69163Y-53755D02*
X66663Y-53755D01*
X65663Y-52755D02*
G75*
G03X66663Y-53755I1000J0D01*
G74*
G01*
X66663Y-51755D02*
G75*
G03X65663Y-52755I0J-1000D01*
G74*
G01*
X69163Y-53755D02*
G75*
G03X70163Y-52755I0J1000D01*
G74*
G01*
X70163Y-52755D02*
G75*
G03X69163Y-51755I-1000J0D01*
G74*
G01*
G54D12*
X45669Y-34842D02*
X44488Y-34842D01*
X51181Y-34842D02*
X52362Y-34842D01*
X45675Y-33842D02*
X51175Y-33842D01*
X51175Y-35842D02*
X45675Y-35842D01*
X51175Y-35342D02*
X50675Y-35842D01*
X45675Y-35842D02*
X45675Y-33842D01*
X51175Y-35842D02*
X51175Y-33842D01*
X45669Y-30511D02*
X44488Y-30511D01*
X51181Y-30511D02*
X52362Y-30511D01*
X45675Y-29511D02*
X51175Y-29511D01*
X51175Y-31511D02*
X45675Y-31511D01*
X51175Y-31011D02*
X50675Y-31511D01*
X45675Y-31511D02*
X45675Y-29511D01*
X51175Y-31511D02*
X51175Y-29511D01*
X45669Y-26181D02*
X44488Y-26181D01*
X51181Y-26181D02*
X52362Y-26181D01*
X45675Y-25181D02*
X51175Y-25181D01*
X51175Y-27181D02*
X45675Y-27181D01*
X51175Y-26681D02*
X50675Y-27181D01*
X45675Y-27181D02*
X45675Y-25181D01*
X51175Y-27181D02*
X51175Y-25181D01*
G54D19*
X77952Y-51771D02*
X79921Y-51771D01*
X79940Y-51771D02*
G75*
G03X79940Y-51771I-1003J0D01*
G74*
G01*
X80905Y-51574D02*
X80905Y-49606D01*
X80905Y-49606D02*
X76968Y-49606D01*
X76968Y-49606D02*
X76968Y-53543D01*
X76968Y-53543D02*
X80905Y-53543D01*
X80905Y-53543D02*
X80905Y-51574D01*
G54D13*
X52802Y-49031D02*
G75*
G03X52802Y-49031I-1802J0D01*
G74*
G01*
X36220Y-37992D02*
X32480Y-37992D01*
X32480Y-37992D02*
X32480Y-40748D01*
X32480Y-40748D02*
X39960Y-40748D01*
X39960Y-40748D02*
X39960Y-37992D01*
X39960Y-37992D02*
X36220Y-37992D01*
X36220Y-36811D02*
X39960Y-36811D01*
X39960Y-36811D02*
X39960Y-34055D01*
X39960Y-34055D02*
X32480Y-34055D01*
X32480Y-34055D02*
X32480Y-36811D01*
X32480Y-36811D02*
X36220Y-36811D01*
X80708Y-34055D02*
X76968Y-34055D01*
X76968Y-34055D02*
X76968Y-36811D01*
X76968Y-36811D02*
X84448Y-36811D01*
X84448Y-36811D02*
X84448Y-34055D01*
X84448Y-34055D02*
X80708Y-34055D01*
X36220Y-32874D02*
X39960Y-32874D01*
X39960Y-32874D02*
X39960Y-30118D01*
X39960Y-30118D02*
X32480Y-30118D01*
X32480Y-30118D02*
X32480Y-32874D01*
X32480Y-32874D02*
X36220Y-32874D01*
X80708Y-30118D02*
X76968Y-30118D01*
X76968Y-30118D02*
X76968Y-32874D01*
X76968Y-32874D02*
X84448Y-32874D01*
X84448Y-32874D02*
X84448Y-30118D01*
X84448Y-30118D02*
X80708Y-30118D01*
X36220Y-28937D02*
X39960Y-28937D01*
X39960Y-28937D02*
X39960Y-26181D01*
X39960Y-26181D02*
X32480Y-26181D01*
X32480Y-26181D02*
X32480Y-28937D01*
X32480Y-28937D02*
X36220Y-28937D01*
X80708Y-26181D02*
X76968Y-26181D01*
X76968Y-26181D02*
X76968Y-28937D01*
X76968Y-28937D02*
X84448Y-28937D01*
X84448Y-28937D02*
X84448Y-26181D01*
X84448Y-26181D02*
X80708Y-26181D01*
X69192Y-28070D02*
X63090Y-28070D01*
X63090Y-28070D02*
X63090Y-30590D01*
X63090Y-30590D02*
X69192Y-30590D01*
X69192Y-30590D02*
X69192Y-28070D01*
X69192Y-23740D02*
X63090Y-23740D01*
X63090Y-23740D02*
X63090Y-26260D01*
X63090Y-26260D02*
X69192Y-26260D01*
X69192Y-26260D02*
X69192Y-23740D01*
G54D14*
X80625Y-43661D02*
X72523Y-43661D01*
X72283Y-43421D02*
X72283Y-37681D01*
X72523Y-37441D02*
X80625Y-37441D01*
X80865Y-37681D02*
X80865Y-43421D01*
X80625Y-43661D02*
G75*
G03X80865Y-43421I0J240D01*
G74*
G01*
X72283Y-43421D02*
G75*
G03X72523Y-43661I240J0D01*
G74*
G01*
X72523Y-37441D02*
G75*
G03X72283Y-37681I0J-240D01*
G74*
G01*
X80865Y-37681D02*
G75*
G03X80625Y-37441I-240J0D01*
G74*
G01*
G54D13*
X38287Y-41200D02*
X44389Y-41200D01*
X44389Y-41200D02*
X44389Y-43050D01*
X44389Y-43050D02*
X38287Y-43050D01*
X38287Y-43050D02*
X38287Y-41200D01*
X69192Y-32401D02*
X63090Y-32401D01*
X63090Y-32401D02*
X63090Y-34921D01*
X63090Y-34921D02*
X69192Y-34921D01*
X69192Y-34921D02*
X69192Y-32401D01*
X36811Y-52755D02*
X46653Y-52755D01*
X46653Y-52755D02*
X46653Y-45275D01*
X46653Y-45275D02*
X36811Y-45275D01*
X36811Y-45275D02*
X36811Y-52755D01*
X48622Y-49212D02*
X48622Y-43307D01*
X48622Y-43307D02*
X41732Y-43307D01*
X41732Y-43307D02*
X34842Y-43307D01*
X34842Y-43307D02*
X34842Y-49212D01*
X34842Y-49212D02*
X34842Y-55118D01*
X34842Y-55118D02*
X48622Y-55118D01*
X48622Y-55118D02*
X48622Y-49212D01*
G54D20*
X50828Y-33654D02*
X45628Y-33654D01*
X45628Y-32054D02*
X50828Y-32054D01*
X50828Y-33654D02*
X50828Y-32054D01*
X45628Y-32054D02*
X45628Y-33654D01*
X50828Y-29323D02*
X45628Y-29323D01*
X45628Y-27723D02*
X50828Y-27723D01*
X50828Y-29323D02*
X50828Y-27723D01*
X45628Y-27723D02*
X45628Y-29323D01*
G54D12*
X61311Y-45468D02*
X61311Y-43488D01*
X61311Y-43488D02*
X62311Y-43488D01*
X62311Y-43488D02*
X62311Y-45488D01*
X62311Y-45488D02*
X61311Y-45488D01*
X61561Y-45488D02*
X61311Y-45238D01*
G54D20*
X50828Y-24992D02*
X45628Y-24992D01*
X45628Y-23392D02*
X50828Y-23392D01*
X50828Y-24992D02*
X50828Y-23392D01*
X45628Y-23392D02*
X45628Y-24992D01*
G54D11*
X62024Y-53543D02*
G75*
G03X62024Y-53543I-1001J0D01*
G74*
G01*
G54D17*
X75287Y-53133D02*
X76287Y-53133D01*
X76287Y-53133D02*
X76287Y-55133D01*
X76287Y-55133D02*
X75287Y-55133D01*
X75287Y-55133D02*
X75287Y-53133D01*
G54D11*
X59792Y-45867D02*
X59778Y-45882D01*
X59735Y-45896D01*
X59706Y-45896D01*
X59663Y-45882D01*
X59635Y-45853D01*
X59621Y-45825D01*
X59606Y-45767D01*
X59606Y-45725D01*
X59621Y-45667D01*
X59635Y-45639D01*
X59663Y-45610D01*
X59706Y-45596D01*
X59735Y-45596D01*
X59778Y-45610D01*
X59792Y-45625D01*
X60063Y-45596D02*
X59921Y-45596D01*
X59906Y-45739D01*
X59921Y-45725D01*
X59949Y-45710D01*
X60021Y-45710D01*
X60049Y-45725D01*
X60063Y-45739D01*
X60078Y-45767D01*
X60078Y-45839D01*
X60063Y-45867D01*
X60049Y-45882D01*
X60021Y-45896D01*
X59949Y-45896D01*
X59921Y-45882D01*
X59906Y-45867D01*
X59479Y-46895D02*
X59336Y-46895D01*
X59407Y-46895D02*
X59407Y-46595D01*
X59384Y-46638D01*
X59360Y-46666D01*
X59336Y-46681D01*
X59634Y-46595D02*
X59657Y-46595D01*
X59681Y-46609D01*
X59693Y-46624D01*
X59705Y-46652D01*
X59717Y-46709D01*
X59717Y-46781D01*
X59705Y-46838D01*
X59693Y-46866D01*
X59681Y-46881D01*
X59657Y-46895D01*
X59634Y-46895D01*
X59610Y-46881D01*
X59598Y-46866D01*
X59586Y-46838D01*
X59574Y-46781D01*
X59574Y-46709D01*
X59586Y-46652D01*
X59598Y-46624D01*
X59610Y-46609D01*
X59634Y-46595D01*
X60122Y-46695D02*
X60122Y-46895D01*
X60015Y-46695D02*
X60015Y-46852D01*
X60027Y-46881D01*
X60050Y-46895D01*
X60086Y-46895D01*
X60110Y-46881D01*
X60122Y-46866D01*
X60324Y-46738D02*
X60241Y-46738D01*
X60241Y-46895D02*
X60241Y-46595D01*
X60360Y-46595D01*
G54D21*
X58828Y-46281D02*
X59056Y-46281D01*
X58942Y-46395D02*
X58942Y-46166D01*
G54D14*
G54D19*
X83678Y-50728D02*
X83707Y-50757D01*
X83735Y-50842D01*
X83735Y-50899D01*
X83707Y-50985D01*
X83650Y-51042D01*
X83593Y-51071D01*
X83478Y-51099D01*
X83393Y-51099D01*
X83278Y-51071D01*
X83221Y-51042D01*
X83164Y-50985D01*
X83135Y-50899D01*
X83135Y-50842D01*
X83164Y-50757D01*
X83193Y-50728D01*
X83135Y-50357D02*
X83135Y-50242D01*
X83164Y-50185D01*
X83221Y-50128D01*
X83335Y-50099D01*
X83535Y-50099D01*
X83650Y-50128D01*
X83707Y-50185D01*
X83735Y-50242D01*
X83735Y-50357D01*
X83707Y-50414D01*
X83650Y-50471D01*
X83535Y-50499D01*
X83335Y-50499D01*
X83221Y-50471D01*
X83164Y-50414D01*
X83135Y-50357D01*
X83735Y-49842D02*
X83135Y-49842D01*
X83735Y-49500D01*
X83135Y-49500D01*
X83335Y-48957D02*
X83735Y-48957D01*
X83107Y-49100D02*
X83535Y-49242D01*
X83535Y-48871D01*
X82526Y-51657D02*
X82554Y-51571D01*
X82554Y-51428D01*
X82526Y-51371D01*
X82497Y-51342D01*
X82440Y-51314D01*
X82383Y-51314D01*
X82326Y-51342D01*
X82297Y-51371D01*
X82269Y-51428D01*
X82240Y-51542D01*
X82212Y-51599D01*
X82183Y-51628D01*
X82126Y-51657D01*
X82069Y-51657D01*
X82012Y-51628D01*
X81983Y-51599D01*
X81954Y-51542D01*
X81954Y-51399D01*
X81983Y-51314D01*
X82240Y-51057D02*
X82240Y-50857D01*
X82554Y-50771D02*
X82554Y-51057D01*
X81954Y-51057D01*
X81954Y-50771D01*
X82554Y-50514D02*
X81954Y-50514D01*
X82554Y-50171D01*
X81954Y-50171D01*
X82526Y-49914D02*
X82554Y-49828D01*
X82554Y-49685D01*
X82526Y-49628D01*
X82497Y-49600D01*
X82440Y-49571D01*
X82383Y-49571D01*
X82326Y-49600D01*
X82297Y-49628D01*
X82269Y-49685D01*
X82240Y-49800D01*
X82212Y-49857D01*
X82183Y-49885D01*
X82126Y-49914D01*
X82069Y-49914D01*
X82012Y-49885D01*
X81983Y-49857D01*
X81954Y-49800D01*
X81954Y-49657D01*
X81983Y-49571D01*
X81954Y-49199D02*
X81954Y-49085D01*
X81983Y-49028D01*
X82040Y-48971D01*
X82154Y-48942D01*
X82354Y-48942D01*
X82469Y-48971D01*
X82526Y-49028D01*
X82554Y-49085D01*
X82554Y-49199D01*
X82526Y-49257D01*
X82469Y-49314D01*
X82354Y-49342D01*
X82154Y-49342D01*
X82040Y-49314D01*
X81983Y-49257D01*
X81954Y-49199D01*
X82554Y-48342D02*
X82269Y-48542D01*
X82554Y-48685D02*
X81954Y-48685D01*
X81954Y-48457D01*
X81983Y-48400D01*
X82012Y-48371D01*
X82069Y-48342D01*
X82154Y-48342D01*
X82212Y-48371D01*
X82240Y-48400D01*
X82269Y-48457D01*
X82269Y-48685D01*
X83735Y-45521D02*
X83135Y-45521D01*
X83135Y-45293D01*
X83164Y-45235D01*
X83193Y-45207D01*
X83250Y-45178D01*
X83335Y-45178D01*
X83393Y-45207D01*
X83421Y-45235D01*
X83450Y-45293D01*
X83450Y-45521D01*
X83735Y-44607D02*
X83735Y-44950D01*
X83735Y-44778D02*
X83135Y-44778D01*
X83221Y-44835D01*
X83278Y-44893D01*
X83307Y-44950D01*
X82497Y-46350D02*
X82526Y-46378D01*
X82554Y-46464D01*
X82554Y-46521D01*
X82526Y-46607D01*
X82469Y-46664D01*
X82412Y-46693D01*
X82297Y-46721D01*
X82212Y-46721D01*
X82097Y-46693D01*
X82040Y-46664D01*
X81983Y-46607D01*
X81954Y-46521D01*
X81954Y-46464D01*
X81983Y-46378D01*
X82012Y-46350D01*
X81954Y-45978D02*
X81954Y-45864D01*
X81983Y-45807D01*
X82040Y-45750D01*
X82154Y-45721D01*
X82354Y-45721D01*
X82469Y-45750D01*
X82526Y-45807D01*
X82554Y-45864D01*
X82554Y-45978D01*
X82526Y-46035D01*
X82469Y-46093D01*
X82354Y-46121D01*
X82154Y-46121D01*
X82040Y-46093D01*
X81983Y-46035D01*
X81954Y-45978D01*
X82554Y-45464D02*
X81954Y-45464D01*
X82554Y-45121D01*
X81954Y-45121D01*
X82554Y-44835D02*
X81954Y-44835D01*
X82554Y-44493D01*
X81954Y-44493D01*
X82612Y-44350D02*
X82612Y-43893D01*
X82012Y-43778D02*
X81983Y-43750D01*
X81954Y-43693D01*
X81954Y-43550D01*
X81983Y-43493D01*
X82012Y-43464D01*
X82069Y-43435D01*
X82126Y-43435D01*
X82212Y-43464D01*
X82554Y-43807D01*
X82554Y-43435D01*
X83678Y-40886D02*
X83707Y-40914D01*
X83735Y-41000D01*
X83735Y-41057D01*
X83707Y-41143D01*
X83650Y-41200D01*
X83593Y-41228D01*
X83478Y-41257D01*
X83393Y-41257D01*
X83278Y-41228D01*
X83221Y-41200D01*
X83164Y-41143D01*
X83135Y-41057D01*
X83135Y-41000D01*
X83164Y-40914D01*
X83193Y-40886D01*
X83135Y-40514D02*
X83135Y-40400D01*
X83164Y-40343D01*
X83221Y-40286D01*
X83335Y-40257D01*
X83535Y-40257D01*
X83650Y-40286D01*
X83707Y-40343D01*
X83735Y-40400D01*
X83735Y-40514D01*
X83707Y-40571D01*
X83650Y-40628D01*
X83535Y-40657D01*
X83335Y-40657D01*
X83221Y-40628D01*
X83164Y-40571D01*
X83135Y-40514D01*
X83735Y-40000D02*
X83135Y-40000D01*
X83735Y-39657D01*
X83135Y-39657D01*
X83735Y-39057D02*
X83735Y-39400D01*
X83735Y-39228D02*
X83135Y-39228D01*
X83221Y-39286D01*
X83278Y-39343D01*
X83307Y-39400D01*
X81954Y-40371D02*
X82383Y-40371D01*
X82469Y-40400D01*
X82526Y-40457D01*
X82554Y-40543D01*
X82554Y-40600D01*
X82554Y-40086D02*
X81954Y-40086D01*
X81954Y-39857D01*
X81983Y-39800D01*
X82012Y-39771D01*
X82069Y-39743D01*
X82154Y-39743D01*
X82212Y-39771D01*
X82240Y-39800D01*
X82269Y-39857D01*
X82269Y-40086D01*
G54D14*
X57693Y-34486D02*
X57674Y-34525D01*
X57636Y-34563D01*
X57579Y-34620D01*
X57560Y-34658D01*
X57560Y-34696D01*
X57655Y-34677D02*
X57636Y-34715D01*
X57598Y-34753D01*
X57522Y-34772D01*
X57388Y-34772D01*
X57312Y-34753D01*
X57274Y-34715D01*
X57255Y-34677D01*
X57255Y-34601D01*
X57274Y-34563D01*
X57312Y-34525D01*
X57388Y-34505D01*
X57522Y-34505D01*
X57598Y-34525D01*
X57636Y-34563D01*
X57655Y-34601D01*
X57655Y-34677D01*
X57293Y-34353D02*
X57274Y-34334D01*
X57255Y-34296D01*
X57255Y-34201D01*
X57274Y-34163D01*
X57293Y-34144D01*
X57331Y-34125D01*
X57369Y-34125D01*
X57426Y-34144D01*
X57655Y-34372D01*
X57655Y-34125D01*
X58755Y-35229D02*
X58755Y-35001D01*
X59155Y-35115D02*
X58755Y-35115D01*
X59155Y-34639D02*
X58964Y-34772D01*
X59155Y-34867D02*
X58755Y-34867D01*
X58755Y-34715D01*
X58774Y-34677D01*
X58793Y-34658D01*
X58831Y-34639D01*
X58888Y-34639D01*
X58926Y-34658D01*
X58945Y-34677D01*
X58964Y-34715D01*
X58964Y-34867D01*
X59155Y-34467D02*
X58755Y-34467D01*
X59041Y-34296D02*
X59041Y-34105D01*
X59155Y-34334D02*
X58755Y-34201D01*
X59155Y-34067D01*
X59117Y-33705D02*
X59136Y-33725D01*
X59155Y-33782D01*
X59155Y-33820D01*
X59136Y-33877D01*
X59098Y-33915D01*
X59060Y-33934D01*
X58983Y-33953D01*
X58926Y-33953D01*
X58850Y-33934D01*
X58812Y-33915D01*
X58774Y-33877D01*
X58755Y-33820D01*
X58755Y-33782D01*
X58774Y-33725D01*
X58793Y-33705D01*
X57693Y-30156D02*
X57674Y-30194D01*
X57636Y-30232D01*
X57579Y-30289D01*
X57560Y-30327D01*
X57560Y-30365D01*
X57655Y-30346D02*
X57636Y-30384D01*
X57598Y-30422D01*
X57522Y-30441D01*
X57388Y-30441D01*
X57312Y-30422D01*
X57274Y-30384D01*
X57255Y-30346D01*
X57255Y-30270D01*
X57274Y-30232D01*
X57312Y-30194D01*
X57388Y-30175D01*
X57522Y-30175D01*
X57598Y-30194D01*
X57636Y-30232D01*
X57655Y-30270D01*
X57655Y-30346D01*
X57255Y-30041D02*
X57255Y-29794D01*
X57407Y-29927D01*
X57407Y-29870D01*
X57426Y-29832D01*
X57445Y-29813D01*
X57483Y-29794D01*
X57579Y-29794D01*
X57617Y-29813D01*
X57636Y-29832D01*
X57655Y-29870D01*
X57655Y-29984D01*
X57636Y-30022D01*
X57617Y-30041D01*
X58755Y-30899D02*
X58755Y-30670D01*
X59155Y-30784D02*
X58755Y-30784D01*
X59155Y-30308D02*
X58964Y-30441D01*
X59155Y-30537D02*
X58755Y-30537D01*
X58755Y-30384D01*
X58774Y-30346D01*
X58793Y-30327D01*
X58831Y-30308D01*
X58888Y-30308D01*
X58926Y-30327D01*
X58945Y-30346D01*
X58964Y-30384D01*
X58964Y-30537D01*
X59155Y-30137D02*
X58755Y-30137D01*
X59041Y-29965D02*
X59041Y-29775D01*
X59155Y-30003D02*
X58755Y-29870D01*
X59155Y-29737D01*
X59117Y-29375D02*
X59136Y-29394D01*
X59155Y-29451D01*
X59155Y-29489D01*
X59136Y-29546D01*
X59098Y-29584D01*
X59060Y-29603D01*
X58983Y-29622D01*
X58926Y-29622D01*
X58850Y-29603D01*
X58812Y-29584D01*
X58774Y-29546D01*
X58755Y-29489D01*
X58755Y-29451D01*
X58774Y-29394D01*
X58793Y-29375D01*
X57693Y-25825D02*
X57674Y-25863D01*
X57636Y-25901D01*
X57579Y-25958D01*
X57560Y-25996D01*
X57560Y-26035D01*
X57655Y-26015D02*
X57636Y-26054D01*
X57598Y-26092D01*
X57522Y-26111D01*
X57388Y-26111D01*
X57312Y-26092D01*
X57274Y-26054D01*
X57255Y-26015D01*
X57255Y-25939D01*
X57274Y-25901D01*
X57312Y-25863D01*
X57388Y-25844D01*
X57522Y-25844D01*
X57598Y-25863D01*
X57636Y-25901D01*
X57655Y-25939D01*
X57655Y-26015D01*
X57388Y-25501D02*
X57655Y-25501D01*
X57236Y-25596D02*
X57522Y-25692D01*
X57522Y-25444D01*
X58755Y-26568D02*
X58755Y-26339D01*
X59155Y-26454D02*
X58755Y-26454D01*
X59155Y-25977D02*
X58964Y-26111D01*
X59155Y-26206D02*
X58755Y-26206D01*
X58755Y-26054D01*
X58774Y-26015D01*
X58793Y-25996D01*
X58831Y-25977D01*
X58888Y-25977D01*
X58926Y-25996D01*
X58945Y-26015D01*
X58964Y-26054D01*
X58964Y-26206D01*
X59155Y-25806D02*
X58755Y-25806D01*
X59041Y-25635D02*
X59041Y-25444D01*
X59155Y-25673D02*
X58755Y-25539D01*
X59155Y-25406D01*
X59117Y-25044D02*
X59136Y-25063D01*
X59155Y-25120D01*
X59155Y-25158D01*
X59136Y-25215D01*
X59098Y-25254D01*
X59060Y-25273D01*
X58983Y-25292D01*
X58926Y-25292D01*
X58850Y-25273D01*
X58812Y-25254D01*
X58774Y-25215D01*
X58755Y-25158D01*
X58755Y-25120D01*
X58774Y-25063D01*
X58793Y-25044D01*
X49242Y-40320D02*
X49261Y-40340D01*
X49280Y-40397D01*
X49280Y-40435D01*
X49261Y-40492D01*
X49223Y-40530D01*
X49185Y-40549D01*
X49109Y-40568D01*
X49052Y-40568D01*
X48976Y-40549D01*
X48938Y-40530D01*
X48900Y-40492D01*
X48880Y-40435D01*
X48880Y-40397D01*
X48900Y-40340D01*
X48919Y-40320D01*
X49280Y-39940D02*
X49280Y-40168D01*
X49280Y-40054D02*
X48880Y-40054D01*
X48938Y-40092D01*
X48976Y-40130D01*
X48995Y-40168D01*
X55840Y-43435D02*
X55821Y-43454D01*
X55764Y-43473D01*
X55726Y-43473D01*
X55668Y-43454D01*
X55630Y-43416D01*
X55611Y-43378D01*
X55592Y-43302D01*
X55592Y-43245D01*
X55611Y-43169D01*
X55630Y-43131D01*
X55668Y-43092D01*
X55726Y-43073D01*
X55764Y-43073D01*
X55821Y-43092D01*
X55840Y-43111D01*
X55992Y-43111D02*
X56011Y-43092D01*
X56049Y-43073D01*
X56145Y-43073D01*
X56183Y-43092D01*
X56202Y-43111D01*
X56221Y-43150D01*
X56221Y-43188D01*
X56202Y-43245D01*
X55973Y-43473D01*
X56221Y-43473D01*
X47471Y-41790D02*
X47452Y-41809D01*
X47394Y-41828D01*
X47356Y-41828D01*
X47299Y-41809D01*
X47261Y-41771D01*
X47242Y-41733D01*
X47223Y-41657D01*
X47223Y-41600D01*
X47242Y-41524D01*
X47261Y-41486D01*
X47299Y-41448D01*
X47356Y-41428D01*
X47394Y-41428D01*
X47452Y-41448D01*
X47471Y-41467D01*
X47604Y-41428D02*
X47852Y-41428D01*
X47718Y-41581D01*
X47775Y-41581D01*
X47813Y-41600D01*
X47833Y-41619D01*
X47852Y-41657D01*
X47852Y-41752D01*
X47833Y-41790D01*
X47813Y-41809D01*
X47775Y-41828D01*
X47661Y-41828D01*
X47623Y-41809D01*
X47604Y-41790D01*
X47471Y-39428D02*
X47452Y-39447D01*
X47394Y-39466D01*
X47356Y-39466D01*
X47299Y-39447D01*
X47261Y-39409D01*
X47242Y-39371D01*
X47223Y-39295D01*
X47223Y-39238D01*
X47242Y-39162D01*
X47261Y-39123D01*
X47299Y-39085D01*
X47356Y-39066D01*
X47394Y-39066D01*
X47452Y-39085D01*
X47471Y-39104D01*
X47813Y-39200D02*
X47813Y-39466D01*
X47718Y-39047D02*
X47623Y-39333D01*
X47871Y-39333D01*
X60857Y-47801D02*
X60876Y-47820D01*
X60895Y-47877D01*
X60895Y-47915D01*
X60876Y-47972D01*
X60837Y-48010D01*
X60799Y-48029D01*
X60723Y-48048D01*
X60666Y-48048D01*
X60590Y-48029D01*
X60552Y-48010D01*
X60514Y-47972D01*
X60495Y-47915D01*
X60495Y-47877D01*
X60514Y-47820D01*
X60533Y-47801D01*
X60495Y-47458D02*
X60495Y-47534D01*
X60514Y-47572D01*
X60533Y-47591D01*
X60590Y-47629D01*
X60666Y-47648D01*
X60818Y-47648D01*
X60857Y-47629D01*
X60876Y-47610D01*
X60895Y-47572D01*
X60895Y-47496D01*
X60876Y-47458D01*
X60857Y-47439D01*
X60818Y-47420D01*
X60723Y-47420D01*
X60685Y-47439D01*
X60666Y-47458D01*
X60647Y-47496D01*
X60647Y-47572D01*
X60666Y-47610D01*
X60685Y-47629D01*
X60723Y-47648D01*
X76239Y-50166D02*
X76258Y-50185D01*
X76277Y-50242D01*
X76277Y-50280D01*
X76258Y-50338D01*
X76220Y-50376D01*
X76182Y-50395D01*
X76106Y-50414D01*
X76049Y-50414D01*
X75973Y-50395D01*
X75934Y-50376D01*
X75896Y-50338D01*
X75877Y-50280D01*
X75877Y-50242D01*
X75896Y-50185D01*
X75915Y-50166D01*
X75877Y-50033D02*
X75877Y-49766D01*
X76277Y-49938D01*
X63222Y-52392D02*
X63203Y-52411D01*
X63146Y-52430D01*
X63108Y-52430D01*
X63050Y-52411D01*
X63012Y-52373D01*
X62993Y-52335D01*
X62974Y-52259D01*
X62974Y-52201D01*
X62993Y-52125D01*
X63012Y-52087D01*
X63050Y-52049D01*
X63108Y-52030D01*
X63146Y-52030D01*
X63203Y-52049D01*
X63222Y-52068D01*
X63450Y-52201D02*
X63412Y-52182D01*
X63393Y-52163D01*
X63374Y-52125D01*
X63374Y-52106D01*
X63393Y-52068D01*
X63412Y-52049D01*
X63450Y-52030D01*
X63527Y-52030D01*
X63565Y-52049D01*
X63584Y-52068D01*
X63603Y-52106D01*
X63603Y-52125D01*
X63584Y-52163D01*
X63565Y-52182D01*
X63527Y-52201D01*
X63450Y-52201D01*
X63412Y-52221D01*
X63393Y-52240D01*
X63374Y-52278D01*
X63374Y-52354D01*
X63393Y-52392D01*
X63412Y-52411D01*
X63450Y-52430D01*
X63527Y-52430D01*
X63565Y-52411D01*
X63584Y-52392D01*
X63603Y-52354D01*
X63603Y-52278D01*
X63584Y-52240D01*
X63565Y-52221D01*
X63527Y-52201D01*
X70799Y-52701D02*
X70780Y-52720D01*
X70723Y-52740D01*
X70685Y-52740D01*
X70628Y-52720D01*
X70589Y-52682D01*
X70570Y-52644D01*
X70551Y-52568D01*
X70551Y-52511D01*
X70570Y-52435D01*
X70589Y-52397D01*
X70628Y-52359D01*
X70685Y-52340D01*
X70723Y-52340D01*
X70780Y-52359D01*
X70799Y-52378D01*
X70989Y-52740D02*
X71066Y-52740D01*
X71104Y-52720D01*
X71123Y-52701D01*
X71161Y-52644D01*
X71180Y-52568D01*
X71180Y-52416D01*
X71161Y-52378D01*
X71142Y-52359D01*
X71104Y-52340D01*
X71028Y-52340D01*
X70989Y-52359D01*
X70970Y-52378D01*
X70951Y-52416D01*
X70951Y-52511D01*
X70970Y-52549D01*
X70989Y-52568D01*
X71028Y-52587D01*
X71104Y-52587D01*
X71142Y-52568D01*
X71161Y-52549D01*
X71180Y-52511D01*
X50956Y-52492D02*
X50939Y-52511D01*
X50889Y-52530D01*
X50856Y-52530D01*
X50806Y-52511D01*
X50772Y-52473D01*
X50756Y-52435D01*
X50739Y-52359D01*
X50739Y-52301D01*
X50756Y-52225D01*
X50772Y-52187D01*
X50806Y-52149D01*
X50856Y-52130D01*
X50889Y-52130D01*
X50939Y-52149D01*
X50956Y-52168D01*
X51289Y-52530D02*
X51089Y-52530D01*
X51189Y-52530D02*
X51189Y-52130D01*
X51156Y-52187D01*
X51122Y-52225D01*
X51089Y-52244D01*
X51506Y-52130D02*
X51539Y-52130D01*
X51572Y-52149D01*
X51589Y-52168D01*
X51606Y-52206D01*
X51622Y-52282D01*
X51622Y-52378D01*
X51606Y-52454D01*
X51589Y-52492D01*
X51572Y-52511D01*
X51539Y-52530D01*
X51506Y-52530D01*
X51472Y-52511D01*
X51456Y-52492D01*
X51439Y-52454D01*
X51422Y-52378D01*
X51422Y-52282D01*
X51439Y-52206D01*
X51456Y-52168D01*
X51472Y-52149D01*
X51506Y-52130D01*
X50472Y-53762D02*
X50472Y-54029D01*
X50389Y-53610D02*
X50306Y-53896D01*
X50522Y-53896D01*
X50622Y-53629D02*
X50856Y-53629D01*
X50706Y-54029D01*
X51056Y-53629D02*
X51089Y-53629D01*
X51122Y-53648D01*
X51139Y-53667D01*
X51156Y-53705D01*
X51172Y-53781D01*
X51172Y-53877D01*
X51156Y-53953D01*
X51139Y-53991D01*
X51122Y-54010D01*
X51089Y-54029D01*
X51056Y-54029D01*
X51022Y-54010D01*
X51006Y-53991D01*
X50989Y-53953D01*
X50972Y-53877D01*
X50972Y-53781D01*
X50989Y-53705D01*
X51006Y-53667D01*
X51022Y-53648D01*
X51056Y-53629D01*
X51739Y-53762D02*
X51739Y-54029D01*
X51589Y-53762D02*
X51589Y-53972D01*
X51606Y-54010D01*
X51639Y-54029D01*
X51689Y-54029D01*
X51722Y-54010D01*
X51739Y-53991D01*
X52022Y-53820D02*
X51906Y-53820D01*
X51906Y-54029D02*
X51906Y-53629D01*
X52072Y-53629D01*
X52151Y-53192D02*
X52608Y-53192D01*
X52380Y-53421D02*
X52380Y-52963D01*
X54586Y-53900D02*
X54605Y-53919D01*
X54624Y-53976D01*
X54624Y-54014D01*
X54605Y-54071D01*
X54567Y-54109D01*
X54529Y-54129D01*
X54452Y-54148D01*
X54395Y-54148D01*
X54319Y-54129D01*
X54281Y-54109D01*
X54243Y-54071D01*
X54224Y-54014D01*
X54224Y-53976D01*
X54243Y-53919D01*
X54262Y-53900D01*
X54624Y-53519D02*
X54624Y-53748D01*
X54624Y-53633D02*
X54224Y-53633D01*
X54281Y-53671D01*
X54319Y-53709D01*
X54338Y-53748D01*
X54624Y-53138D02*
X54624Y-53367D01*
X54624Y-53252D02*
X54224Y-53252D01*
X54281Y-53290D01*
X54319Y-53329D01*
X54338Y-53367D01*
X64703Y-52701D02*
X64684Y-52720D01*
X64627Y-52740D01*
X64589Y-52740D01*
X64532Y-52720D01*
X64493Y-52682D01*
X64474Y-52644D01*
X64455Y-52568D01*
X64455Y-52511D01*
X64474Y-52435D01*
X64493Y-52397D01*
X64532Y-52359D01*
X64589Y-52340D01*
X64627Y-52340D01*
X64684Y-52359D01*
X64703Y-52378D01*
X65084Y-52740D02*
X64855Y-52740D01*
X64970Y-52740D02*
X64970Y-52340D01*
X64932Y-52397D01*
X64893Y-52435D01*
X64855Y-52454D01*
X65236Y-52378D02*
X65255Y-52359D01*
X65293Y-52340D01*
X65389Y-52340D01*
X65427Y-52359D01*
X65446Y-52378D01*
X65465Y-52416D01*
X65465Y-52454D01*
X65446Y-52511D01*
X65217Y-52740D01*
X65465Y-52740D01*
X58797Y-52308D02*
X58778Y-52327D01*
X58721Y-52346D01*
X58683Y-52346D01*
X58626Y-52327D01*
X58588Y-52289D01*
X58569Y-52251D01*
X58550Y-52174D01*
X58550Y-52117D01*
X58569Y-52041D01*
X58588Y-52003D01*
X58626Y-51965D01*
X58683Y-51946D01*
X58721Y-51946D01*
X58778Y-51965D01*
X58797Y-51984D01*
X59178Y-52346D02*
X58950Y-52346D01*
X59064Y-52346D02*
X59064Y-51946D01*
X59026Y-52003D01*
X58988Y-52041D01*
X58950Y-52060D01*
X59312Y-51946D02*
X59559Y-51946D01*
X59426Y-52098D01*
X59483Y-52098D01*
X59521Y-52117D01*
X59540Y-52136D01*
X59559Y-52174D01*
X59559Y-52270D01*
X59540Y-52308D01*
X59521Y-52327D01*
X59483Y-52346D01*
X59369Y-52346D01*
X59331Y-52327D01*
X59312Y-52308D01*
X65778Y-44645D02*
X65797Y-44664D01*
X65816Y-44721D01*
X65816Y-44759D01*
X65797Y-44816D01*
X65759Y-44854D01*
X65721Y-44873D01*
X65644Y-44892D01*
X65587Y-44892D01*
X65511Y-44873D01*
X65473Y-44854D01*
X65435Y-44816D01*
X65416Y-44759D01*
X65416Y-44721D01*
X65435Y-44664D01*
X65454Y-44645D01*
X65816Y-44264D02*
X65816Y-44492D01*
X65816Y-44378D02*
X65416Y-44378D01*
X65473Y-44416D01*
X65511Y-44454D01*
X65530Y-44492D01*
X65416Y-43902D02*
X65416Y-44092D01*
X65606Y-44111D01*
X65587Y-44092D01*
X65568Y-44054D01*
X65568Y-43959D01*
X65587Y-43921D01*
X65606Y-43902D01*
X65644Y-43883D01*
X65740Y-43883D01*
X65778Y-43902D01*
X65797Y-43921D01*
X65816Y-43959D01*
X65816Y-44054D01*
X65797Y-44092D01*
X65778Y-44111D01*
X63416Y-44645D02*
X63435Y-44664D01*
X63454Y-44721D01*
X63454Y-44759D01*
X63435Y-44816D01*
X63397Y-44854D01*
X63358Y-44873D01*
X63282Y-44892D01*
X63225Y-44892D01*
X63149Y-44873D01*
X63111Y-44854D01*
X63073Y-44816D01*
X63054Y-44759D01*
X63054Y-44721D01*
X63073Y-44664D01*
X63092Y-44645D01*
X63454Y-44264D02*
X63454Y-44492D01*
X63454Y-44378D02*
X63054Y-44378D01*
X63111Y-44416D01*
X63149Y-44454D01*
X63168Y-44492D01*
X63054Y-43921D02*
X63054Y-43997D01*
X63073Y-44035D01*
X63092Y-44054D01*
X63149Y-44092D01*
X63225Y-44111D01*
X63377Y-44111D01*
X63416Y-44092D01*
X63435Y-44073D01*
X63454Y-44035D01*
X63454Y-43959D01*
X63435Y-43921D01*
X63416Y-43902D01*
X63377Y-43883D01*
X63282Y-43883D01*
X63244Y-43902D01*
X63225Y-43921D01*
X63206Y-43959D01*
X63206Y-44035D01*
X63225Y-44073D01*
X63244Y-44092D01*
X63282Y-44111D01*
X58963Y-47780D02*
X58944Y-47799D01*
X58886Y-47818D01*
X58848Y-47818D01*
X58791Y-47799D01*
X58753Y-47761D01*
X58734Y-47723D01*
X58715Y-47647D01*
X58715Y-47590D01*
X58734Y-47513D01*
X58753Y-47475D01*
X58791Y-47437D01*
X58848Y-47418D01*
X58886Y-47418D01*
X58944Y-47437D01*
X58963Y-47456D01*
X59210Y-47418D02*
X59286Y-47418D01*
X59325Y-47437D01*
X59363Y-47475D01*
X59382Y-47552D01*
X59382Y-47685D01*
X59363Y-47761D01*
X59325Y-47799D01*
X59286Y-47818D01*
X59210Y-47818D01*
X59172Y-47799D01*
X59134Y-47761D01*
X59115Y-47685D01*
X59115Y-47552D01*
X59134Y-47475D01*
X59172Y-47437D01*
X59210Y-47418D01*
X59553Y-47818D02*
X59553Y-47418D01*
X59782Y-47818D01*
X59782Y-47418D01*
X59934Y-47418D02*
X60182Y-47418D01*
X60048Y-47571D01*
X60105Y-47571D01*
X60144Y-47590D01*
X60163Y-47609D01*
X60182Y-47647D01*
X60182Y-47742D01*
X60163Y-47780D01*
X60144Y-47799D01*
X60105Y-47818D01*
X59991Y-47818D01*
X59953Y-47799D01*
X59934Y-47780D01*
X58851Y-48199D02*
X58909Y-48218D01*
X58928Y-48237D01*
X58947Y-48275D01*
X58947Y-48333D01*
X58928Y-48371D01*
X58909Y-48390D01*
X58871Y-48409D01*
X58718Y-48409D01*
X58718Y-48009D01*
X58851Y-48009D01*
X58890Y-48028D01*
X58909Y-48047D01*
X58928Y-48085D01*
X58928Y-48123D01*
X58909Y-48161D01*
X58890Y-48180D01*
X58851Y-48199D01*
X58718Y-48199D01*
X59118Y-48409D02*
X59118Y-48009D01*
X59213Y-48009D01*
X59271Y-48028D01*
X59309Y-48066D01*
X59328Y-48104D01*
X59347Y-48180D01*
X59347Y-48237D01*
X59328Y-48314D01*
X59309Y-48352D01*
X59271Y-48390D01*
X59213Y-48409D01*
X59118Y-48409D01*
X59518Y-48409D02*
X59518Y-48009D01*
X59651Y-48295D01*
X59785Y-48009D01*
X59785Y-48409D01*
X74035Y-44511D02*
X74035Y-44111D01*
X74130Y-44111D01*
X74187Y-44130D01*
X74225Y-44168D01*
X74244Y-44206D01*
X74264Y-44283D01*
X74264Y-44340D01*
X74244Y-44416D01*
X74225Y-44454D01*
X74187Y-44492D01*
X74130Y-44511D01*
X74035Y-44511D01*
X74644Y-44511D02*
X74416Y-44511D01*
X74530Y-44511D02*
X74530Y-44111D01*
X74492Y-44168D01*
X74454Y-44206D01*
X74416Y-44225D01*
G54D22*
X52534Y-42730D02*
X52534Y-42430D01*
X52605Y-42430D01*
X52648Y-42444D01*
X52677Y-42473D01*
X52691Y-42501D01*
X52705Y-42558D01*
X52705Y-42601D01*
X52691Y-42658D01*
X52677Y-42687D01*
X52648Y-42715D01*
X52605Y-42730D01*
X52534Y-42730D01*
X52820Y-42458D02*
X52834Y-42444D01*
X52863Y-42430D01*
X52934Y-42430D01*
X52963Y-42444D01*
X52977Y-42458D01*
X52991Y-42487D01*
X52991Y-42515D01*
X52977Y-42558D01*
X52805Y-42730D01*
X52991Y-42730D01*
X50791Y-44230D02*
X50648Y-44230D01*
X50648Y-43930D01*
X50891Y-44073D02*
X50991Y-44073D01*
X51034Y-44230D02*
X50891Y-44230D01*
X50891Y-43930D01*
X51034Y-43930D01*
X51162Y-44230D02*
X51162Y-43930D01*
X51234Y-43930D01*
X51277Y-43944D01*
X51305Y-43973D01*
X51319Y-44001D01*
X51334Y-44058D01*
X51334Y-44101D01*
X51319Y-44158D01*
X51305Y-44187D01*
X51277Y-44215D01*
X51234Y-44230D01*
X51162Y-44230D01*
X49975Y-42730D02*
X49975Y-42430D01*
X50046Y-42430D01*
X50089Y-42444D01*
X50118Y-42473D01*
X50132Y-42501D01*
X50146Y-42558D01*
X50146Y-42601D01*
X50132Y-42658D01*
X50118Y-42687D01*
X50089Y-42715D01*
X50046Y-42730D01*
X49975Y-42730D01*
X50403Y-42530D02*
X50403Y-42730D01*
X50332Y-42415D02*
X50261Y-42630D01*
X50446Y-42630D01*
X48232Y-44230D02*
X48089Y-44230D01*
X48089Y-43930D01*
X48332Y-44073D02*
X48432Y-44073D01*
X48475Y-44230D02*
X48332Y-44230D01*
X48332Y-43930D01*
X48475Y-43930D01*
X48603Y-44230D02*
X48603Y-43930D01*
X48675Y-43930D01*
X48718Y-43944D01*
X48746Y-43973D01*
X48760Y-44001D01*
X48775Y-44058D01*
X48775Y-44101D01*
X48760Y-44158D01*
X48746Y-44187D01*
X48718Y-44215D01*
X48675Y-44230D01*
X48603Y-44230D01*
G54D12*
X31384Y-47853D02*
X31384Y-48062D01*
X31969Y-48062D02*
X30853Y-48062D01*
X30853Y-47763D01*
X31969Y-47195D02*
X31969Y-47554D01*
X31969Y-47374D02*
X30853Y-47374D01*
X31012Y-47434D01*
X31119Y-47494D01*
X31172Y-47554D01*
X35393Y-48791D02*
X35393Y-49058D01*
X35916Y-49058D02*
X34916Y-49058D01*
X34916Y-48677D01*
X34916Y-48372D02*
X35726Y-48372D01*
X35821Y-48334D01*
X35869Y-48296D01*
X35916Y-48220D01*
X35916Y-48067D01*
X35869Y-47991D01*
X35821Y-47953D01*
X35726Y-47915D01*
X34916Y-47915D01*
X35869Y-47572D02*
X35916Y-47458D01*
X35916Y-47267D01*
X35869Y-47191D01*
X35821Y-47153D01*
X35726Y-47115D01*
X35631Y-47115D01*
X35535Y-47153D01*
X35488Y-47191D01*
X35440Y-47267D01*
X35393Y-47420D01*
X35345Y-47496D01*
X35297Y-47534D01*
X35202Y-47572D01*
X35107Y-47572D01*
X35012Y-47534D01*
X34964Y-47496D01*
X34916Y-47420D01*
X34916Y-47229D01*
X34964Y-47115D01*
X35393Y-46772D02*
X35393Y-46505D01*
X35916Y-46391D02*
X35916Y-46772D01*
X34916Y-46772D01*
X34916Y-46391D01*
G54D17*
X77745Y-46689D02*
X77145Y-46689D01*
X77688Y-46270D02*
X77716Y-46289D01*
X77745Y-46346D01*
X77745Y-46384D01*
X77716Y-46442D01*
X77659Y-46480D01*
X77602Y-46499D01*
X77488Y-46518D01*
X77402Y-46518D01*
X77288Y-46499D01*
X77231Y-46480D01*
X77174Y-46442D01*
X77145Y-46384D01*
X77145Y-46346D01*
X77174Y-46289D01*
X77202Y-46270D01*
X77745Y-45889D02*
X77745Y-46118D01*
X77745Y-46003D02*
X77145Y-46003D01*
X77231Y-46042D01*
X77288Y-46080D01*
X77316Y-46118D01*
X78266Y-46749D02*
X78600Y-46749D01*
X78076Y-46832D02*
X78433Y-46915D01*
X78433Y-46699D01*
X78600Y-46565D02*
X78100Y-46565D01*
X78600Y-46365D01*
X78100Y-46365D01*
X78147Y-46215D02*
X78124Y-46199D01*
X78100Y-46165D01*
X78100Y-46082D01*
X78124Y-46049D01*
X78147Y-46032D01*
X78195Y-46015D01*
X78243Y-46015D01*
X78314Y-46032D01*
X78600Y-46232D01*
X78600Y-46015D01*
X78100Y-45699D02*
X78100Y-45865D01*
X78338Y-45882D01*
X78314Y-45865D01*
X78290Y-45832D01*
X78290Y-45749D01*
X78314Y-45715D01*
X78338Y-45699D01*
X78385Y-45682D01*
X78504Y-45682D01*
X78552Y-45699D01*
X78576Y-45715D01*
X78600Y-45749D01*
X78600Y-45832D01*
X78576Y-45865D01*
X78552Y-45882D01*
X43253Y-39243D02*
X43253Y-39457D01*
X43239Y-39500D01*
X43211Y-39528D01*
X43168Y-39543D01*
X43139Y-39543D01*
X43396Y-39543D02*
X43396Y-39243D01*
X43511Y-39243D01*
X43539Y-39257D01*
X43553Y-39271D01*
X43568Y-39300D01*
X43568Y-39343D01*
X43553Y-39371D01*
X43539Y-39386D01*
X43511Y-39400D01*
X43396Y-39400D01*
X43853Y-39543D02*
X43682Y-39543D01*
X43768Y-39543D02*
X43768Y-39243D01*
X43739Y-39286D01*
X43711Y-39314D01*
X43682Y-39328D01*
X72314Y-52061D02*
X72528Y-52061D01*
X72571Y-52075D01*
X72599Y-52103D01*
X72614Y-52146D01*
X72614Y-52175D01*
X72614Y-51918D02*
X72314Y-51918D01*
X72314Y-51803D01*
X72328Y-51775D01*
X72342Y-51761D01*
X72371Y-51746D01*
X72414Y-51746D01*
X72442Y-51761D01*
X72456Y-51775D01*
X72471Y-51803D01*
X72471Y-51918D01*
X72342Y-51632D02*
X72328Y-51618D01*
X72314Y-51589D01*
X72314Y-51518D01*
X72328Y-51489D01*
X72342Y-51475D01*
X72371Y-51461D01*
X72399Y-51461D01*
X72442Y-51475D01*
X72614Y-51646D01*
X72614Y-51461D01*
X73814Y-54383D02*
X74028Y-54383D01*
X74071Y-54398D01*
X74099Y-54426D01*
X74114Y-54469D01*
X74114Y-54498D01*
X74114Y-54241D02*
X73814Y-54241D01*
X73814Y-54126D01*
X73828Y-54098D01*
X73842Y-54083D01*
X73871Y-54069D01*
X73914Y-54069D01*
X73942Y-54083D01*
X73956Y-54098D01*
X73971Y-54126D01*
X73971Y-54241D01*
X73814Y-53969D02*
X73814Y-53783D01*
X73928Y-53883D01*
X73928Y-53841D01*
X73942Y-53812D01*
X73956Y-53798D01*
X73985Y-53783D01*
X74056Y-53783D01*
X74085Y-53798D01*
X74099Y-53812D01*
X74114Y-53841D01*
X74114Y-53926D01*
X74099Y-53955D01*
X74085Y-53969D01*
X61364Y-48851D02*
X61364Y-49065D01*
X61349Y-49108D01*
X61321Y-49137D01*
X61278Y-49151D01*
X61249Y-49151D01*
X61507Y-49151D02*
X61507Y-48851D01*
X61621Y-48851D01*
X61649Y-48865D01*
X61664Y-48880D01*
X61678Y-48908D01*
X61678Y-48951D01*
X61664Y-48980D01*
X61649Y-48994D01*
X61621Y-49008D01*
X61507Y-49008D01*
X61935Y-48951D02*
X61935Y-49151D01*
X61864Y-48837D02*
X61792Y-49051D01*
X61978Y-49051D01*
G54D14*
X70934Y-40845D02*
X70896Y-40825D01*
X70858Y-40787D01*
X70801Y-40730D01*
X70762Y-40711D01*
X70724Y-40711D01*
X70743Y-40806D02*
X70705Y-40787D01*
X70667Y-40749D01*
X70648Y-40673D01*
X70648Y-40540D01*
X70667Y-40464D01*
X70705Y-40425D01*
X70743Y-40406D01*
X70820Y-40406D01*
X70858Y-40425D01*
X70896Y-40464D01*
X70915Y-40540D01*
X70915Y-40673D01*
X70896Y-40749D01*
X70858Y-40787D01*
X70820Y-40806D01*
X70743Y-40806D01*
X71296Y-40806D02*
X71067Y-40806D01*
X71181Y-40806D02*
X71181Y-40406D01*
X71143Y-40464D01*
X71105Y-40502D01*
X71067Y-40521D01*
X70229Y-44097D02*
X70286Y-44116D01*
X70305Y-44135D01*
X70324Y-44173D01*
X70324Y-44230D01*
X70305Y-44268D01*
X70286Y-44287D01*
X70248Y-44306D01*
X70096Y-44306D01*
X70096Y-43906D01*
X70229Y-43906D01*
X70267Y-43925D01*
X70286Y-43945D01*
X70305Y-43983D01*
X70305Y-44021D01*
X70286Y-44059D01*
X70267Y-44078D01*
X70229Y-44097D01*
X70096Y-44097D01*
X70724Y-44268D02*
X70705Y-44287D01*
X70648Y-44306D01*
X70610Y-44306D01*
X70553Y-44287D01*
X70515Y-44249D01*
X70496Y-44211D01*
X70477Y-44135D01*
X70477Y-44078D01*
X70496Y-44002D01*
X70515Y-43964D01*
X70553Y-43925D01*
X70610Y-43906D01*
X70648Y-43906D01*
X70705Y-43925D01*
X70724Y-43945D01*
X71086Y-43906D02*
X70896Y-43906D01*
X70877Y-44097D01*
X70896Y-44078D01*
X70934Y-44059D01*
X71029Y-44059D01*
X71067Y-44078D01*
X71086Y-44097D01*
X71105Y-44135D01*
X71105Y-44230D01*
X71086Y-44268D01*
X71067Y-44287D01*
X71029Y-44306D01*
X70934Y-44306D01*
X70896Y-44287D01*
X70877Y-44268D01*
X71448Y-44040D02*
X71448Y-44306D01*
X71353Y-43887D02*
X71258Y-44173D01*
X71505Y-44173D01*
X71715Y-44078D02*
X71677Y-44059D01*
X71658Y-44040D01*
X71639Y-44002D01*
X71639Y-43983D01*
X71658Y-43945D01*
X71677Y-43925D01*
X71715Y-43906D01*
X71791Y-43906D01*
X71829Y-43925D01*
X71848Y-43945D01*
X71867Y-43983D01*
X71867Y-44002D01*
X71848Y-44040D01*
X71829Y-44059D01*
X71791Y-44078D01*
X71715Y-44078D01*
X71677Y-44097D01*
X71658Y-44116D01*
X71639Y-44154D01*
X71639Y-44230D01*
X71658Y-44268D01*
X71677Y-44287D01*
X71715Y-44306D01*
X71791Y-44306D01*
X71829Y-44287D01*
X71848Y-44268D01*
X71867Y-44230D01*
X71867Y-44154D01*
X71848Y-44116D01*
X71829Y-44097D01*
X71791Y-44078D01*
X70389Y-43752D02*
X70222Y-43490D01*
X70103Y-43752D02*
X70103Y-43202D01*
X70293Y-43202D01*
X70341Y-43228D01*
X70365Y-43255D01*
X70389Y-43307D01*
X70389Y-43386D01*
X70365Y-43438D01*
X70341Y-43464D01*
X70293Y-43490D01*
X70103Y-43490D01*
X70865Y-43752D02*
X70579Y-43752D01*
X70722Y-43752D02*
X70722Y-43202D01*
X70674Y-43281D01*
X70627Y-43333D01*
X70579Y-43359D01*
X69889Y-43992D02*
X69912Y-43966D01*
X69960Y-43940D01*
X70079Y-43940D01*
X70127Y-43966D01*
X70151Y-43992D01*
X70174Y-44044D01*
X70174Y-44097D01*
X70151Y-44175D01*
X69865Y-44490D01*
X70174Y-44490D01*
X70389Y-44490D02*
X70389Y-43940D01*
X70436Y-44280D02*
X70579Y-44490D01*
X70579Y-44123D02*
X70389Y-44333D01*
X70770Y-43992D02*
X70793Y-43966D01*
X70841Y-43940D01*
X70960Y-43940D01*
X71008Y-43966D01*
X71031Y-43992D01*
X71055Y-44044D01*
X71055Y-44097D01*
X71031Y-44175D01*
X70746Y-44490D01*
X71055Y-44490D01*
X55298Y-42719D02*
X55607Y-42719D01*
X55441Y-42929D01*
X55512Y-42929D01*
X55560Y-42955D01*
X55584Y-42981D01*
X55607Y-43033D01*
X55607Y-43164D01*
X55584Y-43217D01*
X55560Y-43243D01*
X55512Y-43269D01*
X55369Y-43269D01*
X55322Y-43243D01*
X55298Y-43217D01*
X55822Y-43269D02*
X55822Y-42719D01*
X55869Y-43060D02*
X56012Y-43269D01*
X56012Y-42903D02*
X55822Y-43112D01*
X56179Y-42719D02*
X56488Y-42719D01*
X56322Y-42929D01*
X56393Y-42929D01*
X56441Y-42955D01*
X56465Y-42981D01*
X56488Y-43033D01*
X56488Y-43164D01*
X56465Y-43217D01*
X56441Y-43243D01*
X56393Y-43269D01*
X56250Y-43269D01*
X56203Y-43243D01*
X56179Y-43217D01*
X46636Y-41677D02*
X46946Y-41677D01*
X46779Y-41887D01*
X46851Y-41887D01*
X46898Y-41913D01*
X46922Y-41939D01*
X46946Y-41992D01*
X46946Y-42123D01*
X46922Y-42175D01*
X46898Y-42201D01*
X46851Y-42227D01*
X46708Y-42227D01*
X46660Y-42201D01*
X46636Y-42175D01*
X47160Y-42227D02*
X47160Y-41677D01*
X47208Y-42018D02*
X47351Y-42227D01*
X47351Y-41861D02*
X47160Y-42070D01*
X47517Y-41677D02*
X47827Y-41677D01*
X47660Y-41887D01*
X47732Y-41887D01*
X47779Y-41913D01*
X47803Y-41939D01*
X47827Y-41992D01*
X47827Y-42123D01*
X47803Y-42175D01*
X47779Y-42201D01*
X47732Y-42227D01*
X47589Y-42227D01*
X47541Y-42201D01*
X47517Y-42175D01*
X70782Y-44933D02*
X70616Y-44671D01*
X70497Y-44933D02*
X70497Y-44383D01*
X70687Y-44383D01*
X70735Y-44410D01*
X70758Y-44436D01*
X70782Y-44488D01*
X70782Y-44567D01*
X70758Y-44619D01*
X70735Y-44645D01*
X70687Y-44671D01*
X70497Y-44671D01*
X71211Y-44567D02*
X71211Y-44933D01*
X71092Y-44357D02*
X70973Y-44750D01*
X71282Y-44750D01*
X70568Y-45671D02*
X70282Y-45671D01*
X70425Y-45671D02*
X70425Y-45121D01*
X70378Y-45199D01*
X70330Y-45252D01*
X70282Y-45278D01*
X70878Y-45121D02*
X70925Y-45121D01*
X70973Y-45147D01*
X70997Y-45173D01*
X71020Y-45226D01*
X71044Y-45330D01*
X71044Y-45461D01*
X71020Y-45566D01*
X70997Y-45618D01*
X70973Y-45645D01*
X70925Y-45671D01*
X70878Y-45671D01*
X70830Y-45645D01*
X70806Y-45618D01*
X70782Y-45566D01*
X70758Y-45461D01*
X70758Y-45330D01*
X70782Y-45226D01*
X70806Y-45173D01*
X70830Y-45147D01*
X70878Y-45121D01*
X71258Y-45671D02*
X71258Y-45121D01*
X71306Y-45461D02*
X71449Y-45671D01*
X71449Y-45304D02*
X71258Y-45514D01*
X46636Y-39315D02*
X46946Y-39315D01*
X46779Y-39525D01*
X46851Y-39525D01*
X46898Y-39551D01*
X46922Y-39577D01*
X46946Y-39630D01*
X46946Y-39760D01*
X46922Y-39813D01*
X46898Y-39839D01*
X46851Y-39865D01*
X46708Y-39865D01*
X46660Y-39839D01*
X46636Y-39813D01*
X47160Y-39865D02*
X47160Y-39315D01*
X47208Y-39656D02*
X47351Y-39865D01*
X47351Y-39499D02*
X47160Y-39708D01*
X47517Y-39315D02*
X47827Y-39315D01*
X47660Y-39525D01*
X47732Y-39525D01*
X47779Y-39551D01*
X47803Y-39577D01*
X47827Y-39630D01*
X47827Y-39760D01*
X47803Y-39813D01*
X47779Y-39839D01*
X47732Y-39865D01*
X47589Y-39865D01*
X47541Y-39839D01*
X47517Y-39813D01*
X40580Y-35783D02*
X40946Y-35783D01*
X40370Y-35902D02*
X40763Y-36021D01*
X40763Y-35712D01*
X40894Y-35521D02*
X40920Y-35498D01*
X40946Y-35521D01*
X40920Y-35545D01*
X40894Y-35521D01*
X40946Y-35521D01*
X40396Y-35331D02*
X40396Y-34998D01*
X40946Y-35212D01*
X40946Y-34807D02*
X40396Y-34807D01*
X40789Y-34640D01*
X40396Y-34474D01*
X40946Y-34474D01*
X42324Y-37502D02*
X42324Y-37788D01*
X42324Y-37645D02*
X41774Y-37645D01*
X41853Y-37692D01*
X41905Y-37740D01*
X41931Y-37788D01*
X41774Y-37192D02*
X41774Y-37145D01*
X41800Y-37097D01*
X41827Y-37073D01*
X41879Y-37049D01*
X41984Y-37026D01*
X42115Y-37026D01*
X42220Y-37049D01*
X42272Y-37073D01*
X42298Y-37097D01*
X42324Y-37145D01*
X42324Y-37192D01*
X42298Y-37240D01*
X42272Y-37264D01*
X42220Y-37288D01*
X42115Y-37311D01*
X41984Y-37311D01*
X41879Y-37288D01*
X41827Y-37264D01*
X41800Y-37240D01*
X41774Y-37192D01*
X42324Y-36811D02*
X41774Y-36811D01*
X42115Y-36764D02*
X42324Y-36621D01*
X41958Y-36621D02*
X42167Y-36811D01*
X40580Y-31256D02*
X40946Y-31256D01*
X40370Y-31375D02*
X40763Y-31494D01*
X40763Y-31184D01*
X40894Y-30994D02*
X40920Y-30970D01*
X40946Y-30994D01*
X40920Y-31018D01*
X40894Y-30994D01*
X40946Y-30994D01*
X40396Y-30803D02*
X40396Y-30470D01*
X40946Y-30684D01*
X40946Y-30280D02*
X40396Y-30280D01*
X40789Y-30113D01*
X40396Y-29946D01*
X40946Y-29946D01*
X42324Y-33219D02*
X42324Y-33504D01*
X42324Y-33362D02*
X41774Y-33362D01*
X41853Y-33409D01*
X41905Y-33457D01*
X41931Y-33504D01*
X41774Y-32909D02*
X41774Y-32862D01*
X41800Y-32814D01*
X41827Y-32790D01*
X41879Y-32766D01*
X41984Y-32743D01*
X42115Y-32743D01*
X42220Y-32766D01*
X42272Y-32790D01*
X42298Y-32814D01*
X42324Y-32862D01*
X42324Y-32909D01*
X42298Y-32957D01*
X42272Y-32981D01*
X42220Y-33004D01*
X42115Y-33028D01*
X41984Y-33028D01*
X41879Y-33004D01*
X41827Y-32981D01*
X41800Y-32957D01*
X41774Y-32909D01*
X42324Y-32528D02*
X41774Y-32528D01*
X42324Y-32243D02*
X42010Y-32457D01*
X41774Y-32243D02*
X42089Y-32528D01*
X40580Y-26531D02*
X40946Y-26531D01*
X40370Y-26650D02*
X40763Y-26769D01*
X40763Y-26460D01*
X40894Y-26269D02*
X40920Y-26246D01*
X40946Y-26269D01*
X40920Y-26293D01*
X40894Y-26269D01*
X40946Y-26269D01*
X40396Y-26079D02*
X40396Y-25746D01*
X40946Y-25960D01*
X40946Y-25555D02*
X40396Y-25555D01*
X40789Y-25389D01*
X40396Y-25222D01*
X40946Y-25222D01*
X42324Y-29085D02*
X42324Y-29371D01*
X42324Y-29228D02*
X41774Y-29228D01*
X41853Y-29275D01*
X41905Y-29323D01*
X41931Y-29371D01*
X41774Y-28775D02*
X41774Y-28728D01*
X41800Y-28680D01*
X41827Y-28656D01*
X41879Y-28633D01*
X41984Y-28609D01*
X42115Y-28609D01*
X42220Y-28633D01*
X42272Y-28656D01*
X42298Y-28680D01*
X42324Y-28728D01*
X42324Y-28775D01*
X42298Y-28823D01*
X42272Y-28847D01*
X42220Y-28871D01*
X42115Y-28894D01*
X41984Y-28894D01*
X41879Y-28871D01*
X41827Y-28847D01*
X41800Y-28823D01*
X41774Y-28775D01*
X42324Y-28394D02*
X41774Y-28394D01*
X42324Y-28109D02*
X42010Y-28323D01*
X41774Y-28109D02*
X42089Y-28394D01*
X76126Y-51591D02*
X76126Y-51281D01*
X76336Y-51448D01*
X76336Y-51377D01*
X76362Y-51329D01*
X76388Y-51305D01*
X76441Y-51281D01*
X76572Y-51281D01*
X76624Y-51305D01*
X76650Y-51329D01*
X76676Y-51377D01*
X76676Y-51519D01*
X76650Y-51567D01*
X76624Y-51591D01*
X76676Y-51067D02*
X76126Y-51067D01*
X76467Y-51019D02*
X76676Y-50877D01*
X76310Y-50877D02*
X76519Y-51067D01*
X76676Y-50639D02*
X76676Y-50543D01*
X76650Y-50496D01*
X76624Y-50472D01*
X76545Y-50424D01*
X76441Y-50400D01*
X76231Y-50400D01*
X76179Y-50424D01*
X76152Y-50448D01*
X76126Y-50496D01*
X76126Y-50591D01*
X76152Y-50639D01*
X76179Y-50662D01*
X76231Y-50686D01*
X76362Y-50686D01*
X76414Y-50662D01*
X76441Y-50639D01*
X76467Y-50591D01*
X76467Y-50496D01*
X76441Y-50448D01*
X76414Y-50424D01*
X76362Y-50400D01*
X72346Y-53337D02*
X72346Y-53623D01*
X72346Y-53480D02*
X71796Y-53480D01*
X71874Y-53527D01*
X71927Y-53575D01*
X71953Y-53623D01*
X71796Y-53027D02*
X71796Y-52980D01*
X71822Y-52932D01*
X71848Y-52908D01*
X71900Y-52884D01*
X72005Y-52861D01*
X72136Y-52861D01*
X72241Y-52884D01*
X72293Y-52908D01*
X72319Y-52932D01*
X72346Y-52980D01*
X72346Y-53027D01*
X72319Y-53075D01*
X72293Y-53099D01*
X72241Y-53123D01*
X72136Y-53146D01*
X72005Y-53146D01*
X71900Y-53123D01*
X71848Y-53099D01*
X71822Y-53075D01*
X71796Y-53027D01*
X72346Y-52646D02*
X71796Y-52646D01*
X72346Y-52361D02*
X72031Y-52575D01*
X71796Y-52361D02*
X72110Y-52646D01*
X55584Y-46311D02*
X55417Y-46049D01*
X55298Y-46311D02*
X55298Y-45761D01*
X55488Y-45761D01*
X55536Y-45787D01*
X55560Y-45814D01*
X55584Y-45866D01*
X55584Y-45945D01*
X55560Y-45997D01*
X55536Y-46023D01*
X55488Y-46049D01*
X55298Y-46049D01*
X56060Y-46311D02*
X55774Y-46311D01*
X55917Y-46311D02*
X55917Y-45761D01*
X55869Y-45840D01*
X55822Y-45892D01*
X55774Y-45918D01*
X56488Y-45945D02*
X56488Y-46311D01*
X56369Y-45735D02*
X56250Y-46128D01*
X56560Y-46128D01*
X55524Y-44924D02*
X55429Y-44924D01*
X55381Y-44950D01*
X55357Y-44976D01*
X55310Y-45055D01*
X55286Y-45160D01*
X55286Y-45369D01*
X55310Y-45422D01*
X55334Y-45448D01*
X55381Y-45474D01*
X55476Y-45474D01*
X55524Y-45448D01*
X55548Y-45422D01*
X55572Y-45369D01*
X55572Y-45238D01*
X55548Y-45186D01*
X55524Y-45160D01*
X55476Y-45133D01*
X55381Y-45133D01*
X55334Y-45160D01*
X55310Y-45186D01*
X55286Y-45238D01*
X55857Y-45160D02*
X55810Y-45133D01*
X55786Y-45107D01*
X55762Y-45055D01*
X55762Y-45029D01*
X55786Y-44976D01*
X55810Y-44950D01*
X55857Y-44924D01*
X55953Y-44924D01*
X56000Y-44950D01*
X56024Y-44976D01*
X56048Y-45029D01*
X56048Y-45055D01*
X56024Y-45107D01*
X56000Y-45133D01*
X55953Y-45160D01*
X55857Y-45160D01*
X55810Y-45186D01*
X55786Y-45212D01*
X55762Y-45264D01*
X55762Y-45369D01*
X55786Y-45422D01*
X55810Y-45448D01*
X55857Y-45474D01*
X55953Y-45474D01*
X56000Y-45448D01*
X56024Y-45422D01*
X56048Y-45369D01*
X56048Y-45264D01*
X56024Y-45212D01*
X56000Y-45186D01*
X55953Y-45160D01*
X56357Y-44924D02*
X56405Y-44924D01*
X56453Y-44950D01*
X56476Y-44976D01*
X56500Y-45029D01*
X56524Y-45133D01*
X56524Y-45264D01*
X56500Y-45369D01*
X56476Y-45422D01*
X56453Y-45448D01*
X56405Y-45474D01*
X56357Y-45474D01*
X56310Y-45448D01*
X56286Y-45422D01*
X56262Y-45369D01*
X56238Y-45264D01*
X56238Y-45133D01*
X56262Y-45029D01*
X56286Y-44976D01*
X56310Y-44950D01*
X56357Y-44924D01*
X62867Y-51429D02*
X62700Y-51168D01*
X62581Y-51429D02*
X62581Y-50879D01*
X62772Y-50879D01*
X62819Y-50906D01*
X62843Y-50932D01*
X62867Y-50984D01*
X62867Y-51063D01*
X62843Y-51115D01*
X62819Y-51141D01*
X62772Y-51168D01*
X62581Y-51168D01*
X63343Y-51429D02*
X63058Y-51429D01*
X63200Y-51429D02*
X63200Y-50879D01*
X63153Y-50958D01*
X63105Y-51010D01*
X63058Y-51037D01*
X63796Y-50879D02*
X63558Y-50879D01*
X63534Y-51141D01*
X63558Y-51115D01*
X63605Y-51089D01*
X63724Y-51089D01*
X63772Y-51115D01*
X63796Y-51141D01*
X63819Y-51194D01*
X63819Y-51325D01*
X63796Y-51377D01*
X63772Y-51403D01*
X63724Y-51429D01*
X63605Y-51429D01*
X63558Y-51403D01*
X63534Y-51377D01*
X62843Y-52167D02*
X62558Y-52167D01*
X62700Y-52167D02*
X62700Y-51617D01*
X62653Y-51695D01*
X62605Y-51748D01*
X62558Y-51774D01*
X63153Y-51617D02*
X63200Y-51617D01*
X63248Y-51643D01*
X63272Y-51669D01*
X63296Y-51722D01*
X63319Y-51826D01*
X63319Y-51957D01*
X63296Y-52062D01*
X63272Y-52114D01*
X63248Y-52141D01*
X63200Y-52167D01*
X63153Y-52167D01*
X63105Y-52141D01*
X63081Y-52114D01*
X63058Y-52062D01*
X63034Y-51957D01*
X63034Y-51826D01*
X63058Y-51722D01*
X63081Y-51669D01*
X63105Y-51643D01*
X63153Y-51617D01*
X63534Y-52167D02*
X63534Y-51617D01*
X63819Y-52167D02*
X63605Y-51853D01*
X63819Y-51617D02*
X63534Y-51931D01*
X50465Y-45721D02*
X50299Y-45459D01*
X50180Y-45721D02*
X50180Y-45171D01*
X50370Y-45171D01*
X50418Y-45197D01*
X50442Y-45223D01*
X50465Y-45276D01*
X50465Y-45354D01*
X50442Y-45406D01*
X50418Y-45433D01*
X50370Y-45459D01*
X50180Y-45459D01*
X50942Y-45721D02*
X50656Y-45721D01*
X50799Y-45721D02*
X50799Y-45171D01*
X50751Y-45249D01*
X50704Y-45302D01*
X50656Y-45328D01*
X51370Y-45171D02*
X51275Y-45171D01*
X51227Y-45197D01*
X51204Y-45223D01*
X51156Y-45302D01*
X51132Y-45406D01*
X51132Y-45616D01*
X51156Y-45668D01*
X51180Y-45695D01*
X51227Y-45721D01*
X51323Y-45721D01*
X51370Y-45695D01*
X51394Y-45668D01*
X51418Y-45616D01*
X51418Y-45485D01*
X51394Y-45433D01*
X51370Y-45406D01*
X51323Y-45380D01*
X51227Y-45380D01*
X51180Y-45406D01*
X51156Y-45433D01*
X51132Y-45485D01*
X50406Y-46008D02*
X50311Y-46008D01*
X50263Y-46034D01*
X50239Y-46061D01*
X50192Y-46139D01*
X50168Y-46244D01*
X50168Y-46453D01*
X50192Y-46506D01*
X50215Y-46532D01*
X50263Y-46558D01*
X50358Y-46558D01*
X50406Y-46532D01*
X50430Y-46506D01*
X50454Y-46453D01*
X50454Y-46322D01*
X50430Y-46270D01*
X50406Y-46244D01*
X50358Y-46218D01*
X50263Y-46218D01*
X50215Y-46244D01*
X50192Y-46270D01*
X50168Y-46322D01*
X50739Y-46244D02*
X50692Y-46218D01*
X50668Y-46191D01*
X50644Y-46139D01*
X50644Y-46113D01*
X50668Y-46061D01*
X50692Y-46034D01*
X50739Y-46008D01*
X50835Y-46008D01*
X50882Y-46034D01*
X50906Y-46061D01*
X50930Y-46113D01*
X50930Y-46139D01*
X50906Y-46191D01*
X50882Y-46218D01*
X50835Y-46244D01*
X50739Y-46244D01*
X50692Y-46270D01*
X50668Y-46296D01*
X50644Y-46349D01*
X50644Y-46453D01*
X50668Y-46506D01*
X50692Y-46532D01*
X50739Y-46558D01*
X50835Y-46558D01*
X50882Y-46532D01*
X50906Y-46506D01*
X50930Y-46453D01*
X50930Y-46349D01*
X50906Y-46296D01*
X50882Y-46270D01*
X50835Y-46244D01*
X51239Y-46008D02*
X51287Y-46008D01*
X51335Y-46034D01*
X51358Y-46061D01*
X51382Y-46113D01*
X51406Y-46218D01*
X51406Y-46349D01*
X51382Y-46453D01*
X51358Y-46506D01*
X51335Y-46532D01*
X51287Y-46558D01*
X51239Y-46558D01*
X51192Y-46532D01*
X51168Y-46506D01*
X51144Y-46453D01*
X51120Y-46349D01*
X51120Y-46218D01*
X51144Y-46113D01*
X51168Y-46061D01*
X51192Y-46034D01*
X51239Y-46008D01*
X65229Y-51233D02*
X65063Y-50971D01*
X64944Y-51233D02*
X64944Y-50683D01*
X65134Y-50683D01*
X65182Y-50709D01*
X65205Y-50735D01*
X65229Y-50787D01*
X65229Y-50866D01*
X65205Y-50918D01*
X65182Y-50944D01*
X65134Y-50971D01*
X64944Y-50971D01*
X65705Y-51233D02*
X65420Y-51233D01*
X65563Y-51233D02*
X65563Y-50683D01*
X65515Y-50761D01*
X65467Y-50814D01*
X65420Y-50840D01*
X65872Y-50683D02*
X66205Y-50683D01*
X65991Y-51233D01*
X67538Y-51183D02*
X67253Y-51183D01*
X67395Y-51183D02*
X67395Y-50633D01*
X67348Y-50711D01*
X67300Y-50764D01*
X67253Y-50790D01*
X67848Y-50633D02*
X67895Y-50633D01*
X67943Y-50659D01*
X67967Y-50685D01*
X67991Y-50737D01*
X68014Y-50842D01*
X68014Y-50973D01*
X67991Y-51078D01*
X67967Y-51130D01*
X67943Y-51156D01*
X67895Y-51183D01*
X67848Y-51183D01*
X67800Y-51156D01*
X67776Y-51130D01*
X67753Y-51078D01*
X67729Y-50973D01*
X67729Y-50842D01*
X67753Y-50737D01*
X67776Y-50685D01*
X67800Y-50659D01*
X67848Y-50633D01*
X68610Y-51183D02*
X68610Y-50633D01*
X68776Y-51025D01*
X68943Y-50633D01*
X68943Y-51183D01*
X79048Y-47650D02*
X78881Y-47388D01*
X78762Y-47650D02*
X78762Y-47100D01*
X78953Y-47100D01*
X79001Y-47126D01*
X79024Y-47152D01*
X79048Y-47205D01*
X79048Y-47283D01*
X79024Y-47336D01*
X79001Y-47362D01*
X78953Y-47388D01*
X78762Y-47388D01*
X79524Y-47650D02*
X79239Y-47650D01*
X79381Y-47650D02*
X79381Y-47100D01*
X79334Y-47178D01*
X79286Y-47231D01*
X79239Y-47257D01*
X79810Y-47336D02*
X79762Y-47309D01*
X79739Y-47283D01*
X79715Y-47231D01*
X79715Y-47205D01*
X79739Y-47152D01*
X79762Y-47126D01*
X79810Y-47100D01*
X79905Y-47100D01*
X79953Y-47126D01*
X79977Y-47152D01*
X80001Y-47205D01*
X80001Y-47231D01*
X79977Y-47283D01*
X79953Y-47309D01*
X79905Y-47336D01*
X79810Y-47336D01*
X79762Y-47362D01*
X79739Y-47388D01*
X79715Y-47440D01*
X79715Y-47545D01*
X79739Y-47598D01*
X79762Y-47624D01*
X79810Y-47650D01*
X79905Y-47650D01*
X79953Y-47624D01*
X79977Y-47598D01*
X80001Y-47545D01*
X80001Y-47440D01*
X79977Y-47388D01*
X79953Y-47362D01*
X79905Y-47336D01*
X80849Y-46398D02*
X80849Y-46683D01*
X80849Y-46541D02*
X80299Y-46541D01*
X80378Y-46588D01*
X80430Y-46636D01*
X80457Y-46683D01*
X80299Y-46088D02*
X80299Y-46041D01*
X80326Y-45993D01*
X80352Y-45969D01*
X80404Y-45945D01*
X80509Y-45922D01*
X80640Y-45922D01*
X80745Y-45945D01*
X80797Y-45969D01*
X80823Y-45993D01*
X80849Y-46041D01*
X80849Y-46088D01*
X80823Y-46136D01*
X80797Y-46160D01*
X80745Y-46183D01*
X80640Y-46207D01*
X80509Y-46207D01*
X80404Y-46183D01*
X80352Y-46160D01*
X80326Y-46136D01*
X80299Y-46088D01*
X80299Y-45612D02*
X80299Y-45564D01*
X80326Y-45517D01*
X80352Y-45493D01*
X80404Y-45469D01*
X80509Y-45445D01*
X80640Y-45445D01*
X80745Y-45469D01*
X80797Y-45493D01*
X80823Y-45517D01*
X80849Y-45564D01*
X80849Y-45612D01*
X80823Y-45660D01*
X80797Y-45683D01*
X80745Y-45707D01*
X80640Y-45731D01*
X80509Y-45731D01*
X80404Y-45707D01*
X80352Y-45683D01*
X80326Y-45660D01*
X80299Y-45612D01*
X80299Y-45136D02*
X80299Y-45088D01*
X80326Y-45041D01*
X80352Y-45017D01*
X80404Y-44993D01*
X80509Y-44969D01*
X80640Y-44969D01*
X80745Y-44993D01*
X80797Y-45017D01*
X80823Y-45041D01*
X80849Y-45088D01*
X80849Y-45136D01*
X80823Y-45183D01*
X80797Y-45207D01*
X80745Y-45231D01*
X80640Y-45255D01*
X80509Y-45255D01*
X80404Y-45231D01*
X80352Y-45207D01*
X80326Y-45183D01*
X80299Y-45136D01*
X74805Y-53471D02*
X74543Y-53637D01*
X74805Y-53756D02*
X74255Y-53756D01*
X74255Y-53566D01*
X74281Y-53518D01*
X74307Y-53494D01*
X74359Y-53471D01*
X74438Y-53471D01*
X74490Y-53494D01*
X74517Y-53518D01*
X74543Y-53566D01*
X74543Y-53756D01*
X74805Y-52994D02*
X74805Y-53280D01*
X74805Y-53137D02*
X74255Y-53137D01*
X74333Y-53185D01*
X74386Y-53232D01*
X74412Y-53280D01*
X74805Y-52756D02*
X74805Y-52661D01*
X74778Y-52613D01*
X74752Y-52590D01*
X74674Y-52542D01*
X74569Y-52518D01*
X74359Y-52518D01*
X74307Y-52542D01*
X74281Y-52566D01*
X74255Y-52613D01*
X74255Y-52709D01*
X74281Y-52756D01*
X74307Y-52780D01*
X74359Y-52804D01*
X74490Y-52804D01*
X74543Y-52780D01*
X74569Y-52756D01*
X74595Y-52709D01*
X74595Y-52613D01*
X74569Y-52566D01*
X74543Y-52542D01*
X74490Y-52518D01*
X74805Y-53494D02*
X74805Y-53780D01*
X74805Y-53637D02*
X74255Y-53637D01*
X74333Y-53685D01*
X74386Y-53732D01*
X74412Y-53780D01*
X74255Y-53185D02*
X74255Y-53137D01*
X74281Y-53090D01*
X74307Y-53066D01*
X74359Y-53042D01*
X74464Y-53018D01*
X74595Y-53018D01*
X74700Y-53042D01*
X74752Y-53066D01*
X74778Y-53090D01*
X74805Y-53137D01*
X74805Y-53185D01*
X74778Y-53232D01*
X74752Y-53256D01*
X74700Y-53280D01*
X74595Y-53304D01*
X74464Y-53304D01*
X74359Y-53280D01*
X74307Y-53256D01*
X74281Y-53232D01*
X74255Y-53185D01*
X74805Y-52804D02*
X74255Y-52804D01*
X74805Y-52518D02*
X74490Y-52732D01*
X74255Y-52518D02*
X74569Y-52804D01*
X72513Y-48280D02*
X72346Y-48018D01*
X72227Y-48280D02*
X72227Y-47730D01*
X72417Y-47730D01*
X72465Y-47756D01*
X72489Y-47782D01*
X72513Y-47835D01*
X72513Y-47913D01*
X72489Y-47966D01*
X72465Y-47992D01*
X72417Y-48018D01*
X72227Y-48018D01*
X72703Y-47782D02*
X72727Y-47756D01*
X72775Y-47730D01*
X72894Y-47730D01*
X72941Y-47756D01*
X72965Y-47782D01*
X72989Y-47835D01*
X72989Y-47887D01*
X72965Y-47966D01*
X72679Y-48280D01*
X72989Y-48280D01*
X73298Y-47730D02*
X73346Y-47730D01*
X73394Y-47756D01*
X73417Y-47782D01*
X73441Y-47835D01*
X73465Y-47939D01*
X73465Y-48070D01*
X73441Y-48175D01*
X73417Y-48227D01*
X73394Y-48254D01*
X73346Y-48280D01*
X73298Y-48280D01*
X73251Y-48254D01*
X73227Y-48227D01*
X73203Y-48175D01*
X73179Y-48070D01*
X73179Y-47939D01*
X73203Y-47835D01*
X73227Y-47782D01*
X73251Y-47756D01*
X73298Y-47730D01*
X74214Y-48376D02*
X74214Y-48662D01*
X74214Y-48519D02*
X73664Y-48519D01*
X73743Y-48567D01*
X73795Y-48614D01*
X73821Y-48662D01*
X73664Y-48067D02*
X73664Y-48019D01*
X73690Y-47971D01*
X73716Y-47948D01*
X73769Y-47924D01*
X73874Y-47900D01*
X74005Y-47900D01*
X74109Y-47924D01*
X74162Y-47948D01*
X74188Y-47971D01*
X74214Y-48019D01*
X74214Y-48067D01*
X74188Y-48114D01*
X74162Y-48138D01*
X74109Y-48162D01*
X74005Y-48186D01*
X73874Y-48186D01*
X73769Y-48162D01*
X73716Y-48138D01*
X73690Y-48114D01*
X73664Y-48067D01*
X74214Y-47686D02*
X73664Y-47686D01*
X74214Y-47400D02*
X73900Y-47614D01*
X73664Y-47400D02*
X73978Y-47686D01*
X67365Y-44540D02*
X67365Y-44230D01*
X67574Y-44397D01*
X67574Y-44326D01*
X67601Y-44278D01*
X67627Y-44254D01*
X67679Y-44230D01*
X67810Y-44230D01*
X67862Y-44254D01*
X67889Y-44278D01*
X67915Y-44326D01*
X67915Y-44469D01*
X67889Y-44516D01*
X67862Y-44540D01*
X67915Y-43992D02*
X67915Y-43897D01*
X67889Y-43850D01*
X67862Y-43826D01*
X67784Y-43778D01*
X67679Y-43754D01*
X67470Y-43754D01*
X67417Y-43778D01*
X67391Y-43802D01*
X67365Y-43850D01*
X67365Y-43945D01*
X67391Y-43992D01*
X67417Y-44016D01*
X67470Y-44040D01*
X67601Y-44040D01*
X67653Y-44016D01*
X67679Y-43992D01*
X67705Y-43945D01*
X67705Y-43850D01*
X67679Y-43802D01*
X67653Y-43778D01*
X67601Y-43754D01*
X67365Y-43445D02*
X67365Y-43397D01*
X67391Y-43350D01*
X67417Y-43326D01*
X67470Y-43302D01*
X67574Y-43278D01*
X67705Y-43278D01*
X67810Y-43302D01*
X67862Y-43326D01*
X67889Y-43350D01*
X67915Y-43397D01*
X67915Y-43445D01*
X67889Y-43492D01*
X67862Y-43516D01*
X67810Y-43540D01*
X67705Y-43564D01*
X67574Y-43564D01*
X67470Y-43540D01*
X67417Y-43516D01*
X67391Y-43492D01*
X67365Y-43445D01*
X65003Y-44540D02*
X65003Y-44230D01*
X65212Y-44397D01*
X65212Y-44326D01*
X65238Y-44278D01*
X65265Y-44254D01*
X65317Y-44230D01*
X65448Y-44230D01*
X65500Y-44254D01*
X65526Y-44278D01*
X65553Y-44326D01*
X65553Y-44469D01*
X65526Y-44516D01*
X65500Y-44540D01*
X65553Y-43992D02*
X65553Y-43897D01*
X65526Y-43850D01*
X65500Y-43826D01*
X65422Y-43778D01*
X65317Y-43754D01*
X65107Y-43754D01*
X65055Y-43778D01*
X65029Y-43802D01*
X65003Y-43850D01*
X65003Y-43945D01*
X65029Y-43992D01*
X65055Y-44016D01*
X65107Y-44040D01*
X65238Y-44040D01*
X65291Y-44016D01*
X65317Y-43992D01*
X65343Y-43945D01*
X65343Y-43850D01*
X65317Y-43802D01*
X65291Y-43778D01*
X65238Y-43754D01*
X65003Y-43445D02*
X65003Y-43397D01*
X65029Y-43350D01*
X65055Y-43326D01*
X65107Y-43302D01*
X65212Y-43278D01*
X65343Y-43278D01*
X65448Y-43302D01*
X65500Y-43326D01*
X65526Y-43350D01*
X65553Y-43397D01*
X65553Y-43445D01*
X65526Y-43492D01*
X65500Y-43516D01*
X65448Y-43540D01*
X65343Y-43564D01*
X65212Y-43564D01*
X65107Y-43540D01*
X65055Y-43516D01*
X65029Y-43492D01*
X65003Y-43445D01*
X62640Y-44540D02*
X62640Y-44230D01*
X62850Y-44397D01*
X62850Y-44326D01*
X62876Y-44278D01*
X62902Y-44254D01*
X62955Y-44230D01*
X63086Y-44230D01*
X63138Y-44254D01*
X63164Y-44278D01*
X63190Y-44326D01*
X63190Y-44469D01*
X63164Y-44516D01*
X63138Y-44540D01*
X63190Y-43992D02*
X63190Y-43897D01*
X63164Y-43850D01*
X63138Y-43826D01*
X63059Y-43778D01*
X62955Y-43754D01*
X62745Y-43754D01*
X62693Y-43778D01*
X62667Y-43802D01*
X62640Y-43850D01*
X62640Y-43945D01*
X62667Y-43992D01*
X62693Y-44016D01*
X62745Y-44040D01*
X62876Y-44040D01*
X62929Y-44016D01*
X62955Y-43992D01*
X62981Y-43945D01*
X62981Y-43850D01*
X62955Y-43802D01*
X62929Y-43778D01*
X62876Y-43754D01*
X62640Y-43445D02*
X62640Y-43397D01*
X62667Y-43350D01*
X62693Y-43326D01*
X62745Y-43302D01*
X62850Y-43278D01*
X62981Y-43278D01*
X63086Y-43302D01*
X63138Y-43326D01*
X63164Y-43350D01*
X63190Y-43397D01*
X63190Y-43445D01*
X63164Y-43492D01*
X63138Y-43516D01*
X63086Y-43540D01*
X62981Y-43564D01*
X62850Y-43564D01*
X62745Y-43540D01*
X62693Y-43516D01*
X62667Y-43492D01*
X62640Y-43445D01*
X64317Y-35378D02*
X64627Y-35378D01*
X64460Y-35588D01*
X64532Y-35588D01*
X64579Y-35614D01*
X64603Y-35640D01*
X64627Y-35693D01*
X64627Y-35823D01*
X64603Y-35876D01*
X64579Y-35902D01*
X64532Y-35928D01*
X64389Y-35928D01*
X64341Y-35902D01*
X64317Y-35876D01*
X64793Y-35378D02*
X65103Y-35378D01*
X64936Y-35588D01*
X65008Y-35588D01*
X65055Y-35614D01*
X65079Y-35640D01*
X65103Y-35693D01*
X65103Y-35823D01*
X65079Y-35876D01*
X65055Y-35902D01*
X65008Y-35928D01*
X64865Y-35928D01*
X64817Y-35902D01*
X64793Y-35876D01*
X65413Y-35378D02*
X65460Y-35378D01*
X65508Y-35404D01*
X65532Y-35431D01*
X65555Y-35483D01*
X65579Y-35588D01*
X65579Y-35719D01*
X65555Y-35823D01*
X65532Y-35876D01*
X65508Y-35902D01*
X65460Y-35928D01*
X65413Y-35928D01*
X65365Y-35902D01*
X65341Y-35876D01*
X65317Y-35823D01*
X65293Y-35719D01*
X65293Y-35588D01*
X65317Y-35483D01*
X65341Y-35431D01*
X65365Y-35404D01*
X65413Y-35378D01*
X68943Y-35278D02*
X69253Y-35278D01*
X69086Y-35488D01*
X69158Y-35488D01*
X69205Y-35514D01*
X69229Y-35540D01*
X69253Y-35593D01*
X69253Y-35723D01*
X69229Y-35776D01*
X69205Y-35802D01*
X69158Y-35828D01*
X69015Y-35828D01*
X68967Y-35802D01*
X68943Y-35776D01*
X69419Y-35278D02*
X69729Y-35278D01*
X69562Y-35488D01*
X69634Y-35488D01*
X69681Y-35514D01*
X69705Y-35540D01*
X69729Y-35593D01*
X69729Y-35723D01*
X69705Y-35776D01*
X69681Y-35802D01*
X69634Y-35828D01*
X69491Y-35828D01*
X69443Y-35802D01*
X69419Y-35776D01*
X70038Y-35278D02*
X70086Y-35278D01*
X70134Y-35304D01*
X70158Y-35331D01*
X70181Y-35383D01*
X70205Y-35488D01*
X70205Y-35619D01*
X70181Y-35723D01*
X70158Y-35776D01*
X70134Y-35802D01*
X70086Y-35828D01*
X70038Y-35828D01*
X69991Y-35802D01*
X69967Y-35776D01*
X69943Y-35723D01*
X69919Y-35619D01*
X69919Y-35488D01*
X69943Y-35383D01*
X69967Y-35331D01*
X69991Y-35304D01*
X70038Y-35278D01*
X64317Y-31048D02*
X64627Y-31048D01*
X64460Y-31257D01*
X64532Y-31257D01*
X64579Y-31283D01*
X64603Y-31309D01*
X64627Y-31362D01*
X64627Y-31493D01*
X64603Y-31545D01*
X64579Y-31571D01*
X64532Y-31598D01*
X64389Y-31598D01*
X64341Y-31571D01*
X64317Y-31545D01*
X64793Y-31048D02*
X65103Y-31048D01*
X64936Y-31257D01*
X65008Y-31257D01*
X65055Y-31283D01*
X65079Y-31309D01*
X65103Y-31362D01*
X65103Y-31493D01*
X65079Y-31545D01*
X65055Y-31571D01*
X65008Y-31598D01*
X64865Y-31598D01*
X64817Y-31571D01*
X64793Y-31545D01*
X65413Y-31048D02*
X65460Y-31048D01*
X65508Y-31074D01*
X65532Y-31100D01*
X65555Y-31152D01*
X65579Y-31257D01*
X65579Y-31388D01*
X65555Y-31493D01*
X65532Y-31545D01*
X65508Y-31571D01*
X65460Y-31598D01*
X65413Y-31598D01*
X65365Y-31571D01*
X65341Y-31545D01*
X65317Y-31493D01*
X65293Y-31388D01*
X65293Y-31257D01*
X65317Y-31152D01*
X65341Y-31100D01*
X65365Y-31074D01*
X65413Y-31048D01*
X68943Y-30948D02*
X69253Y-30948D01*
X69086Y-31157D01*
X69158Y-31157D01*
X69205Y-31183D01*
X69229Y-31209D01*
X69253Y-31262D01*
X69253Y-31393D01*
X69229Y-31445D01*
X69205Y-31471D01*
X69158Y-31498D01*
X69015Y-31498D01*
X68967Y-31471D01*
X68943Y-31445D01*
X69419Y-30948D02*
X69729Y-30948D01*
X69562Y-31157D01*
X69634Y-31157D01*
X69681Y-31183D01*
X69705Y-31209D01*
X69729Y-31262D01*
X69729Y-31393D01*
X69705Y-31445D01*
X69681Y-31471D01*
X69634Y-31498D01*
X69491Y-31498D01*
X69443Y-31471D01*
X69419Y-31445D01*
X70038Y-30948D02*
X70086Y-30948D01*
X70134Y-30974D01*
X70158Y-31000D01*
X70181Y-31052D01*
X70205Y-31157D01*
X70205Y-31288D01*
X70181Y-31393D01*
X70158Y-31445D01*
X70134Y-31471D01*
X70086Y-31498D01*
X70038Y-31498D01*
X69991Y-31471D01*
X69967Y-31445D01*
X69943Y-31393D01*
X69919Y-31288D01*
X69919Y-31157D01*
X69943Y-31052D01*
X69967Y-31000D01*
X69991Y-30974D01*
X70038Y-30948D01*
X64176Y-26662D02*
X64485Y-26662D01*
X64318Y-26871D01*
X64390Y-26871D01*
X64437Y-26897D01*
X64461Y-26924D01*
X64485Y-26976D01*
X64485Y-27107D01*
X64461Y-27159D01*
X64437Y-27186D01*
X64390Y-27212D01*
X64247Y-27212D01*
X64199Y-27186D01*
X64176Y-27159D01*
X64652Y-26662D02*
X64961Y-26662D01*
X64795Y-26871D01*
X64866Y-26871D01*
X64914Y-26897D01*
X64937Y-26924D01*
X64961Y-26976D01*
X64961Y-27107D01*
X64937Y-27159D01*
X64914Y-27186D01*
X64866Y-27212D01*
X64723Y-27212D01*
X64676Y-27186D01*
X64652Y-27159D01*
X65271Y-26662D02*
X65318Y-26662D01*
X65366Y-26688D01*
X65390Y-26714D01*
X65414Y-26766D01*
X65437Y-26871D01*
X65437Y-27002D01*
X65414Y-27107D01*
X65390Y-27159D01*
X65366Y-27186D01*
X65318Y-27212D01*
X65271Y-27212D01*
X65223Y-27186D01*
X65199Y-27159D01*
X65176Y-27107D01*
X65152Y-27002D01*
X65152Y-26871D01*
X65176Y-26766D01*
X65199Y-26714D01*
X65223Y-26688D01*
X65271Y-26662D01*
X69140Y-26518D02*
X69450Y-26518D01*
X69283Y-26728D01*
X69354Y-26728D01*
X69402Y-26754D01*
X69426Y-26780D01*
X69450Y-26833D01*
X69450Y-26964D01*
X69426Y-27016D01*
X69402Y-27042D01*
X69354Y-27068D01*
X69212Y-27068D01*
X69164Y-27042D01*
X69140Y-27016D01*
X69616Y-26518D02*
X69926Y-26518D01*
X69759Y-26728D01*
X69831Y-26728D01*
X69878Y-26754D01*
X69902Y-26780D01*
X69926Y-26833D01*
X69926Y-26964D01*
X69902Y-27016D01*
X69878Y-27042D01*
X69831Y-27068D01*
X69688Y-27068D01*
X69640Y-27042D01*
X69616Y-27016D01*
X70235Y-26518D02*
X70283Y-26518D01*
X70331Y-26545D01*
X70354Y-26571D01*
X70378Y-26623D01*
X70402Y-26728D01*
X70402Y-26859D01*
X70378Y-26964D01*
X70354Y-27016D01*
X70331Y-27042D01*
X70283Y-27068D01*
X70235Y-27068D01*
X70188Y-27042D01*
X70164Y-27016D01*
X70140Y-26964D01*
X70116Y-26859D01*
X70116Y-26728D01*
X70140Y-26623D01*
X70164Y-26571D01*
X70188Y-26545D01*
X70235Y-26518D01*
G54D23*
X52578Y-39525D02*
X52578Y-40011D01*
X52599Y-40068D01*
X52621Y-40097D01*
X52664Y-40125D01*
X52749Y-40125D01*
X52792Y-40097D01*
X52814Y-40068D01*
X52835Y-40011D01*
X52835Y-39525D01*
X53285Y-40125D02*
X53028Y-40125D01*
X53156Y-40125D02*
X53156Y-39525D01*
X53114Y-39611D01*
X53071Y-39668D01*
X53028Y-39697D01*
G54D12*
G54D23*
X54660Y-41125D02*
X54446Y-41125D01*
X54446Y-40525D01*
X54810Y-41125D02*
X54810Y-40525D01*
X54960Y-40954D01*
X55110Y-40525D01*
X55110Y-41125D01*
X55281Y-40525D02*
X55560Y-40525D01*
X55410Y-40754D01*
X55474Y-40754D01*
X55517Y-40782D01*
X55539Y-40811D01*
X55560Y-40868D01*
X55560Y-41011D01*
X55539Y-41068D01*
X55517Y-41097D01*
X55474Y-41125D01*
X55346Y-41125D01*
X55303Y-41097D01*
X55281Y-41068D01*
X55710Y-40525D02*
X55989Y-40525D01*
X55839Y-40754D01*
X55903Y-40754D01*
X55946Y-40782D01*
X55967Y-40811D01*
X55989Y-40868D01*
X55989Y-41011D01*
X55967Y-41068D01*
X55946Y-41097D01*
X55903Y-41125D01*
X55774Y-41125D01*
X55731Y-41097D01*
X55710Y-41068D01*
X56203Y-41125D02*
X56289Y-41125D01*
X56331Y-41097D01*
X56353Y-41068D01*
X56396Y-40982D01*
X56417Y-40868D01*
X56417Y-40640D01*
X56396Y-40582D01*
X56374Y-40554D01*
X56331Y-40525D01*
X56246Y-40525D01*
X56203Y-40554D01*
X56181Y-40582D01*
X56160Y-40640D01*
X56160Y-40782D01*
X56181Y-40840D01*
X56203Y-40868D01*
X56246Y-40897D01*
X56331Y-40897D01*
X56374Y-40868D01*
X56396Y-40840D01*
X56417Y-40782D01*
G54D12*
G54D23*
X64070Y-47541D02*
X64070Y-48108D01*
X64091Y-48175D01*
X64113Y-48208D01*
X64156Y-48241D01*
X64241Y-48241D01*
X64284Y-48208D01*
X64306Y-48175D01*
X64327Y-48108D01*
X64327Y-47541D01*
X64520Y-47608D02*
X64541Y-47575D01*
X64584Y-47541D01*
X64691Y-47541D01*
X64734Y-47575D01*
X64756Y-47608D01*
X64777Y-47675D01*
X64777Y-47741D01*
X64756Y-47841D01*
X64499Y-48241D01*
X64777Y-48241D01*
G54D12*
G54D23*
X67416Y-49141D02*
X67416Y-48441D01*
X67566Y-48941D01*
X67716Y-48441D01*
X67716Y-49141D01*
X68188Y-49075D02*
X68166Y-49108D01*
X68102Y-49141D01*
X68059Y-49141D01*
X67995Y-49108D01*
X67952Y-49041D01*
X67931Y-48975D01*
X67909Y-48841D01*
X67909Y-48741D01*
X67931Y-48608D01*
X67952Y-48541D01*
X67995Y-48475D01*
X68059Y-48441D01*
X68102Y-48441D01*
X68166Y-48475D01*
X68188Y-48508D01*
X68402Y-49141D02*
X68488Y-49141D01*
X68531Y-49108D01*
X68552Y-49075D01*
X68595Y-48975D01*
X68616Y-48841D01*
X68616Y-48575D01*
X68595Y-48508D01*
X68574Y-48475D01*
X68531Y-48441D01*
X68445Y-48441D01*
X68402Y-48475D01*
X68381Y-48508D01*
X68359Y-48575D01*
X68359Y-48741D01*
X68381Y-48808D01*
X68402Y-48841D01*
X68445Y-48875D01*
X68531Y-48875D01*
X68574Y-48841D01*
X68595Y-48808D01*
X68616Y-48741D01*
X68788Y-49108D02*
X68852Y-49141D01*
X68959Y-49141D01*
X69002Y-49108D01*
X69024Y-49075D01*
X69045Y-49008D01*
X69045Y-48941D01*
X69024Y-48875D01*
X69002Y-48841D01*
X68959Y-48808D01*
X68874Y-48775D01*
X68831Y-48741D01*
X68809Y-48708D01*
X68788Y-48641D01*
X68788Y-48575D01*
X68809Y-48508D01*
X68831Y-48475D01*
X68874Y-48441D01*
X68981Y-48441D01*
X69045Y-48475D01*
X69324Y-48441D02*
X69366Y-48441D01*
X69409Y-48475D01*
X69431Y-48508D01*
X69452Y-48575D01*
X69474Y-48708D01*
X69474Y-48875D01*
X69452Y-49008D01*
X69431Y-49075D01*
X69409Y-49108D01*
X69366Y-49141D01*
X69324Y-49141D01*
X69281Y-49108D01*
X69259Y-49075D01*
X69238Y-49008D01*
X69216Y-48875D01*
X69216Y-48708D01*
X69238Y-48575D01*
X69259Y-48508D01*
X69281Y-48475D01*
X69324Y-48441D01*
X69731Y-48741D02*
X69688Y-48708D01*
X69666Y-48675D01*
X69645Y-48608D01*
X69645Y-48575D01*
X69666Y-48508D01*
X69688Y-48475D01*
X69731Y-48441D01*
X69816Y-48441D01*
X69859Y-48475D01*
X69881Y-48508D01*
X69902Y-48575D01*
X69902Y-48608D01*
X69881Y-48675D01*
X69859Y-48708D01*
X69816Y-48741D01*
X69731Y-48741D01*
X69688Y-48775D01*
X69666Y-48808D01*
X69645Y-48875D01*
X69645Y-49008D01*
X69666Y-49075D01*
X69688Y-49108D01*
X69731Y-49141D01*
X69816Y-49141D01*
X69859Y-49108D01*
X69881Y-49075D01*
X69902Y-49008D01*
X69902Y-48875D01*
X69881Y-48808D01*
X69859Y-48775D01*
X69816Y-48741D01*
X70074Y-49108D02*
X70138Y-49141D01*
X70245Y-49141D01*
X70288Y-49108D01*
X70309Y-49075D01*
X70331Y-49008D01*
X70331Y-48941D01*
X70309Y-48875D01*
X70288Y-48841D01*
X70245Y-48808D01*
X70159Y-48775D01*
X70116Y-48741D01*
X70095Y-48708D01*
X70074Y-48641D01*
X70074Y-48575D01*
X70095Y-48508D01*
X70116Y-48475D01*
X70159Y-48441D01*
X70266Y-48441D01*
X70331Y-48475D01*
X70524Y-49141D02*
X70524Y-48441D01*
X70524Y-48775D02*
X70781Y-48775D01*
X70781Y-49141D02*
X70781Y-48441D01*
X71059Y-48741D02*
X71016Y-48708D01*
X70995Y-48675D01*
X70974Y-48608D01*
X70974Y-48575D01*
X70995Y-48508D01*
X71016Y-48475D01*
X71059Y-48441D01*
X71145Y-48441D01*
X71188Y-48475D01*
X71209Y-48508D01*
X71231Y-48575D01*
X71231Y-48608D01*
X71209Y-48675D01*
X71188Y-48708D01*
X71145Y-48741D01*
X71059Y-48741D01*
X71016Y-48775D01*
X70995Y-48808D01*
X70974Y-48875D01*
X70974Y-49008D01*
X70995Y-49075D01*
X71016Y-49108D01*
X71059Y-49141D01*
X71145Y-49141D01*
X71188Y-49108D01*
X71209Y-49075D01*
X71231Y-49008D01*
X71231Y-48875D01*
X71209Y-48808D01*
X71188Y-48775D01*
X71145Y-48741D01*
G54D12*
G54D14*
X55797Y-51164D02*
X55797Y-51488D01*
X55816Y-51526D01*
X55835Y-51545D01*
X55873Y-51564D01*
X55949Y-51564D01*
X55988Y-51545D01*
X56007Y-51526D01*
X56026Y-51488D01*
X56026Y-51164D01*
X56178Y-51164D02*
X56426Y-51164D01*
X56292Y-51317D01*
X56349Y-51317D01*
X56388Y-51336D01*
X56407Y-51355D01*
X56426Y-51393D01*
X56426Y-51488D01*
X56407Y-51526D01*
X56388Y-51545D01*
X56349Y-51564D01*
X56235Y-51564D01*
X56197Y-51545D01*
X56178Y-51526D01*
X55397Y-49664D02*
X55664Y-49664D01*
X55492Y-50064D01*
X55873Y-49836D02*
X55835Y-49817D01*
X55816Y-49798D01*
X55797Y-49760D01*
X55797Y-49741D01*
X55816Y-49702D01*
X55835Y-49683D01*
X55873Y-49664D01*
X55949Y-49664D01*
X55988Y-49683D01*
X56007Y-49702D01*
X56026Y-49741D01*
X56026Y-49760D01*
X56007Y-49798D01*
X55988Y-49817D01*
X55949Y-49836D01*
X55873Y-49836D01*
X55835Y-49855D01*
X55816Y-49874D01*
X55797Y-49912D01*
X55797Y-49988D01*
X55816Y-50026D01*
X55835Y-50045D01*
X55873Y-50064D01*
X55949Y-50064D01*
X55988Y-50045D01*
X56007Y-50026D01*
X56026Y-49988D01*
X56026Y-49912D01*
X56007Y-49874D01*
X55988Y-49855D01*
X55949Y-49836D01*
X56273Y-49664D02*
X56311Y-49664D01*
X56349Y-49683D01*
X56369Y-49702D01*
X56388Y-49741D01*
X56407Y-49817D01*
X56407Y-49912D01*
X56388Y-49988D01*
X56369Y-50026D01*
X56349Y-50045D01*
X56311Y-50064D01*
X56273Y-50064D01*
X56235Y-50045D01*
X56216Y-50026D01*
X56197Y-49988D01*
X56178Y-49912D01*
X56178Y-49817D01*
X56197Y-49741D01*
X56216Y-49702D01*
X56235Y-49683D01*
X56273Y-49664D01*
X56769Y-49664D02*
X56578Y-49664D01*
X56559Y-49855D01*
X56578Y-49836D01*
X56616Y-49817D01*
X56711Y-49817D01*
X56749Y-49836D01*
X56769Y-49855D01*
X56788Y-49893D01*
X56788Y-49988D01*
X56769Y-50026D01*
X56749Y-50045D01*
X56711Y-50064D01*
X56616Y-50064D01*
X56578Y-50045D01*
X56559Y-50026D01*
G54D17*
X70150Y-39281D02*
X70635Y-39281D01*
X70693Y-39262D01*
X70721Y-39243D01*
X70750Y-39204D01*
X70750Y-39128D01*
X70721Y-39090D01*
X70693Y-39071D01*
X70635Y-39052D01*
X70150Y-39052D01*
X70350Y-38690D02*
X70750Y-38690D01*
X70121Y-38785D02*
X70550Y-38881D01*
X70550Y-38633D01*
X69304Y-40434D02*
X69304Y-40368D01*
X69328Y-40334D01*
X69376Y-40301D01*
X69471Y-40284D01*
X69638Y-40284D01*
X69733Y-40301D01*
X69781Y-40334D01*
X69804Y-40368D01*
X69804Y-40434D01*
X69781Y-40468D01*
X69733Y-40501D01*
X69638Y-40518D01*
X69471Y-40518D01*
X69376Y-40501D01*
X69328Y-40468D01*
X69304Y-40434D01*
X69804Y-40134D02*
X69304Y-40134D01*
X69304Y-40001D01*
X69328Y-39968D01*
X69352Y-39951D01*
X69400Y-39934D01*
X69471Y-39934D01*
X69519Y-39951D01*
X69543Y-39968D01*
X69566Y-40001D01*
X69566Y-40134D01*
X69304Y-39834D02*
X69304Y-39634D01*
X69804Y-39734D02*
X69304Y-39734D01*
X69304Y-39451D02*
X69304Y-39384D01*
X69328Y-39351D01*
X69376Y-39318D01*
X69471Y-39301D01*
X69638Y-39301D01*
X69733Y-39318D01*
X69781Y-39351D01*
X69804Y-39384D01*
X69804Y-39451D01*
X69781Y-39484D01*
X69733Y-39518D01*
X69638Y-39534D01*
X69471Y-39534D01*
X69376Y-39518D01*
X69328Y-39484D01*
X69304Y-39451D01*
X69614Y-39151D02*
X69614Y-38884D01*
X69304Y-38768D02*
X69304Y-38568D01*
X69804Y-38668D02*
X69304Y-38668D01*
X69804Y-38251D02*
X69566Y-38368D01*
X69804Y-38451D02*
X69304Y-38451D01*
X69304Y-38318D01*
X69328Y-38284D01*
X69352Y-38268D01*
X69400Y-38251D01*
X69471Y-38251D01*
X69519Y-38268D01*
X69543Y-38284D01*
X69566Y-38318D01*
X69566Y-38451D01*
X69804Y-38101D02*
X69304Y-38101D01*
X69662Y-37951D02*
X69662Y-37784D01*
X69804Y-37984D02*
X69304Y-37868D01*
X69804Y-37751D01*
X69757Y-37434D02*
X69781Y-37451D01*
X69804Y-37501D01*
X69804Y-37534D01*
X69781Y-37584D01*
X69733Y-37618D01*
X69685Y-37634D01*
X69590Y-37651D01*
X69519Y-37651D01*
X69423Y-37634D01*
X69376Y-37618D01*
X69328Y-37584D01*
X69304Y-37534D01*
X69304Y-37501D01*
X69328Y-37451D01*
X69352Y-37434D01*
X65819Y-39281D02*
X66305Y-39281D01*
X66362Y-39262D01*
X66390Y-39243D01*
X66419Y-39204D01*
X66419Y-39128D01*
X66390Y-39090D01*
X66362Y-39071D01*
X66305Y-39052D01*
X65819Y-39052D01*
X65819Y-38671D02*
X65819Y-38862D01*
X66105Y-38881D01*
X66076Y-38862D01*
X66048Y-38823D01*
X66048Y-38728D01*
X66076Y-38690D01*
X66105Y-38671D01*
X66162Y-38652D01*
X66305Y-38652D01*
X66362Y-38671D01*
X66390Y-38690D01*
X66419Y-38728D01*
X66419Y-38823D01*
X66390Y-38862D01*
X66362Y-38881D01*
X64974Y-40434D02*
X64974Y-40368D01*
X64998Y-40334D01*
X65045Y-40301D01*
X65140Y-40284D01*
X65307Y-40284D01*
X65402Y-40301D01*
X65450Y-40334D01*
X65474Y-40368D01*
X65474Y-40434D01*
X65450Y-40468D01*
X65402Y-40501D01*
X65307Y-40518D01*
X65140Y-40518D01*
X65045Y-40501D01*
X64998Y-40468D01*
X64974Y-40434D01*
X65474Y-40134D02*
X64974Y-40134D01*
X64974Y-40001D01*
X64998Y-39968D01*
X65021Y-39951D01*
X65069Y-39934D01*
X65140Y-39934D01*
X65188Y-39951D01*
X65212Y-39968D01*
X65236Y-40001D01*
X65236Y-40134D01*
X64974Y-39834D02*
X64974Y-39634D01*
X65474Y-39734D02*
X64974Y-39734D01*
X64974Y-39451D02*
X64974Y-39384D01*
X64998Y-39351D01*
X65045Y-39318D01*
X65140Y-39301D01*
X65307Y-39301D01*
X65402Y-39318D01*
X65450Y-39351D01*
X65474Y-39384D01*
X65474Y-39451D01*
X65450Y-39484D01*
X65402Y-39518D01*
X65307Y-39534D01*
X65140Y-39534D01*
X65045Y-39518D01*
X64998Y-39484D01*
X64974Y-39451D01*
X65283Y-39151D02*
X65283Y-38884D01*
X64974Y-38768D02*
X64974Y-38568D01*
X65474Y-38668D02*
X64974Y-38668D01*
X65474Y-38251D02*
X65236Y-38368D01*
X65474Y-38451D02*
X64974Y-38451D01*
X64974Y-38318D01*
X64998Y-38284D01*
X65021Y-38268D01*
X65069Y-38251D01*
X65140Y-38251D01*
X65188Y-38268D01*
X65212Y-38284D01*
X65236Y-38318D01*
X65236Y-38451D01*
X65474Y-38101D02*
X64974Y-38101D01*
X65331Y-37951D02*
X65331Y-37784D01*
X65474Y-37984D02*
X64974Y-37868D01*
X65474Y-37751D01*
X65426Y-37434D02*
X65450Y-37451D01*
X65474Y-37501D01*
X65474Y-37534D01*
X65450Y-37584D01*
X65402Y-37618D01*
X65355Y-37634D01*
X65259Y-37651D01*
X65188Y-37651D01*
X65093Y-37634D01*
X65045Y-37618D01*
X64998Y-37584D01*
X64974Y-37534D01*
X64974Y-37501D01*
X64998Y-37451D01*
X65021Y-37434D01*
X61291Y-39281D02*
X61777Y-39281D01*
X61834Y-39262D01*
X61863Y-39243D01*
X61891Y-39204D01*
X61891Y-39128D01*
X61863Y-39090D01*
X61834Y-39071D01*
X61777Y-39052D01*
X61291Y-39052D01*
X61291Y-38690D02*
X61291Y-38766D01*
X61320Y-38804D01*
X61349Y-38823D01*
X61434Y-38862D01*
X61549Y-38881D01*
X61777Y-38881D01*
X61834Y-38862D01*
X61863Y-38843D01*
X61891Y-38804D01*
X61891Y-38728D01*
X61863Y-38690D01*
X61834Y-38671D01*
X61777Y-38652D01*
X61634Y-38652D01*
X61577Y-38671D01*
X61549Y-38690D01*
X61520Y-38728D01*
X61520Y-38804D01*
X61549Y-38843D01*
X61577Y-38862D01*
X61634Y-38881D01*
X60446Y-40434D02*
X60446Y-40368D01*
X60470Y-40334D01*
X60518Y-40301D01*
X60613Y-40284D01*
X60779Y-40284D01*
X60875Y-40301D01*
X60922Y-40334D01*
X60946Y-40368D01*
X60946Y-40434D01*
X60922Y-40468D01*
X60875Y-40501D01*
X60779Y-40518D01*
X60613Y-40518D01*
X60518Y-40501D01*
X60470Y-40468D01*
X60446Y-40434D01*
X60946Y-40134D02*
X60446Y-40134D01*
X60446Y-40001D01*
X60470Y-39968D01*
X60494Y-39951D01*
X60541Y-39934D01*
X60613Y-39934D01*
X60660Y-39951D01*
X60684Y-39968D01*
X60708Y-40001D01*
X60708Y-40134D01*
X60446Y-39834D02*
X60446Y-39634D01*
X60946Y-39734D02*
X60446Y-39734D01*
X60446Y-39451D02*
X60446Y-39384D01*
X60470Y-39351D01*
X60518Y-39318D01*
X60613Y-39301D01*
X60779Y-39301D01*
X60875Y-39318D01*
X60922Y-39351D01*
X60946Y-39384D01*
X60946Y-39451D01*
X60922Y-39484D01*
X60875Y-39518D01*
X60779Y-39534D01*
X60613Y-39534D01*
X60518Y-39518D01*
X60470Y-39484D01*
X60446Y-39451D01*
X60756Y-39151D02*
X60756Y-38884D01*
X60446Y-38768D02*
X60446Y-38568D01*
X60946Y-38668D02*
X60446Y-38668D01*
X60946Y-38251D02*
X60708Y-38368D01*
X60946Y-38451D02*
X60446Y-38451D01*
X60446Y-38318D01*
X60470Y-38284D01*
X60494Y-38268D01*
X60541Y-38251D01*
X60613Y-38251D01*
X60660Y-38268D01*
X60684Y-38284D01*
X60708Y-38318D01*
X60708Y-38451D01*
X60946Y-38101D02*
X60446Y-38101D01*
X60803Y-37951D02*
X60803Y-37784D01*
X60946Y-37984D02*
X60446Y-37868D01*
X60946Y-37751D01*
X60899Y-37434D02*
X60922Y-37451D01*
X60946Y-37501D01*
X60946Y-37534D01*
X60922Y-37584D01*
X60875Y-37618D01*
X60827Y-37634D01*
X60732Y-37651D01*
X60660Y-37651D01*
X60565Y-37634D01*
X60518Y-37618D01*
X60470Y-37584D01*
X60446Y-37534D01*
X60446Y-37501D01*
X60470Y-37451D01*
X60494Y-37434D01*
G54D12*
X67427Y-52427D02*
X67827Y-53027D01*
X67827Y-52427D02*
X67427Y-53027D01*
X68370Y-53027D02*
X68027Y-53027D01*
X68199Y-53027D02*
X68199Y-52427D01*
X68141Y-52513D01*
X68084Y-52570D01*
X68027Y-52598D01*
X66627Y-54798D02*
X66284Y-54798D01*
X66456Y-54798D02*
X66456Y-54198D01*
X66399Y-54284D01*
X66341Y-54341D01*
X66284Y-54370D01*
X66856Y-54256D02*
X66884Y-54227D01*
X66941Y-54198D01*
X67084Y-54198D01*
X67141Y-54227D01*
X67170Y-54256D01*
X67199Y-54313D01*
X67199Y-54370D01*
X67170Y-54456D01*
X66827Y-54798D01*
X67199Y-54798D01*
X67913Y-54798D02*
X67913Y-54198D01*
X68113Y-54627D01*
X68313Y-54198D01*
X68313Y-54798D01*
X68599Y-54798D02*
X68599Y-54198D01*
X68599Y-54484D02*
X68941Y-54484D01*
X68941Y-54798D02*
X68941Y-54198D01*
X69170Y-54198D02*
X69570Y-54198D01*
X69170Y-54798D01*
X69570Y-54798D01*
G54D14*
X47203Y-34691D02*
X47037Y-34429D01*
X46918Y-34691D02*
X46918Y-34141D01*
X47108Y-34141D01*
X47156Y-34167D01*
X47179Y-34193D01*
X47203Y-34246D01*
X47203Y-34324D01*
X47179Y-34377D01*
X47156Y-34403D01*
X47108Y-34429D01*
X46918Y-34429D01*
X47370Y-34141D02*
X47679Y-34141D01*
X47513Y-34350D01*
X47584Y-34350D01*
X47632Y-34377D01*
X47656Y-34403D01*
X47679Y-34455D01*
X47679Y-34586D01*
X47656Y-34638D01*
X47632Y-34665D01*
X47584Y-34691D01*
X47441Y-34691D01*
X47394Y-34665D01*
X47370Y-34638D01*
X47989Y-34141D02*
X48037Y-34141D01*
X48084Y-34167D01*
X48108Y-34193D01*
X48132Y-34246D01*
X48156Y-34350D01*
X48156Y-34481D01*
X48132Y-34586D01*
X48108Y-34638D01*
X48084Y-34665D01*
X48037Y-34691D01*
X47989Y-34691D01*
X47941Y-34665D01*
X47918Y-34638D01*
X47894Y-34586D01*
X47870Y-34481D01*
X47870Y-34350D01*
X47894Y-34246D01*
X47918Y-34193D01*
X47941Y-34167D01*
X47989Y-34141D01*
X49182Y-35041D02*
X49087Y-35041D01*
X49039Y-35067D01*
X49015Y-35093D01*
X48968Y-35172D01*
X48944Y-35277D01*
X48944Y-35486D01*
X48968Y-35538D01*
X48991Y-35565D01*
X49039Y-35591D01*
X49134Y-35591D01*
X49182Y-35565D01*
X49206Y-35538D01*
X49229Y-35486D01*
X49229Y-35355D01*
X49206Y-35303D01*
X49182Y-35277D01*
X49134Y-35250D01*
X49039Y-35250D01*
X48991Y-35277D01*
X48968Y-35303D01*
X48944Y-35355D01*
X49515Y-35277D02*
X49468Y-35250D01*
X49444Y-35224D01*
X49420Y-35172D01*
X49420Y-35146D01*
X49444Y-35093D01*
X49468Y-35067D01*
X49515Y-35041D01*
X49610Y-35041D01*
X49658Y-35067D01*
X49682Y-35093D01*
X49706Y-35146D01*
X49706Y-35172D01*
X49682Y-35224D01*
X49658Y-35250D01*
X49610Y-35277D01*
X49515Y-35277D01*
X49468Y-35303D01*
X49444Y-35329D01*
X49420Y-35381D01*
X49420Y-35486D01*
X49444Y-35538D01*
X49468Y-35565D01*
X49515Y-35591D01*
X49610Y-35591D01*
X49658Y-35565D01*
X49682Y-35538D01*
X49706Y-35486D01*
X49706Y-35381D01*
X49682Y-35329D01*
X49658Y-35303D01*
X49610Y-35277D01*
X47203Y-30360D02*
X47037Y-30098D01*
X46918Y-30360D02*
X46918Y-29810D01*
X47108Y-29810D01*
X47156Y-29836D01*
X47179Y-29863D01*
X47203Y-29915D01*
X47203Y-29993D01*
X47179Y-30046D01*
X47156Y-30072D01*
X47108Y-30098D01*
X46918Y-30098D01*
X47370Y-29810D02*
X47679Y-29810D01*
X47513Y-30020D01*
X47584Y-30020D01*
X47632Y-30046D01*
X47656Y-30072D01*
X47679Y-30124D01*
X47679Y-30255D01*
X47656Y-30308D01*
X47632Y-30334D01*
X47584Y-30360D01*
X47441Y-30360D01*
X47394Y-30334D01*
X47370Y-30308D01*
X48156Y-30360D02*
X47870Y-30360D01*
X48013Y-30360D02*
X48013Y-29810D01*
X47965Y-29889D01*
X47918Y-29941D01*
X47870Y-29967D01*
X48944Y-30710D02*
X48849Y-30710D01*
X48801Y-30736D01*
X48777Y-30763D01*
X48729Y-30841D01*
X48706Y-30946D01*
X48706Y-31155D01*
X48729Y-31208D01*
X48753Y-31234D01*
X48801Y-31260D01*
X48896Y-31260D01*
X48944Y-31234D01*
X48968Y-31208D01*
X48991Y-31155D01*
X48991Y-31024D01*
X48968Y-30972D01*
X48944Y-30946D01*
X48896Y-30920D01*
X48801Y-30920D01*
X48753Y-30946D01*
X48729Y-30972D01*
X48706Y-31024D01*
X49277Y-30946D02*
X49229Y-30920D01*
X49206Y-30893D01*
X49182Y-30841D01*
X49182Y-30815D01*
X49206Y-30763D01*
X49229Y-30736D01*
X49277Y-30710D01*
X49372Y-30710D01*
X49420Y-30736D01*
X49444Y-30763D01*
X49468Y-30815D01*
X49468Y-30841D01*
X49444Y-30893D01*
X49420Y-30920D01*
X49372Y-30946D01*
X49277Y-30946D01*
X49229Y-30972D01*
X49206Y-30998D01*
X49182Y-31051D01*
X49182Y-31155D01*
X49206Y-31208D01*
X49229Y-31234D01*
X49277Y-31260D01*
X49372Y-31260D01*
X49420Y-31234D01*
X49444Y-31208D01*
X49468Y-31155D01*
X49468Y-31051D01*
X49444Y-30998D01*
X49420Y-30972D01*
X49372Y-30946D01*
X49920Y-30710D02*
X49682Y-30710D01*
X49658Y-30972D01*
X49682Y-30946D01*
X49729Y-30920D01*
X49849Y-30920D01*
X49896Y-30946D01*
X49920Y-30972D01*
X49944Y-31024D01*
X49944Y-31155D01*
X49920Y-31208D01*
X49896Y-31234D01*
X49849Y-31260D01*
X49729Y-31260D01*
X49682Y-31234D01*
X49658Y-31208D01*
X47203Y-26029D02*
X47037Y-25768D01*
X46918Y-26029D02*
X46918Y-25479D01*
X47108Y-25479D01*
X47156Y-25506D01*
X47179Y-25532D01*
X47203Y-25584D01*
X47203Y-25663D01*
X47179Y-25715D01*
X47156Y-25741D01*
X47108Y-25768D01*
X46918Y-25768D01*
X47370Y-25479D02*
X47679Y-25479D01*
X47513Y-25689D01*
X47584Y-25689D01*
X47632Y-25715D01*
X47656Y-25741D01*
X47679Y-25794D01*
X47679Y-25925D01*
X47656Y-25977D01*
X47632Y-26003D01*
X47584Y-26029D01*
X47441Y-26029D01*
X47394Y-26003D01*
X47370Y-25977D01*
X47870Y-25532D02*
X47894Y-25506D01*
X47941Y-25479D01*
X48060Y-25479D01*
X48108Y-25506D01*
X48132Y-25532D01*
X48156Y-25584D01*
X48156Y-25637D01*
X48132Y-25715D01*
X47846Y-26029D01*
X48156Y-26029D01*
X49182Y-26379D02*
X49087Y-26379D01*
X49039Y-26406D01*
X49015Y-26432D01*
X48968Y-26510D01*
X48944Y-26615D01*
X48944Y-26825D01*
X48968Y-26877D01*
X48991Y-26903D01*
X49039Y-26929D01*
X49134Y-26929D01*
X49182Y-26903D01*
X49206Y-26877D01*
X49229Y-26825D01*
X49229Y-26694D01*
X49206Y-26641D01*
X49182Y-26615D01*
X49134Y-26589D01*
X49039Y-26589D01*
X48991Y-26615D01*
X48968Y-26641D01*
X48944Y-26694D01*
X49515Y-26615D02*
X49468Y-26589D01*
X49444Y-26563D01*
X49420Y-26510D01*
X49420Y-26484D01*
X49444Y-26432D01*
X49468Y-26406D01*
X49515Y-26379D01*
X49610Y-26379D01*
X49658Y-26406D01*
X49682Y-26432D01*
X49706Y-26484D01*
X49706Y-26510D01*
X49682Y-26563D01*
X49658Y-26589D01*
X49610Y-26615D01*
X49515Y-26615D01*
X49468Y-26641D01*
X49444Y-26668D01*
X49420Y-26720D01*
X49420Y-26825D01*
X49444Y-26877D01*
X49468Y-26903D01*
X49515Y-26929D01*
X49610Y-26929D01*
X49658Y-26903D01*
X49682Y-26877D01*
X49706Y-26825D01*
X49706Y-26720D01*
X49682Y-26668D01*
X49658Y-26641D01*
X49610Y-26615D01*
G54D12*
X78115Y-52196D02*
X78115Y-51596D01*
X78306Y-51596D01*
X78353Y-51624D01*
X78377Y-51653D01*
X78401Y-51710D01*
X78401Y-51796D01*
X78377Y-51853D01*
X78353Y-51881D01*
X78306Y-51910D01*
X78115Y-51910D01*
X78710Y-51596D02*
X78806Y-51596D01*
X78853Y-51624D01*
X78901Y-51681D01*
X78925Y-51796D01*
X78925Y-51996D01*
X78901Y-52110D01*
X78853Y-52167D01*
X78806Y-52196D01*
X78710Y-52196D01*
X78663Y-52167D01*
X78615Y-52110D01*
X78591Y-51996D01*
X78591Y-51796D01*
X78615Y-51681D01*
X78663Y-51624D01*
X78710Y-51596D01*
X79067Y-51596D02*
X79353Y-51596D01*
X79210Y-52196D02*
X79210Y-51596D01*
X79782Y-52196D02*
X79496Y-52196D01*
X79639Y-52196D02*
X79639Y-51596D01*
X79591Y-51681D01*
X79544Y-51739D01*
X79496Y-51767D01*
X78903Y-50746D02*
X78665Y-50746D01*
X78641Y-51031D01*
X78665Y-51003D01*
X78713Y-50974D01*
X78832Y-50974D01*
X78879Y-51003D01*
X78903Y-51031D01*
X78927Y-51089D01*
X78927Y-51231D01*
X78903Y-51289D01*
X78879Y-51317D01*
X78832Y-51346D01*
X78713Y-51346D01*
X78665Y-51317D01*
X78641Y-51289D01*
X79141Y-51346D02*
X79141Y-50746D01*
X79189Y-51117D02*
X79332Y-51346D01*
X79332Y-50946D02*
X79141Y-51174D01*
X54057Y-46302D02*
X54057Y-45702D01*
X54200Y-45702D01*
X54285Y-45731D01*
X54342Y-45788D01*
X54371Y-45845D01*
X54400Y-45960D01*
X54400Y-46045D01*
X54371Y-46160D01*
X54342Y-46217D01*
X54285Y-46274D01*
X54200Y-46302D01*
X54057Y-46302D01*
X54600Y-45702D02*
X54971Y-45702D01*
X54771Y-45931D01*
X54857Y-45931D01*
X54914Y-45960D01*
X54942Y-45988D01*
X54971Y-46045D01*
X54971Y-46188D01*
X54942Y-46245D01*
X54914Y-46274D01*
X54857Y-46302D01*
X54685Y-46302D01*
X54628Y-46274D01*
X54600Y-46245D01*
X51228Y-46988D02*
X51314Y-47017D01*
X51342Y-47045D01*
X51371Y-47102D01*
X51371Y-47188D01*
X51342Y-47245D01*
X51314Y-47274D01*
X51257Y-47302D01*
X51028Y-47302D01*
X51028Y-46702D01*
X51228Y-46702D01*
X51285Y-46731D01*
X51314Y-46760D01*
X51342Y-46817D01*
X51342Y-46874D01*
X51314Y-46931D01*
X51285Y-46960D01*
X51228Y-46988D01*
X51028Y-46988D01*
X51971Y-47302D02*
X51771Y-47017D01*
X51628Y-47302D02*
X51628Y-46702D01*
X51857Y-46702D01*
X51914Y-46731D01*
X51942Y-46760D01*
X51971Y-46817D01*
X51971Y-46902D01*
X51942Y-46960D01*
X51914Y-46988D01*
X51857Y-47017D01*
X51628Y-47017D01*
X52228Y-47302D02*
X52228Y-46702D01*
X52514Y-47302D02*
X52514Y-46702D01*
X52657Y-46702D01*
X52742Y-46731D01*
X52800Y-46788D01*
X52828Y-46845D01*
X52857Y-46960D01*
X52857Y-47045D01*
X52828Y-47160D01*
X52800Y-47217D01*
X52742Y-47274D01*
X52657Y-47302D01*
X52514Y-47302D01*
X53428Y-46731D02*
X53371Y-46702D01*
X53285Y-46702D01*
X53200Y-46731D01*
X53142Y-46788D01*
X53114Y-46845D01*
X53085Y-46960D01*
X53085Y-47045D01*
X53114Y-47160D01*
X53142Y-47217D01*
X53200Y-47274D01*
X53285Y-47302D01*
X53342Y-47302D01*
X53428Y-47274D01*
X53457Y-47245D01*
X53457Y-47045D01*
X53342Y-47045D01*
X53714Y-46988D02*
X53914Y-46988D01*
X54000Y-47302D02*
X53714Y-47302D01*
X53714Y-46702D01*
X54000Y-46702D01*
X51869Y-48852D02*
X52630Y-48852D01*
X52250Y-49233D02*
X52250Y-48471D01*
X49619Y-49602D02*
X50380Y-49602D01*
X35580Y-41610D02*
X35580Y-41010D01*
X35809Y-41010D01*
X35866Y-41038D01*
X35895Y-41067D01*
X35923Y-41124D01*
X35923Y-41210D01*
X35895Y-41267D01*
X35866Y-41295D01*
X35809Y-41324D01*
X35580Y-41324D01*
X36152Y-41067D02*
X36180Y-41038D01*
X36237Y-41010D01*
X36380Y-41010D01*
X36437Y-41038D01*
X36466Y-41067D01*
X36495Y-41124D01*
X36495Y-41181D01*
X36466Y-41267D01*
X36123Y-41610D01*
X36495Y-41610D01*
X34752Y-40371D02*
X34723Y-40400D01*
X34637Y-40428D01*
X34580Y-40428D01*
X34495Y-40400D01*
X34437Y-40343D01*
X34409Y-40286D01*
X34380Y-40171D01*
X34380Y-40086D01*
X34409Y-39971D01*
X34437Y-39914D01*
X34495Y-39857D01*
X34580Y-39828D01*
X34637Y-39828D01*
X34723Y-39857D01*
X34752Y-39886D01*
X35123Y-39828D02*
X35237Y-39828D01*
X35295Y-39857D01*
X35352Y-39914D01*
X35380Y-40028D01*
X35380Y-40228D01*
X35352Y-40343D01*
X35295Y-40400D01*
X35237Y-40428D01*
X35123Y-40428D01*
X35066Y-40400D01*
X35009Y-40343D01*
X34980Y-40228D01*
X34980Y-40028D01*
X35009Y-39914D01*
X35066Y-39857D01*
X35123Y-39828D01*
X35637Y-40428D02*
X35637Y-39828D01*
X35980Y-40428D01*
X35980Y-39828D01*
X36266Y-40428D02*
X36266Y-39828D01*
X36609Y-40428D01*
X36609Y-39828D01*
X36752Y-40486D02*
X37209Y-40486D01*
X37666Y-40428D02*
X37323Y-40428D01*
X37495Y-40428D02*
X37495Y-39828D01*
X37437Y-39914D01*
X37380Y-39971D01*
X37323Y-40000D01*
X35974Y-33735D02*
X35974Y-33135D01*
X36203Y-33135D01*
X36260Y-33164D01*
X36288Y-33193D01*
X36317Y-33250D01*
X36317Y-33335D01*
X36288Y-33393D01*
X36260Y-33421D01*
X36203Y-33450D01*
X35974Y-33450D01*
X36517Y-33135D02*
X36888Y-33135D01*
X36688Y-33364D01*
X36774Y-33364D01*
X36831Y-33393D01*
X36860Y-33421D01*
X36888Y-33478D01*
X36888Y-33621D01*
X36860Y-33678D01*
X36831Y-33707D01*
X36774Y-33735D01*
X36603Y-33735D01*
X36545Y-33707D01*
X36517Y-33678D01*
X35145Y-34859D02*
X35117Y-34888D01*
X35031Y-34917D01*
X34974Y-34917D01*
X34888Y-34888D01*
X34831Y-34831D01*
X34803Y-34774D01*
X34774Y-34659D01*
X34774Y-34574D01*
X34803Y-34459D01*
X34831Y-34402D01*
X34888Y-34345D01*
X34974Y-34317D01*
X35031Y-34317D01*
X35117Y-34345D01*
X35145Y-34374D01*
X35517Y-34317D02*
X35631Y-34317D01*
X35688Y-34345D01*
X35745Y-34402D01*
X35774Y-34517D01*
X35774Y-34717D01*
X35745Y-34831D01*
X35688Y-34888D01*
X35631Y-34917D01*
X35517Y-34917D01*
X35460Y-34888D01*
X35403Y-34831D01*
X35374Y-34717D01*
X35374Y-34517D01*
X35403Y-34402D01*
X35460Y-34345D01*
X35517Y-34317D01*
X36031Y-34917D02*
X36031Y-34317D01*
X36374Y-34917D01*
X36374Y-34317D01*
X36660Y-34917D02*
X36660Y-34317D01*
X37003Y-34917D01*
X37003Y-34317D01*
X37145Y-34974D02*
X37603Y-34974D01*
X38060Y-34917D02*
X37717Y-34917D01*
X37888Y-34917D02*
X37888Y-34317D01*
X37831Y-34402D01*
X37774Y-34459D01*
X37717Y-34488D01*
X80068Y-37673D02*
X80068Y-37073D01*
X80297Y-37073D01*
X80354Y-37101D01*
X80383Y-37130D01*
X80411Y-37187D01*
X80411Y-37273D01*
X80383Y-37330D01*
X80354Y-37358D01*
X80297Y-37387D01*
X80068Y-37387D01*
X80926Y-37273D02*
X80926Y-37673D01*
X80783Y-37044D02*
X80640Y-37473D01*
X81011Y-37473D01*
X79240Y-36434D02*
X79211Y-36463D01*
X79126Y-36491D01*
X79068Y-36491D01*
X78983Y-36463D01*
X78926Y-36406D01*
X78897Y-36349D01*
X78868Y-36234D01*
X78868Y-36149D01*
X78897Y-36034D01*
X78926Y-35977D01*
X78983Y-35920D01*
X79068Y-35891D01*
X79126Y-35891D01*
X79211Y-35920D01*
X79240Y-35949D01*
X79611Y-35891D02*
X79726Y-35891D01*
X79783Y-35920D01*
X79840Y-35977D01*
X79868Y-36091D01*
X79868Y-36291D01*
X79840Y-36406D01*
X79783Y-36463D01*
X79726Y-36491D01*
X79611Y-36491D01*
X79554Y-36463D01*
X79497Y-36406D01*
X79468Y-36291D01*
X79468Y-36091D01*
X79497Y-35977D01*
X79554Y-35920D01*
X79611Y-35891D01*
X80126Y-36491D02*
X80126Y-35891D01*
X80468Y-36491D01*
X80468Y-35891D01*
X80754Y-36491D02*
X80754Y-35891D01*
X81097Y-36491D01*
X81097Y-35891D01*
X81240Y-36549D02*
X81697Y-36549D01*
X82154Y-36491D02*
X81811Y-36491D01*
X81983Y-36491D02*
X81983Y-35891D01*
X81926Y-35977D01*
X81868Y-36034D01*
X81811Y-36063D01*
X35974Y-29798D02*
X35974Y-29198D01*
X36203Y-29198D01*
X36260Y-29227D01*
X36288Y-29256D01*
X36317Y-29313D01*
X36317Y-29398D01*
X36288Y-29456D01*
X36260Y-29484D01*
X36203Y-29513D01*
X35974Y-29513D01*
X36860Y-29198D02*
X36574Y-29198D01*
X36545Y-29484D01*
X36574Y-29456D01*
X36631Y-29427D01*
X36774Y-29427D01*
X36831Y-29456D01*
X36860Y-29484D01*
X36888Y-29541D01*
X36888Y-29684D01*
X36860Y-29741D01*
X36831Y-29770D01*
X36774Y-29798D01*
X36631Y-29798D01*
X36574Y-29770D01*
X36545Y-29741D01*
X35145Y-30922D02*
X35117Y-30951D01*
X35031Y-30980D01*
X34974Y-30980D01*
X34888Y-30951D01*
X34831Y-30894D01*
X34803Y-30837D01*
X34774Y-30722D01*
X34774Y-30637D01*
X34803Y-30522D01*
X34831Y-30465D01*
X34888Y-30408D01*
X34974Y-30380D01*
X35031Y-30380D01*
X35117Y-30408D01*
X35145Y-30437D01*
X35517Y-30380D02*
X35631Y-30380D01*
X35688Y-30408D01*
X35745Y-30465D01*
X35774Y-30580D01*
X35774Y-30780D01*
X35745Y-30894D01*
X35688Y-30951D01*
X35631Y-30980D01*
X35517Y-30980D01*
X35460Y-30951D01*
X35403Y-30894D01*
X35374Y-30780D01*
X35374Y-30580D01*
X35403Y-30465D01*
X35460Y-30408D01*
X35517Y-30380D01*
X36031Y-30980D02*
X36031Y-30380D01*
X36374Y-30980D01*
X36374Y-30380D01*
X36660Y-30980D02*
X36660Y-30380D01*
X37003Y-30980D01*
X37003Y-30380D01*
X37145Y-31037D02*
X37603Y-31037D01*
X38060Y-30980D02*
X37717Y-30980D01*
X37888Y-30980D02*
X37888Y-30380D01*
X37831Y-30465D01*
X37774Y-30522D01*
X37717Y-30551D01*
X80068Y-33735D02*
X80068Y-33135D01*
X80297Y-33135D01*
X80354Y-33164D01*
X80383Y-33193D01*
X80411Y-33250D01*
X80411Y-33335D01*
X80383Y-33393D01*
X80354Y-33421D01*
X80297Y-33450D01*
X80068Y-33450D01*
X80926Y-33135D02*
X80811Y-33135D01*
X80754Y-33164D01*
X80726Y-33193D01*
X80668Y-33278D01*
X80640Y-33393D01*
X80640Y-33621D01*
X80668Y-33678D01*
X80697Y-33707D01*
X80754Y-33735D01*
X80868Y-33735D01*
X80926Y-33707D01*
X80954Y-33678D01*
X80983Y-33621D01*
X80983Y-33478D01*
X80954Y-33421D01*
X80926Y-33393D01*
X80868Y-33364D01*
X80754Y-33364D01*
X80697Y-33393D01*
X80668Y-33421D01*
X80640Y-33478D01*
X79240Y-32497D02*
X79211Y-32526D01*
X79126Y-32554D01*
X79068Y-32554D01*
X78983Y-32526D01*
X78926Y-32469D01*
X78897Y-32412D01*
X78868Y-32297D01*
X78868Y-32212D01*
X78897Y-32097D01*
X78926Y-32040D01*
X78983Y-31983D01*
X79068Y-31954D01*
X79126Y-31954D01*
X79211Y-31983D01*
X79240Y-32012D01*
X79611Y-31954D02*
X79726Y-31954D01*
X79783Y-31983D01*
X79840Y-32040D01*
X79868Y-32154D01*
X79868Y-32354D01*
X79840Y-32469D01*
X79783Y-32526D01*
X79726Y-32554D01*
X79611Y-32554D01*
X79554Y-32526D01*
X79497Y-32469D01*
X79468Y-32354D01*
X79468Y-32154D01*
X79497Y-32040D01*
X79554Y-31983D01*
X79611Y-31954D01*
X80126Y-32554D02*
X80126Y-31954D01*
X80468Y-32554D01*
X80468Y-31954D01*
X80754Y-32554D02*
X80754Y-31954D01*
X81097Y-32554D01*
X81097Y-31954D01*
X81240Y-32612D02*
X81697Y-32612D01*
X82154Y-32554D02*
X81811Y-32554D01*
X81983Y-32554D02*
X81983Y-31954D01*
X81926Y-32040D01*
X81868Y-32097D01*
X81811Y-32126D01*
X35974Y-25861D02*
X35974Y-25261D01*
X36203Y-25261D01*
X36260Y-25290D01*
X36288Y-25319D01*
X36317Y-25376D01*
X36317Y-25461D01*
X36288Y-25519D01*
X36260Y-25547D01*
X36203Y-25576D01*
X35974Y-25576D01*
X36517Y-25261D02*
X36917Y-25261D01*
X36660Y-25861D01*
X35145Y-26985D02*
X35117Y-27014D01*
X35031Y-27043D01*
X34974Y-27043D01*
X34888Y-27014D01*
X34831Y-26957D01*
X34803Y-26900D01*
X34774Y-26785D01*
X34774Y-26700D01*
X34803Y-26585D01*
X34831Y-26528D01*
X34888Y-26471D01*
X34974Y-26443D01*
X35031Y-26443D01*
X35117Y-26471D01*
X35145Y-26500D01*
X35517Y-26443D02*
X35631Y-26443D01*
X35688Y-26471D01*
X35745Y-26528D01*
X35774Y-26643D01*
X35774Y-26843D01*
X35745Y-26957D01*
X35688Y-27014D01*
X35631Y-27043D01*
X35517Y-27043D01*
X35460Y-27014D01*
X35403Y-26957D01*
X35374Y-26843D01*
X35374Y-26643D01*
X35403Y-26528D01*
X35460Y-26471D01*
X35517Y-26443D01*
X36031Y-27043D02*
X36031Y-26443D01*
X36374Y-27043D01*
X36374Y-26443D01*
X36660Y-27043D02*
X36660Y-26443D01*
X37003Y-27043D01*
X37003Y-26443D01*
X37145Y-27100D02*
X37603Y-27100D01*
X38060Y-27043D02*
X37717Y-27043D01*
X37888Y-27043D02*
X37888Y-26443D01*
X37831Y-26528D01*
X37774Y-26585D01*
X37717Y-26614D01*
X80068Y-29798D02*
X80068Y-29198D01*
X80297Y-29198D01*
X80354Y-29227D01*
X80383Y-29256D01*
X80411Y-29313D01*
X80411Y-29398D01*
X80383Y-29456D01*
X80354Y-29484D01*
X80297Y-29513D01*
X80068Y-29513D01*
X80754Y-29456D02*
X80697Y-29427D01*
X80668Y-29398D01*
X80640Y-29341D01*
X80640Y-29313D01*
X80668Y-29256D01*
X80697Y-29227D01*
X80754Y-29198D01*
X80868Y-29198D01*
X80926Y-29227D01*
X80954Y-29256D01*
X80983Y-29313D01*
X80983Y-29341D01*
X80954Y-29398D01*
X80926Y-29427D01*
X80868Y-29456D01*
X80754Y-29456D01*
X80697Y-29484D01*
X80668Y-29513D01*
X80640Y-29570D01*
X80640Y-29684D01*
X80668Y-29741D01*
X80697Y-29770D01*
X80754Y-29798D01*
X80868Y-29798D01*
X80926Y-29770D01*
X80954Y-29741D01*
X80983Y-29684D01*
X80983Y-29570D01*
X80954Y-29513D01*
X80926Y-29484D01*
X80868Y-29456D01*
X79240Y-28560D02*
X79211Y-28589D01*
X79126Y-28617D01*
X79068Y-28617D01*
X78983Y-28589D01*
X78926Y-28532D01*
X78897Y-28475D01*
X78868Y-28360D01*
X78868Y-28275D01*
X78897Y-28160D01*
X78926Y-28103D01*
X78983Y-28046D01*
X79068Y-28017D01*
X79126Y-28017D01*
X79211Y-28046D01*
X79240Y-28075D01*
X79611Y-28017D02*
X79726Y-28017D01*
X79783Y-28046D01*
X79840Y-28103D01*
X79868Y-28217D01*
X79868Y-28417D01*
X79840Y-28532D01*
X79783Y-28589D01*
X79726Y-28617D01*
X79611Y-28617D01*
X79554Y-28589D01*
X79497Y-28532D01*
X79468Y-28417D01*
X79468Y-28217D01*
X79497Y-28103D01*
X79554Y-28046D01*
X79611Y-28017D01*
X80126Y-28617D02*
X80126Y-28017D01*
X80468Y-28617D01*
X80468Y-28017D01*
X80754Y-28617D02*
X80754Y-28017D01*
X81097Y-28617D01*
X81097Y-28017D01*
X81240Y-28675D02*
X81697Y-28675D01*
X82154Y-28617D02*
X81811Y-28617D01*
X81983Y-28617D02*
X81983Y-28017D01*
X81926Y-28103D01*
X81868Y-28160D01*
X81811Y-28189D01*
G54D14*
X65820Y-29579D02*
X65653Y-29317D01*
X65534Y-29579D02*
X65534Y-29029D01*
X65725Y-29029D01*
X65772Y-29055D01*
X65796Y-29081D01*
X65820Y-29134D01*
X65820Y-29212D01*
X65796Y-29265D01*
X65772Y-29291D01*
X65725Y-29317D01*
X65534Y-29317D01*
X65986Y-29029D02*
X66296Y-29029D01*
X66129Y-29239D01*
X66201Y-29239D01*
X66248Y-29265D01*
X66272Y-29291D01*
X66296Y-29343D01*
X66296Y-29474D01*
X66272Y-29527D01*
X66248Y-29553D01*
X66201Y-29579D01*
X66058Y-29579D01*
X66010Y-29553D01*
X65986Y-29527D01*
X66725Y-29212D02*
X66725Y-29579D01*
X66606Y-29003D02*
X66486Y-29396D01*
X66796Y-29396D01*
X63415Y-29553D02*
X63486Y-29579D01*
X63606Y-29579D01*
X63653Y-29553D01*
X63677Y-29527D01*
X63701Y-29474D01*
X63701Y-29422D01*
X63677Y-29369D01*
X63653Y-29343D01*
X63606Y-29317D01*
X63510Y-29291D01*
X63463Y-29265D01*
X63439Y-29239D01*
X63415Y-29186D01*
X63415Y-29134D01*
X63439Y-29081D01*
X63463Y-29055D01*
X63510Y-29029D01*
X63629Y-29029D01*
X63701Y-29055D01*
X63915Y-29579D02*
X63915Y-29029D01*
X64248Y-29029D02*
X64344Y-29029D01*
X64391Y-29055D01*
X64439Y-29108D01*
X64463Y-29212D01*
X64463Y-29396D01*
X64439Y-29500D01*
X64391Y-29553D01*
X64344Y-29579D01*
X64248Y-29579D01*
X64201Y-29553D01*
X64153Y-29500D01*
X64129Y-29396D01*
X64129Y-29212D01*
X64153Y-29108D01*
X64201Y-29055D01*
X64248Y-29029D01*
X64606Y-29029D02*
X64772Y-29579D01*
X64939Y-29029D01*
X65106Y-29369D02*
X65486Y-29369D01*
X65701Y-29553D02*
X65772Y-29579D01*
X65891Y-29579D01*
X65939Y-29553D01*
X65963Y-29527D01*
X65986Y-29474D01*
X65986Y-29422D01*
X65963Y-29369D01*
X65939Y-29343D01*
X65891Y-29317D01*
X65796Y-29291D01*
X65748Y-29265D01*
X65725Y-29239D01*
X65701Y-29186D01*
X65701Y-29134D01*
X65725Y-29081D01*
X65748Y-29055D01*
X65796Y-29029D01*
X65915Y-29029D01*
X65986Y-29055D01*
X66463Y-29579D02*
X66177Y-29579D01*
X66320Y-29579D02*
X66320Y-29029D01*
X66272Y-29108D01*
X66225Y-29160D01*
X66177Y-29186D01*
X66891Y-29212D02*
X66891Y-29579D01*
X66772Y-29003D02*
X66653Y-29396D01*
X66963Y-29396D01*
X67153Y-29579D02*
X67153Y-29029D01*
X67439Y-29579D02*
X67225Y-29265D01*
X67439Y-29029D02*
X67153Y-29343D01*
X67867Y-29212D02*
X67867Y-29579D01*
X67748Y-29003D02*
X67629Y-29396D01*
X67939Y-29396D01*
X68344Y-29029D02*
X68248Y-29029D01*
X68201Y-29055D01*
X68177Y-29081D01*
X68129Y-29160D01*
X68106Y-29265D01*
X68106Y-29474D01*
X68129Y-29527D01*
X68153Y-29553D01*
X68201Y-29579D01*
X68296Y-29579D01*
X68344Y-29553D01*
X68367Y-29527D01*
X68391Y-29474D01*
X68391Y-29343D01*
X68367Y-29291D01*
X68344Y-29265D01*
X68296Y-29239D01*
X68201Y-29239D01*
X68153Y-29265D01*
X68129Y-29291D01*
X68106Y-29343D01*
X68701Y-29029D02*
X68748Y-29029D01*
X68796Y-29055D01*
X68820Y-29081D01*
X68844Y-29134D01*
X68867Y-29239D01*
X68867Y-29369D01*
X68844Y-29474D01*
X68820Y-29527D01*
X68796Y-29553D01*
X68748Y-29579D01*
X68701Y-29579D01*
X68653Y-29553D01*
X68629Y-29527D01*
X68606Y-29474D01*
X68582Y-29369D01*
X68582Y-29239D01*
X68606Y-29134D01*
X68629Y-29081D01*
X68653Y-29055D01*
X68701Y-29029D01*
X65820Y-25248D02*
X65653Y-24986D01*
X65534Y-25248D02*
X65534Y-24698D01*
X65725Y-24698D01*
X65772Y-24725D01*
X65796Y-24751D01*
X65820Y-24803D01*
X65820Y-24882D01*
X65796Y-24934D01*
X65772Y-24960D01*
X65725Y-24986D01*
X65534Y-24986D01*
X65986Y-24698D02*
X66296Y-24698D01*
X66129Y-24908D01*
X66201Y-24908D01*
X66248Y-24934D01*
X66272Y-24960D01*
X66296Y-25013D01*
X66296Y-25144D01*
X66272Y-25196D01*
X66248Y-25222D01*
X66201Y-25248D01*
X66058Y-25248D01*
X66010Y-25222D01*
X65986Y-25196D01*
X66748Y-24698D02*
X66510Y-24698D01*
X66486Y-24960D01*
X66510Y-24934D01*
X66558Y-24908D01*
X66677Y-24908D01*
X66725Y-24934D01*
X66748Y-24960D01*
X66772Y-25013D01*
X66772Y-25144D01*
X66748Y-25196D01*
X66725Y-25222D01*
X66677Y-25248D01*
X66558Y-25248D01*
X66510Y-25222D01*
X66486Y-25196D01*
X63415Y-25222D02*
X63486Y-25248D01*
X63606Y-25248D01*
X63653Y-25222D01*
X63677Y-25196D01*
X63701Y-25144D01*
X63701Y-25091D01*
X63677Y-25039D01*
X63653Y-25013D01*
X63606Y-24986D01*
X63510Y-24960D01*
X63463Y-24934D01*
X63439Y-24908D01*
X63415Y-24855D01*
X63415Y-24803D01*
X63439Y-24751D01*
X63463Y-24725D01*
X63510Y-24698D01*
X63629Y-24698D01*
X63701Y-24725D01*
X63915Y-25248D02*
X63915Y-24698D01*
X64248Y-24698D02*
X64344Y-24698D01*
X64391Y-24725D01*
X64439Y-24777D01*
X64463Y-24882D01*
X64463Y-25065D01*
X64439Y-25170D01*
X64391Y-25222D01*
X64344Y-25248D01*
X64248Y-25248D01*
X64201Y-25222D01*
X64153Y-25170D01*
X64129Y-25065D01*
X64129Y-24882D01*
X64153Y-24777D01*
X64201Y-24725D01*
X64248Y-24698D01*
X64606Y-24698D02*
X64772Y-25248D01*
X64939Y-24698D01*
X65106Y-25039D02*
X65486Y-25039D01*
X65701Y-25222D02*
X65772Y-25248D01*
X65891Y-25248D01*
X65939Y-25222D01*
X65963Y-25196D01*
X65986Y-25144D01*
X65986Y-25091D01*
X65963Y-25039D01*
X65939Y-25013D01*
X65891Y-24986D01*
X65796Y-24960D01*
X65748Y-24934D01*
X65725Y-24908D01*
X65701Y-24855D01*
X65701Y-24803D01*
X65725Y-24751D01*
X65748Y-24725D01*
X65796Y-24698D01*
X65915Y-24698D01*
X65986Y-24725D01*
X66463Y-25248D02*
X66177Y-25248D01*
X66320Y-25248D02*
X66320Y-24698D01*
X66272Y-24777D01*
X66225Y-24829D01*
X66177Y-24855D01*
X66891Y-24882D02*
X66891Y-25248D01*
X66772Y-24672D02*
X66653Y-25065D01*
X66963Y-25065D01*
X67153Y-25248D02*
X67153Y-24698D01*
X67439Y-25248D02*
X67225Y-24934D01*
X67439Y-24698D02*
X67153Y-25013D01*
X67867Y-24882D02*
X67867Y-25248D01*
X67748Y-24672D02*
X67629Y-25065D01*
X67939Y-25065D01*
X68344Y-24698D02*
X68248Y-24698D01*
X68201Y-24725D01*
X68177Y-24751D01*
X68129Y-24829D01*
X68106Y-24934D01*
X68106Y-25144D01*
X68129Y-25196D01*
X68153Y-25222D01*
X68201Y-25248D01*
X68296Y-25248D01*
X68344Y-25222D01*
X68367Y-25196D01*
X68391Y-25144D01*
X68391Y-25013D01*
X68367Y-24960D01*
X68344Y-24934D01*
X68296Y-24908D01*
X68201Y-24908D01*
X68153Y-24934D01*
X68129Y-24960D01*
X68106Y-25013D01*
X68701Y-24698D02*
X68748Y-24698D01*
X68796Y-24725D01*
X68820Y-24751D01*
X68844Y-24803D01*
X68867Y-24908D01*
X68867Y-25039D01*
X68844Y-25144D01*
X68820Y-25196D01*
X68796Y-25222D01*
X68748Y-25248D01*
X68701Y-25248D01*
X68653Y-25222D01*
X68629Y-25196D01*
X68606Y-25144D01*
X68582Y-25039D01*
X68582Y-24908D01*
X68606Y-24803D01*
X68629Y-24751D01*
X68653Y-24725D01*
X68701Y-24698D01*
X40683Y-41824D02*
X40850Y-42374D01*
X41017Y-41824D01*
X41469Y-42374D02*
X41302Y-42112D01*
X41183Y-42374D02*
X41183Y-41824D01*
X41374Y-41824D01*
X41421Y-41850D01*
X41445Y-41877D01*
X41469Y-41929D01*
X41469Y-42008D01*
X41445Y-42060D01*
X41421Y-42086D01*
X41374Y-42112D01*
X41183Y-42112D01*
X41945Y-42374D02*
X41660Y-42374D01*
X41802Y-42374D02*
X41802Y-41824D01*
X41755Y-41903D01*
X41707Y-41955D01*
X41660Y-41981D01*
X40921Y-41824D02*
X41088Y-42374D01*
X41255Y-41824D01*
X41707Y-42374D02*
X41540Y-42112D01*
X41421Y-42374D02*
X41421Y-41824D01*
X41612Y-41824D01*
X41660Y-41850D01*
X41683Y-41877D01*
X41707Y-41929D01*
X41707Y-42008D01*
X41683Y-42060D01*
X41660Y-42086D01*
X41612Y-42112D01*
X41421Y-42112D01*
X65820Y-33910D02*
X65653Y-33648D01*
X65534Y-33910D02*
X65534Y-33360D01*
X65725Y-33360D01*
X65772Y-33386D01*
X65796Y-33412D01*
X65820Y-33464D01*
X65820Y-33543D01*
X65796Y-33595D01*
X65772Y-33622D01*
X65725Y-33648D01*
X65534Y-33648D01*
X65986Y-33360D02*
X66296Y-33360D01*
X66129Y-33569D01*
X66201Y-33569D01*
X66248Y-33595D01*
X66272Y-33622D01*
X66296Y-33674D01*
X66296Y-33805D01*
X66272Y-33857D01*
X66248Y-33884D01*
X66201Y-33910D01*
X66058Y-33910D01*
X66010Y-33884D01*
X65986Y-33857D01*
X66463Y-33360D02*
X66772Y-33360D01*
X66606Y-33569D01*
X66677Y-33569D01*
X66725Y-33595D01*
X66748Y-33622D01*
X66772Y-33674D01*
X66772Y-33805D01*
X66748Y-33857D01*
X66725Y-33884D01*
X66677Y-33910D01*
X66534Y-33910D01*
X66486Y-33884D01*
X66463Y-33857D01*
X63415Y-33884D02*
X63486Y-33910D01*
X63606Y-33910D01*
X63653Y-33884D01*
X63677Y-33857D01*
X63701Y-33805D01*
X63701Y-33753D01*
X63677Y-33700D01*
X63653Y-33674D01*
X63606Y-33648D01*
X63510Y-33622D01*
X63463Y-33595D01*
X63439Y-33569D01*
X63415Y-33517D01*
X63415Y-33464D01*
X63439Y-33412D01*
X63463Y-33386D01*
X63510Y-33360D01*
X63629Y-33360D01*
X63701Y-33386D01*
X63915Y-33910D02*
X63915Y-33360D01*
X64248Y-33360D02*
X64344Y-33360D01*
X64391Y-33386D01*
X64439Y-33438D01*
X64463Y-33543D01*
X64463Y-33726D01*
X64439Y-33831D01*
X64391Y-33884D01*
X64344Y-33910D01*
X64248Y-33910D01*
X64201Y-33884D01*
X64153Y-33831D01*
X64129Y-33726D01*
X64129Y-33543D01*
X64153Y-33438D01*
X64201Y-33386D01*
X64248Y-33360D01*
X64606Y-33360D02*
X64772Y-33910D01*
X64939Y-33360D01*
X65106Y-33700D02*
X65486Y-33700D01*
X65701Y-33884D02*
X65772Y-33910D01*
X65891Y-33910D01*
X65939Y-33884D01*
X65963Y-33857D01*
X65986Y-33805D01*
X65986Y-33753D01*
X65963Y-33700D01*
X65939Y-33674D01*
X65891Y-33648D01*
X65796Y-33622D01*
X65748Y-33595D01*
X65725Y-33569D01*
X65701Y-33517D01*
X65701Y-33464D01*
X65725Y-33412D01*
X65748Y-33386D01*
X65796Y-33360D01*
X65915Y-33360D01*
X65986Y-33386D01*
X66463Y-33910D02*
X66177Y-33910D01*
X66320Y-33910D02*
X66320Y-33360D01*
X66272Y-33438D01*
X66225Y-33491D01*
X66177Y-33517D01*
X66891Y-33543D02*
X66891Y-33910D01*
X66772Y-33334D02*
X66653Y-33726D01*
X66963Y-33726D01*
X67153Y-33910D02*
X67153Y-33360D01*
X67439Y-33910D02*
X67225Y-33595D01*
X67439Y-33360D02*
X67153Y-33674D01*
X67867Y-33543D02*
X67867Y-33910D01*
X67748Y-33334D02*
X67629Y-33726D01*
X67939Y-33726D01*
X68344Y-33360D02*
X68248Y-33360D01*
X68201Y-33386D01*
X68177Y-33412D01*
X68129Y-33491D01*
X68106Y-33595D01*
X68106Y-33805D01*
X68129Y-33857D01*
X68153Y-33884D01*
X68201Y-33910D01*
X68296Y-33910D01*
X68344Y-33884D01*
X68367Y-33857D01*
X68391Y-33805D01*
X68391Y-33674D01*
X68367Y-33622D01*
X68344Y-33595D01*
X68296Y-33569D01*
X68201Y-33569D01*
X68153Y-33595D01*
X68129Y-33622D01*
X68106Y-33674D01*
X68701Y-33360D02*
X68748Y-33360D01*
X68796Y-33386D01*
X68820Y-33412D01*
X68844Y-33464D01*
X68867Y-33569D01*
X68867Y-33700D01*
X68844Y-33805D01*
X68820Y-33857D01*
X68796Y-33884D01*
X68748Y-33910D01*
X68701Y-33910D01*
X68653Y-33884D01*
X68629Y-33857D01*
X68606Y-33805D01*
X68582Y-33700D01*
X68582Y-33569D01*
X68606Y-33464D01*
X68629Y-33412D01*
X68653Y-33386D01*
X68701Y-33360D01*
G54D12*
X41275Y-48884D02*
X41617Y-48884D01*
X41446Y-49484D02*
X41446Y-48884D01*
X42132Y-49484D02*
X41789Y-49484D01*
X41960Y-49484D02*
X41960Y-48884D01*
X41903Y-48969D01*
X41846Y-49026D01*
X41789Y-49055D01*
X39832Y-49769D02*
X40175Y-49769D01*
X40003Y-50369D02*
X40003Y-49769D01*
X40717Y-50369D02*
X40517Y-50084D01*
X40375Y-50369D02*
X40375Y-49769D01*
X40603Y-49769D01*
X40660Y-49798D01*
X40689Y-49826D01*
X40717Y-49884D01*
X40717Y-49969D01*
X40689Y-50026D01*
X40660Y-50055D01*
X40603Y-50084D01*
X40375Y-50084D01*
X40946Y-50198D02*
X41232Y-50198D01*
X40889Y-50369D02*
X41089Y-49769D01*
X41289Y-50369D01*
X41489Y-50369D02*
X41489Y-49769D01*
X41832Y-50369D01*
X41832Y-49769D01*
X42089Y-50341D02*
X42175Y-50369D01*
X42317Y-50369D01*
X42375Y-50341D01*
X42403Y-50312D01*
X42432Y-50255D01*
X42432Y-50198D01*
X42403Y-50141D01*
X42375Y-50112D01*
X42317Y-50084D01*
X42203Y-50055D01*
X42146Y-50026D01*
X42117Y-49998D01*
X42089Y-49941D01*
X42089Y-49884D01*
X42117Y-49826D01*
X42146Y-49798D01*
X42203Y-49769D01*
X42346Y-49769D01*
X42432Y-49798D01*
X42889Y-50055D02*
X42689Y-50055D01*
X42689Y-50369D02*
X42689Y-49769D01*
X42975Y-49769D01*
X43317Y-49769D02*
X43432Y-49769D01*
X43489Y-49798D01*
X43546Y-49855D01*
X43575Y-49969D01*
X43575Y-50169D01*
X43546Y-50284D01*
X43489Y-50341D01*
X43432Y-50369D01*
X43317Y-50369D01*
X43260Y-50341D01*
X43203Y-50284D01*
X43175Y-50169D01*
X43175Y-49969D01*
X43203Y-49855D01*
X43260Y-49798D01*
X43317Y-49769D01*
X47842Y-31588D02*
X47814Y-31616D01*
X47728Y-31645D01*
X47671Y-31645D01*
X47585Y-31616D01*
X47528Y-31559D01*
X47499Y-31502D01*
X47471Y-31388D01*
X47471Y-31302D01*
X47499Y-31188D01*
X47528Y-31131D01*
X47585Y-31074D01*
X47671Y-31045D01*
X47728Y-31045D01*
X47814Y-31074D01*
X47842Y-31102D01*
X48414Y-31645D02*
X48071Y-31645D01*
X48242Y-31645D02*
X48242Y-31045D01*
X48185Y-31131D01*
X48128Y-31188D01*
X48071Y-31216D01*
X48756Y-31302D02*
X48699Y-31274D01*
X48671Y-31245D01*
X48642Y-31188D01*
X48642Y-31159D01*
X48671Y-31102D01*
X48699Y-31074D01*
X48756Y-31045D01*
X48871Y-31045D01*
X48928Y-31074D01*
X48956Y-31102D01*
X48985Y-31159D01*
X48985Y-31188D01*
X48956Y-31245D01*
X48928Y-31274D01*
X48871Y-31302D01*
X48756Y-31302D01*
X48699Y-31331D01*
X48671Y-31359D01*
X48642Y-31416D01*
X48642Y-31531D01*
X48671Y-31588D01*
X48699Y-31616D01*
X48756Y-31645D01*
X48871Y-31645D01*
X48928Y-31616D01*
X48956Y-31588D01*
X48985Y-31531D01*
X48985Y-31416D01*
X48956Y-31359D01*
X48928Y-31331D01*
X48871Y-31302D01*
X46014Y-34445D02*
X45671Y-34445D01*
X45842Y-34445D02*
X45842Y-33845D01*
X45785Y-33931D01*
X45728Y-33988D01*
X45671Y-34016D01*
X46385Y-33845D02*
X46442Y-33845D01*
X46499Y-33874D01*
X46528Y-33902D01*
X46556Y-33959D01*
X46585Y-34074D01*
X46585Y-34216D01*
X46556Y-34331D01*
X46528Y-34388D01*
X46499Y-34416D01*
X46442Y-34445D01*
X46385Y-34445D01*
X46328Y-34416D01*
X46299Y-34388D01*
X46271Y-34331D01*
X46242Y-34216D01*
X46242Y-34074D01*
X46271Y-33959D01*
X46299Y-33902D01*
X46328Y-33874D01*
X46385Y-33845D01*
X47299Y-34045D02*
X47299Y-34445D01*
X47299Y-34102D02*
X47328Y-34074D01*
X47385Y-34045D01*
X47471Y-34045D01*
X47528Y-34074D01*
X47556Y-34131D01*
X47556Y-34445D01*
X48042Y-34131D02*
X47842Y-34131D01*
X47842Y-34445D02*
X47842Y-33845D01*
X48128Y-33845D01*
X49071Y-34045D02*
X49071Y-34445D01*
X48928Y-33816D02*
X48785Y-34245D01*
X49156Y-34245D01*
X49499Y-33845D02*
X49556Y-33845D01*
X49614Y-33874D01*
X49642Y-33902D01*
X49671Y-33959D01*
X49699Y-34074D01*
X49699Y-34216D01*
X49671Y-34331D01*
X49642Y-34388D01*
X49614Y-34416D01*
X49556Y-34445D01*
X49499Y-34445D01*
X49442Y-34416D01*
X49414Y-34388D01*
X49385Y-34331D01*
X49356Y-34216D01*
X49356Y-34074D01*
X49385Y-33959D01*
X49414Y-33902D01*
X49442Y-33874D01*
X49499Y-33845D01*
X50071Y-33845D02*
X50128Y-33845D01*
X50185Y-33874D01*
X50214Y-33902D01*
X50242Y-33959D01*
X50271Y-34074D01*
X50271Y-34216D01*
X50242Y-34331D01*
X50214Y-34388D01*
X50185Y-34416D01*
X50128Y-34445D01*
X50071Y-34445D01*
X50014Y-34416D01*
X49985Y-34388D01*
X49956Y-34331D01*
X49928Y-34216D01*
X49928Y-34074D01*
X49956Y-33959D01*
X49985Y-33902D01*
X50014Y-33874D01*
X50071Y-33845D01*
X50442Y-33845D02*
X50642Y-34445D01*
X50842Y-33845D01*
X47842Y-27257D02*
X47814Y-27286D01*
X47728Y-27314D01*
X47671Y-27314D01*
X47585Y-27286D01*
X47528Y-27229D01*
X47499Y-27171D01*
X47471Y-27057D01*
X47471Y-26971D01*
X47499Y-26857D01*
X47528Y-26800D01*
X47585Y-26743D01*
X47671Y-26714D01*
X47728Y-26714D01*
X47814Y-26743D01*
X47842Y-26771D01*
X48414Y-27314D02*
X48071Y-27314D01*
X48242Y-27314D02*
X48242Y-26714D01*
X48185Y-26800D01*
X48128Y-26857D01*
X48071Y-26886D01*
X48699Y-27314D02*
X48814Y-27314D01*
X48871Y-27286D01*
X48899Y-27257D01*
X48956Y-27171D01*
X48985Y-27057D01*
X48985Y-26829D01*
X48956Y-26771D01*
X48928Y-26743D01*
X48871Y-26714D01*
X48756Y-26714D01*
X48699Y-26743D01*
X48671Y-26771D01*
X48642Y-26829D01*
X48642Y-26971D01*
X48671Y-27029D01*
X48699Y-27057D01*
X48756Y-27086D01*
X48871Y-27086D01*
X48928Y-27057D01*
X48956Y-27029D01*
X48985Y-26971D01*
X46014Y-30114D02*
X45671Y-30114D01*
X45842Y-30114D02*
X45842Y-29514D01*
X45785Y-29600D01*
X45728Y-29657D01*
X45671Y-29686D01*
X46385Y-29514D02*
X46442Y-29514D01*
X46499Y-29543D01*
X46528Y-29571D01*
X46556Y-29629D01*
X46585Y-29743D01*
X46585Y-29886D01*
X46556Y-30000D01*
X46528Y-30057D01*
X46499Y-30086D01*
X46442Y-30114D01*
X46385Y-30114D01*
X46328Y-30086D01*
X46299Y-30057D01*
X46271Y-30000D01*
X46242Y-29886D01*
X46242Y-29743D01*
X46271Y-29629D01*
X46299Y-29571D01*
X46328Y-29543D01*
X46385Y-29514D01*
X47299Y-29714D02*
X47299Y-30114D01*
X47299Y-29771D02*
X47328Y-29743D01*
X47385Y-29714D01*
X47471Y-29714D01*
X47528Y-29743D01*
X47556Y-29800D01*
X47556Y-30114D01*
X48042Y-29800D02*
X47842Y-29800D01*
X47842Y-30114D02*
X47842Y-29514D01*
X48128Y-29514D01*
X49071Y-29714D02*
X49071Y-30114D01*
X48928Y-29486D02*
X48785Y-29914D01*
X49156Y-29914D01*
X49499Y-29514D02*
X49556Y-29514D01*
X49614Y-29543D01*
X49642Y-29571D01*
X49671Y-29629D01*
X49699Y-29743D01*
X49699Y-29886D01*
X49671Y-30000D01*
X49642Y-30057D01*
X49614Y-30086D01*
X49556Y-30114D01*
X49499Y-30114D01*
X49442Y-30086D01*
X49414Y-30057D01*
X49385Y-30000D01*
X49356Y-29886D01*
X49356Y-29743D01*
X49385Y-29629D01*
X49414Y-29571D01*
X49442Y-29543D01*
X49499Y-29514D01*
X50071Y-29514D02*
X50128Y-29514D01*
X50185Y-29543D01*
X50214Y-29571D01*
X50242Y-29629D01*
X50271Y-29743D01*
X50271Y-29886D01*
X50242Y-30000D01*
X50214Y-30057D01*
X50185Y-30086D01*
X50128Y-30114D01*
X50071Y-30114D01*
X50014Y-30086D01*
X49985Y-30057D01*
X49956Y-30000D01*
X49928Y-29886D01*
X49928Y-29743D01*
X49956Y-29629D01*
X49985Y-29571D01*
X50014Y-29543D01*
X50071Y-29514D01*
X50442Y-29514D02*
X50642Y-30114D01*
X50842Y-29514D01*
G54D14*
X61053Y-44645D02*
X61072Y-44664D01*
X61091Y-44721D01*
X61091Y-44759D01*
X61072Y-44816D01*
X61034Y-44854D01*
X60996Y-44873D01*
X60920Y-44892D01*
X60863Y-44892D01*
X60787Y-44873D01*
X60749Y-44854D01*
X60711Y-44816D01*
X60691Y-44759D01*
X60691Y-44721D01*
X60711Y-44664D01*
X60730Y-44645D01*
X61091Y-44264D02*
X61091Y-44492D01*
X61091Y-44378D02*
X60691Y-44378D01*
X60749Y-44416D01*
X60787Y-44454D01*
X60806Y-44492D01*
X60691Y-44131D02*
X60691Y-43864D01*
X61091Y-44035D01*
G54D12*
X47842Y-22926D02*
X47814Y-22955D01*
X47728Y-22984D01*
X47671Y-22984D01*
X47585Y-22955D01*
X47528Y-22898D01*
X47499Y-22841D01*
X47471Y-22726D01*
X47471Y-22641D01*
X47499Y-22526D01*
X47528Y-22469D01*
X47585Y-22412D01*
X47671Y-22384D01*
X47728Y-22384D01*
X47814Y-22412D01*
X47842Y-22441D01*
X48071Y-22441D02*
X48099Y-22412D01*
X48156Y-22384D01*
X48299Y-22384D01*
X48356Y-22412D01*
X48385Y-22441D01*
X48414Y-22498D01*
X48414Y-22555D01*
X48385Y-22641D01*
X48042Y-22984D01*
X48414Y-22984D01*
X48785Y-22384D02*
X48842Y-22384D01*
X48899Y-22412D01*
X48928Y-22441D01*
X48956Y-22498D01*
X48985Y-22612D01*
X48985Y-22755D01*
X48956Y-22869D01*
X48928Y-22926D01*
X48899Y-22955D01*
X48842Y-22984D01*
X48785Y-22984D01*
X48728Y-22955D01*
X48699Y-22926D01*
X48671Y-22869D01*
X48642Y-22755D01*
X48642Y-22612D01*
X48671Y-22498D01*
X48699Y-22441D01*
X48728Y-22412D01*
X48785Y-22384D01*
X46014Y-25784D02*
X45671Y-25784D01*
X45842Y-25784D02*
X45842Y-25184D01*
X45785Y-25269D01*
X45728Y-25326D01*
X45671Y-25355D01*
X46385Y-25184D02*
X46442Y-25184D01*
X46499Y-25212D01*
X46528Y-25241D01*
X46556Y-25298D01*
X46585Y-25412D01*
X46585Y-25555D01*
X46556Y-25669D01*
X46528Y-25726D01*
X46499Y-25755D01*
X46442Y-25784D01*
X46385Y-25784D01*
X46328Y-25755D01*
X46299Y-25726D01*
X46271Y-25669D01*
X46242Y-25555D01*
X46242Y-25412D01*
X46271Y-25298D01*
X46299Y-25241D01*
X46328Y-25212D01*
X46385Y-25184D01*
X47299Y-25384D02*
X47299Y-25784D01*
X47299Y-25441D02*
X47328Y-25412D01*
X47385Y-25384D01*
X47471Y-25384D01*
X47528Y-25412D01*
X47556Y-25469D01*
X47556Y-25784D01*
X48042Y-25469D02*
X47842Y-25469D01*
X47842Y-25784D02*
X47842Y-25184D01*
X48128Y-25184D01*
X49071Y-25384D02*
X49071Y-25784D01*
X48928Y-25155D02*
X48785Y-25584D01*
X49156Y-25584D01*
X49499Y-25184D02*
X49556Y-25184D01*
X49614Y-25212D01*
X49642Y-25241D01*
X49671Y-25298D01*
X49699Y-25412D01*
X49699Y-25555D01*
X49671Y-25669D01*
X49642Y-25726D01*
X49614Y-25755D01*
X49556Y-25784D01*
X49499Y-25784D01*
X49442Y-25755D01*
X49414Y-25726D01*
X49385Y-25669D01*
X49356Y-25555D01*
X49356Y-25412D01*
X49385Y-25298D01*
X49414Y-25241D01*
X49442Y-25212D01*
X49499Y-25184D01*
X50071Y-25184D02*
X50128Y-25184D01*
X50185Y-25212D01*
X50214Y-25241D01*
X50242Y-25298D01*
X50271Y-25412D01*
X50271Y-25555D01*
X50242Y-25669D01*
X50214Y-25726D01*
X50185Y-25755D01*
X50128Y-25784D01*
X50071Y-25784D01*
X50014Y-25755D01*
X49985Y-25726D01*
X49956Y-25669D01*
X49928Y-25555D01*
X49928Y-25412D01*
X49956Y-25298D01*
X49985Y-25241D01*
X50014Y-25212D01*
X50071Y-25184D01*
X50442Y-25184D02*
X50642Y-25784D01*
X50842Y-25184D01*
G54D11*
X60830Y-54831D02*
X60816Y-54845D01*
X60773Y-54860D01*
X60745Y-54860D01*
X60702Y-54845D01*
X60673Y-54817D01*
X60659Y-54788D01*
X60645Y-54731D01*
X60645Y-54688D01*
X60659Y-54631D01*
X60673Y-54602D01*
X60702Y-54574D01*
X60745Y-54560D01*
X60773Y-54560D01*
X60816Y-54574D01*
X60830Y-54588D01*
X61116Y-54860D02*
X60945Y-54860D01*
X61030Y-54860D02*
X61030Y-54560D01*
X61002Y-54602D01*
X60973Y-54631D01*
X60945Y-54645D01*
X61373Y-54660D02*
X61373Y-54860D01*
X61302Y-54545D02*
X61230Y-54760D01*
X61416Y-54760D01*
X60660Y-53679D02*
X60517Y-53679D01*
X60589Y-53679D02*
X60589Y-53379D01*
X60565Y-53421D01*
X60541Y-53450D01*
X60517Y-53464D01*
X60815Y-53379D02*
X60839Y-53379D01*
X60862Y-53393D01*
X60874Y-53407D01*
X60886Y-53436D01*
X60898Y-53493D01*
X60898Y-53564D01*
X60886Y-53621D01*
X60874Y-53650D01*
X60862Y-53664D01*
X60839Y-53679D01*
X60815Y-53679D01*
X60791Y-53664D01*
X60779Y-53650D01*
X60767Y-53621D01*
X60755Y-53564D01*
X60755Y-53493D01*
X60767Y-53436D01*
X60779Y-53407D01*
X60791Y-53393D01*
X60815Y-53379D01*
X61303Y-53479D02*
X61303Y-53679D01*
X61196Y-53479D02*
X61196Y-53636D01*
X61208Y-53664D01*
X61231Y-53679D01*
X61267Y-53679D01*
X61291Y-53664D01*
X61303Y-53650D01*
X61505Y-53521D02*
X61422Y-53521D01*
X61422Y-53679D02*
X61422Y-53379D01*
X61541Y-53379D01*
G54D21*
X61045Y-52757D02*
X61045Y-52529D01*
X61159Y-52643D02*
X60930Y-52643D01*
G54D14*
G54D17*
X76373Y-54383D02*
X76587Y-54383D01*
X76630Y-54398D01*
X76658Y-54426D01*
X76673Y-54469D01*
X76673Y-54498D01*
X76673Y-54241D02*
X76373Y-54241D01*
X76373Y-54126D01*
X76387Y-54098D01*
X76401Y-54083D01*
X76430Y-54069D01*
X76473Y-54069D01*
X76501Y-54083D01*
X76515Y-54098D01*
X76530Y-54126D01*
X76530Y-54241D01*
X76473Y-53812D02*
X76673Y-53812D01*
X76358Y-53883D02*
X76573Y-53955D01*
X76573Y-53769D01*
M02*
