G04 (created by PCBNEW (2013-mar-13)-testing) date mar 05 nov 2013 08:38:10 ART*
%MOIN*%
G04 Gerber Fmt 3.4, Leading zero omitted, Abs format*
%FSLAX34Y34*%
G01*
G70*
G90*
G04 APERTURE LIST*
%ADD10C,0.003937*%
%ADD11C,0.000100*%
%ADD12R,0.055000X0.055000*%
%ADD13C,0.055000*%
%ADD14R,0.070000X0.070000*%
%ADD15C,0.070000*%
%ADD16C,0.078740*%
%ADD17R,0.065000X0.065000*%
%ADD18C,0.065000*%
%ADD19R,0.060000X0.060000*%
%ADD20C,0.060000*%
%ADD21C,0.066000*%
%ADD22C,0.150000*%
%ADD23R,0.090000X0.062000*%
%ADD24O,0.090000X0.062000*%
%ADD25R,0.062000X0.090000*%
%ADD26O,0.062000X0.090000*%
%ADD27R,0.350000X0.350000*%
%ADD28C,0.056000*%
%ADD29C,0.100000*%
%ADD30C,0.157480*%
%ADD31C,0.076700*%
%ADD32C,0.137800*%
%ADD33C,0.078700*%
%ADD34C,0.035000*%
%ADD35C,0.039370*%
%ADD36C,0.078740*%
%ADD37C,0.015748*%
%ADD38C,0.021654*%
G04 APERTURE END LIST*
G54D10*
G54D11*
G36*
X81988Y-54676D02*
X81658Y-54676D01*
X81658Y-53843D01*
X81548Y-53650D01*
X81380Y-53357D01*
X81242Y-53121D01*
X81135Y-52940D01*
X81057Y-52813D01*
X81006Y-52736D01*
X80982Y-52710D01*
X80961Y-52737D01*
X80912Y-52811D01*
X80844Y-52921D01*
X80761Y-53057D01*
X80710Y-53142D01*
X80710Y-52688D01*
X80710Y-52687D01*
X80674Y-52684D01*
X80582Y-52681D01*
X80444Y-52681D01*
X80271Y-52681D01*
X80072Y-52683D01*
X80043Y-52683D01*
X79390Y-52693D01*
X79714Y-53250D01*
X79815Y-53423D01*
X79905Y-53574D01*
X79979Y-53694D01*
X80032Y-53775D01*
X80057Y-53808D01*
X80058Y-53809D01*
X80080Y-53781D01*
X80130Y-53705D01*
X80202Y-53589D01*
X80291Y-53441D01*
X80391Y-53270D01*
X80400Y-53255D01*
X80500Y-53082D01*
X80585Y-52930D01*
X80652Y-52808D01*
X80695Y-52724D01*
X80710Y-52688D01*
X80710Y-53142D01*
X80671Y-53208D01*
X80579Y-53363D01*
X80492Y-53512D01*
X80417Y-53643D01*
X80360Y-53746D01*
X80327Y-53810D01*
X80321Y-53825D01*
X80353Y-53830D01*
X80441Y-53835D01*
X80576Y-53839D01*
X80748Y-53841D01*
X80947Y-53842D01*
X80989Y-53843D01*
X81658Y-53843D01*
X81658Y-54676D01*
X81584Y-54676D01*
X81584Y-54230D01*
X81552Y-54129D01*
X81532Y-54103D01*
X81448Y-54055D01*
X81332Y-54043D01*
X81188Y-54043D01*
X81188Y-54259D01*
X81188Y-54476D01*
X81327Y-54476D01*
X81442Y-54461D01*
X81524Y-54422D01*
X81527Y-54421D01*
X81575Y-54337D01*
X81584Y-54230D01*
X81584Y-54676D01*
X81121Y-54676D01*
X81121Y-54428D01*
X81090Y-54389D01*
X81013Y-54370D01*
X80947Y-54359D01*
X80913Y-54331D01*
X80899Y-54266D01*
X80894Y-54201D01*
X80883Y-54103D01*
X80862Y-54055D01*
X80822Y-54043D01*
X80819Y-54043D01*
X80784Y-54050D01*
X80764Y-54081D01*
X80756Y-54152D01*
X80754Y-54259D01*
X80754Y-54476D01*
X80938Y-54476D01*
X81050Y-54471D01*
X81107Y-54454D01*
X81121Y-54428D01*
X81121Y-54676D01*
X80686Y-54676D01*
X80686Y-54233D01*
X80662Y-54133D01*
X80635Y-54095D01*
X80550Y-54050D01*
X80449Y-54050D01*
X80352Y-54087D01*
X80280Y-54154D01*
X80254Y-54238D01*
X80274Y-54307D01*
X80322Y-54386D01*
X80323Y-54388D01*
X80414Y-54459D01*
X80520Y-54473D01*
X80620Y-54427D01*
X80627Y-54421D01*
X80674Y-54339D01*
X80686Y-54233D01*
X80686Y-54676D01*
X80188Y-54676D01*
X80188Y-54337D01*
X80162Y-54313D01*
X80104Y-54313D01*
X80044Y-54336D01*
X80027Y-54349D01*
X79977Y-54366D01*
X79929Y-54335D01*
X79900Y-54275D01*
X79903Y-54213D01*
X79942Y-54163D01*
X80000Y-54142D01*
X80049Y-54157D01*
X80060Y-54175D01*
X80092Y-54189D01*
X80119Y-54177D01*
X80149Y-54144D01*
X80126Y-54099D01*
X80123Y-54095D01*
X80048Y-54051D01*
X79951Y-54049D01*
X79861Y-54088D01*
X79838Y-54108D01*
X79816Y-54148D01*
X79816Y-53843D01*
X79482Y-53268D01*
X79380Y-53092D01*
X79290Y-52937D01*
X79217Y-52812D01*
X79166Y-52726D01*
X79142Y-52687D01*
X79141Y-52686D01*
X79123Y-52710D01*
X79079Y-52782D01*
X79014Y-52890D01*
X78934Y-53024D01*
X78847Y-53174D01*
X78758Y-53327D01*
X78673Y-53475D01*
X78599Y-53605D01*
X78542Y-53708D01*
X78508Y-53772D01*
X78503Y-53784D01*
X78499Y-53804D01*
X78511Y-53819D01*
X78547Y-53829D01*
X78615Y-53836D01*
X78724Y-53840D01*
X78881Y-53842D01*
X79094Y-53842D01*
X79148Y-53843D01*
X79816Y-53843D01*
X79816Y-54148D01*
X79786Y-54204D01*
X79785Y-54300D01*
X79824Y-54386D01*
X79893Y-54448D01*
X79981Y-54476D01*
X80075Y-54456D01*
X80127Y-54421D01*
X80174Y-54368D01*
X80188Y-54337D01*
X80188Y-54676D01*
X79938Y-54676D01*
X79688Y-54676D01*
X79688Y-54259D01*
X79685Y-54142D01*
X79676Y-54077D01*
X79655Y-54048D01*
X79621Y-54043D01*
X79585Y-54049D01*
X79565Y-54079D01*
X79556Y-54147D01*
X79554Y-54259D01*
X79556Y-54376D01*
X79565Y-54442D01*
X79586Y-54470D01*
X79621Y-54476D01*
X79657Y-54469D01*
X79677Y-54439D01*
X79686Y-54371D01*
X79688Y-54259D01*
X79688Y-54676D01*
X79454Y-54676D01*
X79454Y-54259D01*
X79452Y-54142D01*
X79443Y-54077D01*
X79422Y-54048D01*
X79388Y-54043D01*
X79340Y-54057D01*
X79322Y-54112D01*
X79320Y-54151D01*
X79320Y-54259D01*
X79250Y-54151D01*
X79172Y-54065D01*
X79101Y-54043D01*
X79058Y-54047D01*
X79034Y-54069D01*
X79023Y-54126D01*
X79021Y-54230D01*
X79021Y-54259D01*
X79022Y-54376D01*
X79031Y-54441D01*
X79051Y-54469D01*
X79091Y-54476D01*
X79104Y-54476D01*
X79166Y-54463D01*
X79187Y-54413D01*
X79189Y-54384D01*
X79190Y-54293D01*
X79258Y-54384D01*
X79322Y-54447D01*
X79386Y-54476D01*
X79390Y-54476D01*
X79425Y-54468D01*
X79444Y-54436D01*
X79453Y-54364D01*
X79454Y-54259D01*
X79454Y-54676D01*
X78954Y-54676D01*
X78954Y-54234D01*
X78954Y-54204D01*
X78950Y-54106D01*
X78935Y-54058D01*
X78900Y-54043D01*
X78888Y-54043D01*
X78843Y-54055D01*
X78824Y-54103D01*
X78820Y-54168D01*
X78807Y-54291D01*
X78770Y-54359D01*
X78711Y-54366D01*
X78708Y-54365D01*
X78671Y-54325D01*
X78655Y-54236D01*
X78654Y-54194D01*
X78650Y-54099D01*
X78632Y-54055D01*
X78593Y-54043D01*
X78588Y-54043D01*
X78547Y-54051D01*
X78527Y-54089D01*
X78521Y-54172D01*
X78521Y-54207D01*
X78534Y-54339D01*
X78570Y-54420D01*
X78573Y-54423D01*
X78657Y-54466D01*
X78764Y-54472D01*
X78864Y-54442D01*
X78893Y-54421D01*
X78937Y-54350D01*
X78954Y-54234D01*
X78954Y-54676D01*
X77888Y-54676D01*
X77888Y-53559D01*
X77888Y-52443D01*
X79938Y-52443D01*
X81988Y-52443D01*
X81988Y-53559D01*
X81988Y-54676D01*
X81988Y-54676D01*
X81988Y-54676D01*
G37*
G36*
X80579Y-54264D02*
X80568Y-54299D01*
X80510Y-54360D01*
X80451Y-54355D01*
X80428Y-54336D01*
X80392Y-54267D01*
X80398Y-54196D01*
X80440Y-54154D01*
X80506Y-54156D01*
X80559Y-54201D01*
X80579Y-54264D01*
X80579Y-54264D01*
X80579Y-54264D01*
G37*
G36*
X81479Y-54285D02*
X81435Y-54357D01*
X81375Y-54403D01*
X81339Y-54391D01*
X81323Y-54320D01*
X81321Y-54259D01*
X81324Y-54161D01*
X81338Y-54119D01*
X81375Y-54120D01*
X81423Y-54144D01*
X81478Y-54204D01*
X81479Y-54285D01*
X81479Y-54285D01*
X81479Y-54285D01*
G37*
G36*
X112263Y-74479D02*
X111933Y-74479D01*
X111933Y-73646D01*
X111823Y-73453D01*
X111655Y-73160D01*
X111517Y-72924D01*
X111410Y-72743D01*
X111332Y-72616D01*
X111281Y-72539D01*
X111257Y-72513D01*
X111236Y-72540D01*
X111187Y-72614D01*
X111119Y-72724D01*
X111036Y-72860D01*
X110985Y-72945D01*
X110985Y-72491D01*
X110985Y-72490D01*
X110949Y-72487D01*
X110857Y-72484D01*
X110719Y-72484D01*
X110546Y-72484D01*
X110347Y-72486D01*
X110318Y-72486D01*
X109665Y-72496D01*
X109989Y-73053D01*
X110090Y-73226D01*
X110180Y-73377D01*
X110254Y-73497D01*
X110307Y-73578D01*
X110332Y-73611D01*
X110333Y-73612D01*
X110355Y-73584D01*
X110405Y-73508D01*
X110477Y-73392D01*
X110566Y-73244D01*
X110666Y-73073D01*
X110675Y-73058D01*
X110775Y-72885D01*
X110860Y-72733D01*
X110927Y-72611D01*
X110970Y-72527D01*
X110985Y-72491D01*
X110985Y-72945D01*
X110946Y-73011D01*
X110854Y-73166D01*
X110767Y-73315D01*
X110692Y-73446D01*
X110635Y-73549D01*
X110602Y-73613D01*
X110596Y-73628D01*
X110628Y-73633D01*
X110716Y-73638D01*
X110851Y-73642D01*
X111023Y-73644D01*
X111222Y-73645D01*
X111264Y-73646D01*
X111933Y-73646D01*
X111933Y-74479D01*
X111859Y-74479D01*
X111859Y-74033D01*
X111827Y-73932D01*
X111807Y-73906D01*
X111723Y-73858D01*
X111607Y-73846D01*
X111463Y-73846D01*
X111463Y-74062D01*
X111463Y-74279D01*
X111602Y-74279D01*
X111717Y-74264D01*
X111799Y-74225D01*
X111802Y-74224D01*
X111850Y-74140D01*
X111859Y-74033D01*
X111859Y-74479D01*
X111396Y-74479D01*
X111396Y-74231D01*
X111365Y-74192D01*
X111288Y-74173D01*
X111222Y-74162D01*
X111188Y-74134D01*
X111174Y-74069D01*
X111169Y-74004D01*
X111158Y-73906D01*
X111137Y-73858D01*
X111097Y-73846D01*
X111094Y-73846D01*
X111059Y-73853D01*
X111039Y-73884D01*
X111031Y-73955D01*
X111029Y-74062D01*
X111029Y-74279D01*
X111213Y-74279D01*
X111325Y-74274D01*
X111382Y-74257D01*
X111396Y-74231D01*
X111396Y-74479D01*
X110961Y-74479D01*
X110961Y-74036D01*
X110937Y-73936D01*
X110910Y-73898D01*
X110825Y-73853D01*
X110724Y-73853D01*
X110627Y-73890D01*
X110555Y-73957D01*
X110529Y-74041D01*
X110549Y-74110D01*
X110597Y-74189D01*
X110598Y-74191D01*
X110689Y-74262D01*
X110795Y-74276D01*
X110895Y-74230D01*
X110902Y-74224D01*
X110949Y-74142D01*
X110961Y-74036D01*
X110961Y-74479D01*
X110463Y-74479D01*
X110463Y-74140D01*
X110437Y-74116D01*
X110379Y-74116D01*
X110319Y-74139D01*
X110302Y-74152D01*
X110252Y-74169D01*
X110204Y-74138D01*
X110175Y-74078D01*
X110178Y-74016D01*
X110217Y-73966D01*
X110275Y-73945D01*
X110324Y-73960D01*
X110335Y-73978D01*
X110367Y-73992D01*
X110394Y-73980D01*
X110424Y-73947D01*
X110401Y-73902D01*
X110398Y-73898D01*
X110323Y-73854D01*
X110226Y-73852D01*
X110136Y-73891D01*
X110113Y-73911D01*
X110091Y-73951D01*
X110091Y-73646D01*
X109757Y-73071D01*
X109655Y-72895D01*
X109565Y-72740D01*
X109492Y-72615D01*
X109441Y-72529D01*
X109417Y-72490D01*
X109416Y-72489D01*
X109398Y-72513D01*
X109354Y-72585D01*
X109289Y-72693D01*
X109209Y-72827D01*
X109122Y-72977D01*
X109033Y-73130D01*
X108948Y-73278D01*
X108874Y-73408D01*
X108817Y-73511D01*
X108783Y-73575D01*
X108778Y-73587D01*
X108774Y-73607D01*
X108786Y-73622D01*
X108822Y-73632D01*
X108890Y-73639D01*
X108999Y-73643D01*
X109156Y-73645D01*
X109369Y-73645D01*
X109423Y-73646D01*
X110091Y-73646D01*
X110091Y-73951D01*
X110061Y-74007D01*
X110060Y-74103D01*
X110099Y-74189D01*
X110168Y-74251D01*
X110256Y-74279D01*
X110350Y-74259D01*
X110402Y-74224D01*
X110449Y-74171D01*
X110463Y-74140D01*
X110463Y-74479D01*
X110213Y-74479D01*
X109963Y-74479D01*
X109963Y-74062D01*
X109960Y-73945D01*
X109951Y-73880D01*
X109930Y-73851D01*
X109896Y-73846D01*
X109860Y-73852D01*
X109840Y-73882D01*
X109831Y-73950D01*
X109829Y-74062D01*
X109831Y-74179D01*
X109840Y-74245D01*
X109861Y-74273D01*
X109896Y-74279D01*
X109932Y-74272D01*
X109952Y-74242D01*
X109961Y-74174D01*
X109963Y-74062D01*
X109963Y-74479D01*
X109729Y-74479D01*
X109729Y-74062D01*
X109727Y-73945D01*
X109718Y-73880D01*
X109697Y-73851D01*
X109663Y-73846D01*
X109615Y-73860D01*
X109597Y-73915D01*
X109595Y-73954D01*
X109595Y-74062D01*
X109525Y-73954D01*
X109447Y-73868D01*
X109376Y-73846D01*
X109333Y-73850D01*
X109309Y-73872D01*
X109298Y-73929D01*
X109296Y-74033D01*
X109296Y-74062D01*
X109297Y-74179D01*
X109306Y-74244D01*
X109326Y-74272D01*
X109366Y-74279D01*
X109379Y-74279D01*
X109441Y-74266D01*
X109462Y-74216D01*
X109464Y-74187D01*
X109465Y-74096D01*
X109533Y-74187D01*
X109597Y-74250D01*
X109661Y-74279D01*
X109665Y-74279D01*
X109700Y-74271D01*
X109719Y-74239D01*
X109728Y-74167D01*
X109729Y-74062D01*
X109729Y-74479D01*
X109229Y-74479D01*
X109229Y-74037D01*
X109229Y-74007D01*
X109225Y-73909D01*
X109210Y-73861D01*
X109175Y-73846D01*
X109163Y-73846D01*
X109118Y-73858D01*
X109099Y-73906D01*
X109095Y-73971D01*
X109082Y-74094D01*
X109045Y-74162D01*
X108986Y-74169D01*
X108983Y-74168D01*
X108946Y-74128D01*
X108930Y-74039D01*
X108929Y-73997D01*
X108925Y-73902D01*
X108907Y-73858D01*
X108868Y-73846D01*
X108863Y-73846D01*
X108822Y-73854D01*
X108802Y-73892D01*
X108796Y-73975D01*
X108796Y-74010D01*
X108809Y-74142D01*
X108845Y-74223D01*
X108848Y-74226D01*
X108932Y-74269D01*
X109039Y-74275D01*
X109139Y-74245D01*
X109168Y-74224D01*
X109212Y-74153D01*
X109229Y-74037D01*
X109229Y-74479D01*
X108163Y-74479D01*
X108163Y-73362D01*
X108163Y-72246D01*
X110213Y-72246D01*
X112263Y-72246D01*
X112263Y-73362D01*
X112263Y-74479D01*
X112263Y-74479D01*
X112263Y-74479D01*
G37*
G36*
X110854Y-74067D02*
X110843Y-74102D01*
X110785Y-74163D01*
X110726Y-74158D01*
X110703Y-74139D01*
X110667Y-74070D01*
X110673Y-73999D01*
X110715Y-73957D01*
X110781Y-73959D01*
X110834Y-74004D01*
X110854Y-74067D01*
X110854Y-74067D01*
X110854Y-74067D01*
G37*
G36*
X111754Y-74088D02*
X111710Y-74160D01*
X111650Y-74206D01*
X111614Y-74194D01*
X111598Y-74123D01*
X111596Y-74062D01*
X111599Y-73964D01*
X111613Y-73922D01*
X111650Y-73923D01*
X111698Y-73947D01*
X111753Y-74007D01*
X111754Y-74088D01*
X111754Y-74088D01*
X111754Y-74088D01*
G37*
G54D12*
X59342Y-46259D03*
G54D13*
X60342Y-46259D03*
X82677Y-48031D03*
X82677Y-50000D03*
X82677Y-51968D03*
X82677Y-44094D03*
X82677Y-46062D03*
X82677Y-38188D03*
X82677Y-40157D03*
X82677Y-42125D03*
G54D14*
X54724Y-35448D03*
G54D15*
X54724Y-33448D03*
X54724Y-34448D03*
G54D14*
X54724Y-31118D03*
G54D15*
X54724Y-29118D03*
X54724Y-30118D03*
G54D14*
X54724Y-26787D03*
G54D15*
X54724Y-24787D03*
X54724Y-25787D03*
G54D16*
X33464Y-53937D03*
X83464Y-53937D03*
X83464Y-24409D03*
X33464Y-24409D03*
G54D13*
X50000Y-40854D03*
X50000Y-39854D03*
X55307Y-44192D03*
X56307Y-44192D03*
X48137Y-40748D03*
X47137Y-40748D03*
X48137Y-38385D03*
X47137Y-38385D03*
X61614Y-48334D03*
X61614Y-47334D03*
X75196Y-49500D03*
X75196Y-50500D03*
X62688Y-53149D03*
X63688Y-53149D03*
X70866Y-53437D03*
X70866Y-54437D03*
G54D17*
X51681Y-53149D03*
G54D18*
X50681Y-53149D03*
G54D13*
X53543Y-53043D03*
X53543Y-54043D03*
X64960Y-53437D03*
X64960Y-54437D03*
X59055Y-53043D03*
X59055Y-54043D03*
X66535Y-44988D03*
X66535Y-43988D03*
X64173Y-44988D03*
X64173Y-43988D03*
G54D19*
X59145Y-49196D03*
G54D20*
X60145Y-49196D03*
X59145Y-50196D03*
X60145Y-50196D03*
X59145Y-51196D03*
X60145Y-51196D03*
G54D12*
X72830Y-44330D03*
G54D13*
X75830Y-44330D03*
G54D21*
X52255Y-44094D03*
X53255Y-44094D03*
X49696Y-44094D03*
X50696Y-44094D03*
G54D22*
X33464Y-43244D03*
X33464Y-45244D03*
X33464Y-49244D03*
X33464Y-51244D03*
G54D23*
X79374Y-47299D03*
G54D24*
X79374Y-46299D03*
X79374Y-45299D03*
X76374Y-45299D03*
X76374Y-46299D03*
X76374Y-47299D03*
G54D19*
X43003Y-40157D03*
G54D20*
X44003Y-40157D03*
G54D19*
X73228Y-52311D03*
G54D20*
X73228Y-51311D03*
G54D19*
X73228Y-53633D03*
G54D20*
X73228Y-54633D03*
G54D19*
X61614Y-50893D03*
G54D20*
X61614Y-49893D03*
G54D12*
X69972Y-42625D03*
G54D13*
X70972Y-42625D03*
X70972Y-41625D03*
X71972Y-44291D03*
X68972Y-44291D03*
X57405Y-43070D03*
X54405Y-43070D03*
X45744Y-41929D03*
X48744Y-41929D03*
X72366Y-45472D03*
X69366Y-45472D03*
X45744Y-39566D03*
X48744Y-39566D03*
X40748Y-33736D03*
X40748Y-36736D03*
X42125Y-35704D03*
X42125Y-38704D03*
X40748Y-29208D03*
X40748Y-32208D03*
X42125Y-31374D03*
X42125Y-34374D03*
X40748Y-24484D03*
X40748Y-27484D03*
X42125Y-27240D03*
X42125Y-30240D03*
X76377Y-52484D03*
X76377Y-49484D03*
X72047Y-54492D03*
X72047Y-51492D03*
X57405Y-45275D03*
X54405Y-45275D03*
X64688Y-51968D03*
X61688Y-51968D03*
X49287Y-46259D03*
X52287Y-46259D03*
X69610Y-50984D03*
X66610Y-50984D03*
X80551Y-47326D03*
X80551Y-44326D03*
X74606Y-51649D03*
X74606Y-54649D03*
X74015Y-46531D03*
X74015Y-49531D03*
X67716Y-42397D03*
X67716Y-45397D03*
X65354Y-42397D03*
X65354Y-45397D03*
X62992Y-42397D03*
X62992Y-45397D03*
X63460Y-35629D03*
X66460Y-35629D03*
X71086Y-35629D03*
X68086Y-35629D03*
X63460Y-31299D03*
X66460Y-31299D03*
X71086Y-31299D03*
X68086Y-31299D03*
X63318Y-26913D03*
X66318Y-26913D03*
X71283Y-26870D03*
X68283Y-26870D03*
G54D25*
X51921Y-41854D03*
G54D26*
X52921Y-41854D03*
X53921Y-41854D03*
X54921Y-41854D03*
X55921Y-41854D03*
X56921Y-41854D03*
X57921Y-41854D03*
X57921Y-38854D03*
X56921Y-38854D03*
X55921Y-38854D03*
X54921Y-38854D03*
X53921Y-38854D03*
X52921Y-38854D03*
X51921Y-38854D03*
G54D25*
X63413Y-49925D03*
G54D26*
X64413Y-49925D03*
X65413Y-49925D03*
X66413Y-49925D03*
X67413Y-49925D03*
X68413Y-49925D03*
X69413Y-49925D03*
X70413Y-49925D03*
X71413Y-49925D03*
X72413Y-49925D03*
X72413Y-46925D03*
X71413Y-46925D03*
X70413Y-46925D03*
X69413Y-46925D03*
X68413Y-46925D03*
X67413Y-46925D03*
X66413Y-46925D03*
X65413Y-46925D03*
X64413Y-46925D03*
X63413Y-46925D03*
G54D14*
X57102Y-54133D03*
G54D15*
X55102Y-54133D03*
X56102Y-54133D03*
G54D27*
X56102Y-47633D03*
G54D23*
X68578Y-37976D03*
G54D24*
X68578Y-38976D03*
X68578Y-39976D03*
X71578Y-39976D03*
X71578Y-38976D03*
X71578Y-37976D03*
G54D23*
X64248Y-37976D03*
G54D24*
X64248Y-38976D03*
X64248Y-39976D03*
X67248Y-39976D03*
X67248Y-38976D03*
X67248Y-37976D03*
G54D23*
X59720Y-37976D03*
G54D24*
X59720Y-38976D03*
X59720Y-39976D03*
X62720Y-39976D03*
X62720Y-38976D03*
X62720Y-37976D03*
G54D28*
X68913Y-52755D03*
X66913Y-52755D03*
G54D15*
X52657Y-34842D03*
X44192Y-34842D03*
X52657Y-30511D03*
X44192Y-30511D03*
X52657Y-26181D03*
X44192Y-26181D03*
G54D29*
X78937Y-50393D03*
X79921Y-51574D03*
X77952Y-51574D03*
G54D20*
X50000Y-50031D03*
X52000Y-50031D03*
X52000Y-48031D03*
X50000Y-48031D03*
G54D30*
X37992Y-39370D03*
X34055Y-39370D03*
X34448Y-35433D03*
X38385Y-35433D03*
X82480Y-35433D03*
X78543Y-35433D03*
X34448Y-31496D03*
X38385Y-31496D03*
X82480Y-31496D03*
X78543Y-31496D03*
X34448Y-27559D03*
X38385Y-27559D03*
X82480Y-27559D03*
X78543Y-27559D03*
G54D13*
X67617Y-29940D03*
X64665Y-28720D03*
X67617Y-25610D03*
X64665Y-24390D03*
G54D31*
X73937Y-42913D03*
X73937Y-38189D03*
X73149Y-40551D03*
X78739Y-38189D03*
X78739Y-42913D03*
G54D13*
X39862Y-42519D03*
X42814Y-41731D03*
X67617Y-34271D03*
X64665Y-33051D03*
G54D32*
X39566Y-53543D03*
X43385Y-53543D03*
X45590Y-44409D03*
X37716Y-44409D03*
G54D33*
X46228Y-32874D03*
X50228Y-32874D03*
X46228Y-28543D03*
X50228Y-28543D03*
G54D13*
X61811Y-44988D03*
X61811Y-43988D03*
G54D33*
X46228Y-24212D03*
X50228Y-24212D03*
G54D12*
X61023Y-53043D03*
G54D13*
X61023Y-54043D03*
G54D19*
X75787Y-53633D03*
G54D20*
X75787Y-54633D03*
G54D34*
X71578Y-37976D03*
X71161Y-33070D03*
X68110Y-28346D03*
X53425Y-46023D03*
X66413Y-46925D03*
X65354Y-45397D03*
X62992Y-45397D03*
X57283Y-44192D03*
X49921Y-37795D03*
X74803Y-53464D03*
X54724Y-33448D03*
X70271Y-53811D03*
X59291Y-45157D03*
X74015Y-49531D03*
X50000Y-51413D03*
X60728Y-42913D03*
X48503Y-32755D03*
G54D35*
X68413Y-46925D02*
X68413Y-44850D01*
X68413Y-44850D02*
X68972Y-44291D01*
X71161Y-33070D02*
X71653Y-33070D01*
X72047Y-37507D02*
X71578Y-37976D01*
X72047Y-33464D02*
X72047Y-37507D01*
X71653Y-33070D02*
X72047Y-33464D01*
G54D36*
X64665Y-33051D02*
X59861Y-33051D01*
X59861Y-33051D02*
X58464Y-34448D01*
X58464Y-34448D02*
X54724Y-34448D01*
G54D35*
X68110Y-28346D02*
X68307Y-28346D01*
X67248Y-37377D02*
X67248Y-37976D01*
X67618Y-37007D02*
X67248Y-37377D01*
X68503Y-37007D02*
X67618Y-37007D01*
X70078Y-35433D02*
X68503Y-37007D01*
X70078Y-30118D02*
X70078Y-35433D01*
X68307Y-28346D02*
X70078Y-30118D01*
G54D36*
X64665Y-28720D02*
X61358Y-28720D01*
X59960Y-30118D02*
X54724Y-30118D01*
X61358Y-28720D02*
X59960Y-30118D01*
G54D35*
X65403Y-32726D02*
X65403Y-34694D01*
X65403Y-34694D02*
X65354Y-34744D01*
X65354Y-34744D02*
X65354Y-34842D01*
X65354Y-34842D02*
X65354Y-34744D01*
X65551Y-29133D02*
X65452Y-29133D01*
X64271Y-31594D02*
X65403Y-32726D01*
X64271Y-30314D02*
X64271Y-31594D01*
X65452Y-29133D02*
X64271Y-30314D01*
X65354Y-34744D02*
X62720Y-37377D01*
X62720Y-37377D02*
X62720Y-37976D01*
X65551Y-25275D02*
X64665Y-24390D01*
X65551Y-29133D02*
X65551Y-25275D01*
G54D36*
X64665Y-24390D02*
X58208Y-24390D01*
X56811Y-25787D02*
X54724Y-25787D01*
X58208Y-24390D02*
X56811Y-25787D01*
G54D35*
X53444Y-46003D02*
X53503Y-46062D01*
X53425Y-46023D02*
X53444Y-46003D01*
X66413Y-46925D02*
X66456Y-46968D01*
X53503Y-49015D02*
X53503Y-46062D01*
X54488Y-50000D02*
X53503Y-49015D01*
X57716Y-50000D02*
X54488Y-50000D01*
X58307Y-49409D02*
X57716Y-50000D01*
X58307Y-48464D02*
X58307Y-49409D01*
X59645Y-47125D02*
X58307Y-48464D01*
X60551Y-47125D02*
X59645Y-47125D01*
X61023Y-46653D02*
X60551Y-47125D01*
X61850Y-46653D02*
X61023Y-46653D01*
X63031Y-47834D02*
X61850Y-46653D01*
X65866Y-47834D02*
X63031Y-47834D01*
X66456Y-47244D02*
X65866Y-47834D01*
X66456Y-46968D02*
X66456Y-47244D01*
X42125Y-34374D02*
X42090Y-34374D01*
X41417Y-30948D02*
X42125Y-30240D01*
X41417Y-33700D02*
X41417Y-30948D01*
X42090Y-34374D02*
X41417Y-33700D01*
X42125Y-38704D02*
X42125Y-38188D01*
X41496Y-35003D02*
X42125Y-34374D01*
X41496Y-37559D02*
X41496Y-35003D01*
X42125Y-38188D02*
X41496Y-37559D01*
G54D37*
X65196Y-46027D02*
X66500Y-46027D01*
X69413Y-47338D02*
X69413Y-46925D01*
X68789Y-47962D02*
X69413Y-47338D01*
X67352Y-47962D02*
X68789Y-47962D01*
X66919Y-47529D02*
X67352Y-47962D01*
X66919Y-46446D02*
X66919Y-47529D01*
X66500Y-46027D02*
X66919Y-46446D01*
G54D35*
X62992Y-45397D02*
X63622Y-46027D01*
X63622Y-46027D02*
X65196Y-46027D01*
G54D37*
X51921Y-41854D02*
X51992Y-41854D01*
X56791Y-43700D02*
X57283Y-44192D01*
X53838Y-43700D02*
X56791Y-43700D01*
X51992Y-41854D02*
X53838Y-43700D01*
G54D35*
X61688Y-51968D02*
X61688Y-52149D01*
X61688Y-52149D02*
X62688Y-53149D01*
G54D37*
X55307Y-44192D02*
X55307Y-44362D01*
X70039Y-45551D02*
X71413Y-46925D01*
X70039Y-44606D02*
X70039Y-45551D01*
X68661Y-43228D02*
X70039Y-44606D01*
X61574Y-43228D02*
X68661Y-43228D01*
X60866Y-43937D02*
X61574Y-43228D01*
X60866Y-44448D02*
X60866Y-43937D01*
X59724Y-45590D02*
X60866Y-44448D01*
X58740Y-45590D02*
X59724Y-45590D01*
X57913Y-44763D02*
X58740Y-45590D01*
X55708Y-44763D02*
X57913Y-44763D01*
X55307Y-44362D02*
X55708Y-44763D01*
X72413Y-46925D02*
X72413Y-47281D01*
X49409Y-40232D02*
X48744Y-39566D01*
X49409Y-42145D02*
X49409Y-40232D01*
X48976Y-42578D02*
X49409Y-42145D01*
X48976Y-44124D02*
X48976Y-42578D01*
X52687Y-47834D02*
X48976Y-44124D01*
X52687Y-48897D02*
X52687Y-47834D01*
X55708Y-51919D02*
X52687Y-48897D01*
X60757Y-51919D02*
X55708Y-51919D01*
X61240Y-51437D02*
X60757Y-51919D01*
X62253Y-51437D02*
X61240Y-51437D01*
X62519Y-51171D02*
X62253Y-51437D01*
X62519Y-49478D02*
X62519Y-51171D01*
X63159Y-48838D02*
X62519Y-49478D01*
X70856Y-48838D02*
X63159Y-48838D01*
X72413Y-47281D02*
X70856Y-48838D01*
G54D35*
X48137Y-38385D02*
X49330Y-38385D01*
X49330Y-38385D02*
X49921Y-37795D01*
G54D37*
X51681Y-53149D02*
X51681Y-53720D01*
X74909Y-45251D02*
X75830Y-44330D01*
X74909Y-47255D02*
X74909Y-45251D01*
X73173Y-48992D02*
X74909Y-47255D01*
X73173Y-50200D02*
X73173Y-48992D01*
X72645Y-50728D02*
X73173Y-50200D01*
X72645Y-51885D02*
X72645Y-50728D01*
X71413Y-53118D02*
X72645Y-51885D01*
X71413Y-54633D02*
X71413Y-53118D01*
X71086Y-54960D02*
X71413Y-54633D01*
X52921Y-54960D02*
X71086Y-54960D01*
X51681Y-53720D02*
X52921Y-54960D01*
G54D35*
X74606Y-53267D02*
X74606Y-51649D01*
X74803Y-53464D02*
X74606Y-53267D01*
G54D37*
X50000Y-40854D02*
X52921Y-40854D01*
X52921Y-40854D02*
X53921Y-41854D01*
X64688Y-51968D02*
X64688Y-52610D01*
X70133Y-53948D02*
X70271Y-53811D01*
X64578Y-53948D02*
X70133Y-53948D01*
X64271Y-53641D02*
X64578Y-53948D01*
X64271Y-53027D02*
X64271Y-53641D01*
X64688Y-52610D02*
X64271Y-53027D01*
G54D35*
X74015Y-49531D02*
X74031Y-49531D01*
X79409Y-48700D02*
X82677Y-51968D01*
X74862Y-48700D02*
X79409Y-48700D01*
X74031Y-49531D02*
X74862Y-48700D01*
X59342Y-45208D02*
X57405Y-43271D01*
X57405Y-43271D02*
X57405Y-43070D01*
G54D37*
X57405Y-43070D02*
X57405Y-43350D01*
X59212Y-45157D02*
X59291Y-45157D01*
X57405Y-43350D02*
X59212Y-45157D01*
X53921Y-41854D02*
X53921Y-41874D01*
X53921Y-41874D02*
X55118Y-43070D01*
X55118Y-43070D02*
X57405Y-43070D01*
G54D35*
X50000Y-40854D02*
X50000Y-43791D01*
X50000Y-43791D02*
X49696Y-44094D01*
X72047Y-54492D02*
X72047Y-53543D01*
X72047Y-53543D02*
X72677Y-52913D01*
X72677Y-52913D02*
X73937Y-52913D01*
X73937Y-52913D02*
X73779Y-52913D01*
X73779Y-52913D02*
X73937Y-52913D01*
X74015Y-49531D02*
X73937Y-49610D01*
X73937Y-53980D02*
X74606Y-54649D01*
X73937Y-49610D02*
X73937Y-52913D01*
X73937Y-52913D02*
X73937Y-53980D01*
X48858Y-50291D02*
X48877Y-50291D01*
X48877Y-50291D02*
X50000Y-51413D01*
X49287Y-46259D02*
X49287Y-47279D01*
X48858Y-47708D02*
X48858Y-50291D01*
X49287Y-47279D02*
X48858Y-47708D01*
X64468Y-41240D02*
X68586Y-41240D01*
X68586Y-41240D02*
X69972Y-42625D01*
X68578Y-38976D02*
X69094Y-38976D01*
X69094Y-38976D02*
X69972Y-39854D01*
X69972Y-39854D02*
X69972Y-42625D01*
X64248Y-38976D02*
X64960Y-38976D01*
X65452Y-39468D02*
X65452Y-40181D01*
X64960Y-38976D02*
X65452Y-39468D01*
X59720Y-38976D02*
X59744Y-38976D01*
X65452Y-40255D02*
X65452Y-40181D01*
X64468Y-41240D02*
X65452Y-40255D01*
X62007Y-41240D02*
X64468Y-41240D01*
X59744Y-38976D02*
X62007Y-41240D01*
X56921Y-41854D02*
X56921Y-41503D01*
X58562Y-40748D02*
X60728Y-42913D01*
X57677Y-40748D02*
X58562Y-40748D01*
X56921Y-41503D02*
X57677Y-40748D01*
X56921Y-41854D02*
X56921Y-41566D01*
X55921Y-40566D02*
X55921Y-38854D01*
X56921Y-41566D02*
X55921Y-40566D01*
X49287Y-46259D02*
X49287Y-46059D01*
X49287Y-46059D02*
X47137Y-43909D01*
X47137Y-43909D02*
X47137Y-40748D01*
X75196Y-50500D02*
X75196Y-51303D01*
X75196Y-51303D02*
X76377Y-52484D01*
X44192Y-30511D02*
X44192Y-29625D01*
X45275Y-28543D02*
X46228Y-28543D01*
X44192Y-29625D02*
X45275Y-28543D01*
X44192Y-26181D02*
X44192Y-25492D01*
X45472Y-24212D02*
X46228Y-24212D01*
X44192Y-25492D02*
X45472Y-24212D01*
X50787Y-38866D02*
X50787Y-39204D01*
X50787Y-39204D02*
X51503Y-39921D01*
X51503Y-39921D02*
X54330Y-39921D01*
X54330Y-39921D02*
X55354Y-40944D01*
X50787Y-37795D02*
X50787Y-38866D01*
X55826Y-41759D02*
X55921Y-41854D01*
X55826Y-41417D02*
X55826Y-41759D01*
X55354Y-40944D02*
X55826Y-41417D01*
X49055Y-36062D02*
X50787Y-37795D01*
X49055Y-33307D02*
X49055Y-36062D01*
X48503Y-32755D02*
X49055Y-33307D01*
X54921Y-38854D02*
X54921Y-38661D01*
X51082Y-34822D02*
X51082Y-31791D01*
X54921Y-38661D02*
X51082Y-34822D01*
X42125Y-27240D02*
X46531Y-27240D01*
X46531Y-27240D02*
X51082Y-31791D01*
X44192Y-34842D02*
X44192Y-34153D01*
X45472Y-32874D02*
X46228Y-32874D01*
X44192Y-34153D02*
X45472Y-32874D01*
X70972Y-42625D02*
X70972Y-43291D01*
X70972Y-43291D02*
X71972Y-44291D01*
G54D38*
X67027Y-34055D02*
X67027Y-27622D01*
X67027Y-27622D02*
X66318Y-26913D01*
X62720Y-39976D02*
X63074Y-39976D01*
X63074Y-39976D02*
X63484Y-39566D01*
X63484Y-39566D02*
X63484Y-37598D01*
X63484Y-37598D02*
X67027Y-34055D01*
X67027Y-34055D02*
X67027Y-33956D01*
G54D37*
X63484Y-37696D02*
X66732Y-34448D01*
X63484Y-39566D02*
X63484Y-37696D01*
X63074Y-39976D02*
X63484Y-39566D01*
X67027Y-27622D02*
X66318Y-26913D01*
X66732Y-34448D02*
X67027Y-34153D01*
X67027Y-34153D02*
X67027Y-33956D01*
X67027Y-33956D02*
X67027Y-27622D01*
G54D38*
X67248Y-39976D02*
X67240Y-39976D01*
X68503Y-31716D02*
X68086Y-31299D01*
X68503Y-34251D02*
X68503Y-31716D01*
X67224Y-35531D02*
X68503Y-34251D01*
X67224Y-36220D02*
X67224Y-35531D01*
X66141Y-37303D02*
X67224Y-36220D01*
X66141Y-38877D02*
X66141Y-37303D01*
X67240Y-39976D02*
X66141Y-38877D01*
M02*
