<?xml version="1.0" standalone="no"?>
 <!DOCTYPE svg PUBLIC "-//W3C//DTD SVG 1.1//EN" 
 "http://www.w3.org/Graphics/SVG/1.1/DTD/svg11.dtd"> 
<svg xmlns="http://www.w3.org/2000/svg" version="1.1" 
    width="29.7002cm" height="21.0007cm" viewBox="0 0 116930 82680 ">
<title>SVG Picture created as variador-B_Cu.svg date 2013/05/03 10:17:26 </title>
  <desc>Picture generated by PCBNEW </desc>
<g style="fill:#000000; fill-opacity:1;stroke:#000000; stroke-opacity:1;
stroke-linecap:round; stroke-linejoin:round; "
 transform="translate(0 0) scale(1 1)">
</g>
<g style="fill:#000000; fill-opacity:0.0; 
stroke:#000000; stroke-width:593; stroke-opacity:1; 
stroke-linecap:round; stroke-linejoin:round;">
<path d="M22541 41901
L21947 41901
" />
<path d="M22541 42901
L21947 42901
" />
</g>
<g style="fill:#000000; fill-opacity:0.0; 
stroke:#000000; stroke-width:472.441; stroke-opacity:1; 
stroke-linecap:round; stroke-linejoin:round;">
<path d="M31827 30165
L32542 30165
" />
<path d="M31827 29165
L32542 29165
" />
<path d="M22542 44647
L21827 44647
" />
<path d="M22542 45647
L21827 45647
" />
</g>
<g style="fill:#000000; fill-opacity:0.0; 
stroke:#000000; stroke-width:0.023622; stroke-opacity:1; 
stroke-linecap:round; stroke-linejoin:round;">
</g>
<g style="fill:#000000; fill-opacity:1.0; 
stroke:#000000; stroke-width:0.023622; stroke-opacity:1; 
stroke-linecap:round; stroke-linejoin:round;">
<circle cx="66929.1" cy="27740.2" r="349.988" /> 
<circle cx="66929.1" cy="28740.2" r="349.988" /> 
<polyline style="fill-rule:evenodd;"
points="66579,30090
66579,29390
67279,29390
67279,30090
66579,30090
" /> 
<circle cx="66929.1" cy="35614.2" r="349.988" /> 
<circle cx="66929.1" cy="36614.2" r="349.988" /> 
<polyline style="fill-rule:evenodd;"
points="66579,37964
66579,37264
67279,37264
67279,37964
66579,37964
" /> 
<circle cx="66929.1" cy="43488.2" r="349.988" /> 
<circle cx="66929.1" cy="44488.2" r="349.988" /> 
<polyline style="fill-rule:evenodd;"
points="66579,45838
66579,45138
67279,45138
67279,45838
66579,45838
" /> 
<polyline style="fill-rule:evenodd;"
points="37964,18066
37264,18066
37264,17366
37964,17366
37964,18066
" /> 
<circle cx="35614.2" cy="17716.5" r="349.988" /> 
<circle cx="36614.2" cy="17716.5" r="349.988" /> 
<polyline style="fill-rule:evenodd;"
points="38364,12966
34864,12966
34864,9466
38364,9466
38364,12966
" /> 
<circle cx="71456.7" cy="30216.5" r="393.689" /> 
<circle cx="71456.7" cy="27263.8" r="393.689" /> 
<circle cx="71456.7" cy="45964.6" r="393.689" /> 
<circle cx="71456.7" cy="43011.8" r="393.689" /> 
<circle cx="71456.7" cy="38090.6" r="393.689" /> 
<circle cx="71456.7" cy="35137.8" r="393.689" /> 
<circle cx="66043.3" cy="16141.7" r="393.689" /> 
<circle cx="66043.3" cy="13189" r="393.689" /> 
<circle cx="73665.4" cy="42126" r="349.988" /> 
<circle cx="80665.4" cy="42126" r="349.988" /> 
<circle cx="73212.6" cy="26771.7" r="349.988" /> 
<circle cx="80212.6" cy="26771.7" r="349.988" /> 
<circle cx="73665.4" cy="34252" r="349.988" /> 
<circle cx="80665.4" cy="34252" r="349.988" /> 
<circle cx="27090.6" cy="42913.4" r="274.988" /> 
<circle cx="24090.6" cy="42913.4" r="274.988" /> 
<circle cx="61417.3" cy="26452.8" r="274.988" /> 
<circle cx="61417.3" cy="29452.8" r="274.988" /> 
<circle cx="61417.3" cy="41807.1" r="274.988" /> 
<circle cx="61417.3" cy="44807.1" r="274.988" /> 
<circle cx="58267.7" cy="44807.1" r="274.988" /> 
<circle cx="58267.7" cy="41807.1" r="274.988" /> 
<circle cx="58267.7" cy="29452.8" r="274.988" /> 
<circle cx="58267.7" cy="26452.8" r="274.988" /> 
<circle cx="35712.6" cy="20925.2" r="274.988" /> 
<circle cx="32712.6" cy="20925.2" r="274.988" /> 
<circle cx="47563" cy="41338.6" r="274.988" /> 
<circle cx="44563" cy="41338.6" r="274.988" /> 
<circle cx="57405.5" cy="40944.9" r="274.988" /> 
<circle cx="54405.5" cy="40944.9" r="274.988" /> 
<circle cx="57799.2" cy="33070.9" r="274.988" /> 
<circle cx="54799.2" cy="33070.9" r="274.988" /> 
<circle cx="47669.3" cy="37846.5" r="274.988" /> 
<circle cx="44669.3" cy="37846.5" r="274.988" /> 
<circle cx="78192.9" cy="24665.4" r="274.988" /> 
<circle cx="75192.9" cy="24665.4" r="274.988" /> 
<circle cx="29990.2" cy="26374" r="274.988" /> 
<circle cx="29990.2" cy="29374" r="274.988" /> 
<circle cx="58267.7" cy="36933.1" r="274.988" /> 
<circle cx="58267.7" cy="33933.1" r="274.988" /> 
<circle cx="19956.7" cy="28503.9" r="274.988" /> 
<circle cx="22956.7" cy="28503.9" r="274.988" /> 
<circle cx="27043.3" cy="44287.4" r="274.988" /> 
<circle cx="24043.3" cy="44287.4" r="274.988" /> 
<circle cx="23228.3" cy="22366.1" r="274.988" /> 
<circle cx="23228.3" cy="19366.1" r="274.988" /> 
<circle cx="59444.9" cy="47677.2" r="274.988" /> 
<circle cx="62444.9" cy="47677.2" r="274.988" /> 
<circle cx="47563" cy="45275.6" r="274.988" /> 
<circle cx="44563" cy="45275.6" r="274.988" /> 
<circle cx="61417.3" cy="33933.1" r="274.988" /> 
<circle cx="61417.3" cy="36933.1" r="274.988" /> 
<circle cx="26771.7" cy="19366.1" r="274.988" /> 
<circle cx="26771.7" cy="22366.1" r="274.988" /> 
<polyline style="fill-rule:evenodd;"
points="25668,28260
25668,27660
26268,27660
26268,28260
25668,28260
" /> 
<circle cx="25968.5" cy="26960.6" r="299.988" /> 
<circle cx="26968.5" cy="27960.6" r="299.988" /> 
<circle cx="26968.5" cy="26960.6" r="299.988" /> 
<circle cx="27968.5" cy="27960.6" r="299.988" /> 
<circle cx="27968.5" cy="26960.6" r="299.988" /> 
<circle cx="25484.3" cy="16929.1" r="329.988" /> 
<circle cx="26484.3" cy="16929.1" r="329.988" /> 
<circle cx="21281.5" cy="17135.8" r="329.988" /> 
<circle cx="22281.5" cy="17135.8" r="329.988" /> 
<circle cx="24803.1" cy="37614.2" r="279.988" /> 
<circle cx="24803.1" cy="35614.2" r="279.988" /> 
<circle cx="69291.3" cy="12929.1" r="749.988" /> 
<circle cx="69291.3" cy="14929.1" r="749.988" /> 
<circle cx="69291.3" cy="18929.1" r="749.988" /> 
<circle cx="69291.3" cy="20929.1" r="749.988" /> 
<polyline style="fill-rule:evenodd;"
points="48246,41308
49146,41308
49146,41928
48246,41928
48246,41308
" /> 
</g>
<g style="fill:#000000; fill-opacity:1.0; 
stroke:#000000; stroke-width:620; stroke-opacity:1; 
stroke-linecap:round; stroke-linejoin:round;">
<path d="M48836 42618
L48556 42618
" />
<path d="M48836 43618
L48556 43618
" />
<path d="M51836 43618
L51556 43618
" />
<path d="M51836 42618
L51556 42618
" />
<path d="M51836 41618
L51556 41618
" />
</g>
<g style="fill:#000000; fill-opacity:1.0; 
stroke:#000000; stroke-width:0.023622; stroke-opacity:1; 
stroke-linecap:round; stroke-linejoin:round;">
<polyline style="fill-rule:evenodd;"
points="48246,37371
49146,37371
49146,37991
48246,37991
48246,37371
" /> 
</g>
<g style="fill:#000000; fill-opacity:1.0; 
stroke:#000000; stroke-width:620; stroke-opacity:1; 
stroke-linecap:round; stroke-linejoin:round;">
<path d="M48836 38681
L48556 38681
" />
<path d="M48836 39681
L48556 39681
" />
<path d="M51836 39681
L51556 39681
" />
<path d="M51836 38681
L51556 38681
" />
<path d="M51836 37681
L51556 37681
" />
</g>
<g style="fill:#000000; fill-opacity:1.0; 
stroke:#000000; stroke-width:0.023622; stroke-opacity:1; 
stroke-linecap:round; stroke-linejoin:round;">
<polyline style="fill-rule:evenodd;"
points="48246,45245
49146,45245
49146,45865
48246,45865
48246,45245
" /> 
</g>
<g style="fill:#000000; fill-opacity:1.0; 
stroke:#000000; stroke-width:620; stroke-opacity:1; 
stroke-linecap:round; stroke-linejoin:round;">
<path d="M48836 46555
L48556 46555
" />
<path d="M48836 47555
L48556 47555
" />
<path d="M51836 47555
L51556 47555
" />
<path d="M51836 46555
L51556 46555
" />
<path d="M51836 45555
L51556 45555
" />
</g>
<g style="fill:#000000; fill-opacity:1.0; 
stroke:#000000; stroke-width:0.023622; stroke-opacity:1; 
stroke-linecap:round; stroke-linejoin:round;">
<polyline style="fill-rule:evenodd;"
points="26593,31607
27493,31607
27493,32227
26593,32227
26593,31607
" /> 
</g>
<g style="fill:#000000; fill-opacity:1.0; 
stroke:#000000; stroke-width:620; stroke-opacity:1; 
stroke-linecap:round; stroke-linejoin:round;">
<path d="M27183 32917
L26903 32917
" />
<path d="M27183 33917
L26903 33917
" />
<path d="M27183 34917
L26903 34917
" />
<path d="M27183 35917
L26903 35917
" />
<path d="M27183 36917
L26903 36917
" />
<path d="M27183 37917
L26903 37917
" />
<path d="M27183 38917
L26903 38917
" />
<path d="M27183 39917
L26903 39917
" />
<path d="M27183 40917
L26903 40917
" />
<path d="M30183 40917
L29903 40917
" />
<path d="M30183 39917
L29903 39917
" />
<path d="M30183 38917
L29903 38917
" />
<path d="M30183 37917
L29903 37917
" />
<path d="M30183 36917
L29903 36917
" />
<path d="M30183 35917
L29903 35917
" />
<path d="M30183 34917
L29903 34917
" />
<path d="M30183 33917
L29903 33917
" />
<path d="M30183 32917
L29903 32917
" />
<path d="M30183 31917
L29903 31917
" />
</g>
<g style="fill:#000000; fill-opacity:1.0; 
stroke:#000000; stroke-width:0.023622; stroke-opacity:1; 
stroke-linecap:round; stroke-linejoin:round;">
<polyline style="fill-rule:evenodd;"
points="39191,31729
40091,31729
40091,32349
39191,32349
39191,31729
" /> 
</g>
<g style="fill:#000000; fill-opacity:1.0; 
stroke:#000000; stroke-width:620; stroke-opacity:1; 
stroke-linecap:round; stroke-linejoin:round;">
<path d="M39781 33039
L39501 33039
" />
<path d="M39781 34039
L39501 34039
" />
<path d="M39781 35039
L39501 35039
" />
<path d="M39781 36039
L39501 36039
" />
<path d="M39781 37039
L39501 37039
" />
<path d="M39781 38039
L39501 38039
" />
<path d="M42781 38039
L42501 38039
" />
<path d="M42781 37039
L42501 37039
" />
<path d="M42781 36039
L42501 36039
" />
<path d="M42781 35039
L42501 35039
" />
<path d="M42781 34039
L42501 34039
" />
<path d="M42781 33039
L42501 33039
" />
<path d="M42781 32039
L42501 32039
" />
</g>
<g style="fill:#000000; fill-opacity:1.0; 
stroke:#000000; stroke-width:0.023622; stroke-opacity:1; 
stroke-linecap:round; stroke-linejoin:round;">
<polyline style="fill-rule:evenodd;"
points="40629,16523
40079,16523
40079,15973
40629,15973
40629,16523
" /> 
<circle cx="40354.3" cy="15248" r="274.988" /> 
<polyline style="fill-rule:evenodd;"
points="23334,30354
23334,30904
22784,30904
22784,30354
23334,30354
" /> 
<circle cx="22059.1" cy="30629.9" r="274.988" /> 
<circle cx="42519.7" cy="16248" r="274.988" /> 
<circle cx="42519.7" cy="15248" r="274.988" /> 
<circle cx="33267.7" cy="18397.6" r="274.988" /> 
<circle cx="33267.7" cy="19397.6" r="274.988" /> 
<circle cx="19752" cy="39803.1" r="274.988" /> 
<circle cx="18752" cy="39803.1" r="274.988" /> 
<circle cx="30952.8" cy="22027.6" r="274.988" /> 
<circle cx="29952.8" cy="22027.6" r="274.988" /> 
<circle cx="22834.6" cy="38492.1" r="274.988" /> 
<circle cx="22834.6" cy="37492.1" r="274.988" /> 
<circle cx="22834.6" cy="34933.1" r="274.988" /> 
<circle cx="22834.6" cy="35933.1" r="274.988" /> 
<circle cx="24909.4" cy="32480.3" r="274.988" /> 
<circle cx="23909.4" cy="32480.3" r="274.988" /> 
<polyline style="fill-rule:evenodd;"
points="16232,32933
17232,32933
17232,33933
16232,33933
16232,32933
" /> 
<circle cx="16732.3" cy="35433.1" r="499.988" /> 
<circle cx="16732.3" cy="37433.1" r="499.988" /> 
<polyline style="fill-rule:evenodd;"
points="16232,28618
17232,28618
17232,29618
16232,29618
16232,28618
" /> 
<circle cx="16732.3" cy="31118.1" r="499.988" /> 
<circle cx="42944.9" cy="13385.8" r="299.988" /> 
<circle cx="42944.9" cy="11385.8" r="299.988" /> 
<circle cx="40944.9" cy="11385.8" r="299.988" /> 
<circle cx="40944.9" cy="13385.8" r="299.988" /> 
<circle cx="44389.8" cy="27929.1" r="274.988" /> 
<circle cx="44389.8" cy="30929.1" r="274.988" /> 
<circle cx="37992.1" cy="33161.4" r="274.988" /> 
<circle cx="37992.1" cy="34161.4" r="274.988" /> 
<circle cx="39763.8" cy="28830.7" r="274.988" /> 
<circle cx="39763.8" cy="29830.7" r="274.988" /> 
<circle cx="44173.2" cy="34066.9" r="274.988" /> 
<circle cx="44173.2" cy="35066.9" r="274.988" /> 
<polyline style="fill-rule:evenodd;"
points="31102,18147
31102,18934
30315,18934
30315,18147
31102,18147
" /> 
<circle cx="30708.7" cy="20041.3" r="393.488" /> 
<circle cx="77984.3" cy="44488.2" r="393.488" /> 
<circle cx="73984.3" cy="44488.2" r="393.488" /> 
<circle cx="77984.3" cy="36614.2" r="393.488" /> 
<circle cx="73984.3" cy="36614.2" r="393.488" /> 
<circle cx="78378" cy="28740.2" r="393.488" /> 
<circle cx="74378" cy="28740.2" r="393.488" /> 
<circle cx="46330.7" cy="39921.3" r="274.988" /> 
<circle cx="47330.7" cy="39921.3" r="274.988" /> 
<circle cx="46350.4" cy="46850.4" r="274.988" /> 
<circle cx="47350.4" cy="46850.4" r="274.988" /> 
<circle cx="46350.4" cy="42913.4" r="274.988" /> 
<circle cx="47350.4" cy="42913.4" r="274.988" /> 
</g>
<g style="fill:#000000; fill-opacity:1.0; 
stroke:#000000; stroke-width:984.252; stroke-opacity:1; 
stroke-linecap:round; stroke-linejoin:round;">
<path d="M68700 36614
L69094 36614
" />
<path d="M68700 34488
L69094 34488
" />
<path d="M68700 38740
L69094 38740
" />
<path d="M68700 44488
L69094 44488
" />
<path d="M68700 42362
L69094 42362
" />
<path d="M68700 46614
L69094 46614
" />
<path d="M68700 28740
L69094 28740
" />
<path d="M68700 26614
L69094 26614
" />
<path d="M68700 30866
L69094 30866
" />
</g>
<g style="fill:#000000; fill-opacity:1.0; 
stroke:#000000; stroke-width:0.023622; stroke-opacity:1; 
stroke-linecap:round; stroke-linejoin:round;">
<circle cx="45866.1" cy="30389.8" r="274.988" /> 
<circle cx="45866.1" cy="33389.8" r="274.988" /> 
<circle cx="35507.9" cy="30708.7" r="274.988" /> 
<circle cx="38507.9" cy="30708.7" r="274.988" /> 
<circle cx="34917.3" cy="31889.8" r="274.988" /> 
<circle cx="37917.3" cy="31889.8" r="274.988" /> 
<circle cx="59842.5" cy="26452.8" r="274.988" /> 
<circle cx="59842.5" cy="29452.8" r="274.988" /> 
<circle cx="59842.5" cy="41807.1" r="274.988" /> 
<circle cx="59842.5" cy="44807.1" r="274.988" /> 
<circle cx="59842.5" cy="33933.1" r="274.988" /> 
<circle cx="59842.5" cy="36933.1" r="274.988" /> 
<circle cx="50196.9" cy="21653.5" r="688.988" /> 
<circle cx="59842.5" cy="21653.5" r="688.988" /> 
<circle cx="51968.5" cy="11614.2" r="688.988" /> 
<circle cx="58169.3" cy="11614.2" r="688.988" /> 
<circle cx="75000" cy="22244.1" r="492.114" /> 
<circle cx="84645.7" cy="22244.1" r="492.114" /> 
<circle cx="76771.7" cy="12204.7" r="492.114" /> 
<circle cx="82972.4" cy="12204.7" r="492.114" /> 
<circle cx="50098.4" cy="19783.5" r="688.988" /> 
<circle cx="53917.3" cy="19783.5" r="688.988" /> 
<circle cx="56122" cy="10649.6" r="688.988" /> 
<circle cx="48248" cy="10649.6" r="688.988" /> 
<polyline style="fill-rule:evenodd;"
points="16232,39232
17232,39232
17232,40232
16232,40232
16232,39232
" /> 
<circle cx="16732.3" cy="41732.3" r="499.988" /> 
<circle cx="16732.3" cy="43732.3" r="499.988" /> 
<circle cx="42913.4" cy="30224.4" r="274.988" /> 
<circle cx="42913.4" cy="29224.4" r="274.988" /> 
<polyline style="fill-rule:evenodd;"
points="92035,47759
91035,47759
91035,46759
92035,46759
92035,47759
" /> 
<circle cx="91535.4" cy="45259.8" r="499.988" /> 
<polyline style="fill-rule:evenodd;"
points="92035,28074
91035,28074
91035,27074
92035,27074
92035,28074
" /> 
<circle cx="91535.4" cy="25574.8" r="499.988" /> 
<polyline style="fill-rule:evenodd;"
points="92035,36933
91035,36933
91035,35933
92035,35933
92035,36933
" /> 
<circle cx="91535.4" cy="34433.1" r="499.988" /> 
<circle cx="64566.9" cy="40866.1" r="295.264" /> 
<circle cx="64606.3" cy="34960.6" r="174.988" /> 
<circle cx="64566.9" cy="26378" r="295.264" /> 
<circle cx="64566.9" cy="34252" r="295.264" /> 
<circle cx="45885.8" cy="37185" r="196.839" /> 
<circle cx="34094.5" cy="26673.2" r="295.264" /> 
<circle cx="33976.4" cy="36456.7" r="295.264" /> 
<circle cx="49409.4" cy="34015.7" r="295.264" /> 
<circle cx="40775.6" cy="44484.3" r="295.264" /> 
<circle cx="55263.8" cy="44198.8" r="295.264" /> 
<circle cx="77775.6" cy="25472.4" r="295.264" /> 
<circle cx="51771.7" cy="25472.4" r="295.264" /> 
<circle cx="50334.6" cy="25669.3" r="295.264" /> 
<circle cx="50354.3" cy="32893.7" r="295.264" /> 
</g>
<g style="fill:#000000; fill-opacity:1.0; 
stroke:#000000; stroke-width:590.551; stroke-opacity:1; 
stroke-linecap:round; stroke-linejoin:round;">
<path d="M25968 27960
L25968 32562
" />
<path d="M26322 32917
L27043 32917
" />
<path d="M25968 32562
L26322 32917
" />
<path d="M22834 34933
L24122 34933
" />
<path d="M24122 34933
L24803 35614
" />
<path d="M24803 35614
L24803 35826
" />
<path d="M24893 35917
L27043 35917
" />
<path d="M24803 35826
L24893 35917
" />
<path d="M24399 40816
L21860 40816
" />
<path d="M21860 40816
L21683 40639
" />
<path d="M27043 38917
L26299 38917
" />
<path d="M26299 38917
L24399 40816
" />
<path d="M20413 34980
L20413 28960
" />
<path d="M20413 28960
L19956 28503
" />
<path d="M19956 28503
L17346 28503
" />
<path d="M17346 28503
L16732 29118
" />
<path d="M20413 39370
L20413 34980
" />
<path d="M21683 40639
L20413 39370
" />
</g>
<g style="fill:#000000; fill-opacity:1.0; 
stroke:#000000; stroke-width:295.276; stroke-opacity:1; 
stroke-linecap:round; stroke-linejoin:round;">
<path d="M42913 30224
L43023 30224
" />
<path d="M40472 27893
L40472 27913
" />
<path d="M43208 27893
L40472 27893
" />
<path d="M43858 28543
L43208 27893
" />
<path d="M43858 29389
L43858 28543
" />
<path d="M43023 30224
L43858 29389
" />
<path d="M30803 32677
L30043 31917
" />
<path d="M35039 32677
L30803 32677
" />
<path d="M39803 27913
L35039 32677
" />
<path d="M40472 27913
L39803 27913
" />
<path d="M42913 30224
L44122 30224
" />
<path d="M44389 30492
L44389 30929
" />
<path d="M44122 30224
L44389 30492
" />
<path d="M42641 32039
L42641 30496
" />
<path d="M42641 30496
L42913 30224
" />
</g>
<g style="fill:#000000; fill-opacity:1.0; 
stroke:#000000; stroke-width:787.402; stroke-opacity:1; 
stroke-linecap:round; stroke-linejoin:round;">
<path d="M48248 10649
L51003 10649
" />
<path d="M51003 10649
L51968 11614
" />
<path d="M69291 12929
L69291 14929
" />
<path d="M66043 13188
L69031 13188
" />
<path d="M69031 13188
L69291 12929
" />
<path d="M48248 10649
L48248 11141
" />
<path d="M48248 11141
L52035 14929
" />
<path d="M52035 14929
L69291 14929
" />
<path d="M69291 12929
L70141 12929
" />
<path d="M81594 10826
L82972 12204
" />
<path d="M72244 10826
L81594 10826
" />
<path d="M70141 12929
L72244 10826
" />
</g>
<g style="fill:#000000; fill-opacity:1.0; 
stroke:#000000; stroke-width:1401.57; stroke-opacity:1; 
stroke-linecap:round; stroke-linejoin:round;">
<path d="M82972 12204
L82972 17814
" />
<path d="M88862 25574
L91535 25574
" />
<path d="M87500 24212
L88862 25574
" />
<path d="M87500 22342
L87500 24212
" />
<path d="M82972 17814
L87500 22342
" />
</g>
<g style="fill:#000000; fill-opacity:1.0; 
stroke:#000000; stroke-width:787.402; stroke-opacity:1; 
stroke-linecap:round; stroke-linejoin:round;">
<path d="M76771 19803
L76771 12204
" />
<path d="M76771 18248
L76771 12204
" />
<path d="M73212 26771
L75748 26771
" />
<path d="M76771 25748
L76771 19803
" />
<path d="M76771 19803
L76771 18248
" />
<path d="M75748 26771
L76771 25748
" />
<path d="M73271 26377
L73271 26712
" />
</g>
<g style="fill:#000000; fill-opacity:1.0; 
stroke:#000000; stroke-width:1181.1; stroke-opacity:1; 
stroke-linecap:round; stroke-linejoin:round;">
<path d="M71456 27263
L72342 26377
" />
<path d="M73271 26377
L72342 26377
" />
</g>
<g style="fill:#000000; fill-opacity:1.0; 
stroke:#000000; stroke-width:787.402; stroke-opacity:1; 
stroke-linecap:round; stroke-linejoin:round;">
<path d="M73271 26712
L73212 26771
" />
</g>
<g style="fill:#000000; fill-opacity:1.0; 
stroke:#000000; stroke-width:590.551; stroke-opacity:1; 
stroke-linecap:round; stroke-linejoin:round;">
<path d="M51696 37681
L51696 34523
" />
<path d="M56767 29452
L58267 29452
" />
<path d="M51696 34523
L56767 29452
" />
<path d="M58267 29452
L58267 29527
" />
<path d="M65566 27740
L66929 27740
" />
<path d="M62992 30314
L65566 27740
" />
<path d="M59055 30314
L62992 30314
" />
<path d="M58267 29527
L59055 30314
" />
<path d="M66929 27740
L68055 26614
" />
<path d="M68055 26614
L68897 26614
" />
</g>
<g style="fill:#000000; fill-opacity:1.0; 
stroke:#000000; stroke-width:1181.1; stroke-opacity:1; 
stroke-linecap:round; stroke-linejoin:round;">
<path d="M68897 26614
L70807 26614
" />
<path d="M70807 26614
L71456 27263
" />
</g>
<g style="fill:#000000; fill-opacity:1.0; 
stroke:#000000; stroke-width:787.402; stroke-opacity:1; 
stroke-linecap:round; stroke-linejoin:round;">
<path d="M51696 45555
L53271 45555
" />
<path d="M53759 46043
L57031 46043
" />
<path d="M53271 45555
L53759 46043
" />
</g>
<g style="fill:#000000; fill-opacity:1.0; 
stroke:#000000; stroke-width:590.551; stroke-opacity:1; 
stroke-linecap:round; stroke-linejoin:round;">
<path d="M57031 46043
L58267 44807
" />
<path d="M58267 44807
L58267 44881
" />
<path d="M65173 43488
L66929 43488
" />
<path d="M62992 45669
L65173 43488
" />
<path d="M59055 45669
L62992 45669
" />
<path d="M58267 44881
L59055 45669
" />
<path d="M66929 43307
L66929 43488
" />
<path d="M66929 43488
L66929 43307
" />
<path d="M66929 43307
L67874 42362
" />
<path d="M67874 42362
L68897 42362
" />
</g>
<g style="fill:#000000; fill-opacity:1.0; 
stroke:#000000; stroke-width:1181.1; stroke-opacity:1; 
stroke-linecap:round; stroke-linejoin:round;">
<path d="M68897 42362
L70807 42362
" />
<path d="M70807 42362
L71456 43011
" />
<path d="M73665 42125
L72342 42125
" />
<path d="M72342 42125
L71456 43011
" />
<path d="M91535 45259
L91535 44685
" />
<path d="M75240 40551
L73665 42125
" />
<path d="M87401 40551
L75240 40551
" />
<path d="M91535 44685
L87401 40551
" />
</g>
<g style="fill:#000000; fill-opacity:1.0; 
stroke:#000000; stroke-width:787.402; stroke-opacity:1; 
stroke-linecap:round; stroke-linejoin:round;">
<path d="M91535 34433
L91535 33759
" />
<path d="M57027 9744
L56122 10649
" />
<path d="M87007 9744
L57027 9744
" />
<path d="M93307 16043
L87007 9744
" />
<path d="M93307 31988
L93307 16043
" />
<path d="M91535 33759
L93307 31988
" />
</g>
<g style="fill:#000000; fill-opacity:1.0; 
stroke:#000000; stroke-width:590.551; stroke-opacity:1; 
stroke-linecap:round; stroke-linejoin:round;">
<path d="M56122 10649
L57204 10649
" />
<path d="M57204 10649
L58169 11614
" />
</g>
<g style="fill:#000000; fill-opacity:1.0; 
stroke:#000000; stroke-width:787.402; stroke-opacity:1; 
stroke-linecap:round; stroke-linejoin:round;">
<path d="M91535 34433
L91535 33661
" />
</g>
<g style="fill:#000000; fill-opacity:1.0; 
stroke:#000000; stroke-width:590.551; stroke-opacity:1; 
stroke-linecap:round; stroke-linejoin:round;">
<path d="M57086 36933
L57086 37007
" />
<path d="M52476 41618
L51696 41618
" />
<path d="M57086 37007
L52476 41618
" />
<path d="M57086 36933
L58267 36933
" />
<path d="M58267 36933
L58267 37007
" />
<path d="M58267 37007
L59055 37795
" />
<path d="M59055 37795
L62598 37795
" />
<path d="M62598 37795
L64779 35614
" />
<path d="M64779 35614
L66929 35614
" />
<path d="M66929 35614
L68055 34488
" />
<path d="M68055 34488
L68897 34488
" />
</g>
<g style="fill:#000000; fill-opacity:1.0; 
stroke:#000000; stroke-width:1181.1; stroke-opacity:1; 
stroke-linecap:round; stroke-linejoin:round;">
<path d="M68897 34488
L70807 34488
" />
<path d="M70807 34488
L71456 35137
" />
<path d="M73665 34251
L72342 34251
" />
<path d="M72342 34251
L71456 35137
" />
<path d="M75633 32283
L73665 34251
" />
<path d="M90157 32283
L75633 32283
" />
<path d="M91535 33661
L90157 32283
" />
</g>
<g style="fill:#000000; fill-opacity:1.0; 
stroke:#000000; stroke-width:590.551; stroke-opacity:1; 
stroke-linecap:round; stroke-linejoin:round;">
<path d="M27043 37917
L26255 37917
" />
<path d="M21259 17157
L21281 17135
" />
<path d="M21259 38582
L21259 17157
" />
<path d="M22440 39763
L21259 38582
" />
<path d="M24409 39763
L22440 39763
" />
<path d="M26255 37917
L24409 39763
" />
</g>
<g style="fill:#000000; fill-opacity:1.0; 
stroke:#000000; stroke-width:196.85; stroke-opacity:1; 
stroke-linecap:round; stroke-linejoin:round;">
<path d="M61417 44807
L61417 44015
" />
<path d="M61417 44015
L64566 40866
" />
</g>
<g style="fill:#000000; fill-opacity:1.0; 
stroke:#000000; stroke-width:295.276; stroke-opacity:1; 
stroke-linecap:round; stroke-linejoin:round;">
<path d="M64566 34921
L64566 34251
" />
<path d="M64606 34960
L64566 34921
" />
<path d="M64566 26377
L61492 29452
" />
<path d="M61492 29452
L61417 29452
" />
<path d="M61885 36933
L61417 36933
" />
<path d="M64566 34251
L61885 36933
" />
</g>
<g style="fill:#000000; fill-opacity:1.0; 
stroke:#000000; stroke-width:590.551; stroke-opacity:1; 
stroke-linecap:round; stroke-linejoin:round;">
<path d="M46330 39921
L46330 39507
" />
<path d="M46330 39507
L44669 37846
" />
<path d="M30043 38917
L30657 38917
" />
<path d="M43645 43397
L43645 41074
" />
<path d="M41228 45814
L43645 43397
" />
<path d="M37555 45814
L41228 45814
" />
<path d="M30657 38917
L37555 45814
" />
<path d="M44118 40618
L44102 40618
" />
<path d="M44102 40618
L43645 41074
" />
<path d="M44669 37846
L44669 40066
" />
<path d="M44669 40066
L44118 40618
" />
<path d="M30043 39917
L30259 39917
" />
<path d="M41677 46696
L43826 44547
" />
<path d="M37039 46696
L41677 46696
" />
<path d="M30259 39917
L37039 46696
" />
<path d="M44716 44547
L46350 42913
" />
<path d="M43826 44547
L44716 44547
" />
<path d="M46350 42913
L46137 42913
" />
<path d="M46137 42913
L44562 41338
" />
<path d="M30043 40917
L30043 44181
" />
<path d="M45775 47425
L46350 46850
" />
<path d="M33287 47425
L45775 47425
" />
<path d="M30043 44181
L33287 47425
" />
<path d="M46350 46850
L46137 46850
" />
<path d="M46137 46850
L44562 45275
" />
</g>
<g style="fill:#000000; fill-opacity:1.0; 
stroke:#000000; stroke-width:295.276; stroke-opacity:1; 
stroke-linecap:round; stroke-linejoin:round;">
<path d="M37992 33161
L36129 33161
" />
<path d="M34374 34917
L30043 34917
" />
<path d="M36129 33161
L34374 34917
" />
<path d="M39641 33039
L38114 33039
" />
<path d="M38114 33039
L37992 33161
" />
<path d="M37917 31889
L37917 33086
" />
<path d="M37964 33039
L39641 33039
" />
<path d="M37917 33086
L37964 33039
" />
</g>
<g style="fill:#000000; fill-opacity:1.0; 
stroke:#000000; stroke-width:590.551; stroke-opacity:1; 
stroke-linecap:round; stroke-linejoin:round;">
<path d="M26968 26960
L26968 26299
" />
<path d="M30952 22314
L30952 22027
" />
<path d="M26968 26299
L30952 22314
" />
</g>
<g style="fill:#000000; fill-opacity:1.0; 
stroke:#000000; stroke-width:100.394; stroke-opacity:1; 
stroke-linecap:round; stroke-linejoin:round;">
<path d="M27480 28425
L27480 31480
" />
<path d="M27480 31480
L27043 31917
" />
<path d="M26968 27047
L27480 27559
" />
</g>
<g style="fill:#000000; fill-opacity:1.0; 
stroke:#000000; stroke-width:157.48; stroke-opacity:1; 
stroke-linecap:round; stroke-linejoin:round;">
<path d="M27460 28425
L27480 28425
" />
<path d="M27460 31397
L27460 28425
" />
<path d="M27043 31814
L27460 31397
" />
<path d="M27043 31917
L27043 31814
" />
</g>
<g style="fill:#000000; fill-opacity:1.0; 
stroke:#000000; stroke-width:100.394; stroke-opacity:1; 
stroke-linecap:round; stroke-linejoin:round;">
<path d="M26968 26960
L26968 27047
" />
<path d="M27480 27559
L27480 28425
" />
</g>
<g style="fill:#000000; fill-opacity:1.0; 
stroke:#000000; stroke-width:590.551; stroke-opacity:1; 
stroke-linecap:round; stroke-linejoin:round;">
<path d="M30952 22027
L31610 22027
" />
<path d="M31610 22027
L32712 20925
" />
</g>
<g style="fill:#000000; fill-opacity:1.0; 
stroke:#000000; stroke-width:196.85; stroke-opacity:1; 
stroke-linecap:round; stroke-linejoin:round;">
<path d="M28651 43966
L28651 37309
" />
<path d="M28651 37309
L30043 35917
" />
<path d="M16732 41732
L16732 42066
" />
<path d="M25649 46968
L28651 43966
" />
<path d="M19055 46968
L25649 46968
" />
<path d="M17755 45669
L19055 46968
" />
<path d="M17755 43090
L17755 45669
" />
<path d="M16732 42066
L17755 43090
" />
</g>
<g style="fill:#000000; fill-opacity:1.0; 
stroke:#000000; stroke-width:295.276; stroke-opacity:1; 
stroke-linecap:round; stroke-linejoin:round;">
<path d="M30043 33917
L34586 33917
" />
<path d="M37795 30708
L38507 30708
" />
<path d="M34586 33917
L37795 30708
" />
<path d="M38507 30708
L38507 30086
" />
<path d="M38507 30086
L39763 28830
" />
<path d="M38507 30708
L38507 30905
" />
<path d="M38507 30905
L39641 32039
" />
</g>
<g style="fill:#000000; fill-opacity:1.0; 
stroke:#000000; stroke-width:196.85; stroke-opacity:1; 
stroke-linecap:round; stroke-linejoin:round;">
<path d="M44311 37224
L45846 37224
" />
<path d="M45846 37224
L45885 37185
" />
<path d="M30043 37917
L31460 37917
" />
<path d="M43622 37913
L44311 37224
" />
<path d="M43622 39074
L43622 37913
" />
<path d="M42500 40196
L43622 39074
" />
<path d="M42500 43622
L42500 40196
" />
<path d="M41003 45118
L42500 43622
" />
<path d="M38661 45118
L41003 45118
" />
<path d="M31460 37917
L38661 45118
" />
</g>
<g style="fill:#000000; fill-opacity:1.0; 
stroke:#000000; stroke-width:295.276; stroke-opacity:1; 
stroke-linecap:round; stroke-linejoin:round;">
<path d="M44173 34066
L44173 33688
" />
<path d="M43523 33039
L42641 33039
" />
<path d="M44173 33688
L43523 33039
" />
<path d="M44173 34066
L45188 34066
" />
<path d="M45188 34066
L45866 33389
" />
</g>
<g style="fill:#000000; fill-opacity:1.0; 
stroke:#000000; stroke-width:196.85; stroke-opacity:1; 
stroke-linecap:round; stroke-linejoin:round;">
<path d="M30043 36917
L29578 36917
" />
<path d="M29578 36917
L29202 37293
" />
<path d="M29202 37293
L29202 45088
" />
<path d="M16732 43732
L16732 46043
" />
<path d="M26692 47598
L29202 45088
" />
<path d="M18287 47598
L26692 47598
" />
<path d="M16732 46043
L18287 47598
" />
</g>
<g style="fill:#000000; fill-opacity:1.0; 
stroke:#000000; stroke-width:157.48; stroke-opacity:1; 
stroke-linecap:round; stroke-linejoin:round;">
<path d="M29202 37293
L29202 45088
" />
<path d="M29578 36917
L29202 37293
" />
</g>
<g style="fill:#000000; fill-opacity:1.0; 
stroke:#000000; stroke-width:590.551; stroke-opacity:1; 
stroke-linecap:round; stroke-linejoin:round;">
<path d="M24803 37614
L24803 37795
" />
<path d="M24106 38492
L22834 38492
" />
<path d="M24803 37795
L24106 38492
" />
<path d="M24803 37614
L24803 37401
" />
<path d="M25287 36917
L27043 36917
" />
<path d="M24803 37401
L25287 36917
" />
<path d="M22185 44647
L23683 44647
" />
<path d="M23683 44647
L24043 44287
" />
<path d="M27043 40917
L26535 40917
" />
<path d="M23438 44647
L22185 44647
" />
<path d="M24870 43216
L23438 44647
" />
<path d="M24870 42582
L24870 43216
" />
<path d="M26535 40917
L24870 42582
" />
<path d="M51696 39681
L52051 39681
" />
<path d="M53149 34720
L54799 33070
" />
<path d="M53149 38582
L53149 34720
" />
<path d="M52051 39681
L53149 38582
" />
<path d="M66929 28740
L68897 28740
" />
</g>
<g style="fill:#000000; fill-opacity:1.0; 
stroke:#000000; stroke-width:1181.1; stroke-opacity:1; 
stroke-linecap:round; stroke-linejoin:round;">
<path d="M68897 28740
L69980 28740
" />
<path d="M69980 28740
L71456 30216
" />
<path d="M74377 28740
L74377 28771
" />
<path d="M72933 30216
L71456 30216
" />
<path d="M74377 28771
L72933 30216
" />
<path d="M91535 27574
L91535 28149
" />
<path d="M76346 30708
L74377 28740
" />
<path d="M88976 30708
L76346 30708
" />
<path d="M91535 28149
L88976 30708
" />
</g>
<g style="fill:#000000; fill-opacity:1.0; 
stroke:#000000; stroke-width:787.402; stroke-opacity:1; 
stroke-linecap:round; stroke-linejoin:round;">
<path d="M59444 47677
L51818 47677
" />
<path d="M51818 47677
L51696 47555
" />
</g>
<g style="fill:#000000; fill-opacity:1.0; 
stroke:#000000; stroke-width:590.551; stroke-opacity:1; 
stroke-linecap:round; stroke-linejoin:round;">
<path d="M66929 44488
L68897 44488
" />
</g>
<g style="fill:#000000; fill-opacity:1.0; 
stroke:#000000; stroke-width:1181.1; stroke-opacity:1; 
stroke-linecap:round; stroke-linejoin:round;">
<path d="M68897 44488
L69980 44488
" />
<path d="M69980 44488
L71456 45964
" />
<path d="M73984 44488
L73984 44850
" />
<path d="M76393 47259
L91535 47259
" />
<path d="M73984 44850
L76393 47259
" />
<path d="M71456 45964
L72507 45964
" />
<path d="M72507 45964
L73984 44488
" />
</g>
<g style="fill:#000000; fill-opacity:1.0; 
stroke:#000000; stroke-width:590.551; stroke-opacity:1; 
stroke-linecap:round; stroke-linejoin:round;">
<path d="M51696 43618
L52838 43618
" />
<path d="M54405 42051
L54405 40944
" />
<path d="M52838 43618
L54405 42051
" />
<path d="M66929 36614
L68897 36614
" />
</g>
<g style="fill:#000000; fill-opacity:1.0; 
stroke:#000000; stroke-width:1181.1; stroke-opacity:1; 
stroke-linecap:round; stroke-linejoin:round;">
<path d="M68897 36614
L69980 36614
" />
<path d="M69980 36614
L71456 38090
" />
<path d="M73984 36614
L72933 36614
" />
<path d="M72933 36614
L71456 38090
" />
<path d="M91535 36433
L90732 36433
" />
<path d="M75559 38188
L73984 36614
" />
<path d="M88976 38188
L75559 38188
" />
<path d="M90732 36433
L88976 38188
" />
</g>
<g style="fill:#000000; fill-opacity:1.0; 
stroke:#000000; stroke-width:590.551; stroke-opacity:1; 
stroke-linecap:round; stroke-linejoin:round;">
<path d="M30043 32917
L29521 32917
" />
<path d="M28897 30466
L29990 29374
" />
<path d="M28897 32293
L28897 30466
" />
<path d="M29521 32917
L28897 32293
" />
<path d="M32185 30165
L30781 30165
" />
<path d="M30781 30165
L29990 29374
" />
</g>
<g style="fill:#000000; fill-opacity:1.0; 
stroke:#000000; stroke-width:196.85; stroke-opacity:1; 
stroke-linecap:round; stroke-linejoin:round;">
<path d="M22244 41901
L21850 41901
" />
<path d="M17980 33433
L16732 33433
" />
<path d="M19724 35177
L17980 33433
" />
<path d="M19724 39775
L19724 35177
" />
<path d="M21850 41901
L19724 39775
" />
</g>
<g style="fill:#000000; fill-opacity:1.0; 
stroke:#000000; stroke-width:590.551; stroke-opacity:1; 
stroke-linecap:round; stroke-linejoin:round;">
<path d="M27043 39917
L26381 39917
" />
<path d="M24397 41901
L22244 41901
" />
<path d="M26381 39917
L24397 41901
" />
<path d="M43287 26988
L43448 26988
" />
<path d="M43448 26988
L44389 27929
" />
<path d="M35507 30708
L35507 30240
" />
<path d="M38759 26988
L43287 26988
" />
<path d="M35507 30240
L38759 26988
" />
<path d="M37614 17716
L37614 19196
" />
<path d="M37614 19196
L35885 20925
" />
<path d="M35885 20925
L35712 20925
" />
<path d="M40354 16248
L39082 16248
" />
<path d="M39082 16248
L37614 17716
" />
<path d="M42519 16248
L40354 16248
" />
</g>
<g style="fill:#000000; fill-opacity:1.0; 
stroke:#000000; stroke-width:196.85; stroke-opacity:1; 
stroke-linecap:round; stroke-linejoin:round;">
<path d="M19244 40482
L19244 41084
" />
<path d="M20521 42362
L20521 44391
" />
<path d="M19244 41084
L20521 42362
" />
<path d="M29990 26374
L30035 26374
" />
<path d="M30035 26374
L31177 27515
" />
</g>
<g style="fill:#000000; fill-opacity:1.0; 
stroke:#000000; stroke-width:590.551; stroke-opacity:1; 
stroke-linecap:round; stroke-linejoin:round;">
<path d="M29990 26374
L30263 26374
" />
<path d="M30263 26374
L35712 20925
" />
<path d="M28937 27795
L28937 27427
" />
<path d="M28937 27427
L29990 26374
" />
</g>
<g style="fill:#000000; fill-opacity:1.0; 
stroke:#000000; stroke-width:157.48; stroke-opacity:1; 
stroke-linecap:round; stroke-linejoin:round;">
<path d="M31594 29645
L31535 29645
" />
<path d="M31535 29645
L31177 29287
" />
<path d="M31177 29287
L31177 27515
" />
<path d="M35507 30708
L35374 30708
" />
<path d="M34311 29645
L31594 29645
" />
<path d="M35374 30708
L34311 29645
" />
<path d="M42641 34039
L42110 34039
" />
<path d="M45866 30964
L45866 30389
" />
<path d="M44291 32539
L45866 30964
" />
<path d="M41594 32539
L44291 32539
" />
<path d="M41259 32874
L41594 32539
" />
<path d="M41259 33188
L41259 32874
" />
<path d="M42110 34039
L41259 33188
" />
</g>
<g style="fill:#000000; fill-opacity:1.0; 
stroke:#000000; stroke-width:295.276; stroke-opacity:1; 
stroke-linecap:round; stroke-linejoin:round;">
<path d="M43448 26988
L44389 27929
" />
<path d="M44389 27929
L44389 28913
" />
<path d="M44389 28913
L45866 30389
" />
<path d="M34917 31889
L34917 31299
" />
<path d="M34917 31299
L35507 30708
" />
</g>
<g style="fill:#000000; fill-opacity:1.0; 
stroke:#000000; stroke-width:590.551; stroke-opacity:1; 
stroke-linecap:round; stroke-linejoin:round;">
<path d="M28129 30157
L28937 29350
" />
<path d="M27043 33917
L27519 33917
" />
<path d="M28937 29350
L28937 27795
" />
<path d="M28102 26960
L28937 27795
" />
<path d="M27968 26960
L28102 26960
" />
<path d="M27519 33917
L28129 33307
" />
<path d="M28129 33307
L28129 30157
" />
</g>
<g style="fill:#000000; fill-opacity:1.0; 
stroke:#000000; stroke-width:196.85; stroke-opacity:1; 
stroke-linecap:round; stroke-linejoin:round;">
<path d="M27090 42913
L28181 41822
" />
<path d="M28181 35055
L27043 33917
" />
<path d="M28181 41822
L28181 35055
" />
<path d="M23834 45188
L26141 45188
" />
</g>
<g style="fill:#000000; fill-opacity:1.0; 
stroke:#000000; stroke-width:137.795; stroke-opacity:1; 
stroke-linecap:round; stroke-linejoin:round;">
<path d="M23834 45188
L21318 45188
" />
<path d="M21318 45188
L20521 44391
" />
</g>
<g style="fill:#000000; fill-opacity:1.0; 
stroke:#000000; stroke-width:196.85; stroke-opacity:1; 
stroke-linecap:round; stroke-linejoin:round;">
<path d="M26141 45188
L27090 44240
" />
<path d="M27090 44240
L27090 42913
" />
</g>
<g style="fill:#000000; fill-opacity:1.0; 
stroke:#000000; stroke-width:137.795; stroke-opacity:1; 
stroke-linecap:round; stroke-linejoin:round;">
<path d="M18547 37433
L16732 37433
" />
<path d="M19244 38129
L18547 37433
" />
<path d="M19244 40482
L19244 38129
" />
</g>
<g style="fill:#000000; fill-opacity:1.0; 
stroke:#000000; stroke-width:590.551; stroke-opacity:1; 
stroke-linecap:round; stroke-linejoin:round;">
<path d="M35712 20925
L35885 20925
" />
<path d="M35885 20925
L37614 19196
" />
<path d="M27043 33917
L26062 33917
" />
<path d="M24909 32763
L24909 32480
" />
<path d="M26062 33917
L24909 32763
" />
<path d="M23059 30629
L23059 28606
" />
<path d="M23059 28606
L22956 28503
" />
<path d="M24909 32480
L24909 32055
" />
<path d="M24909 32055
L23484 30629
" />
<path d="M23484 30629
L23059 30629
" />
<path d="M34771 29165
L34657 29165
" />
<path d="M44625 15066
L42944 13385
" />
<path d="M44625 17263
L44625 15066
" />
<path d="M43366 18523
L44625 17263
" />
<path d="M40295 18523
L43366 18523
" />
<path d="M32952 25866
L40295 18523
" />
<path d="M32952 27460
L32952 25866
" />
<path d="M34657 29165
L32952 27460
" />
<path d="M25968 26960
L25968 25106
" />
<path d="M25968 25106
L23228 22366
" />
<path d="M34771 29165
L34850 29165
" />
<path d="M34850 29165
L36653 27362
" />
<path d="M59842 29452
L58637 28248
" />
</g>
<g style="fill:#000000; fill-opacity:1.0; 
stroke:#000000; stroke-width:295.276; stroke-opacity:1; 
stroke-linecap:round; stroke-linejoin:round;">
<path d="M32185 29165
L34771 29165
" />
</g>
<g style="fill:#000000; fill-opacity:1.0; 
stroke:#000000; stroke-width:590.551; stroke-opacity:1; 
stroke-linecap:round; stroke-linejoin:round;">
<path d="M36653 27362
L38326 25688
" />
<path d="M38326 25688
L46240 25688
" />
<path d="M46240 25688
L48799 28248
" />
<path d="M48799 28248
L58637 28248
" />
<path d="M58637 28248
L58736 28346
" />
<path d="M42519 15248
L42519 13811
" />
<path d="M42519 13811
L42944 13385
" />
<path d="M40354 15248
L42519 15248
" />
<path d="M37337 16333
L38423 15248
" />
<path d="M38423 15248
L40354 15248
" />
<path d="M33267 19397
L35917 19397
" />
<path d="M35917 19397
L36614 18700
" />
<path d="M36614 18700
L36614 17716
" />
<path d="M30708 20041
L30992 20041
" />
<path d="M33236 19429
L33267 19397
" />
<path d="M31604 19429
L33236 19429
" />
<path d="M30992 20041
L31604 19429
" />
<path d="M24547 22366
L28962 22366
" />
<path d="M29933 22047
L29952 22027
" />
<path d="M29281 22047
L29933 22047
" />
<path d="M28962 22366
L29281 22047
" />
<path d="M36614 17716
L36614 17057
" />
<path d="M36614 17057
L37337 16333
" />
<path d="M38423 15248
L40354 15248
" />
<path d="M38423 15248
L40354 15248
" />
<path d="M36614 17057
L38423 15248
" />
</g>
<g style="fill:#000000; fill-opacity:1.0; 
stroke:#000000; stroke-width:196.85; stroke-opacity:1; 
stroke-linecap:round; stroke-linejoin:round;">
<path d="M18751 39803
L16803 39803
" />
<path d="M16803 39803
L16732 39732
" />
</g>
<g style="fill:#000000; fill-opacity:1.0; 
stroke:#000000; stroke-width:590.551; stroke-opacity:1; 
stroke-linecap:round; stroke-linejoin:round;">
<path d="M18558 42160
L18558 44916
" />
<path d="M20925 45669
L20925 45647
" />
<path d="M19311 45669
L20925 45669
" />
<path d="M18558 44916
L19311 45669
" />
<path d="M16732 39732
L16732 40334
" />
<path d="M16732 40334
L18558 42160
" />
<path d="M26771 22366
L26322 22366
" />
<path d="M24287 20330
L24287 19700
" />
<path d="M26322 22366
L24287 20330
" />
</g>
<g style="fill:#000000; fill-opacity:1.0; 
stroke:#000000; stroke-width:196.85; stroke-opacity:1; 
stroke-linecap:round; stroke-linejoin:round;">
<path d="M53651 30994
L51368 30994
" />
<path d="M51368 30994
L49074 33287
" />
<path d="M75000 22244
L67677 22244
" />
<path d="M60468 29452
L59842 29452
" />
<path d="M67677 22244
L60468 29452
" />
<path d="M75000 22244
L75000 24472
" />
<path d="M75000 24472
L75192 24665
" />
<path d="M47330 39921
L47330 39283
" />
<path d="M47933 38681
L48696 38681
" />
<path d="M47330 39283
L47933 38681
" />
</g>
<g style="fill:#000000; fill-opacity:1.0; 
stroke:#000000; stroke-width:295.276; stroke-opacity:1; 
stroke-linecap:round; stroke-linejoin:round;">
<path d="M39641 36039
L40417 36039
" />
<path d="M40141 34039
L39641 34039
" />
<path d="M40787 34685
L40141 34039
" />
<path d="M40787 35669
L40787 34685
" />
<path d="M40417 36039
L40787 35669
" />
<path d="M42641 38039
L42291 38039
" />
<path d="M40291 36039
L39641 36039
" />
<path d="M42291 38039
L40291 36039
" />
<path d="M44173 35066
L47295 35066
" />
<path d="M47295 35066
L49074 33287
" />
<path d="M39641 38039
L39051 38039
" />
<path d="M38870 36039
L39641 36039
" />
<path d="M39051 38039
L38586 37574
" />
<path d="M38586 37574
L38586 36322
" />
<path d="M38586 36322
L38870 36039
" />
<path d="M42641 35039
L42070 35039
" />
<path d="M41070 36039
L39641 36039
" />
<path d="M42070 35039
L41070 36039
" />
<path d="M48696 42618
L49437 42618
" />
<path d="M49905 46157
L49507 46555
" />
<path d="M49905 43086
L49905 46157
" />
<path d="M49437 42618
L49905 43086
" />
<path d="M51283 44779
L57251 44779
" />
<path d="M51283 44779
L49507 46555
" />
<path d="M59055 44094
L57937 44094
" />
<path d="M59767 44807
L59055 44094
" />
<path d="M59842 44807
L59767 44807
" />
<path d="M57251 44779
L57937 44094
" />
<path d="M47358 39464
L47358 39263
" />
<path d="M47940 38681
L48696 38681
" />
<path d="M47358 39263
L47940 38681
" />
<path d="M39641 34039
L39940 34039
" />
<path d="M39763 29830
L39763 30511
" />
<path d="M39940 34039
L40484 33496
" />
<path d="M40484 33496
L40484 31232
" />
<path d="M40484 31232
L39763 30511
" />
<path d="M42641 35039
L44145 35039
" />
<path d="M44145 35039
L44173 35066
" />
<path d="M42913 29224
L40370 29224
" />
<path d="M40370 29224
L39763 29830
" />
<path d="M37992 34161
L39519 34161
" />
<path d="M39519 34161
L39641 34039
" />
<path d="M48696 38681
L49114 38681
" />
<path d="M50787 33858
L51574 33070
" />
<path d="M50787 37007
L50787 33858
" />
<path d="M49114 38681
L50787 37007
" />
<path d="M51574 33070
L53651 30994
" />
<path d="M53651 30994
L56299 28346
" />
<path d="M56299 28346
L58736 28346
" />
<path d="M58736 28346
L59842 29452
" />
<path d="M51574 40551
L51181 40551
" />
<path d="M49311 38681
L48696 38681
" />
<path d="M51181 40551
L49311 38681
" />
<path d="M48696 42618
L49507 42618
" />
<path d="M58736 35826
L59842 36933
" />
<path d="M57086 35826
L58736 35826
" />
<path d="M52362 40551
L57086 35826
" />
<path d="M51574 40551
L52362 40551
" />
<path d="M49507 42618
L51574 40551
" />
<path d="M49507 46555
L48696 46555
" />
<path d="M47350 42913
L48401 42913
" />
<path d="M48401 42913
L48696 42618
" />
<path d="M47350 46850
L48401 46850
" />
<path d="M48401 46850
L48696 46555
" />
</g>
<g style="fill:#000000; fill-opacity:1.0; 
stroke:#000000; stroke-width:590.551; stroke-opacity:1; 
stroke-linecap:round; stroke-linejoin:round;">
<path d="M23228 22366
L24547 22366
" />
<path d="M16732 31118
L16618 31118
" />
<path d="M24287 17196
L24287 19700
" />
<path d="M21539 14448
L24287 17196
" />
<path d="M19740 14448
L21539 14448
" />
<path d="M15598 18590
L19740 14448
" />
<path d="M15598 30098
L15598 18590
" />
<path d="M16618 31118
L15598 30098
" />
</g>
<g style="fill:#000000; fill-opacity:1.0; 
stroke:#000000; stroke-width:196.85; stroke-opacity:1; 
stroke-linecap:round; stroke-linejoin:round;">
<path d="M22185 45647
L20925 45647
" />
</g>
<g style="fill:#000000; fill-opacity:1.0; 
stroke:#000000; stroke-width:590.551; stroke-opacity:1; 
stroke-linecap:round; stroke-linejoin:round;">
<path d="M22059 24803
L22059 23535
" />
<path d="M22059 30629
L22059 28248
" />
<path d="M22059 28248
L22059 24803
" />
<path d="M22059 23535
L23228 22366
" />
<path d="M23909 32480
L23909 33207
" />
<path d="M25619 34917
L27043 34917
" />
<path d="M23909 33207
L25619 34917
" />
<path d="M23909 32480
L23543 32480
" />
<path d="M22059 30996
L22059 30629
" />
<path d="M23543 32480
L22059 30996
" />
<path d="M29952 22027
L29952 20797
" />
<path d="M29952 20797
L30708 20041
" />
<path d="M21988 34401
L23909 32480
" />
<path d="M21988 35433
L21988 34401
" />
<path d="M22488 35933
L21988 35433
" />
<path d="M22834 35933
L22488 35933
" />
<path d="M16732 39732
L16503 39732
" />
<path d="M16503 39732
L15551 38779
" />
<path d="M15551 38779
L15551 36614
" />
<path d="M15551 36614
L16732 35433
" />
<path d="M16732 31118
L16732 31299
" />
<path d="M16732 31299
L15551 32480
" />
<path d="M15551 32480
L15551 34251
" />
<path d="M15551 34251
L16732 35433
" />
<path d="M36614 17716
L36614 18700
" />
<path d="M31352 19397
L30708 20041
" />
<path d="M35917 19397
L31352 19397
" />
<path d="M36614 18700
L35917 19397
" />
<path d="M22834 35933
L22834 37492
" />
<path d="M78377 28740
L78377 27921
" />
<path d="M79527 26771
L80212 26771
" />
<path d="M78377 27921
L79527 26771
" />
<path d="M36122 24645
L37952 24645
" />
<path d="M34094 26673
L36122 24645
" />
<path d="M39641 35039
L38385 35039
" />
<path d="M36968 36456
L33976 36456
" />
<path d="M38385 35039
L36968 36456
" />
<path d="M58267 26452
L58263 26452
" />
<path d="M56456 24645
L37952 24645
" />
<path d="M58263 26452
L56456 24645
" />
<path d="M58267 26452
L61417 26452
" />
<path d="M66043 16141
L66503 16141
" />
<path d="M66503 16141
L69291 18929
" />
<path d="M69291 20929
L69291 18929
" />
<path d="M66929 29740
L68055 30866
" />
<path d="M68055 30866
L68897 30866
" />
<path d="M57799 33070
L64370 33070
" />
<path d="M66929 30511
L66929 29740
" />
<path d="M64370 33070
L66929 30511
" />
<path d="M42641 36039
L48448 36039
" />
<path d="M49409 35078
L49409 34015
" />
<path d="M48448 36039
L49409 35078
" />
<path d="M59842 33933
L61417 33933
" />
<path d="M58267 33933
L59842 33933
" />
<path d="M77984 44488
L77984 42881
" />
<path d="M78740 42125
L80665 42125
" />
<path d="M77984 42881
L78740 42125
" />
<path d="M47562 41338
L48417 41338
" />
<path d="M48417 41338
L48696 41618
" />
<path d="M47562 45275
L48417 45275
" />
<path d="M48417 45275
L48696 45555
" />
<path d="M22244 42901
L24078 42901
" />
<path d="M24078 42901
L24090 42913
" />
<path d="M77984 36614
L77984 34614
" />
<path d="M78346 34251
L80314 34251
" />
<path d="M77984 34614
L78346 34251
" />
<path d="M53917 19783
L57972 19783
" />
<path d="M57972 19783
L59842 21653
" />
<path d="M40944 13385
L41141 13385
" />
<path d="M44271 10137
L53917 19783
" />
<path d="M42618 10137
L44271 10137
" />
<path d="M42027 10728
L42618 10137
" />
<path d="M42027 12500
L42027 10728
" />
<path d="M41141 13385
L42027 12500
" />
<path d="M50196 21653
L50196 19881
" />
<path d="M46062 14503
L42944 11385
" />
<path d="M46062 15748
L46062 14503
" />
<path d="M50196 19881
L46062 15748
" />
<path d="M62444 47677
L64740 47677
" />
<path d="M64740 47677
L66929 45488
" />
<path d="M66929 45488
L67771 45488
" />
<path d="M67771 45488
L68897 46614
" />
<path d="M39641 37039
L40149 37039
" />
<path d="M40149 37039
L40775 37665
" />
<path d="M40775 37665
L40775 44484
" />
<path d="M58267 41807
L57696 41807
" />
<path d="M55305 44198
L55263 44198
" />
<path d="M57696 41807
L55305 44198
" />
<path d="M58267 41807
L61417 41807
" />
<path d="M25484 16929
L25484 19972
" />
<path d="M28777 20472
L30708 18541
" />
<path d="M25984 20472
L28777 20472
" />
<path d="M25484 19972
L25984 20472
" />
<path d="M30708 18541
L33124 18541
" />
<path d="M33948 17716
L35614 17716
" />
<path d="M33124 18541
L33948 17716
" />
<path d="M40944 11385
L40779 11385
" />
<path d="M35614 16551
L35614 17716
" />
<path d="M40779 11385
L35614 16551
" />
<path d="M26771 19366
L26771 17216
" />
<path d="M26771 17216
L26484 16929
" />
<path d="M26771 17216
L26484 16929
" />
</g>
<g style="fill:#000000; fill-opacity:1.0; 
stroke:#000000; stroke-width:196.85; stroke-opacity:1; 
stroke-linecap:round; stroke-linejoin:round;">
<path d="M50334 25669
L51574 25669
" />
<path d="M51574 25669
L51771 25472
" />
<path d="M77775 25472
L78192 25055
" />
<path d="M78192 25055
L78192 24665
" />
<path d="M78192 24665
L78192 24326
" />
<path d="M80275 22244
L84645 22244
" />
<path d="M78192 24326
L80275 22244
" />
<path d="M42641 37039
L43590 37039
" />
<path d="M50374 32913
L50354 32893
" />
<path d="M50374 35748
L50374 32913
" />
<path d="M49429 36692
L50374 35748
" />
<path d="M43937 36692
L49429 36692
" />
<path d="M43590 37039
L43937 36692
" />
</g>
<g style="fill:#000000; fill-opacity:1.0; 
stroke:#000000; stroke-width:590.551; stroke-opacity:1; 
stroke-linecap:round; stroke-linejoin:round;">
<path d="M23228 19366
L23228 18082
" />
<path d="M23228 18082
L22281 17135
" />
<path d="M66929 37614
L68055 38740
" />
<path d="M68055 38740
L68897 38740
" />
<path d="M66929 37614
L66322 37614
" />
<path d="M66322 37614
L62992 40944
" />
<path d="M57405 40944
L62992 40944
" />
<path d="M47669 37846
L48531 37846
" />
<path d="M48531 37846
L48696 37681
" />
</g>
<g style="fill:#FFFFFF; fill-opacity:1.0; 
stroke:#FFFFFF; stroke-width:0.023622; stroke-opacity:1; 
stroke-linecap:round; stroke-linejoin:round;">
<circle cx="64566.9" cy="40866.1" r="124.988" /> 
<circle cx="64606.3" cy="34960.6" r="124.988" /> 
<circle cx="64566.9" cy="26378" r="124.988" /> 
<circle cx="64566.9" cy="34252" r="124.988" /> 
<circle cx="45885.8" cy="37185" r="124.988" /> 
<circle cx="34094.5" cy="26673.2" r="124.988" /> 
<circle cx="33976.4" cy="36456.7" r="124.988" /> 
<circle cx="49409.4" cy="34015.7" r="124.988" /> 
<circle cx="40775.6" cy="44484.3" r="124.988" /> 
<circle cx="55263.8" cy="44198.8" r="124.988" /> 
<circle cx="77775.6" cy="25472.4" r="124.988" /> 
<circle cx="51771.7" cy="25472.4" r="124.988" /> 
<circle cx="50334.6" cy="25669.3" r="124.988" /> 
<circle cx="50354.3" cy="32893.7" r="124.988" /> 
<circle cx="22244.1" cy="41901.6" r="196.488" /> 
<circle cx="22244.1" cy="42901.6" r="196.488" /> 
<circle cx="32185" cy="30165.4" r="196.488" /> 
<circle cx="32185" cy="29165.4" r="196.488" /> 
<circle cx="22185" cy="44647.6" r="196.488" /> 
<circle cx="22185" cy="45647.6" r="196.488" /> 
<circle cx="66929.1" cy="27740.2" r="199.988" /> 
<circle cx="66929.1" cy="28740.2" r="199.988" /> 
<circle cx="66929.1" cy="29740.2" r="199.988" /> 
<circle cx="66929.1" cy="35614.2" r="199.988" /> 
<circle cx="66929.1" cy="36614.2" r="199.988" /> 
<circle cx="66929.1" cy="37614.2" r="199.988" /> 
<circle cx="66929.1" cy="43488.2" r="199.988" /> 
<circle cx="66929.1" cy="44488.2" r="199.988" /> 
<circle cx="66929.1" cy="45488.2" r="199.988" /> 
<circle cx="37614.2" cy="17716.5" r="224.988" /> 
<circle cx="35614.2" cy="17716.5" r="224.988" /> 
<circle cx="36614.2" cy="17716.5" r="224.988" /> 
<circle cx="36614.2" cy="11216.5" r="599.988" /> 
<circle cx="71456.7" cy="30216.5" r="108.256" /> 
<circle cx="71456.7" cy="27263.8" r="108.256" /> 
<circle cx="71456.7" cy="45964.6" r="108.256" /> 
<circle cx="71456.7" cy="43011.8" r="108.256" /> 
<circle cx="71456.7" cy="38090.6" r="108.256" /> 
<circle cx="71456.7" cy="35137.8" r="108.256" /> 
<circle cx="66043.3" cy="16141.7" r="108.256" /> 
<circle cx="66043.3" cy="13189" r="108.256" /> 
<circle cx="73665.4" cy="42126" r="147.626" /> 
<circle cx="80665.4" cy="42126" r="147.626" /> 
<circle cx="73212.6" cy="26771.7" r="147.626" /> 
<circle cx="80212.6" cy="26771.7" r="147.626" /> 
<circle cx="73665.4" cy="34252" r="147.626" /> 
<circle cx="80665.4" cy="34252" r="147.626" /> 
<circle cx="27090.6" cy="42913.4" r="159.988" /> 
<circle cx="24090.6" cy="42913.4" r="159.988" /> 
<circle cx="61417.3" cy="26452.8" r="159.988" /> 
<circle cx="61417.3" cy="29452.8" r="159.988" /> 
<circle cx="61417.3" cy="41807.1" r="159.988" /> 
<circle cx="61417.3" cy="44807.1" r="159.988" /> 
<circle cx="58267.7" cy="44807.1" r="159.988" /> 
<circle cx="58267.7" cy="41807.1" r="159.988" /> 
<circle cx="58267.7" cy="29452.8" r="159.988" /> 
<circle cx="58267.7" cy="26452.8" r="159.988" /> 
<circle cx="35712.6" cy="20925.2" r="159.988" /> 
<circle cx="32712.6" cy="20925.2" r="159.988" /> 
<circle cx="47563" cy="41338.6" r="159.988" /> 
<circle cx="44563" cy="41338.6" r="159.988" /> 
<circle cx="57405.5" cy="40944.9" r="159.988" /> 
<circle cx="54405.5" cy="40944.9" r="159.988" /> 
<circle cx="57799.2" cy="33070.9" r="159.988" /> 
<circle cx="54799.2" cy="33070.9" r="159.988" /> 
<circle cx="47669.3" cy="37846.5" r="159.988" /> 
<circle cx="44669.3" cy="37846.5" r="159.988" /> 
<circle cx="78192.9" cy="24665.4" r="159.988" /> 
<circle cx="75192.9" cy="24665.4" r="159.988" /> 
<circle cx="29990.2" cy="26374" r="159.988" /> 
<circle cx="29990.2" cy="29374" r="159.988" /> 
<circle cx="58267.7" cy="36933.1" r="159.988" /> 
<circle cx="58267.7" cy="33933.1" r="159.988" /> 
<circle cx="19956.7" cy="28503.9" r="159.988" /> 
<circle cx="22956.7" cy="28503.9" r="159.988" /> 
<circle cx="27043.3" cy="44287.4" r="159.988" /> 
<circle cx="24043.3" cy="44287.4" r="159.988" /> 
<circle cx="23228.3" cy="22366.1" r="159.988" /> 
<circle cx="23228.3" cy="19366.1" r="159.988" /> 
<circle cx="59444.9" cy="47677.2" r="159.988" /> 
<circle cx="62444.9" cy="47677.2" r="159.988" /> 
<circle cx="47563" cy="45275.6" r="159.988" /> 
<circle cx="44563" cy="45275.6" r="159.988" /> 
<circle cx="61417.3" cy="33933.1" r="159.988" /> 
<circle cx="61417.3" cy="36933.1" r="159.988" /> 
<circle cx="26771.7" cy="19366.1" r="159.988" /> 
<circle cx="26771.7" cy="22366.1" r="159.988" /> 
<circle cx="25968.5" cy="27960.6" r="199.988" /> 
<circle cx="25968.5" cy="26960.6" r="199.988" /> 
<circle cx="26968.5" cy="27960.6" r="199.988" /> 
<circle cx="26968.5" cy="26960.6" r="199.988" /> 
<circle cx="27968.5" cy="27960.6" r="199.988" /> 
<circle cx="27968.5" cy="26960.6" r="199.988" /> 
<circle cx="25484.3" cy="16929.1" r="159.988" /> 
<circle cx="26484.3" cy="16929.1" r="159.988" /> 
<circle cx="21281.5" cy="17135.8" r="159.988" /> 
<circle cx="22281.5" cy="17135.8" r="159.988" /> 
<circle cx="24803.1" cy="37614.2" r="149.988" /> 
<circle cx="24803.1" cy="35614.2" r="149.988" /> 
<circle cx="69291.3" cy="12929.1" r="274.988" /> 
<circle cx="69291.3" cy="14929.1" r="274.988" /> 
<circle cx="69291.3" cy="18929.1" r="274.988" /> 
<circle cx="69291.3" cy="20929.1" r="274.988" /> 
<circle cx="48696.9" cy="41618.1" r="159.988" /> 
<circle cx="48696.9" cy="42618.1" r="159.988" /> 
<circle cx="48696.9" cy="43618.1" r="159.988" /> 
<circle cx="51696.9" cy="43618.1" r="159.988" /> 
<circle cx="51696.9" cy="42618.1" r="159.988" /> 
<circle cx="51696.9" cy="41618.1" r="159.988" /> 
<circle cx="48696.9" cy="37681.1" r="159.988" /> 
<circle cx="48696.9" cy="38681.1" r="159.988" /> 
<circle cx="48696.9" cy="39681.1" r="159.988" /> 
<circle cx="51696.9" cy="39681.1" r="159.988" /> 
<circle cx="51696.9" cy="38681.1" r="159.988" /> 
<circle cx="51696.9" cy="37681.1" r="159.988" /> 
<circle cx="48696.9" cy="45555.1" r="159.988" /> 
<circle cx="48696.9" cy="46555.1" r="159.988" /> 
<circle cx="48696.9" cy="47555.1" r="159.988" /> 
<circle cx="51696.9" cy="47555.1" r="159.988" /> 
<circle cx="51696.9" cy="46555.1" r="159.988" /> 
<circle cx="51696.9" cy="45555.1" r="159.988" /> 
<circle cx="27043.3" cy="31917.3" r="159.988" /> 
<circle cx="27043.3" cy="32917.3" r="159.988" /> 
<circle cx="27043.3" cy="33917.3" r="159.988" /> 
<circle cx="27043.3" cy="34917.3" r="159.988" /> 
<circle cx="27043.3" cy="35917.3" r="159.988" /> 
<circle cx="27043.3" cy="36917.3" r="159.988" /> 
<circle cx="27043.3" cy="37917.3" r="159.988" /> 
<circle cx="27043.3" cy="38917.3" r="159.988" /> 
<circle cx="27043.3" cy="39917.3" r="159.988" /> 
<circle cx="27043.3" cy="40917.3" r="159.988" /> 
<circle cx="30043.3" cy="40917.3" r="159.988" /> 
<circle cx="30043.3" cy="39917.3" r="159.988" /> 
<circle cx="30043.3" cy="38917.3" r="159.988" /> 
<circle cx="30043.3" cy="37917.3" r="159.988" /> 
<circle cx="30043.3" cy="36917.3" r="159.988" /> 
<circle cx="30043.3" cy="35917.3" r="159.988" /> 
<circle cx="30043.3" cy="34917.3" r="159.988" /> 
<circle cx="30043.3" cy="33917.3" r="159.988" /> 
<circle cx="30043.3" cy="32917.3" r="159.988" /> 
<circle cx="30043.3" cy="31917.3" r="159.988" /> 
<circle cx="39641.7" cy="32039.4" r="159.988" /> 
<circle cx="39641.7" cy="33039.4" r="159.988" /> 
<circle cx="39641.7" cy="34039.4" r="159.988" /> 
<circle cx="39641.7" cy="35039.4" r="159.988" /> 
<circle cx="39641.7" cy="36039.4" r="159.988" /> 
<circle cx="39641.7" cy="37039.4" r="159.988" /> 
<circle cx="39641.7" cy="38039.4" r="159.988" /> 
<circle cx="42641.7" cy="38039.4" r="159.988" /> 
<circle cx="42641.7" cy="37039.4" r="159.988" /> 
<circle cx="42641.7" cy="36039.4" r="159.988" /> 
<circle cx="42641.7" cy="35039.4" r="159.988" /> 
<circle cx="42641.7" cy="34039.4" r="159.988" /> 
<circle cx="42641.7" cy="33039.4" r="159.988" /> 
<circle cx="42641.7" cy="32039.4" r="159.988" /> 
<circle cx="40354.3" cy="16248" r="159.988" /> 
<circle cx="40354.3" cy="15248" r="159.988" /> 
<circle cx="23059.1" cy="30629.9" r="159.988" /> 
<circle cx="22059.1" cy="30629.9" r="159.988" /> 
<circle cx="42519.7" cy="16248" r="159.988" /> 
<circle cx="42519.7" cy="15248" r="159.988" /> 
<circle cx="33267.7" cy="18397.6" r="159.988" /> 
<circle cx="33267.7" cy="19397.6" r="159.988" /> 
<circle cx="19752" cy="39803.1" r="159.988" /> 
<circle cx="18752" cy="39803.1" r="159.988" /> 
<circle cx="30952.8" cy="22027.6" r="159.988" /> 
<circle cx="29952.8" cy="22027.6" r="159.988" /> 
<circle cx="22834.6" cy="38492.1" r="159.988" /> 
<circle cx="22834.6" cy="37492.1" r="159.988" /> 
<circle cx="22834.6" cy="34933.1" r="159.988" /> 
<circle cx="22834.6" cy="35933.1" r="159.988" /> 
<circle cx="24909.4" cy="32480.3" r="159.988" /> 
<circle cx="23909.4" cy="32480.3" r="159.988" /> 
<circle cx="16732.3" cy="33433.1" r="299.988" /> 
<circle cx="16732.3" cy="35433.1" r="299.988" /> 
<circle cx="16732.3" cy="37433.1" r="299.988" /> 
<circle cx="16732.3" cy="29118.1" r="299.988" /> 
<circle cx="16732.3" cy="31118.1" r="299.988" /> 
<circle cx="42944.9" cy="13385.8" r="99.9882" /> 
<circle cx="42944.9" cy="11385.8" r="99.9882" /> 
<circle cx="40944.9" cy="11385.8" r="99.9882" /> 
<circle cx="40944.9" cy="13385.8" r="99.9882" /> 
<circle cx="44389.8" cy="27929.1" r="159.988" /> 
<circle cx="44389.8" cy="30929.1" r="159.988" /> 
<circle cx="37992.1" cy="33161.4" r="159.988" /> 
<circle cx="37992.1" cy="34161.4" r="159.988" /> 
<circle cx="39763.8" cy="28830.7" r="159.988" /> 
<circle cx="39763.8" cy="29830.7" r="159.988" /> 
<circle cx="44173.2" cy="34066.9" r="159.988" /> 
<circle cx="44173.2" cy="35066.9" r="159.988" /> 
<circle cx="30708.7" cy="18541.3" r="157.488" /> 
<circle cx="30708.7" cy="20041.3" r="157.488" /> 
<circle cx="77984.3" cy="44488.2" r="157.488" /> 
<circle cx="73984.3" cy="44488.2" r="157.488" /> 
<circle cx="77984.3" cy="36614.2" r="157.488" /> 
<circle cx="73984.3" cy="36614.2" r="157.488" /> 
<circle cx="78378" cy="28740.2" r="157.488" /> 
<circle cx="74378" cy="28740.2" r="157.488" /> 
<circle cx="46330.7" cy="39921.3" r="159.988" /> 
<circle cx="47330.7" cy="39921.3" r="159.988" /> 
<circle cx="46350.4" cy="46850.4" r="159.988" /> 
<circle cx="47350.4" cy="46850.4" r="159.988" /> 
<circle cx="46350.4" cy="42913.4" r="159.988" /> 
<circle cx="47350.4" cy="42913.4" r="159.988" /> 
<circle cx="68897.6" cy="36614.2" r="255.894" /> 
<circle cx="68897.6" cy="34488.2" r="255.894" /> 
<circle cx="68897.6" cy="38740.2" r="255.894" /> 
<circle cx="68897.6" cy="44488.2" r="255.894" /> 
<circle cx="68897.6" cy="42362.2" r="255.894" /> 
<circle cx="68897.6" cy="46614.2" r="255.894" /> 
<circle cx="68897.6" cy="28740.2" r="255.894" /> 
<circle cx="68897.6" cy="26614.2" r="255.894" /> 
<circle cx="68897.6" cy="30866.1" r="255.894" /> 
<circle cx="45866.1" cy="30389.8" r="159.988" /> 
<circle cx="45866.1" cy="33389.8" r="159.988" /> 
<circle cx="35507.9" cy="30708.7" r="159.988" /> 
<circle cx="38507.9" cy="30708.7" r="159.988" /> 
<circle cx="34917.3" cy="31889.8" r="159.988" /> 
<circle cx="37917.3" cy="31889.8" r="159.988" /> 
<circle cx="59842.5" cy="26452.8" r="159.988" /> 
<circle cx="59842.5" cy="29452.8" r="159.988" /> 
<circle cx="59842.5" cy="41807.1" r="159.988" /> 
<circle cx="59842.5" cy="44807.1" r="159.988" /> 
<circle cx="59842.5" cy="33933.1" r="159.988" /> 
<circle cx="59842.5" cy="36933.1" r="159.988" /> 
<circle cx="50196.9" cy="21653.5" r="196.839" /> 
<circle cx="59842.5" cy="21653.5" r="196.839" /> 
<circle cx="51968.5" cy="11614.2" r="196.839" /> 
<circle cx="58169.3" cy="11614.2" r="196.839" /> 
<circle cx="75000" cy="22244.1" r="196.839" /> 
<circle cx="84645.7" cy="22244.1" r="255.894" /> 
<circle cx="76771.7" cy="12204.7" r="255.894" /> 
<circle cx="82972.4" cy="12204.7" r="255.894" /> 
<circle cx="50098.4" cy="19783.5" r="196.839" /> 
<circle cx="53917.3" cy="19783.5" r="196.839" /> 
<circle cx="56122" cy="10649.6" r="196.839" /> 
<circle cx="48248" cy="10649.6" r="196.839" /> 
<circle cx="16732.3" cy="39732.3" r="299.988" /> 
<circle cx="16732.3" cy="41732.3" r="299.988" /> 
<circle cx="16732.3" cy="43732.3" r="299.988" /> 
<circle cx="42913.4" cy="30224.4" r="159.988" /> 
<circle cx="42913.4" cy="29224.4" r="159.988" /> 
<circle cx="91535.4" cy="47259.8" r="299.988" /> 
<circle cx="91535.4" cy="45259.8" r="299.988" /> 
<circle cx="91535.4" cy="27574.8" r="299.988" /> 
<circle cx="91535.4" cy="25574.8" r="299.988" /> 
<circle cx="91535.4" cy="36433.1" r="299.988" /> 
<circle cx="91535.4" cy="34433.1" r="299.988" /> 
</g> 
</svg>
